<?xml version="1.0" encoding="utf-8"?>
<!-- Generator: Adobe Illustrator 27.1.1, SVG Export Plug-In . SVG Version: 6.00 Build 0)  -->
<svg version="1.1" id="Layer_1" xmlns="http://www.w3.org/2000/svg" xmlns:xlink="http://www.w3.org/1999/xlink" x="0px" y="0px"
	 viewBox="0 0 164.8 51.9" style="enable-background:new 0 0 164.8 51.9;" xml:space="preserve">
<style type="text/css">
	.st0{fill:#FF7F25;}
	.st1{enable-background:new    ;}
	.st2{fill:#FFFFFF;stroke:#FFFFFF;stroke-width:2;stroke-miterlimit:10;}
</style>
<g>
	<g id="OBJECTS">
		<g>
			<path class="st0" d="M82.3,0h-71C5.1,0,0,6,0,13.4v25.1c0,7.4,5.1,13.4,11.3,13.4h142.1c6.2,0,11.3-6,11.3-13.4V13.4
				C164.7,6,159.6,0,153.4,0C153.4,0,82.3,0,82.3,0z"/>
			<g class="st1">
				<path class="st2" d="M16.8,41V14h3.8v27H16.8z M19,41v-3.5h7.3c2,0,3.4-0.4,4.3-1.1c0.8-0.8,1.3-1.8,1.3-3v-0.1
					c0-1.3-0.4-2.4-1.1-3.2s-1.9-1.2-3.5-1.2H19v-3.4h8.2c1.4,0,2.4-0.3,3.2-1c0.7-0.7,1.1-1.6,1.1-2.9s-0.4-2.4-1.2-3
					c-0.8-0.7-2-1-3.6-1H19v-3.5h8.4c2.7,0,4.6,0.7,5.9,2s1.9,3.1,1.9,5.3c0,1.3-0.4,2.6-1.2,3.7c-0.8,1.1-2,1.8-3.7,2.1
					c1.7,0.2,3,1,3.9,2.2s1.4,2.6,1.4,4.2v0.1c0,2.2-0.7,4-2.1,5.3c-1.4,1.3-3.3,2-5.8,2H19z"/>
				<path class="st2" d="M49.6,41.3c-1.9,0-3.6-0.4-5-1.2s-2.5-2-3.3-3.5s-1.2-3.2-1.2-5.2v-7.7c0-2,0.4-3.7,1.2-5.2
					s1.9-2.6,3.3-3.5c1.4-0.8,3.1-1.2,5-1.2s3.6,0.4,5,1.2c1.4,0.8,2.5,2,3.3,3.5s1.2,3.2,1.2,5.2v7.6c0,2-0.4,3.7-1.2,5.2
					S56,39.2,54.6,40C53.2,40.9,51.6,41.3,49.6,41.3z M49.6,37.5c1.7,0,3-0.6,4.1-1.7c1-1.1,1.5-2.6,1.5-4.4v-7.9
					c0-1.8-0.5-3.3-1.5-4.4s-2.4-1.7-4.1-1.7c-1.7,0-3,0.6-4.1,1.7c-1,1.1-1.5,2.6-1.5,4.4v7.9c0,1.8,0.5,3.3,1.5,4.4
					C46.6,37,48,37.5,49.6,37.5z"/>
				<path class="st2" d="M73.4,41.3c-1.9,0-3.6-0.4-5-1.2s-2.5-2-3.3-3.5s-1.2-3.2-1.2-5.2v-7.7c0-2,0.4-3.7,1.2-5.2
					s1.9-2.6,3.3-3.5c1.4-0.8,3.1-1.2,5-1.2s3.6,0.4,5,1.2c1.4,0.8,2.5,2,3.3,3.5s1.2,3.2,1.2,5.2v7.6c0,2-0.4,3.7-1.2,5.2
					c-0.8,1.5-1.9,2.7-3.3,3.5C77,40.9,75.3,41.3,73.4,41.3z M73.4,37.5c1.7,0,3-0.6,4.1-1.7c1-1.1,1.5-2.6,1.5-4.4v-7.9
					c0-1.8-0.5-3.3-1.5-4.4s-2.4-1.7-4.1-1.7s-3,0.6-4.1,1.7c-1,1.1-1.5,2.6-1.5,4.4v7.9c0,1.8,0.5,3.3,1.5,4.4
					C70.4,37,71.7,37.5,73.4,37.5z"/>
				<path class="st2" d="M88.6,41V14h3.8v27H88.6z M91,34.8l0.6-5.7L103.5,14h4.7L91,34.8z M104.6,40.9L96,26.6l3-2.8l10.2,17.1
					H104.6L104.6,40.9z"/>
				<path class="st2" d="M113.4,41V14h3.8v27H113.4z M115.2,17.6V14h15.5v3.6H115.2z M115.2,29.4v-3.6h13.4v3.6H115.2z M115.2,41
					v-3.6h15.5V41H115.2z"/>
				<path class="st2" d="M136,41V14h3.8v27H136z M138.6,41v-3.6h6.1c2,0,3.5-0.5,4.6-1.5s1.6-2.5,1.6-4.4v-7.9
					c0-1.9-0.5-3.3-1.6-4.4c-1.1-1-2.6-1.5-4.6-1.5h-6.1v-3.6h6c3.3,0,5.8,0.8,7.6,2.5s2.7,4.1,2.7,7.1v7.6c0,2-0.4,3.8-1.2,5.2
					s-2,2.5-3.5,3.3s-3.4,1.1-5.6,1.1h-6V41z"/>
			</g>
		</g>
	</g>
</g>
</svg>
