<?xml version="1.0" encoding="UTF-8"?>
<svg id="Layer_1" data-name="Layer 1" xmlns="http://www.w3.org/2000/svg" viewBox="0 0 120 120">
  <defs>
    <style>
      .cls-1 {
        fill: #d8ecfe;
      }

      .cls-2 {
        fill: #d8ffe2;
      }

      .cls-3 {
        fill: #c47206;
      }

      .cls-4 {
        fill: #dd9502;
      }

      .cls-5 {
        fill: #eaf6ff;
      }

      .cls-6 {
        fill: #7a6d79;
      }

      .cls-7 {
        fill: #ff5e67;
      }

      .cls-8 {
        fill: #38f066;
      }

      .cls-9 {
        fill: #fed2a4;
      }

      .cls-10 {
        fill: #ffe177;
      }

      .cls-11 {
        fill: #685e68;
      }

      .cls-12 {
        fill: #ffc3c6;
      }
    </style>
  </defs>
  <g>
    <path class="cls-7" d="m87.97,70.42h-5.08l-.68-6.31h6.95c.82,0,1.42.77,1.22,1.57l-.89,3.55c-.18.7-.81,1.2-1.53,1.2Z"/>
    <path class="cls-7" d="m32.03,70.42h5.08l.68-6.31h-6.95c-.82,0-1.42.77-1.23,1.57l.89,3.55c.18.7.81,1.2,1.53,1.2Z"/>
    <path class="cls-12" d="m89.04,84.62H30.96v-11.36c0-1.57,1.27-2.84,2.84-2.84h52.4c1.57,0,2.84,1.27,2.84,2.84v11.36Z"/>
    <path class="cls-5" d="m90.3,89.36H29.69c-.7,0-1.26-.57-1.26-1.26v-2.21c0-.7.57-1.26,1.26-1.26h60.61c.7,0,1.26.57,1.26,1.26v2.21c0,.7-.57,1.26-1.26,1.26Z"/>
    <path class="cls-1" d="m90.3,84.62h-4.74c.7,0,1.26.57,1.26,1.26v2.21c0,.7-.57,1.26-1.26,1.26h4.74c.7,0,1.26-.57,1.26-1.26v-2.21c0-.7-.57-1.26-1.26-1.26Z"/>
    <path class="cls-7" d="m86.2,70.42h-4.74c1.57,0,2.84,1.27,2.84,2.84v11.36h4.74v-11.36c0-1.57-1.27-2.84-2.84-2.84Z"/>
    <path class="cls-12" d="m84.46,70.42h-48.93l2.46-15.97c.4-2.62,2.66-4.55,5.3-4.55h33.41c2.65,0,4.9,1.93,5.3,4.55l2.46,15.97Z"/>
    <path class="cls-7" d="m82.01,54.45c-.4-2.62-2.66-4.55-5.3-4.55h-4.74c2.65,0,4.9,1.93,5.3,4.55l2.46,15.97h4.74l-2.46-15.97Z"/>
    <path class="cls-5" d="m40.33,70.42l2.3-14.98c.07-.46.47-.8.94-.8h32.87c.47,0,.87.34.94.8l2.3,14.98h-39.35Z"/>
    <path class="cls-1" d="m77.37,55.44c-.07-.46-.47-.8-.94-.8h-4.74c.47,0,.87.34.94.8l2.3,14.98h4.74l-2.3-14.98Z"/>
    <path class="cls-10" d="m81.94,75.15h-2.84c-1.31,0-2.37,1.06-2.37,2.37s1.06,2.37,2.37,2.37h2.84c1.31,0,2.37-1.06,2.37-2.37s-1.06-2.37-2.37-2.37Z"/>
    <path class="cls-10" d="m38.06,75.15h2.84c1.31,0,2.37,1.06,2.37,2.37s-1.06,2.37-2.37,2.37h-2.84c-1.31,0-2.37-1.06-2.37-2.37s1.06-2.37,2.37-2.37Z"/>
    <path class="cls-6" d="m84.94,98.83h-9.15c-1.39,0-2.53-1.13-2.53-2.53v-6.94h14.21v6.94c0,1.39-1.13,2.53-2.53,2.53Z"/>
    <rect class="cls-11" x="73.26" y="89.36" width="14.21" height="4.74"/>
    <path class="cls-6" d="m35.06,98.83h9.15c1.39,0,2.53-1.13,2.53-2.53v-6.94h-14.21v6.94c0,1.39,1.13,2.53,2.53,2.53Z"/>
    <rect class="cls-11" x="32.54" y="89.36" width="14.21" height="4.74"/>
  </g>
  <g>
    <circle class="cls-5" cx="60" cy="32.22" r="11.05"/>
    <path class="cls-1" d="m65.89,22.87c1.08,1.71,1.7,3.72,1.7,5.89,0,6.1-4.95,11.05-11.05,11.05-2.17,0-4.19-.63-5.89-1.7,1.96,3.1,5.41,5.16,9.35,5.16,6.1,0,11.05-4.95,11.05-11.05,0-3.94-2.06-7.39-5.16-9.35Z"/>
    <circle class="cls-9" cx="60" cy="29.7" r="3.79"/>
    <path class="cls-4" d="m60,43.27c3.3,0,6.25-1.44,8.28-3.73-1.11-3.51-4.4-6.05-8.28-6.05s-7.16,2.54-8.28,6.05c2.02,2.29,4.98,3.73,8.28,3.73Z"/>
    <path class="cls-3" d="m65.4,35.37c-2.01,2.7-5.23,4.44-8.86,4.44-1.63,0-3.17-.35-4.56-.99-.1.23-.18.47-.26.71,2.02,2.29,4.98,3.73,8.28,3.73s6.25-1.44,8.28-3.73c-.53-1.66-1.54-3.11-2.87-4.17Z"/>
  </g>
  <g>
    <circle class="cls-5" cx="87.15" cy="36.8" r="11.05"/>
    <path class="cls-1" d="m93.04,27.45c1.08,1.71,1.7,3.72,1.7,5.89,0,6.1-4.95,11.05-11.05,11.05-2.17,0-4.19-.63-5.89-1.7,1.96,3.1,5.41,5.16,9.35,5.16,6.1,0,11.05-4.95,11.05-11.05,0-3.94-2.06-7.39-5.16-9.35Z"/>
    <circle class="cls-9" cx="87.15" cy="34.27" r="3.79"/>
    <path class="cls-2" d="m87.15,47.85c3.3,0,6.25-1.44,8.28-3.73-1.11-3.51-4.4-6.05-8.28-6.05s-7.16,2.54-8.28,6.05c2.02,2.29,4.98,3.73,8.28,3.73Z"/>
    <path class="cls-8" d="m92.55,39.95c-2.01,2.7-5.23,4.44-8.86,4.44-1.63,0-3.17-.35-4.56-.99-.1.23-.18.47-.26.71,2.02,2.29,4.98,3.73,8.28,3.73s6.25-1.44,8.28-3.73c-.53-1.66-1.54-3.11-2.87-4.17Z"/>
  </g>
  <g>
    <circle class="cls-5" cx="32.85" cy="36.8" r="11.05"/>
    <path class="cls-1" d="m38.74,27.45c1.08,1.71,1.7,3.72,1.7,5.89,0,6.1-4.95,11.05-11.05,11.05-2.17,0-4.19-.63-5.89-1.7,1.96,3.1,5.41,5.16,9.35,5.16,6.1,0,11.05-4.95,11.05-11.05,0-3.94-2.06-7.39-5.16-9.35Z"/>
    <circle class="cls-9" cx="32.85" cy="34.27" r="3.79"/>
    <path class="cls-12" d="m32.85,47.85c3.29,0,6.25-1.44,8.28-3.73-1.11-3.51-4.4-6.05-8.28-6.05s-7.16,2.54-8.28,6.05c2.02,2.29,4.98,3.73,8.28,3.73Z"/>
    <path class="cls-7" d="m38.25,39.95c-2.01,2.7-5.23,4.44-8.86,4.44-1.63,0-3.17-.35-4.56-.99-.1.23-.18.47-.26.71,2.02,2.29,4.98,3.73,8.28,3.73s6.25-1.44,8.28-3.73c-.53-1.66-1.54-3.11-2.87-4.17Z"/>
  </g>
  <path d="m87.97,71.59h-3.5c-.65,0-1.17-.52-1.17-1.17s.52-1.17,1.17-1.17h3.5c.19,0,.35-.13.39-.31l.89-3.55s.01-.04-.02-.08c-.03-.03-.06-.03-.07-.03h-5.6c-.65,0-1.17-.52-1.17-1.17s.52-1.17,1.17-1.17h5.6c.76,0,1.46.34,1.92.94.46.6.62,1.36.44,2.09l-.89,3.55c-.31,1.23-1.4,2.08-2.67,2.08Z"/>
  <path d="m79.67,71.59c-.57,0-1.07-.41-1.16-.99l-2.28-14.79h-23.46c-.65,0-1.17-.52-1.17-1.17s.52-1.17,1.17-1.17h23.65c1.04,0,1.94.77,2.09,1.8l2.3,14.98c.1.64-.34,1.24-.98,1.34-.06,0-.12.01-.18.01Zm-3.24-15.78h0,0Z"/>
  <path d="m40.33,71.59c-.06,0-.12,0-.18-.01-.64-.1-1.08-.7-.98-1.34l2.3-14.98c.16-1.02,1.06-1.8,2.09-1.8h3.74c.65,0,1.17.52,1.17,1.17s-.52,1.17-1.17,1.17h-3.55l-2.28,14.79c-.09.58-.59.99-1.16.99Z"/>
  <path d="m67.89,76.32h-15.78c-.65,0-1.17-.52-1.17-1.17s.52-1.17,1.17-1.17h15.78c.65,0,1.17.52,1.17,1.17s-.52,1.17-1.17,1.17Z"/>
  <path d="m67.89,81.06h-15.78c-.65,0-1.17-.52-1.17-1.17s.52-1.17,1.17-1.17h15.78c.65,0,1.17.52,1.17,1.17s-.52,1.17-1.17,1.17Z"/>
  <path d="m81.94,81.06h-2.84c-1.95,0-3.54-1.59-3.54-3.54s1.59-3.54,3.54-3.54h2.84c1.95,0,3.54,1.59,3.54,3.54s-1.59,3.54-3.54,3.54Zm-2.84-4.74c-.66,0-1.2.54-1.2,1.2s.54,1.2,1.2,1.2h2.84c.66,0,1.2-.54,1.2-1.2s-.54-1.2-1.2-1.2h-2.84Z"/>
  <path d="m40.9,81.06h-2.84c-1.95,0-3.54-1.59-3.54-3.54s1.59-3.54,3.54-3.54h2.84c1.95,0,3.54,1.59,3.54,3.54s-1.59,3.54-3.54,3.54Zm-2.84-4.74c-.66,0-1.2.54-1.2,1.2s.54,1.2,1.2,1.2h2.84c.66,0,1.2-.54,1.2-1.2s-.54-1.2-1.2-1.2h-2.84Z"/>
  <path d="m84.46,71.59c-.57,0-1.07-.41-1.16-.99l-2.46-15.97c-.32-2.06-2.06-3.56-4.15-3.56h-33.41c-2.09,0-3.83,1.5-4.15,3.56l-2.46,15.97c-.1.64-.7,1.08-1.34.98-.64-.1-1.08-.7-.98-1.34l2.46-15.97c.49-3.21,3.21-5.54,6.46-5.54h33.41c3.25,0,5.97,2.33,6.46,5.54l2.46,15.97c.1.64-.34,1.24-.98,1.34-.06,0-.12.01-.18.01Z"/>
  <path d="m89.04,85.79c-.65,0-1.17-.52-1.17-1.17v-11.36c0-.92-.75-1.67-1.67-1.67h-52.4c-.92,0-1.67.75-1.67,1.67v11.36c0,.65-.52,1.17-1.17,1.17s-1.17-.52-1.17-1.17v-11.36c0-2.21,1.8-4.01,4.01-4.01h52.4c2.21,0,4.01,1.8,4.01,4.01v11.36c0,.65-.52,1.17-1.17,1.17Z"/>
  <path d="m90.3,90.53h-20.1c-.65,0-1.17-.52-1.17-1.17s.52-1.17,1.17-1.17h20.1c.05,0,.09-.04.09-.09v-2.21c0-.05-.04-.09-.09-.09H29.7c-.05,0-.09.04-.09.09v2.21c0,.05.04.09.09.09h35.04c.65,0,1.17.52,1.17,1.17s-.52,1.17-1.17,1.17H29.7c-1.34,0-2.43-1.09-2.43-2.43v-2.21c0-1.34,1.09-2.43,2.43-2.43h60.61c1.34,0,2.43,1.09,2.43,2.43v2.21c0,1.34-1.09,2.43-2.43,2.43Z"/>
  <path d="m84.94,100h-9.15c-2.04,0-3.7-1.66-3.7-3.7v-6.94c0-.65.52-1.17,1.17-1.17s1.17.52,1.17,1.17v6.94c0,.75.61,1.35,1.35,1.35h9.15c.75,0,1.35-.61,1.35-1.35v-6.94c0-.65.52-1.17,1.17-1.17s1.17.52,1.17,1.17v6.94c0,2.04-1.66,3.7-3.7,3.7Z"/>
  <path d="m44.22,100h-9.15c-2.04,0-3.7-1.66-3.7-3.7v-6.94c0-.65.52-1.17,1.17-1.17s1.17.52,1.17,1.17v6.94c0,.75.61,1.35,1.35,1.35h9.15c.75,0,1.35-.61,1.35-1.35v-6.94c0-.65.52-1.17,1.17-1.17s1.17.52,1.17,1.17v6.94c0,2.04-1.66,3.7-3.7,3.7Z"/>
  <path d="m35.54,71.59h-3.5c-1.26,0-2.36-.86-2.67-2.08l-.89-3.55c-.18-.73-.02-1.49.44-2.09.46-.6,1.16-.94,1.92-.94h5.6c.65,0,1.17.52,1.17,1.17s-.52,1.17-1.17,1.17h-5.6s-.05,0-.07.03c-.03.03-.02.06-.02.08l.89,3.55c.05.18.21.31.39.31h3.5c.65,0,1.17.52,1.17,1.17s-.52,1.17-1.17,1.17Z"/>
  <path d="m60,44.44c-6.74,0-12.22-5.48-12.22-12.22s5.48-12.22,12.22-12.22,12.22,5.48,12.22,12.22-5.48,12.22-12.22,12.22Zm0-22.1c-5.45,0-9.88,4.43-9.88,9.88s4.43,9.88,9.88,9.88,9.88-4.43,9.88-9.88-4.43-9.88-9.88-9.88Z"/>
  <path d="m60,34.66c-2.73,0-4.96-2.23-4.96-4.96s2.23-4.96,4.96-4.96,4.96,2.23,4.96,4.96-2.23,4.96-4.96,4.96Zm0-7.58c-1.44,0-2.62,1.17-2.62,2.62s1.17,2.62,2.62,2.62,2.62-1.17,2.62-2.62-1.17-2.62-2.62-2.62Z"/>
  <path d="m68.27,40.71c-.5,0-.96-.32-1.12-.82-.99-3.13-3.87-5.24-7.16-5.24s-6.17,2.1-7.16,5.24c-.2.62-.85.96-1.47.76-.62-.2-.96-.85-.76-1.47,1.3-4.11,5.08-6.87,9.39-6.87s8.09,2.76,9.39,6.87c.2.62-.15,1.28-.76,1.47-.12.04-.24.06-.35.06Z"/>
  <path d="m87.15,49.02c-6.74,0-12.22-5.48-12.22-12.22,0-2.39.69-4.7,1.99-6.68.35-.54,1.08-.69,1.62-.34.54.35.69,1.08.34,1.62-1.05,1.6-1.61,3.47-1.61,5.4,0,5.45,4.43,9.88,9.88,9.88s9.88-4.43,9.88-9.88-4.43-9.88-9.88-9.88c-1.64,0-3.27.41-4.7,1.19-.57.31-1.28.1-1.59-.47s-.1-1.28.47-1.59c1.77-.96,3.78-1.47,5.82-1.47,6.74,0,12.22,5.48,12.22,12.22s-5.48,12.22-12.22,12.22Z"/>
  <path d="m87.15,39.23c-2.73,0-4.96-2.23-4.96-4.96s2.23-4.96,4.96-4.96,4.96,2.23,4.96,4.96-2.23,4.96-4.96,4.96Zm0-7.58c-1.44,0-2.62,1.17-2.62,2.62s1.17,2.62,2.62,2.62,2.62-1.17,2.62-2.62-1.17-2.62-2.62-2.62Z"/>
  <path d="m95.42,45.29c-.5,0-.96-.32-1.12-.82-.99-3.13-3.87-5.24-7.16-5.24s-6.17,2.1-7.16,5.24c-.2.62-.85.96-1.47.76-.62-.2-.96-.85-.76-1.47,1.3-4.11,5.08-6.87,9.39-6.87s8.09,2.76,9.39,6.87c.2.62-.15,1.28-.76,1.47-.12.04-.24.06-.35.06Z"/>
  <path d="m32.85,49.02c-6.74,0-12.22-5.48-12.22-12.22s5.48-12.22,12.22-12.22,12.22,5.48,12.22,12.22-5.48,12.22-12.22,12.22Zm0-22.1c-5.45,0-9.88,4.43-9.88,9.88s4.43,9.88,9.88,9.88,9.88-4.43,9.88-9.88-4.43-9.88-9.88-9.88Z"/>
  <path d="m32.85,39.23c-2.73,0-4.96-2.23-4.96-4.96s2.23-4.96,4.96-4.96,4.96,2.23,4.96,4.96-2.23,4.96-4.96,4.96Zm0-7.58c-1.44,0-2.62,1.17-2.62,2.62s1.17,2.62,2.62,2.62,2.62-1.17,2.62-2.62-1.17-2.62-2.62-2.62Z"/>
  <path d="m41.13,45.29c-.5,0-.96-.32-1.12-.82-.99-3.13-3.87-5.24-7.16-5.24s-6.17,2.1-7.16,5.24c-.2.62-.85.96-1.47.76-.62-.2-.96-.85-.76-1.47,1.3-4.11,5.08-6.87,9.39-6.87s8.09,2.76,9.39,6.87c.2.62-.15,1.28-.76,1.47-.12.04-.24.06-.35.06Z"/>
</svg>