<?xml version="1.0" encoding="UTF-8"?>
<svg id="Layer_1" data-name="Layer 1" xmlns="http://www.w3.org/2000/svg" viewBox="0 0 120 120">
  <defs>
    <style>
      .cls-1 {
        fill: #fac006;
      }

      .cls-2 {
        fill: #9ac864;
      }

      .cls-3 {
        fill: #7fa740;
      }

      .cls-4 {
        fill: #6c8937;
      }

      .cls-5 {
        fill: #f7f7f7;
      }

      .cls-6 {
        fill: #fdc501;
      }
    </style>
  </defs>
  <path class="cls-4" d="m77.71,72.99v1.52c0,.84-.67,1.52-1.5,1.52h-42.03c-.83,0-1.5-.68-1.5-1.52v-1.52c0-.84.67-1.52,1.5-1.52h42.03c.83,0,1.5.68,1.5,1.52Zm5.83-27.55h-1.49c-.83,0-1.5.68-1.5,1.52v6.07c0,.84.67,1.52,1.5,1.52h1.49c.83,0,1.5-.68,1.5-1.52v-6.07c0-.84-.67-1.52-1.5-1.52Z"/>
  <path class="cls-1" d="m71.03,24.21v71.59H30.4V24.21c0-1.68,1.34-3.03,3-3.03h34.64c1.66,0,3,1.36,3,3.03Zm14,7.58h-6.35v13.65c0,1.68,1.34,3.03,3,3.03h3.35c1.66,0,3-1.36,3-3.03v-10.62c0-1.68-1.34-3.03-3-3.03Z"/>
  <path class="cls-6" d="m71.03,24.21v71.59h-4.37V24.21c0-1.68-1.34-3.03-3-3.03h4.37c1.66,0,3,1.36,3,3.03Zm15.51,15.17c-1.66,0-3,1.36-3,3.03v6.07h1.49c1.66,0,3-1.36,3-3.03v-6.07s-1.49,0-1.49,0Z"/>
  <path class="cls-4" d="m73.41,96.05v1.6c0,.89-.68,1.6-1.52,1.6H29.31c-.84,0-1.52-.72-1.52-1.6v-1.6c0-.89.68-1.6,1.52-1.6h42.58c.84,0,1.52.72,1.52,1.6Z"/>
  <path class="cls-5" d="m63.36,40.89h-25.29c-.86,0-1.56-.7-1.56-1.56v-7.49c0-.86.7-1.56,1.56-1.56h25.29c.86,0,1.56.7,1.56,1.56v7.49c0,.86-.7,1.56-1.56,1.56Z"/>
  <path class="cls-3" d="m63.43,61.37c0,7.12-5.69,12.89-12.71,12.89s-12.71-5.77-12.71-12.89,5.69-12.89,12.71-12.89,12.71,5.77,12.71,12.89Z"/>
  <path class="cls-2" d="m55.86,59.41c2.1,2.66,1.89,6.49-.49,8.9h0c-2.57,2.61-6.75,2.61-9.32,0h0c-2.37-2.41-2.58-6.24-.49-8.9l5.15-6.52,5.15,6.52Z"/>
  <path d="m37.82,42.06c-1.48,0-2.68-1.21-2.68-2.69v-7.58c0-1.48,1.2-2.69,2.68-2.69h18.26c.65,0,1.17.52,1.17,1.17s-.52,1.17-1.17,1.17h-18.26c-.18,0-.34.15-.34.34v7.58c0,.19.15.34.34.34h25.56c.18,0,.34-.15.34-.34v-7.58c0-.19-.15-.34-.34-.34h-3.03c-.65,0-1.17-.52-1.17-1.17s.52-1.17,1.17-1.17h3.03c1.48,0,2.68,1.21,2.68,2.69v7.58c0,1.48-1.2,2.69-2.68,2.69h-25.56Zm18.79,43.16h-12.03c-.65,0-1.17.52-1.17,1.17s.52,1.17,1.17,1.17h12.03c.65,0,1.17-.52,1.17-1.17s-.52-1.17-1.17-1.17Zm-14.78-51.16v3.03c0,.65.52,1.17,1.17,1.17s1.17-.52,1.17-1.17v-3.03c0-.65-.52-1.17-1.17-1.17s-1.17.52-1.17,1.17Zm14.78,46.6h-12.03c-.65,0-1.17.52-1.17,1.17s.52,1.17,1.17,1.17h12.03c.65,0,1.17-.52,1.17-1.17s-.52-1.17-1.17-1.17Zm-17.79-46.6v3.03c0,.65.52,1.17,1.17,1.17s1.17-.52,1.17-1.17v-3.03c0-.65-.52-1.17-1.17-1.17s-1.17.52-1.17,1.17Zm54.38,44.44v10.92c0,3.16-2.55,5.72-5.68,5.72s-5.68-2.57-5.68-5.72v-14.3h-2.99c-.28,1.19-1.34,2.07-2.6,2.07h-4.04v15.95c1.25.22,2.2,1.33,2.2,2.65v1.52c0,1.48-1.2,2.69-2.68,2.69H29.47c-1.48,0-2.68-1.21-2.68-2.69v-1.52c0-1.32.95-2.42,2.2-2.65V24.21c0-2.32,1.88-4.21,4.19-4.21h34.83c2.31,0,4.19,1.89,4.19,4.21v46.1h4.04c1.4,0,2.56,1.09,2.67,2.48h2.93v-17.08c-1.35-.14-2.41-1.28-2.41-2.67v-4.12c-1.13-.77-1.88-2.08-1.88-3.55v-18c0-1.41.69-2.71,1.86-3.5l3.17-2.13c.54-.36,1.27-.22,1.63.32.36.54.22,1.27-.32,1.63l-3.17,2.13c-.51.35-.82.93-.82,1.55v3.27h5.1c2.37,0,4.3,1.93,4.3,4.3v10.43c0,1.92-1.27,3.55-3.01,4.1v3.58c0,1.28-.9,2.36-2.1,2.63v17.13h3.34c3.12,0,5.65,2.54,5.68,5.67,0,.02,0,.04,0,.05Zm-21.14,17.29c0-.19-.15-.34-.33-.34h-30.82c-.65,0-1.17-.52-1.17-1.17s.52-1.17,1.17-1.17h28.95V24.21c0-1.03-.83-1.86-1.84-1.86h-34.83c-1.02,0-1.84.84-1.84,1.86v68.9h5.09c.65,0,1.17.52,1.17,1.17s-.52,1.17-1.17,1.17h-6.96c-.18,0-.33.15-.33.34v1.52c0,.19.15.34.33.34h42.26c.18,0,.33-.15.33-.34v-1.52h0Zm4.51-22.8c0-.19-.15-.34-.33-.34h-4.04v2.21h4.04c.18,0,.33-.15.33-.34v-1.52Zm10.38-32.45h-.32c-1.02,0-1.84.84-1.84,1.86v4.9h.21c1.08,0,1.95-.88,1.95-1.95v-4.8h0Zm-5.1,6.76h.59v-4.9c0-2.32,1.88-4.21,4.19-4.21h.32v-3.29c0-1.08-.88-1.95-1.95-1.95h-5.1v12.39c0,1.08.88,1.95,1.95,1.95Zm2.09,2.34h-2.09s-.05,0-.07,0v3.38c0,.19.15.34.34.34h1.5c.18,0,.34-.15.34-.34v-3.38h0Zm6.92,28.91s0-.03,0-.05c0-1.86-1.5-3.38-3.34-3.38h-3.34v14.3c0,1.86,1.5,3.38,3.34,3.38s3.34-1.52,3.34-3.38v-10.87h0Zm-54.21-17.19c0-7.75,6.26-14.06,13.95-14.06s13.95,6.31,13.95,14.06-6.26,14.06-13.95,14.06-13.95-6.31-13.95-14.06Zm15.13-1.65v9.25c1.01-.22,1.93-.73,2.68-1.48,1.97-1.99,2.15-5.15.4-7.35l-4.25-5.36-4.25,5.36c-1.74,2.2-1.57,5.36.4,7.35.75.75,1.67,1.26,2.68,1.48v-9.25c0-.65.52-1.17,1.17-1.17s1.17.52,1.17,1.17Zm-12.78,1.65c0,6.06,4.58,11.07,10.44,11.66v-1.67c-1.64-.25-3.15-1.01-4.34-2.22-2.81-2.83-3.05-7.33-.57-10.45l5.17-6.52c.22-.28.56-.44.92-.44s.7.16.92.44l5.17,6.52c2.48,3.13,2.23,7.62-.57,10.45-1.19,1.2-2.71,1.97-4.34,2.22v1.67c5.85-.59,10.44-5.6,10.44-11.66,0-6.46-5.21-11.72-11.61-11.72-6.4,0-11.61,5.26-11.61,11.72Z"/>
</svg>