<?xml version="1.0" encoding="UTF-8"?>
<svg id="Layer_1" data-name="Layer 1" xmlns="http://www.w3.org/2000/svg" viewBox="0 0 120 120">
  <defs>
    <style>
      .cls-1 {
        fill: #d8ecfe;
      }

      .cls-2 {
        fill: #c47206;
      }

      .cls-3 {
        fill: #dd9502;
      }

      .cls-4 {
        fill: #eaf6ff;
      }

      .cls-5 {
        fill: #7a6d79;
      }

      .cls-6 {
        fill: #ff5e67;
      }

      .cls-7 {
        fill: #fed2a4;
      }

      .cls-8 {
        fill: #ffe177;
      }

      .cls-9 {
        fill: #685e68;
      }

      .cls-10 {
        fill: #ffc3c6;
      }
    </style>
  </defs>
  <g>
    <path class="cls-6" d="m87.82,70.57h-5.05l-.67-6.28h6.92c.82,0,1.42.77,1.22,1.56l-.88,3.53c-.18.7-.8,1.19-1.52,1.19Z"/>
    <path class="cls-6" d="m32.18,70.57h5.05l.67-6.28h-6.92c-.82,0-1.42.77-1.22,1.56l.88,3.53c.17.7.8,1.19,1.52,1.19Z"/>
    <path class="cls-10" d="m88.89,84.7H31.11v-11.31c0-1.56,1.27-2.83,2.83-2.83h52.13c1.56,0,2.83,1.27,2.83,2.83v11.31Z"/>
    <path class="cls-4" d="m90.15,89.41H29.85c-.69,0-1.26-.56-1.26-1.26v-2.2c0-.69.56-1.26,1.26-1.26h60.3c.69,0,1.26.56,1.26,1.26v2.2c0,.69-.56,1.26-1.26,1.26Z"/>
    <path class="cls-1" d="m90.15,84.7h-4.71c.69,0,1.26.56,1.26,1.26v2.2c0,.69-.56,1.26-1.26,1.26h4.71c.69,0,1.26-.56,1.26-1.26v-2.2c0-.69-.56-1.26-1.26-1.26Z"/>
    <path class="cls-6" d="m86.07,70.57h-4.71c1.56,0,2.83,1.27,2.83,2.83v11.31h4.71v-11.31c0-1.56-1.27-2.83-2.83-2.83Z"/>
    <path class="cls-10" d="m84.34,70.57h-48.68l2.44-15.89c.4-2.6,2.64-4.53,5.28-4.53h33.23c2.64,0,4.88,1.92,5.28,4.53l2.44,15.89Z"/>
    <path class="cls-6" d="m81.89,54.69c-.4-2.6-2.64-4.53-5.28-4.53h-4.71c2.64,0,4.88,1.92,5.28,4.53l2.44,15.89h4.71l-2.44-15.89Z"/>
    <path class="cls-4" d="m40.43,70.57l2.29-14.9c.07-.46.47-.8.93-.8h32.7c.47,0,.86.34.93.8l2.29,14.9h-39.14Z"/>
    <path class="cls-1" d="m77.28,55.67c-.07-.46-.47-.8-.93-.8h-4.71c.46,0,.86.34.93.8l2.29,14.9h4.71l-2.29-14.9Z"/>
    <path class="cls-8" d="m81.83,75.28h-2.83c-1.3,0-2.36,1.05-2.36,2.36s1.05,2.36,2.36,2.36h2.83c1.3,0,2.36-1.05,2.36-2.36s-1.05-2.36-2.36-2.36Z"/>
    <path class="cls-8" d="m38.17,75.28h2.83c1.3,0,2.36,1.05,2.36,2.36s-1.05,2.36-2.36,2.36h-2.83c-1.3,0-2.36-1.05-2.36-2.36s1.05-2.36,2.36-2.36Z"/>
    <path class="cls-5" d="m84.81,98.83h-9.11c-1.39,0-2.51-1.12-2.51-2.51v-6.91h14.13v6.91c0,1.39-1.12,2.51-2.51,2.51Z"/>
    <rect class="cls-9" x="73.19" y="89.41" width="14.13" height="4.71"/>
    <path class="cls-5" d="m35.19,98.83h9.11c1.39,0,2.51-1.12,2.51-2.51v-6.91h-14.13v6.91c0,1.39,1.12,2.51,2.51,2.51Z"/>
    <rect class="cls-9" x="32.68" y="89.41" width="14.13" height="4.71"/>
  </g>
  <path d="m87.82,71.74h-3.48c-.64,0-1.17-.52-1.17-1.17s.52-1.17,1.17-1.17h3.48c.19,0,.35-.13.39-.31l.88-3.53s.01-.04-.02-.08c-.03-.03-.06-.03-.07-.03h-5.57c-.64,0-1.17-.52-1.17-1.17s.52-1.17,1.17-1.17h5.57c.75,0,1.45.34,1.91.93.46.59.62,1.35.44,2.08l-.88,3.53c-.3,1.22-1.4,2.07-2.65,2.07Z"/>
  <path d="m79.57,71.74c-.57,0-1.06-.41-1.15-.99l-2.26-14.71h-23.34c-.64,0-1.17-.52-1.17-1.17s.52-1.17,1.17-1.17h23.53c1.03,0,1.93.77,2.08,1.79l2.29,14.9c.1.64-.34,1.23-.97,1.33-.06,0-.12.01-.18.01Zm-3.22-15.7h0,0Z"/>
  <path d="m40.43,71.74c-.06,0-.12,0-.18-.01-.64-.1-1.07-.69-.97-1.33l2.29-14.9c.16-1.02,1.05-1.79,2.08-1.79h3.72c.64,0,1.17.52,1.17,1.17s-.52,1.17-1.17,1.17h-3.53l-2.26,14.71c-.09.58-.59.99-1.15.99Z"/>
  <path d="m67.85,76.45h-15.7c-.64,0-1.17-.52-1.17-1.17s.52-1.17,1.17-1.17h15.7c.64,0,1.17.52,1.17,1.17s-.52,1.17-1.17,1.17Z"/>
  <path d="m67.85,81.16h-15.7c-.64,0-1.17-.52-1.17-1.17s.52-1.17,1.17-1.17h15.7c.64,0,1.17.52,1.17,1.17s-.52,1.17-1.17,1.17Z"/>
  <path d="m81.83,81.16h-2.83c-1.94,0-3.52-1.58-3.52-3.52s1.58-3.52,3.52-3.52h2.83c1.94,0,3.52,1.58,3.52,3.52s-1.58,3.52-3.52,3.52Zm-2.83-4.71c-.66,0-1.19.53-1.19,1.19s.53,1.19,1.19,1.19h2.83c.66,0,1.19-.53,1.19-1.19s-.53-1.19-1.19-1.19h-2.83Z"/>
  <path d="m41,81.16h-2.83c-1.94,0-3.52-1.58-3.52-3.52s1.58-3.52,3.52-3.52h2.83c1.94,0,3.52,1.58,3.52,3.52s-1.58,3.52-3.52,3.52Zm-2.83-4.71c-.66,0-1.19.53-1.19,1.19s.53,1.19,1.19,1.19h2.83c.66,0,1.19-.53,1.19-1.19s-.53-1.19-1.19-1.19h-2.83Z"/>
  <path d="m84.34,71.74c-.57,0-1.06-.41-1.15-.99l-2.44-15.89c-.32-2.05-2.05-3.54-4.12-3.54h-33.23c-2.07,0-3.81,1.49-4.12,3.54l-2.44,15.89c-.1.64-.69,1.07-1.33.97-.64-.1-1.07-.69-.97-1.33l2.44-15.89c.49-3.2,3.2-5.52,6.43-5.52h33.23c3.23,0,5.94,2.32,6.43,5.52l2.44,15.89c.1.64-.34,1.23-.97,1.33-.06,0-.12.01-.18.01Z"/>
  <path d="m88.89,85.87c-.64,0-1.17-.52-1.17-1.17v-11.31c0-.92-.75-1.66-1.66-1.66h-52.13c-.92,0-1.66.74-1.66,1.66v11.31c0,.64-.52,1.17-1.17,1.17s-1.17-.52-1.17-1.17v-11.31c0-2.2,1.79-3.99,3.99-3.99h52.13c2.2,0,3.99,1.79,3.99,3.99v11.31c0,.64-.52,1.17-1.17,1.17Z"/>
  <path d="m90.15,90.58h-20c-.64,0-1.17-.52-1.17-1.17s.52-1.17,1.17-1.17h20s.09-.04.09-.09v-2.2c0-.05-.04-.09-.09-.09H29.85c-.05,0-.09.04-.09.09v2.2s.04.09.09.09h34.85c.64,0,1.17.52,1.17,1.17s-.52,1.17-1.17,1.17H29.85c-1.34,0-2.42-1.09-2.42-2.42v-2.2c0-1.34,1.09-2.42,2.42-2.42h60.29c1.34,0,2.42,1.09,2.42,2.42v2.2c0,1.34-1.09,2.42-2.42,2.42Z"/>
  <path d="m84.81,100h-9.11c-2.03,0-3.68-1.65-3.68-3.68v-6.91c0-.64.52-1.17,1.17-1.17s1.17.52,1.17,1.17v6.91c0,.74.6,1.35,1.35,1.35h9.11c.74,0,1.35-.6,1.35-1.35v-6.91c0-.64.52-1.17,1.17-1.17s1.17.52,1.17,1.17v6.91c0,2.03-1.65,3.68-3.68,3.68Z"/>
  <path d="m44.3,100h-9.11c-2.03,0-3.68-1.65-3.68-3.68v-6.91c0-.64.52-1.17,1.17-1.17s1.17.52,1.17,1.17v6.91c0,.74.6,1.35,1.35,1.35h9.11c.74,0,1.35-.6,1.35-1.35v-6.91c0-.64.52-1.17,1.17-1.17s1.17.52,1.17,1.17v6.91c0,2.03-1.65,3.68-3.68,3.68Z"/>
  <path d="m35.66,71.74h-3.48c-1.26,0-2.35-.85-2.65-2.07l-.88-3.53c-.18-.73-.02-1.48.44-2.08.46-.59,1.16-.93,1.91-.93h5.57c.64,0,1.17.52,1.17,1.17s-.52,1.17-1.17,1.17h-5.57s-.04,0-.07.03c-.03.03-.02.06-.02.08l.88,3.53c.04.18.21.31.39.31h3.48c.64,0,1.17.52,1.17,1.17s-.52,1.17-1.17,1.17Z"/>
  <g>
    <g>
      <circle class="cls-4" cx="74.35" cy="32.16" r="10.99"/>
      <path class="cls-1" d="m80.21,22.86c1.07,1.7,1.69,3.71,1.69,5.86,0,6.07-4.92,10.99-10.99,10.99-2.16,0-4.16-.62-5.86-1.69,1.95,3.08,5.38,5.13,9.3,5.13,6.07,0,10.99-4.92,10.99-10.99,0-3.92-2.05-7.35-5.13-9.3Z"/>
      <circle class="cls-7" cx="74.35" cy="29.64" r="3.77"/>
      <path class="cls-3" d="m74.35,43.15c3.28,0,6.22-1.44,8.23-3.71-1.11-3.49-4.37-6.02-8.23-6.02s-7.13,2.53-8.23,6.02c2.01,2.28,4.95,3.71,8.23,3.71Z"/>
      <path class="cls-2" d="m79.72,35.29c-2,2.68-5.21,4.42-8.81,4.42-1.62,0-3.15-.35-4.54-.98-.1.23-.18.47-.26.7,2.01,2.28,4.95,3.71,8.23,3.71s6.22-1.44,8.23-3.71c-.52-1.65-1.53-3.09-2.86-4.15Z"/>
    </g>
    <path d="m74.35,44.31c-6.7,0-12.16-5.45-12.16-12.16s5.45-12.16,12.16-12.16,12.16,5.45,12.16,12.16-5.45,12.16-12.16,12.16Zm0-21.98c-5.42,0-9.83,4.41-9.83,9.83s4.41,9.83,9.83,9.83,9.83-4.41,9.83-9.83-4.41-9.83-9.83-9.83Z"/>
    <path d="m74.35,34.58c-2.72,0-4.93-2.21-4.93-4.93s2.21-4.93,4.93-4.93,4.93,2.21,4.93,4.93-2.21,4.93-4.93,4.93Zm0-7.54c-1.44,0-2.6,1.17-2.6,2.6s1.17,2.6,2.6,2.6,2.6-1.17,2.6-2.6-1.17-2.6-2.6-2.6Z"/>
    <path d="m82.58,40.6c-.49,0-.95-.32-1.11-.81-.99-3.12-3.85-5.21-7.12-5.21s-6.13,2.09-7.12,5.21c-.19.61-.85.95-1.46.76-.61-.19-.95-.85-.76-1.46,1.3-4.09,5.05-6.84,9.34-6.84s8.05,2.75,9.34,6.84c.19.61-.15,1.27-.76,1.46-.12.04-.24.05-.35.05Z"/>
  </g>
  <g>
    <g>
      <circle class="cls-4" cx="47.34" cy="32.16" r="10.99"/>
      <path class="cls-1" d="m53.2,22.86c1.07,1.7,1.69,3.71,1.69,5.86,0,6.07-4.92,10.99-10.99,10.99-2.16,0-4.16-.62-5.86-1.69,1.95,3.08,5.38,5.13,9.3,5.13,6.07,0,10.99-4.92,10.99-10.99,0-3.92-2.05-7.35-5.13-9.3Z"/>
      <circle class="cls-7" cx="47.34" cy="29.64" r="3.77"/>
      <path class="cls-10" d="m47.34,43.15c3.28,0,6.22-1.44,8.23-3.71-1.11-3.49-4.37-6.02-8.23-6.02s-7.13,2.53-8.23,6.02c2.01,2.28,4.95,3.71,8.23,3.71Z"/>
      <path class="cls-6" d="m52.72,35.29c-2,2.68-5.21,4.42-8.81,4.42-1.62,0-3.15-.35-4.54-.98-.1.23-.18.47-.26.7,2.01,2.28,4.95,3.71,8.23,3.71s6.22-1.44,8.23-3.71c-.52-1.65-1.53-3.09-2.86-4.15Z"/>
    </g>
    <path d="m47.34,44.31c-6.7,0-12.16-5.45-12.16-12.16s5.45-12.16,12.16-12.16,12.16,5.45,12.16,12.16-5.45,12.16-12.16,12.16Zm0-21.98c-5.42,0-9.83,4.41-9.83,9.83s4.41,9.83,9.83,9.83,9.83-4.41,9.83-9.83-4.41-9.83-9.83-9.83Z"/>
    <path d="m47.34,34.58c-2.72,0-4.93-2.21-4.93-4.93s2.21-4.93,4.93-4.93,4.93,2.21,4.93,4.93-2.21,4.93-4.93,4.93Zm0-7.54c-1.44,0-2.6,1.17-2.6,2.6s1.17,2.6,2.6,2.6,2.6-1.17,2.6-2.6-1.17-2.6-2.6-2.6Z"/>
    <path d="m55.58,40.6c-.49,0-.95-.32-1.11-.81-.99-3.12-3.85-5.21-7.12-5.21s-6.13,2.09-7.12,5.21c-.19.61-.85.95-1.46.76-.61-.19-.95-.85-.76-1.46,1.3-4.09,5.05-6.84,9.34-6.84s8.05,2.75,9.34,6.84c.19.61-.15,1.27-.76,1.46-.12.04-.24.05-.35.05Z"/>
  </g>
</svg>