<?xml version="1.0" encoding="UTF-8"?>
<svg id="Layer_1" data-name="Layer 1" xmlns="http://www.w3.org/2000/svg" xmlns:xlink="http://www.w3.org/1999/xlink" viewBox="0 0 120 120">
  <defs>
    <style>
      .cls-1 {
        fill: #fff;
      }

      .cls-2 {
        fill: #0c6f27;
      }

      .cls-3 {
        fill: #05c536;
      }

      .cls-4 {
        fill: #eefff1;
      }

      .cls-5 {
        fill: #e1e3e9;
      }

      .cls-6 {
        fill: #c40611;
      }

      .cls-7 {
        fill: #61626d;
      }

      .cls-8 {
        clip-path: url(#clippath);
      }

      .cls-9 {
        fill: #808285;
      }

      .cls-10 {
        fill: none;
      }
    </style>
    <clipPath id="clippath">
      <rect class="cls-10" x="20" y="20" width="80" height="80"/>
    </clipPath>
  </defs>
  <g id="g5343">
    <path id="path5345" class="cls-2" d="m56.56,21.56h-25v7.5h25v-7.5Z"/>
    <path id="path5347" class="cls-7" d="m66.56,98.44H21.56v-8.44h45v8.44Z"/>
    <path id="path5349" class="cls-5" d="m69.69,90h-6.25v-10h6.25v10Z"/>
    <path id="path5351" class="cls-9" d="m98.44,35.78h-8.44v-5.31h8.44v5.31Z"/>
    <g id="g5353">
      <g class="cls-8">
        <g id="g5355">
          <g id="g5361">
            <g>
              <path id="path5363" class="cls-3" d="m81.56,54.69v23.44c0,5.44-4.41,9.84-9.84,9.84h-2.03v-6.25h2.03c1.98,0,3.59-1.61,3.59-3.59v-38.98c0-5.05,4.09-9.14,9.14-9.14h5.55v6.25h-5.55c-1.6,0-2.89,1.29-2.89,2.89v15.55"/>
              <path d="m71.72,89.53h-2.03c-.86,0-1.56-.7-1.56-1.56v-6.25c0-.86.7-1.56,1.56-1.56h2.03c1.12,0,2.03-.91,2.03-2.03v-38.98c0-5.9,4.8-10.7,10.7-10.7h5.55c.86,0,1.56.7,1.56,1.56v6.25c0,.86-.7,1.56-1.56,1.56h-5.55c-.73,0-1.33.6-1.33,1.33v38.98c0,6.29-5.12,11.41-11.41,11.41Zm-.47-3.12h.47c4.57,0,8.28-3.72,8.28-8.28v-38.98c0-2.46,2-4.45,4.45-4.45h3.98v-3.12h-3.98c-4.18,0-7.58,3.4-7.58,7.58v38.98c0,2.84-2.31,5.16-5.16,5.16h-.47v3.12Z"/>
            </g>
          </g>
          <g id="g5365">
            <path id="path5367" class="cls-3" d="m24.69,90h38.75v-57.81c0-1.73-1.4-3.12-3.13-3.12H27.81c-1.73,0-3.13,1.4-3.13,3.12v57.81Z"/>
          </g>
          <path id="path5369" class="cls-4" d="m31.88,51.25h24.37v-15h-24.37v15Z"/>
          <g id="g5371">
            <path d="m63.44,91.56H24.69c-.86,0-1.56-.7-1.56-1.56v-57.81c0-2.58,2.1-4.69,4.69-4.69h32.5c2.58,0,4.69,2.1,4.69,4.69v20.31c0,.86-.7,1.56-1.56,1.56s-1.56-.7-1.56-1.56v-20.31c0-.86-.7-1.56-1.56-1.56H27.81c-.86,0-1.56.7-1.56,1.56v56.25h35.62v-21.88c0-.86.7-1.56,1.56-1.56s1.56.7,1.56,1.56v23.44c0,.86-.7,1.56-1.56,1.56Z"/>
          </g>
          <path d="m56.25,52.81h-24.37c-.86,0-1.56-.7-1.56-1.56v-15c0-.86.7-1.56,1.56-1.56h24.37c.86,0,1.56.7,1.56,1.56v15c0,.86-.7,1.56-1.56,1.56Zm-22.81-3.12h21.25v-11.88h-21.25v11.88Z"/>
          <path d="m66.56,100H21.56c-.86,0-1.56-.7-1.56-1.56v-8.44c0-.86.7-1.56,1.56-1.56h45c.86,0,1.56.7,1.56,1.56v8.44c0,.86-.7,1.56-1.56,1.56Zm-43.44-3.12h41.87v-5.31H23.13v5.31Z"/>
          <path d="m56.56,30.62h-25c-.86,0-1.56-.7-1.56-1.56v-7.5c0-.86.7-1.56,1.56-1.56h25c.86,0,1.56.7,1.56,1.56v7.5c0,.86-.7,1.56-1.56,1.56Zm-23.44-3.12h21.87v-4.37h-21.87v4.37Z"/>
          <path d="m69.69,91.56h-6.25c-.86,0-1.56-.7-1.56-1.56v-10c0-.86.7-1.56,1.56-1.56h6.25c.86,0,1.56.7,1.56,1.56v10c0,.86-.7,1.56-1.56,1.56Zm-4.69-3.12h3.12v-6.87h-3.12v6.87Z"/>
          <path d="m97.35,37.34h-6.26c-.86,0-1.56-.7-1.56-1.56s.7-1.56,1.56-1.56h5.79v-2.19h-5.79c-.86,0-1.56-.7-1.56-1.56s.7-1.56,1.56-1.56h6.26c1.46,0,2.65,1.19,2.65,2.65v3.14c0,1.46-1.19,2.65-2.65,2.65Zm0-5.31h0,0Z"/>
          <g id="g5385">
            <path id="path5387" class="cls-1" d="m34.47,73.53c0,5.3,4.29,9.59,9.59,9.59s9.59-4.29,9.59-9.59c0-2.3-.81-4.4-2.15-6.06h0l-7.41-9.54-7.44,9.49h0c-1.37,1.66-2.19,3.79-2.19,6.11"/>
          </g>
          <g id="g5389">
            <path d="m44.06,84.69c-6.15,0-11.16-5-11.16-11.16,0-2.54.88-5.02,2.47-7,.02-.02.03-.05.05-.07l7.44-9.49c.3-.38.75-.6,1.23-.6h0c.48,0,.94.22,1.23.6l7.41,9.54c1.59,1.95,2.48,4.46,2.48,7.01,0,6.15-5,11.16-11.16,11.16Zm-6.1-16.39s-.06.09-.09.13c-1.18,1.43-1.84,3.25-1.84,5.11,0,4.43,3.6,8.03,8.03,8.03s8.03-3.6,8.03-8.03c0-1.87-.62-3.62-1.8-5.07l-6.2-7.98-6.13,7.81Z"/>
          </g>
          <g id="g5393">
            <path class="cls-6" d="m43.76,77.62c-.26,0-.52-.06-.76-.2-.75-.42-1.02-1.38-.6-2.13l1.04-1.85h-1.44c-.54,0-1.04-.28-1.32-.73s-.32-1.02-.09-1.51l1.98-4.15c.37-.78,1.31-1.11,2.08-.74.78.37,1.11,1.31.74,2.08l-.91,1.91h1.63c.56,0,1.07.29,1.35.77.28.48.29,1.07.01,1.55l-2.35,4.18c-.29.51-.82.8-1.36.8Z"/>
          </g>
          <g id="g5397">
            <path d="m87.29,51.98h-5.73c-.86,0-1.56-.7-1.56-1.56s.7-1.56,1.56-1.56h4.16c-.11-2.59-1.46-4.96-3.64-6.38l-1.38-.9c-.72-.47-.92-1.44-.45-2.16.47-.72,1.44-.92,2.16-.45l1.38.9c3.17,2.07,5.06,5.57,5.06,9.36v1.2c0,.86-.7,1.56-1.56,1.56Z"/>
          </g>
          <g id="g5401">
            <path d="m48.75,45.31h-10c-.86,0-1.56-.7-1.56-1.56s.7-1.56,1.56-1.56h10c.86,0,1.56.7,1.56,1.56s-.7,1.56-1.56,1.56Z"/>
          </g>
          <g id="g5405">
            <path d="m63.44,61.1c-.41,0-.81-.17-1.1-.46-.29-.29-.46-.69-.46-1.1s.17-.82.46-1.1c.59-.58,1.63-.58,2.21,0,.29.29.46.69.46,1.1,0,.1,0,.2-.03.3-.02.1-.05.2-.09.29-.04.1-.09.18-.14.27-.06.08-.12.16-.2.23-.29.29-.69.46-1.1.46Z"/>
          </g>
        </g>
      </g>
    </g>
  </g>
</svg>