<?xml version="1.0" encoding="UTF-8"?>
<svg id="Layer_1" data-name="Layer 1" xmlns="http://www.w3.org/2000/svg" viewBox="0 0 120 120">
  <defs>
    <style>
      .cls-1 {
        fill: #fff;
      }

      .cls-2 {
        fill: #f1d2c8;
      }

      .cls-3 {
        fill: #eaf6ff;
      }

      .cls-4 {
        fill: #fcf7fe;
      }

      .cls-5 {
        fill: #f3bf25;
      }

      .cls-6 {
        fill: #aa0a13;
      }

      .cls-7 {
        fill: #d04226;
      }

      .cls-8 {
        fill: #f7d254;
      }

      .cls-9 {
        fill: #ffc3c6;
      }
    </style>
  </defs>
  <g id="g1534">
    <g id="path1536">
      <path class="cls-3" d="m51.68,50.19h-12.43c-5.73,0-10.38,4.65-10.38,10.38v7.1h40.29c0-9.66-7.83-17.48-17.48-17.48"/>
    </g>
  </g>
  <g id="g1538">
    <g id="path1540">
      <path class="cls-3" d="m65.5,63.9c.16.63.7,1.09,1.35,1.17.76.09,1.48.22,2.17.41-1.08-8.62-8.44-15.28-17.35-15.28h-5.19c7.92,0,16.84,5.23,19.01,13.7"/>
    </g>
  </g>
  <g id="g1542">
    <g id="path1544">
      <path class="cls-9" d="m20.46,65.31v9.83c0,2.87,2.32,5.19,5.19,5.19h54.51c.96,0,1.73-.77,1.73-1.73v-1.18c0-7.65-6.2-13.84-13.84-13.84H22.19c-.96,0-1.73.77-1.73,1.73"/>
    </g>
  </g>
  <g id="g1546">
    <g id="path1548">
      <path d="m75.48,80.33h4.67c.96,0,1.73-.77,1.73-1.73v-1.18c0-7.65-6.2-13.84-13.84-13.84h-2.62c.03.11.06.21.09.32.16.63.7,1.09,1.35,1.17,6.6.74,10.36,5.31,10.36,12.36v1.18c0,.96-.77,1.73-1.73,1.73"/>
    </g>
  </g>
  <g id="g1550">
    <g id="path1552">
      <path class="cls-8" d="m76.64,66.57c-1.79.22-3.13.98-3.52,2.2-.71,2.19,1.92,5.01,5.88,6.29.95.31,1.89.5,2.78.59-.47-3.67-2.37-6.89-5.13-9.08"/>
    </g>
  </g>
  <g id="path1562">
    <path class="cls-2" d="m103,98.7H17v-12.59h86v12.59Z"/>
  </g>
  <g id="g1564">
    <g id="path1566">
      <path class="cls-4" d="m33.21,74.54c-3.19,0-5.78,2.59-5.78,5.78s2.59,5.78,5.78,5.78,5.78-2.59,5.78-5.78-2.59-5.78-5.78-5.78"/>
    </g>
  </g>
  <g id="g1568">
    <g id="path1570">
      <path class="cls-4" d="m67.75,74.54c-3.19,0-5.78,2.59-5.78,5.78s2.59,5.78,5.78,5.78,5.78-2.59,5.78-5.78-2.59-5.78-5.78-5.78"/>
    </g>
  </g>
  <g id="g1572">
    <g id="path1574">
      <path class="cls-5" d="m76.64,66.57c-1.33.16-2.41.63-3.04,1.35,1.69,1.55,2.82,3.67,3.32,6.27.64.33,1.33.63,2.07.87.95.31,1.89.5,2.78.59-.47-3.67-2.37-6.89-5.13-9.08"/>
    </g>
  </g>
  <g id="g1576">
    <g id="path1578">
      <path d="m68.68,64.89c-.59,0-1.12-.4-1.26-1-.66-2.77-2.06-5.33-4.04-7.4-.5-.52-.48-1.34.04-1.84.52-.5,1.34-.48,1.84.04,2.3,2.41,3.92,5.38,4.69,8.6.17.7-.26,1.4-.96,1.56-.1.02-.2.04-.3.04Z"/>
    </g>
  </g>
  <g id="g1580">
    <g id="path1582">
      <path d="m28.87,64.87c-.72,0-1.3-.58-1.3-1.3v-3c0-6.44,5.24-11.68,11.68-11.68h12.43c2.93,0,5.73.66,8.34,1.95.64.32.9,1.1.59,1.74-.32.64-1.1.9-1.74.59-2.24-1.11-4.66-1.68-7.18-1.68h-12.43c-5.01,0-9.09,4.08-9.09,9.09v3c0,.72-.58,1.3-1.3,1.3Z"/>
    </g>
  </g>
  <g id="g1584">
    <g id="path1586">
      <path d="m61.96,81.62h-22.97c-.72,0-1.3-.58-1.3-1.3s.58-1.3,1.3-1.3h22.97c.72,0,1.3.58,1.3,1.3s-.58,1.3-1.3,1.3Z"/>
    </g>
  </g>
  <g id="g1588">
    <g id="path1590">
      <path d="m80.15,81.62h-6.62c-.72,0-1.3-.58-1.3-1.3s.58-1.3,1.3-1.3h6.62c.24,0,.43-.19.43-.43v-1.18c0-6.92-5.63-12.55-12.55-12.55H22.19c-.24,0-.43.19-.43.43v9.83c0,2.15,1.75,3.89,3.89,3.89h1.78c.72,0,1.3.58,1.3,1.3s-.58,1.3-1.3,1.3h-1.78c-3.58,0-6.49-2.91-6.49-6.49v-9.83c0-1.67,1.36-3.03,3.03-3.03h45.85c8.35,0,15.14,6.79,15.14,15.14v1.18c0,1.67-1.36,3.03-3.03,3.03Z"/>
    </g>
  </g>
  <g id="g1596">
    <g id="path1598">
      <path d="m103,87.41H17c-.72,0-1.3-.58-1.3-1.3s.58-1.3,1.3-1.3h86c.72,0,1.3.58,1.3,1.3s-.58,1.3-1.3,1.3Z"/>
    </g>
  </g>
  <g id="g1600">
    <g id="path1602">
      <path d="m87.12,100H17c-.72,0-1.3-.58-1.3-1.3s.58-1.3,1.3-1.3h70.13c.72,0,1.3.58,1.3,1.3s-.58,1.3-1.3,1.3Z"/>
    </g>
  </g>
  <g id="g1604">
    <g id="path1606">
      <path d="m103,100h-9.82c-.72,0-1.3-.58-1.3-1.3s.58-1.3,1.3-1.3h9.82c.72,0,1.3.58,1.3,1.3s-.58,1.3-1.3,1.3Z"/>
    </g>
  </g>
  <g id="g1608">
    <g id="path1610">
      <path d="m23.81,93.7h-3.01c-.72,0-1.3-.58-1.3-1.3s.58-1.3,1.3-1.3h3.01c.72,0,1.3.58,1.3,1.3s-.58,1.3-1.3,1.3Z"/>
    </g>
  </g>
  <g id="g1612">
    <g id="path1614">
      <path d="m34.58,93.7h-3.02c-.72,0-1.3-.58-1.3-1.3s.58-1.3,1.3-1.3h3.02c.72,0,1.3.58,1.3,1.3s-.58,1.3-1.3,1.3Z"/>
    </g>
  </g>
  <g id="g1616">
    <g id="path1618">
      <path d="m45.35,93.7h-3.02c-.72,0-1.3-.58-1.3-1.3s.58-1.3,1.3-1.3h3.02c.72,0,1.3.58,1.3,1.3s-.58,1.3-1.3,1.3Z"/>
    </g>
  </g>
  <g id="g1620">
    <g id="path1622">
      <path d="m56.12,93.7h-3.02c-.72,0-1.3-.58-1.3-1.3s.58-1.3,1.3-1.3h3.02c.72,0,1.3.58,1.3,1.3s-.58,1.3-1.3,1.3Z"/>
    </g>
  </g>
  <g id="g1624">
    <g id="path1626">
      <path d="m66.89,93.7h-3.01c-.72,0-1.3-.58-1.3-1.3s.58-1.3,1.3-1.3h3.01c.72,0,1.3.58,1.3,1.3s-.58,1.3-1.3,1.3Z"/>
    </g>
  </g>
  <g id="g1628">
    <g id="path1630">
      <path d="m77.66,93.7h-3.02c-.72,0-1.3-.58-1.3-1.3s.58-1.3,1.3-1.3h3.02c.72,0,1.3.58,1.3,1.3s-.58,1.3-1.3,1.3Z"/>
    </g>
  </g>
  <g id="g1632">
    <g id="path1634">
      <path d="m88.44,93.7h-3.01c-.72,0-1.3-.58-1.3-1.3s.58-1.3,1.3-1.3h3.01c.72,0,1.3.58,1.3,1.3s-.58,1.3-1.3,1.3Z"/>
    </g>
  </g>
  <g id="g1636">
    <g id="path1638">
      <path d="m99.21,93.7h-3.02c-.72,0-1.3-.58-1.3-1.3s.58-1.3,1.3-1.3h3.02c.72,0,1.3.58,1.3,1.3s-.58,1.3-1.3,1.3Z"/>
    </g>
  </g>
  <g id="g1640">
    <g id="path1642">
      <path d="m90.15,54.89c-.72,0-1.3-.58-1.3-1.3v-.82c0-.72.58-1.3,1.3-1.3s1.3.58,1.3,1.3v.82c0,.72-.58,1.3-1.3,1.3Z"/>
    </g>
  </g>
  <g id="g1644">
    <g id="path1646">
      <path d="m90.15,61.56c-.72,0-1.3-.58-1.3-1.3v-.82c0-.72.58-1.3,1.3-1.3s1.3.58,1.3,1.3v.82c0,.72-.58,1.3-1.3,1.3Z"/>
    </g>
  </g>
  <g id="g1648">
    <g id="path1650">
      <path d="m90.15,68.23c-.72,0-1.3-.58-1.3-1.3v-.82c0-.72.58-1.3,1.3-1.3s1.3.58,1.3,1.3v.82c0,.72-.58,1.3-1.3,1.3Z"/>
    </g>
  </g>
  <g id="g1652">
    <g id="path1654">
      <path d="m90.15,74.91c-.72,0-1.3-.58-1.3-1.3v-.82c0-.72.58-1.3,1.3-1.3s1.3.58,1.3,1.3v.82c0,.72-.58,1.3-1.3,1.3Z"/>
    </g>
  </g>
  <g id="g1656">
    <g id="path1658">
      <path d="m90.15,81.58c-.72,0-1.3-.58-1.3-1.3v-.82c0-.72.58-1.3,1.3-1.3s1.3.58,1.3,1.3v.82c0,.72-.58,1.3-1.3,1.3Z"/>
    </g>
  </g>
  <g id="g1660">
    <g id="path1662">
      <path d="m33.21,87.41c-3.91,0-7.08-3.18-7.08-7.08s3.18-7.08,7.08-7.08,7.08,3.18,7.08,7.08-3.18,7.08-7.08,7.08Zm0-11.57c-2.47,0-4.49,2.01-4.49,4.49s2.01,4.49,4.49,4.49,4.49-2.01,4.49-4.49-2.01-4.49-4.49-4.49Z"/>
    </g>
  </g>
  <g id="g1664">
    <g id="path1666">
      <path d="m67.75,87.41c-3.91,0-7.08-3.18-7.08-7.08s3.18-7.08,7.08-7.08,7.08,3.18,7.08,7.08-3.18,7.08-7.08,7.08Zm0-11.57c-2.47,0-4.49,2.01-4.49,4.49s2.01,4.49,4.49,4.49,4.49-2.01,4.49-4.49-2.01-4.49-4.49-4.49Z"/>
    </g>
  </g>
  <g id="g1668">
    <g id="path1670">
      <path d="m47.13,64.87c-.72,0-1.3-.58-1.3-1.3v-13.38c0-.72.58-1.3,1.3-1.3s1.3.58,1.3,1.3v13.38c0,.72-.58,1.3-1.3,1.3Z"/>
    </g>
  </g>
  <g id="g1672">
    <g id="path1674">
      <path d="m49.47,68.97h-2.34c-.72,0-1.3-.58-1.3-1.3s.58-1.3,1.3-1.3h2.34c.72,0,1.3.58,1.3,1.3s-.58,1.3-1.3,1.3Z"/>
    </g>
  </g>
  <g id="g1676">
    <g id="path1678">
      <path d="m81.77,76.95s-.08,0-.12,0c-1.01-.1-2.04-.31-3.06-.64-2.12-.69-3.98-1.81-5.24-3.16-1.45-1.55-1.97-3.24-1.47-4.77.54-1.67,2.22-2.79,4.6-3.08.71-.09,1.36.42,1.45,1.13.09.71-.42,1.36-1.13,1.45-1.3.16-2.24.66-2.45,1.31-.19.58.14,1.38.9,2.2.95,1.02,2.46,1.91,4.14,2.46.83.27,1.68.45,2.5.53.71.07,1.24.7,1.17,1.42-.06.67-.63,1.17-1.29,1.17Z"/>
    </g>
  </g>
  <g>
    <g>
      <circle class="cls-7" cx="90.15" cy="34.07" r="12.85"/>
      <path d="m90.15,48.13c-7.76,0-14.07-6.31-14.07-14.07s6.31-14.07,14.07-14.07,14.07,6.31,14.07,14.07-6.31,14.07-14.07,14.07Zm0-25.7c-6.42,0-11.64,5.22-11.64,11.64s5.22,11.64,11.64,11.64,11.64-5.22,11.64-11.64-5.22-11.64-11.64-11.64Z"/>
    </g>
    <g>
      <circle class="cls-1" cx="90.15" cy="34.6" r="3.07"/>
      <path d="m90.15,38.31c-2.04,0-3.71-1.66-3.71-3.71s1.66-3.71,3.71-3.71,3.71,1.66,3.71,3.71-1.66,3.71-3.71,3.71Zm0-6.15c-1.35,0-2.44,1.1-2.44,2.44s1.1,2.44,2.44,2.44,2.44-1.1,2.44-2.44-1.1-2.44-2.44-2.44Z"/>
    </g>
    <path class="cls-6" d="m101.81,35.02c-.4,4.74-3.74,8.81-8.39,10.18,1-.89,4.39-4.09,5.26-9.5.99-6.17-2.01-10.74-2.68-11.71,3.91,2.28,6.18,6.59,5.81,11.03Z"/>
  </g>
</svg>