<?xml version="1.0" encoding="UTF-8"?>
<svg id="Layer_1" data-name="Layer 1" xmlns="http://www.w3.org/2000/svg" viewBox="0 0 120 120">
  <defs>
    <style>
      .cls-1 {
        fill: #fff;
      }

      .cls-2 {
        fill: #fabf77;
      }

      .cls-3 {
        fill: #b96f16;
      }

      .cls-4 {
        fill: #393a47;
      }

      .cls-5 {
        fill: #f1f2f2;
      }

      .cls-6 {
        fill: #61626d;
      }

      .cls-7 {
        fill: #a4a5a4;
      }

      .cls-8 {
        fill: #f7941d;
      }

      .cls-9 {
        fill: #e6e7e8;
      }
    </style>
  </defs>
  <path class="cls-8" d="m70.18,93.97V23.5c0-1.29-1.04-2.33-2.33-2.33H29.75c-1.29,0-2.33,1.04-2.33,2.33v70.46h42.76Z"/>
  <path class="cls-3" d="m33.67,21.17h-3.92c-1.29,0-2.33,1.04-2.33,2.33v70.46h3.92V23.5c0-1.29,1.04-2.33,2.33-2.33Z"/>
  <path class="cls-6" d="m74.06,98.83H23.7c-1.34,0-2.43-1.09-2.43-2.43s1.09-2.43,2.43-2.43h50.36c1.34,0,2.43,1.09,2.43,2.43s-1.09,2.43-2.43,2.43Z"/>
  <path class="cls-4" d="m74.06,96.4H23.7c-.9,0-1.68-.49-2.1-1.21-.94,1.62.24,3.64,2.1,3.64h50.36c1.87,0,3.04-2.03,2.1-3.64-.42.73-1.2,1.21-2.1,1.21Z"/>
  <path class="cls-5" d="m61.34,27.39h-25.08c-1.29,0-2.33,1.04-2.33,2.33v17.97h29.74v-17.97c0-1.29-1.04-2.33-2.33-2.33Z"/>
  <path class="cls-9" d="m61.34,27.39h-11.19c-2.1,6.56-2.63,13.53-1.59,20.3h15.11v-17.97c0-1.29-1.04-2.33-2.33-2.33Z"/>
  <path class="cls-1" d="m50.29,60.95c0,1.29-1.04,2.33-2.33,2.33h-11.7c-1.29,0-2.33-1.04-2.33-2.33v-2.4c0-1.29,1.04-2.33,2.33-2.33h11.7c1.29,0,2.33,1.04,2.33,2.33v2.4Z"/>
  <path class="cls-2" d="m47.96,59.75h-11.7c-1.09,0-2.01-.75-2.26-1.77-.09.38-.07.33-.07,2.96,0,1.29,1.04,2.33,2.33,2.33h11.7c1.29,0,2.33-1.04,2.33-2.33v-2.4c0-.2-.03-.39-.07-.57-.25,1.01-1.17,1.77-2.26,1.77Z"/>
  <path class="cls-3" d="m40.17,27.39h-3.91c-1.29,0-2.33,1.04-2.33,2.33v17.97h3.91v-17.97c0-1.29,1.04-2.33,2.33-2.33Z"/>
  <path class="cls-7" d="m72.38,57.39h-2.2v7.06h2.2c1.29,0,2.33-1.04,2.33-2.33v-2.4c0-1.29-1.04-2.33-2.33-2.33Z"/>
  <path class="cls-2" d="m98.88,43.3c0,1.29-1.04,2.33-2.33,2.33h-4.92c-1.29,0-2.33-1.04-2.33-2.33v-10.21c0-1.29,1.04-2.33,2.33-2.33h4.92c1.29,0,2.33,1.04,2.33,2.33v10.21Z"/>
  <path class="cls-3" d="m94.09,43.3v-10.21c0-1.29,1.04-2.33,2.33-2.33h-4.79c-1.29,0-2.33,1.04-2.33,2.33v10.21c0,1.29,1.04,2.33,2.33,2.33h4.79c-1.29,0-2.33-1.04-2.33-2.33Z"/>
  <path class="cls-2" d="m51.77,37.05l-2.32-3.62c-.31-.48-1.01-.48-1.32,0l-2.32,3.62c-.71,1.1-.79,2.58,0,3.81,1.37,2.14,4.55,2.19,5.95,0l.05-.08s0-.02.01-.02c.68-1.16.66-2.58-.06-3.71Z"/>
  <path class="cls-3" d="m48.1,37.89c.84-4.6.74-4.48,1.09-4.72-.37-.21-.83-.09-1.05.25l-2.32,3.62c-2.01,3.15,1.6,6.86,4.85,4.9-1.76-.47-2.91-2.2-2.57-4.05Z"/>
  <path class="cls-2" d="m33.93,47.36v2.93c0,1.29,1.04,2.33,2.33,2.33h25.08c1.29,0,2.33-1.04,2.33-2.33v-2.93h-29.74Z"/>
  <path class="cls-3" d="m37.83,50.29v-2.93h-3.91v2.93c0,1.29,1.04,2.33,2.33,2.33h3.91c-1.29,0-2.33-1.04-2.33-2.33Z"/>
  <path d="m36.26,56.22c-1.93,0-3.5,1.57-3.5,3.5v2.4c0,1.93,1.57,3.5,3.5,3.5h11.7c1.93,0,3.5-1.57,3.5-3.5v-2.4c0-1.93-1.57-3.5-3.5-3.5h-11.7Zm12.86,3.5v2.4c0,.64-.52,1.16-1.16,1.16h-11.7c-.64,0-1.16-.52-1.16-1.16v-2.4c0-.64.52-1.16,1.16-1.16h11.7c.64,0,1.16.52,1.16,1.16Z"/>
  <path d="m55.6,56.22c-.65,0-1.17.52-1.17,1.17s.52,1.17,1.17,1.17h8.07c.65,0,1.17-.52,1.17-1.17s-.52-1.17-1.17-1.17h-8.07Z"/>
  <path d="m64.84,47.2v-17.48c0-1.93-1.57-3.5-3.5-3.5h-25.08c-1.93,0-3.5,1.57-3.5,3.5v20.41c0,1.93,1.57,3.5,3.5,3.5,26.86,0,25.17,0,25.43-.02,1.76-.18,3.15-1.67,3.15-3.49v-2.93h0Zm-3.5,4.09h-25.08c-.64,0-1.16-.52-1.16-1.16v-1.76h3.84c.65,0,1.17-.52,1.17-1.17s-.52-1.17-1.17-1.17h-3.84v-16.31c0-.64.52-1.16,1.16-1.16h25.08c.64,0,1.16.52,1.16,1.16v16.31h-19.49c-.65,0-1.17.52-1.17,1.17s.52,1.17,1.17,1.17h19.49v1.76c0,.64-.52,1.16-1.16,1.16Z"/>
  <path d="m96.55,29.59h-1.29v-4.53c0-.35-.16-.69-.43-.91l-4.79-3.89c-.5-.41-1.24-.33-1.65.17-.41.5-.33,1.24.17,1.65l4.36,3.54v3.97h-1.29c-1.93,0-3.5,1.57-3.5,3.5v1.47l-3.72,2.68c-.31.22-.49.57-.49.95v7.44c0,.65.52,1.17,1.17,1.17h7.83v26.29c0,4.69-3.82,8.51-8.51,8.51s-8.51-3.82-8.51-8.51v-10.61s0-.09,0-.14c.01-.18,0-.02,0-2.63,0-1.93-1.57-3.5-3.5-3.5h-1.03v-24.94c0-.65-.52-1.17-1.17-1.17s-1.17.52-1.17,1.17v61.51H28.59V23.5c0-.64.52-1.16,1.16-1.16h38.1c.64,0,1.16.52,1.16,1.16v4.03c0,.65.52,1.17,1.17,1.17s1.17-.52,1.17-1.17v-4.03c0-1.93-1.57-3.5-3.5-3.5H29.75c-1.93,0-3.5,1.57-3.5,3.5v69.29h-2.7c-1.99,0-3.6,1.62-3.6,3.6s1.62,3.6,3.6,3.6h3.84c.65,0,1.17-.52,1.17-1.17s-.52-1.17-1.17-1.17h-3.84c-.69,0-1.26-.56-1.26-1.26s.56-1.26,1.26-1.26h50.67c.69,0,1.26.56,1.26,1.26s-.56,1.26-1.26,1.26H31.44c-.65,0-1.17.52-1.17,1.17s.52,1.17,1.17,1.17h42.77c1.99,0,3.6-1.62,3.6-3.6s-1.62-3.6-3.6-3.6h-2.86v-27.17c1.08,0,1.51.04,2.19-.2v7.67c0,5.99,4.87,10.86,10.86,10.86s10.86-4.87,10.86-10.86v-26.29h1.29c1.93,0,3.5-1.57,3.5-3.5v-10.21c0-1.93-1.57-3.5-3.5-3.5Zm-24.17,33.69h-1.03v-4.72h1.03c.64,0,1.16.52,1.16,1.16v2.4c0,.64-.52,1.16-1.16,1.16Zm13.87-24.49l1.87-1.34c0,6.32-.07,6.25.2,7.01h-2.07v-5.66Zm5.37,5.66c-.64,0-1.16-.52-1.16-1.16v-10.21c0-.64.52-1.16,1.16-1.16h4.92c.64,0,1.16.52,1.16,1.16v10.21c0,.64-.52,1.16-1.16,1.16h-4.92Z"/>
  <path d="m46.39,42.99s1.01.66,2.41.66c3.7,0,5.98-4.1,3.97-7.24l-2.98-4.65c-.22-.34-.59-.54-.99-.54s-.77.2-.99.54l-2.98,4.65c-1.46,2.28-.69,5.24,1.55,6.58Zm.42-5.31l1.99-3.11,1.99,3.11c1.39,2.18-1.29,4.76-3.43,3.14-.93-.72-1.23-2.07-.54-3.14Z"/>
</svg>