<?xml version="1.0" encoding="UTF-8"?>
<svg id="Layer_1" data-name="Layer 1" xmlns="http://www.w3.org/2000/svg" viewBox="0 0 120 120">
  <defs>
    <style>
      .cls-1 {
        fill: #d8ffe2;
      }

      .cls-2 {
        fill: #fff;
      }

      .cls-3 {
        fill: #0c6f27;
      }

      .cls-4 {
        fill: #e6e7e8;
      }
    </style>
  </defs>
  <g>
    <path class="cls-4" d="m28.47,54.92h63.05v43.61H28.47v-43.61Z"/>
    <path class="cls-4" d="m32.67,47.96h54.67v6.96h-54.67v-6.96Z"/>
    <path class="cls-1" d="m54.49,87.03h11.01v11.5h-11.01v-11.5Z"/>
    <g>
      <path class="cls-1" d="m37.92,62.63h7.99v7.99h-7.99v-7.99Z"/>
      <path class="cls-1" d="m56,62.63h7.99v7.99h-7.99v-7.99Z"/>
      <path class="cls-1" d="m74.08,62.63h7.99v7.99h-7.99v-7.99Z"/>
    </g>
    <g>
      <path class="cls-1" d="m37.92,77.86h7.99v7.99h-7.99v-7.99Z"/>
      <path class="cls-1" d="m74.08,77.86h7.99v7.99h-7.99v-7.99Z"/>
    </g>
    <path class="cls-3" d="m60.26,79.97h-.53c-2.89,0-5.24,2.35-5.24,5.24v1.81h11.01v-1.81c0-2.89-2.35-5.24-5.24-5.24Z"/>
    <g>
      <path d="m96.19,97.06h-3.19v-42.14c0-.81-.66-1.47-1.47-1.47h-2.72v-5.49c0-.81-.66-1.47-1.47-1.47h-26.33c-.01-1.98-.02-3.96-.03-5.94-.97,0-1.94,0-2.91,0v5.94h-25.4c-.81,0-1.47.66-1.47,1.47v5.49h-2.72c-.81,0-1.47.66-1.47,1.47v42.14h-3.19c-.81,0-1.47.66-1.47,1.47s.66,1.47,1.47,1.47h72.38c.81,0,1.47-.66,1.47-1.47s-.66-1.47-1.47-1.47Zm-32.16,0h-8.07v-8.56h8.07v8.56Zm0-11.5h-8.07v-.34c0-2.08,1.69-3.77,3.77-3.77h.53c2.08,0,3.77,1.69,3.77,3.77v.34Zm26.02,11.5h-23.08v-11.84c0-3.7-3.01-6.71-6.71-6.71h-.53c-3.7,0-6.71,3.01-6.71,6.71v11.84h-23.08v-40.67h23.05c.81,0,1.47-.66,1.47-1.47s-.66-1.47-1.47-1.47h-18.85v-4.02h51.73v4.02h-19.83c-.81,0-1.47.66-1.47,1.47s.66,1.47,1.47,1.47h24.03v40.67Z"/>
      <path d="m45.92,61.15h-7.99c-.81,0-1.47.66-1.47,1.47v7.99c0,.81.66,1.47,1.47,1.47h7.99c.81,0,1.47-.66,1.47-1.47v-7.99c0-.81-.66-1.47-1.47-1.47h0Zm-1.47,7.99h-5.05v-5.05h5.05v5.05Z"/>
      <path d="m64,61.15h-7.99c-.81,0-1.47.66-1.47,1.47v7.99c0,.81.66,1.47,1.47,1.47h7.99c.81,0,1.47-.66,1.47-1.47v-7.99c0-.81-.66-1.47-1.47-1.47h0Zm-1.47,7.99h-5.05v-5.05h5.05v5.05Z"/>
      <path d="m82.08,61.15h-7.99c-.81,0-1.47.66-1.47,1.47v7.99c0,.81.66,1.47,1.47,1.47h7.99c.81,0,1.47-.66,1.47-1.47v-7.99c0-.81-.66-1.47-1.47-1.47h0Zm-1.47,7.99h-5.05v-5.05h5.05v5.05Z"/>
      <path d="m45.92,76.38h-7.99c-.81,0-1.47.66-1.47,1.47v7.99c0,.81.66,1.47,1.47,1.47h7.99c.81,0,1.47-.66,1.47-1.47v-7.99c0-.81-.66-1.47-1.47-1.47Zm-1.47,7.99h-5.05v-5.05h5.05v5.05Z"/>
      <path d="m82.08,76.38h-7.99c-.81,0-1.47.66-1.47,1.47v7.99c0,.81.66,1.47,1.47,1.47h7.99c.81,0,1.47-.66,1.47-1.47v-7.99c0-.81-.66-1.47-1.47-1.47Zm-1.47,7.99h-5.05v-5.05h5.05v5.05Z"/>
      <path d="m58.33,55.48c.51,1.23,2.32,1.16,2.75-.09.43-1.27-1-2.42-2.15-1.73-.62.37-.88,1.16-.6,1.82Z"/>
    </g>
  </g>
  <g>
    <rect class="cls-2" x="35.33" y="20.76" width="47.46" height="19.2" rx="6.68" ry="6.68"/>
    <path d="m80.19,40.72h-42.25c-1.86,0-3.36-1.51-3.36-3.36v-13.99c0-1.86,1.51-3.36,3.36-3.36h42.25c1.86,0,3.36,1.51,3.36,3.36v13.99c0,1.86-1.51,3.36-3.36,3.36Zm-42.25-19.2c-1.02,0-1.84.83-1.84,1.84v13.99c0,1.02.83,1.84,1.84,1.84h42.25c1.02,0,1.84-.83,1.84-1.84v-13.99c0-1.02-.83-1.84-1.84-1.84h-42.25Z"/>
  </g>
  <g>
    <path d="m43.15,25.55h3.55c.73,0,1.36.11,1.88.33.53.22.93.54,1.21.97.28.43.43.95.43,1.58,0,.51-.09.95-.26,1.31-.17.36-.41.67-.73.91s-.68.44-1.1.58l-.62.33h-3.09v-1.53s2.28,0,2.28,0c.34,0,.63-.06.86-.18s.4-.29.51-.51.17-.47.17-.76c0-.31-.06-.57-.17-.79-.11-.22-.29-.39-.52-.51s-.52-.18-.87-.18h-1.59v7.99h-1.96v-9.53Zm5.33,9.53l-2.17-4.25h2.07s2.2,4.16,2.2,4.16v.09h-2.1Z"/>
    <path d="m63.23,25.55v1.54h-7.78v-1.54h7.78Zm-2.93,0v9.53h-1.96v-9.53h1.96Z"/>
    <path d="m76.68,30.09v.45c0,.72-.1,1.37-.29,1.95-.2.58-.47,1.07-.83,1.47-.36.4-.78.71-1.28.93-.5.21-1.04.32-1.65.32s-1.14-.11-1.64-.32c-.5-.21-.92-.52-1.29-.93s-.64-.89-.84-1.47c-.2-.58-.3-1.23-.3-1.95v-.45c0-.73.1-1.38.29-1.95s.47-1.06.83-1.47c.36-.41.79-.72,1.28-.93.5-.21,1.04-.32,1.64-.32s1.15.11,1.65.32c.5.21.92.52,1.28.93.36.41.64.9.84,1.47.2.57.3,1.22.3,1.95Zm-1.98.45v-.46c0-.51-.05-.95-.14-1.34-.09-.38-.23-.71-.41-.97-.18-.26-.4-.46-.65-.59-.26-.13-.55-.2-.88-.2s-.63.07-.88.2-.47.33-.65.59c-.18.26-.31.58-.4.97-.09.38-.14.83-.14,1.34v.46c0,.5.05.95.14,1.33.09.39.23.71.41.98.18.26.4.46.65.6.26.14.55.2.88.2s.63-.07.88-.2c.26-.14.47-.33.65-.6.17-.26.31-.59.4-.98.09-.39.14-.83.14-1.33Z"/>
  </g>
</svg>