<?xml version="1.0" encoding="UTF-8"?>
<svg id="Layer_1" data-name="Layer 1" xmlns="http://www.w3.org/2000/svg" viewBox="0 0 120 120">
  <defs>
    <style>
      .cls-1 {
        fill: #d8ffe2;
      }

      .cls-2 {
        fill: #a7a9ac;
      }

      .cls-3 {
        fill: #79fc99;
      }

      .cls-4 {
        fill: #0ed942;
      }
    </style>
  </defs>
  <g>
    <path class="cls-1" d="m98.83,60c0,11.91-4.69,22.65-12.2,30.22-1.58,1.59-3.74,2.48-5.99,2.48h-41.28c-2.25,0-4.41-.88-5.99-2.48-7.51-7.57-12.2-18.31-12.2-30.22s4.69-22.65,12.2-30.22c1.58-1.59,3.74-2.48,5.99-2.48h41.28c2.25,0,4.41.88,5.99,2.48,7.51,7.57,12.2,18.31,12.2,30.22Z"/>
    <path class="cls-3" d="m86.63,29.78c-1.58-1.59-3.74-2.48-5.99-2.48h-4.7c2.25,0,4.41.88,5.99,2.48,7.51,7.57,12.2,18.31,12.2,30.22s-4.69,22.65-12.2,30.22c-1.58,1.59-3.74,2.48-5.99,2.48h4.7c2.25,0,4.41-.88,5.99-2.48,7.51-7.57,12.2-18.31,12.2-30.22s-4.69-22.65-12.2-30.22Z"/>
    <path class="cls-2" d="m83.5,50.88c-1.29,0-2.34,1.05-2.34,2.34v4.44h-18.81v-4.44c0-1.29-1.05-2.34-2.34-2.34s-2.34,1.05-2.34,2.34v4.44h-18.81v-4.44c0-1.29-1.05-2.34-2.34-2.34s-2.34,1.05-2.34,2.34v13.56c0,1.29,1.05,2.34,2.34,2.34s2.34-1.05,2.34-2.34v-4.44h18.81v4.44c0,1.29,1.05,2.34,2.34,2.34s2.34-1.05,2.34-2.34v-4.44h18.81v7.41c0,1.29,1.05,2.34,2.34,2.34s2.34-1.05,2.34-2.34v-16.54c0-1.29-1.05-2.34-2.34-2.34Z"/>
    <circle class="cls-3" cx="83.41" cy="78.22" r="10.09"/>
    <path class="cls-4" d="m83.41,68.12c-.81,0-1.59.1-2.35.28,4.44,1.06,7.74,5.05,7.74,9.82s-3.3,8.76-7.74,9.82c.75.18,1.54.28,2.35.28,5.57,0,10.09-4.52,10.09-10.09,0-5.57-4.52-10.09-10.09-10.09Z"/>
  </g>
  <g>
    <path d="m80.64,93.87h-32.27c-.65,0-1.17-.52-1.17-1.17s.52-1.17,1.17-1.17h32.27c1.93,0,3.81-.78,5.16-2.13,3.7-3.73,6.62-8.14,8.67-13.1,2.12-5.14,3.2-10.62,3.2-16.29s-1.07-11.15-3.2-16.29c-2.05-4.96-4.96-9.37-8.67-13.1-1.34-1.36-3.22-2.13-5.16-2.13h-41.28c-1.93,0-3.81.78-5.16,2.13-3.7,3.73-6.62,8.14-8.67,13.1-2.12,5.14-3.2,10.62-3.2,16.29s1.07,11.15,3.2,16.29c2.05,4.96,4.96,9.37,8.67,13.1,1.34,1.36,3.22,2.13,5.16,2.13h3.53c.65,0,1.17.52,1.17,1.17s-.52,1.17-1.17,1.17h-3.53c-2.55,0-5.04-1.03-6.82-2.83-3.92-3.95-7.01-8.62-9.17-13.86-2.24-5.43-3.37-11.21-3.37-17.18s1.13-11.76,3.37-17.18c2.16-5.25,5.25-9.91,9.17-13.86,1.78-1.8,4.27-2.83,6.82-2.83h41.28c2.55,0,5.04,1.03,6.82,2.83,3.92,3.95,7.01,8.62,9.17,13.86,2.24,5.43,3.37,11.21,3.37,17.18s-1.13,11.76-3.37,17.18c-2.16,5.25-5.25,9.91-9.17,13.86-1.78,1.8-4.27,2.83-6.82,2.83Z"/>
    <path d="m60,70.3c-1.94,0-3.52-1.58-3.52-3.52v-3.26h-16.47v3.26c0,1.94-1.58,3.52-3.52,3.52s-3.52-1.58-3.52-3.52v-13.56c0-1.94,1.58-3.52,3.52-3.52s3.52,1.58,3.52,3.52v3.26h16.47v-3.26c0-1.94,1.58-3.52,3.52-3.52s3.52,1.58,3.52,3.52v3.26h12.16c.65,0,1.17.52,1.17,1.17s-.52,1.17-1.17,1.17h-13.33c-.65,0-1.17-.52-1.17-1.17v-4.44c0-.65-.53-1.17-1.17-1.17s-1.17.53-1.17,1.17v4.44c0,.65-.52,1.17-1.17,1.17h-18.81c-.65,0-1.17-.52-1.17-1.17v-4.44c0-.65-.53-1.17-1.17-1.17s-1.17.53-1.17,1.17v13.56c0,.65.53,1.17,1.17,1.17s1.17-.53,1.17-1.17v-4.44c0-.65.52-1.17,1.17-1.17h18.81c.65,0,1.17.52,1.17,1.17v4.44c0,.65.53,1.17,1.17,1.17s1.17-.53,1.17-1.17v-4.44c0-.65.52-1.17,1.17-1.17h18.81c.65,0,1.17.52,1.17,1.17v6.03c0,.65-.52,1.17-1.17,1.17s-1.17-.52-1.17-1.17v-4.86h-16.47v3.26c0,1.94-1.58,3.52-3.52,3.52Z"/>
    <path d="m85.85,69.59c-.65,0-1.17-.52-1.17-1.17v-15.2c0-.65-.53-1.17-1.17-1.17s-1.17.53-1.17,1.17v4.44c0,.65-.52,1.17-1.17,1.17s-1.17-.52-1.17-1.17v-4.44c0-1.94,1.58-3.52,3.52-3.52s3.52,1.58,3.52,3.52v15.2c0,.65-.52,1.17-1.17,1.17Z"/>
    <g>
      <g>
        <path d="m86,83.47c-.33,0-.65-.13-.88-.4l-3.26-3.7c-.43-.49-.38-1.23.11-1.65.49-.43,1.23-.38,1.65.11l3.26,3.7c.43.49.38,1.23-.11,1.65-.22.2-.5.29-.77.29Z"/>
        <path d="m81.81,83.47c-.65,0-1.17-.52-1.17-1.17v-7.75c0-.65.52-1.17,1.17-1.17s1.17.52,1.17,1.17v7.75c0,.65-.52,1.17-1.17,1.17Z"/>
        <path d="m81.83,79.76c-.64,0-1.17-.52-1.17-1.16,0,0,0-1.47,0-2.03,0-.46,0-2.01,0-2.01,0-.31.12-.61.34-.83.22-.22.52-.34.83-.34h2.06c1.82,0,3.3,1.43,3.3,3.19s-1.48,3.19-3.3,3.19c-.57,0-2.04,0-2.04,0h0Zm1.16-4.04c0,.34,0,.67,0,.84,0,.2,0,.52,0,.85.34,0,.67,0,.88,0,.52,0,.96-.39.96-.84s-.44-.84-.96-.84h-.88Z"/>
      </g>
      <path d="m61.7,84.23h-.01c-.65,0-1.17-.53-1.16-1.18,0-.48,0-1,.01-1.55h-3.45c-.41,0-.8-.22-1.01-.58-.21-.36-.22-.8-.02-1.16.73-1.33,3.17-5.72,3.7-6.38.52-.64,1.23-.89,1.9-.68.68.21,1.15.86,1.22,1.65.03.33.02,2.6,0,4.81h0c.65,0,1.17.52,1.17,1.17s-.52,1.17-1.17,1.17h-.02c0,.64,0,1.19-.01,1.57,0,.64-.53,1.16-1.17,1.16Zm-2.62-5.08h1.47c0-.94,0-1.85.01-2.61-.43.74-.95,1.66-1.48,2.61Z"/>
      <path d="m36.27,84.32c-1.82,0-1.96-.05-2.12-.1-.38-.13-.67-.42-.79-.8-.2-.64.1-1.03.69-1.8.47-.61,1.34-1.76,2.81-3.85.41-.58.68-1.11.79-1.55l.03-.21c-.03-.63-.56-1.13-1.2-1.13-.57,0-1.06.41-1.17.96-.12.64-.74,1.05-1.38.92-.63-.12-1.05-.74-.92-1.38.33-1.65,1.79-2.86,3.47-2.86,1.95,0,3.54,1.59,3.54,3.54,0,.05,0,.1,0,.15l-.05.36s-.01.08-.02.12c-.17.75-.57,1.56-1.17,2.42-.88,1.26-1.55,2.18-2.06,2.86.77,0,1.66,0,2.5-.02,0,0,0,0,.01,0,.64,0,1.16.51,1.17,1.16,0,.65-.51,1.18-1.16,1.19-1.32.02-2.28.02-2.99.02Zm-1.57-2.37h0,0Z"/>
    </g>
    <g>
      <path d="m36.33,47.03c-.65,0-1.17-.52-1.17-1.17v-8.09h-.81c-.65,0-1.17-.52-1.17-1.17s.52-1.17,1.17-1.17h1.98c.65,0,1.17.52,1.17,1.17v9.26c0,.65-.52,1.17-1.17,1.17Z"/>
      <path d="m84.01,47.1c-.92,0-1.82-.32-2.53-.9-.5-.41-.58-1.15-.17-1.65.41-.5,1.15-.58,1.65-.17.21.18.58.38,1.08.37.86-.02,1.58-.71,1.62-1.57,0,0,0-.02,0-.02.04-.6-.2-1.07-.72-1.4-.68-.42-1.63-.45-2.27-.07-.39.23-.88.22-1.26-.04-.38-.26-.57-.71-.49-1.16l.69-4.16c.09-.57.58-.98,1.16-.98h2.85c.65,0,1.17.52,1.17,1.17s-.52,1.17-1.17,1.17h-1.86l-.23,1.39c.91-.04,1.85.19,2.64.68,1.27.78,1.93,2.08,1.83,3.55-.11,2.08-1.83,3.74-3.91,3.78-.03,0-.05,0-.08,0Z"/>
      <g>
        <path d="m60,42.4c-.65,0-1.17-.52-1.17-1.17s.52-1.17,1.17-1.17,1.2-.54,1.2-1.2-.54-1.2-1.2-1.2c-.33,0-.63.13-.86.37-.45.47-1.19.48-1.66.03-.47-.45-.48-1.19-.03-1.66.67-.7,1.58-1.09,2.55-1.09,1.95,0,3.54,1.59,3.54,3.54s-1.59,3.54-3.54,3.54Z"/>
        <path d="m60,47.14c-.85,0-1.67-.31-2.31-.86-.49-.42-.54-1.16-.12-1.65.42-.49,1.16-.54,1.65-.12.15.13.41.29.78.29.66,0,1.2-.54,1.2-1.2s-.54-1.2-1.2-1.2-1.17-.52-1.17-1.17.52-1.17,1.17-1.17c1.95,0,3.54,1.59,3.54,3.54s-1.59,3.54-3.54,3.54Z"/>
      </g>
    </g>
    <path d="m83.41,89.48c-6.21,0-11.26-5.05-11.26-11.27s5.05-11.26,11.26-11.26,11.27,5.05,11.27,11.26-5.05,11.27-11.27,11.27Zm0-20.19c-4.92,0-8.92,4-8.92,8.92s4,8.92,8.92,8.92,8.92-4,8.92-8.92-4-8.92-8.92-8.92Z"/>
  </g>
</svg>