<?xml version="1.0" encoding="UTF-8"?>
<svg id="Layer_1" data-name="Layer 1" xmlns="http://www.w3.org/2000/svg" viewBox="0 0 120 120">
  <defs>
    <style>
      .cls-1 {
        fill: #fff;
      }

      .cls-2 {
        fill: #a4c2f7;
      }

      .cls-3 {
        fill: #428dff;
      }

      .cls-4 {
        fill: #f1f2f2;
      }

      .cls-5 {
        fill: #cad9fc;
      }

      .cls-6 {
        fill: #7facfa;
      }

      .cls-7 {
        fill: #2b3990;
      }
    </style>
  </defs>
  <g id="Page-1">
    <g id="_026---Automatic" data-name="026---Automatic">
      <path id="Shape" class="cls-4" d="m47.94,88.14v8.04c0,1.48,1.2,2.68,2.68,2.68h13.4c1.48,0,2.68-1.2,2.68-2.68V23.82c0-1.48-1.2-2.68-2.68-2.68h-13.4c-1.48,0-2.68,1.2-2.68,2.68v64.32Z"/>
      <path id="Shape-2" data-name="Shape" class="cls-5" d="m64.02,21.14h-4.02c1.48,0,2.68,1.2,2.68,2.68v72.36c0,1.48-1.2,2.68-2.68,2.68h4.02c1.48,0,2.68-1.2,2.68-2.68V23.82c0-1.48-1.2-2.68-2.68-2.68Z"/>
      <rect id="Rectangle-path" class="cls-4" x="29.18" y="69.38" width="56.28" height="18.76" rx="8.65" ry="8.65"/>
      <path id="Shape-3" data-name="Shape" class="cls-5" d="m81.44,69.38h-4.02c2.22,0,4.02,1.8,4.02,4.02v10.72c0,2.22-1.8,4.02-4.02,4.02h4.02c2.22,0,4.02-1.8,4.02-4.02v-10.72c0-2.22-1.8-4.02-4.02-4.02Z"/>
      <path id="Shape-4" data-name="Shape" class="cls-2" d="m55.98,53.3h2.68c1.48,0,2.68,1.2,2.68,2.68v13.4h-8.04v-13.4c0-1.48,1.2-2.68,2.68-2.68Z"/>
      <path id="Shape-5" data-name="Shape" class="cls-6" d="m58.66,53.3h-2.68c-.23,0-.45.03-.67.1,1.18.3,2.01,1.37,2.01,2.58v13.4h4.02v-13.4c0-1.48-1.2-2.68-2.68-2.68Z"/>
      <path id="Shape-6" data-name="Shape" class="cls-1" d="m37.22,69.38h-4.02c-2.22,0-4.02,1.8-4.02,4.02v10.72c0,2.22,1.8,4.02,4.02,4.02h4.02c-2.22,0-4.02-1.8-4.02-4.02v-10.72c0-2.22,1.8-4.02,4.02-4.02Z"/>
      <path id="Shape-7" data-name="Shape" class="cls-1" d="m51.96,23.82c0-1.48,1.2-2.68,2.68-2.68h-4.02c-1.48,0-2.68,1.2-2.68,2.68v45.56h4.02V23.82Z"/>
      <path id="Shape-8" data-name="Shape" class="cls-1" d="m50.62,98.86h4.02c-1.48,0-2.68-1.2-2.68-2.68v-8.04h-4.02v8.04c0,1.48,1.2,2.68,2.68,2.68Z"/>
      <path id="Rectangle-path-2" data-name="Rectangle-path" class="cls-1" d="m46.6,58.66h2.68v10.72h-2.68v-10.72Z"/>
      <g>
        <circle id="Oval" class="cls-3" cx="47.94" cy="64.02" r="1.34"/>
        <path id="Shape-9" data-name="Shape" class="cls-7" d="m27.84,73.4v10.72c0,2.96,2.4,5.36,5.36,5.36h13.4v6.7c0,2.22,1.8,4.02,4.02,4.02h13.4c2.22,0,4.02-1.8,4.02-4.02v-6.7h13.4c2.96,0,5.36-2.4,5.36-5.36v-10.72c0-2.96-2.4-5.36-5.36-5.36h-13.4v-6.7h5.36c.74,0,1.34-.6,1.34-1.34s-.6-1.34-1.34-1.34h-5.36v-13.4h5.36c.74,0,1.34-.6,1.34-1.34s-.6-1.34-1.34-1.34h-5.36v-13.4h5.36c.74,0,1.34-.6,1.34-1.34s-.6-1.34-1.34-1.34h-5.36v-2.68c0-2.22-1.8-4.02-4.02-4.02h-13.4c-2.22,0-4.02,1.8-4.02,4.02v34.84c0,.74.6,1.34,1.34,1.34s1.34-.6,1.34-1.34V23.82c0-.74.6-1.34,1.34-1.34h13.4c.74,0,1.34.6,1.34,1.34v44.22h-2.68v-12.06c0-2.22-1.8-4.02-4.02-4.02v-22.78c0-.74-.6-1.34-1.34-1.34s-1.34.6-1.34,1.34v22.78c-2.22,0-4.02,1.8-4.02,4.02v12.06h-18.76c-2.96,0-5.36,2.4-5.36,5.36Zm37.52,22.78c0,.74-.6,1.34-1.34,1.34h-13.4c-.74,0-1.34-.6-1.34-1.34v-6.7h6.7v1.34c0,.74.6,1.34,1.34,1.34s1.34-.6,1.34-1.34v-1.34h6.7v6.7Zm18.76-22.78v10.72c0,1.48-1.2,2.68-2.68,2.68h-48.24c-1.48,0-2.68-1.2-2.68-2.68v-10.72c0-1.48,1.2-2.68,2.68-2.68h48.24c1.48,0,2.68,1.2,2.68,2.68Zm-29.48-17.42c0-.74.6-1.34,1.34-1.34h2.68c.74,0,1.34.6,1.34,1.34v12.06h-5.36v-12.06Z"/>
        <path id="Shape-10" data-name="Shape" class="cls-3" d="m34.54,72.06c-.74,0-1.34.6-1.34,1.34v1.34c0,.74.6,1.34,1.34,1.34s1.34-.6,1.34-1.34v-1.34c0-.74-.6-1.34-1.34-1.34Z"/>
        <path id="Shape-11" data-name="Shape" class="cls-3" d="m34.54,77.42c-.74,0-1.34.6-1.34,1.34v5.36c0,.74.6,1.34,1.34,1.34s1.34-.6,1.34-1.34v-5.36c0-.74-.6-1.34-1.34-1.34Z"/>
        <path id="Shape-12" data-name="Shape" class="cls-3" d="m80.1,76.08c.74,0,1.34-.6,1.34-1.34v-1.34c0-.74-.6-1.34-1.34-1.34s-1.34.6-1.34,1.34v1.34c0,.74.6,1.34,1.34,1.34Z"/>
        <path id="Shape-13" data-name="Shape" class="cls-3" d="m80.1,85.46c.74,0,1.34-.6,1.34-1.34v-5.36c0-.74-.6-1.34-1.34-1.34s-1.34.6-1.34,1.34v5.36c0,.74.6,1.34,1.34,1.34Z"/>
        <path id="Shape-14" data-name="Shape" class="cls-3" d="m78.76,29.18h1.34c.74,0,1.34-.6,1.34-1.34s-.6-1.34-1.34-1.34h-1.34c-.74,0-1.34.6-1.34,1.34s.6,1.34,1.34,1.34Z"/>
        <path id="Shape-15" data-name="Shape" class="cls-3" d="m84.12,33.2c.74,0,1.34-.6,1.34-1.34v-2.68h2.68c2.22,0,4.02-1.8,4.02-4.02s-1.8-4.02-4.02-4.02h-4.02c-.74,0-1.34.6-1.34,1.34v9.38c0,.74.6,1.34,1.34,1.34Zm5.36-8.04c0,.74-.6,1.34-1.34,1.34h-2.68v-2.68h2.68c.74,0,1.34.6,1.34,1.34Z"/>
        <path id="Shape-16" data-name="Shape" class="cls-3" d="m78.76,45.26h1.34c.74,0,1.34-.6,1.34-1.34s-.6-1.34-1.34-1.34h-1.34c-.74,0-1.34.6-1.34,1.34s.6,1.34,1.34,1.34Z"/>
        <path id="Shape-17" data-name="Shape" class="cls-3" d="m82.78,43.92v4.02c0,.74.6,1.34,1.34,1.34s1.34-.6,1.34-1.34v-2.68h1.96l2.28,3.42c.27.4.72.62,1.2.59s.9-.31,1.11-.74.18-.94-.09-1.34l-1.7-2.55c1.53-.94,2.26-2.78,1.77-4.51s-2.07-2.92-3.86-2.92h-4.02c-.74,0-1.34.6-1.34,1.34v5.36Zm6.7-2.68c0,.74-.6,1.34-1.34,1.34h-2.68v-2.68h2.68c.74,0,1.34.6,1.34,1.34Z"/>
        <path id="Shape-18" data-name="Shape" class="cls-3" d="m78.76,61.34h1.34c.74,0,1.34-.6,1.34-1.34s-.6-1.34-1.34-1.34h-1.34c-.74,0-1.34.6-1.34,1.34s.6,1.34,1.34,1.34Z"/>
        <path id="Shape-19" data-name="Shape" class="cls-3" d="m82.78,64.02c0,.74.6,1.34,1.34,1.34h4.02c2.22,0,4.02-1.8,4.02-4.02v-4.02c0-2.22-1.8-4.02-4.02-4.02h-4.02c-.74,0-1.34.6-1.34,1.34v9.38Zm6.7-6.7v4.02c0,.74-.6,1.34-1.34,1.34h-2.68v-6.7h2.68c.74,0,1.34.6,1.34,1.34Z"/>
      </g>
    </g>
  </g>
</svg>