<?xml version="1.0" encoding="UTF-8"?>
<svg id="Layer_1" data-name="Layer 1" xmlns="http://www.w3.org/2000/svg" viewBox="0 0 132.11 118.68">
  <defs>
    <style>
      .cls-1 {
        fill: #323232;
      }
    </style>
  </defs>
  <path class="cls-1" d="m119.99,64.54c-.23-.43-.68-.7-1.17-.7h-21.92c0-38.55,0-27.56,0-62.52,0-.73-.59-1.32-1.32-1.32s-1.32.59-1.32,1.32v27.95h-8.01c.44-.65.76-1.39.91-2.18h1.09c1.94,0,3.51-1.57,3.51-3.51v-5.69c0-1.93-1.57-3.51-3.51-3.51h-4.66c-.24,0-.46-.09-.62-.26l-6.38-6.56c-.67-.69-1.62-1.06-2.52-1.06-.14,0-10.14,0-9.89,0-.92,0-1.82.37-2.47,1.03l-6.28,6.28c-.16.16-.38.25-.61.25h-.89c-1.94,0-3.51,1.57-3.51,3.51v6.02c0,1.93,1.57,3.51,3.51,3.51h2.45c.16.79.47,1.53.91,2.18h-16.73c.44-.65.76-1.39.91-2.18h1.08c1.94,0,3.51-1.57,3.51-3.51v-5.69c0-1.93-1.57-3.51-3.51-3.51h-4.66c-.24,0-.46-.09-.62-.26l-6.38-6.56h0s0,0,0,0c-.61-.63-1.54-1.06-2.52-1.06-.14,0-10.14,0-9.89,0-.92,0-1.82.37-2.47,1.03l-6.28,6.28c-.16.16-.38.25-.61.25h-.89c-1.93,0-3.51,1.57-3.51,3.51v6.02c0,1.93,1.57,3.51,3.51,3.51h2.45c.16.79.47,1.53.91,2.18H2.64V1.32C2.64.59,2.05,0,1.32,0S0,.59,0,1.32c0,30.85,0-14.76,0,89.17,0,2.2,1.79,3.99,3.99,3.99h5.03v6.1c0,1.96,1.59,3.55,3.55,3.55h1.45c-.44,1.18-.7,2.45-.7,3.78,0,3.25,1.45,6.16,3.73,8.14h-6.71c-.73,0-1.32.59-1.32,1.32s.59,1.32,1.32,1.32h120.46c.73,0,1.32-.59,1.32-1.32s-.59-1.32-1.32-1.32h-10.81c2.28-1.98,3.73-4.89,3.73-8.14,0-1.33-.25-2.61-.7-3.78h5.55c1.96,0,3.55-1.59,3.55-3.55,0-1.3,0-13.23,0-12.82,0-.22-.05-.43-.15-.62l-11.97-22.6Zm-1.96,1.94l11.45,21.6v3.76h-32.57v-25.37h21.12ZM8.25,87.04c-.48,0-.87-.39-.87-.87v-6.02c0-.48.39-.87.87-.87h.89c.92,0,1.82-.37,2.47-1.03,7.24-7.2,6.11-6.17,6.42-6.38v1.39c0,3.49,2.84,6.34,6.34,6.34h18.19c.48,0,.87.39.87.87v5.69c0,.48-.39.87-.87.87h-1.17c-.66-2.6-3-4.54-5.8-4.54s-5.14,1.94-5.8,4.54h-7.42c-.66-2.6-3-4.54-5.8-4.54s-5.14,1.94-5.8,4.54h-2.53Zm25.61-10.08h-9.49c-2.04,0-3.7-1.66-3.7-3.7v-1.55h7.72c.23,0,.46.1.62.26l4.84,4.98Zm20.08,10.08c-.48,0-.87-.39-.87-.87v-6.02c0-.48.39-.87.87-.87h.89c.92,0,1.82-.37,2.47-1.03l6.28-6.28s.1-.06.14-.1v1.39c0,3.49,2.84,6.34,6.34,6.34h18.2c.48,0,.87.39.87.87v5.69c0,.48-.39.87-.87.87h-1.17c-.66-2.6-3-4.54-5.8-4.54s-5.14,1.94-5.8,4.54h-7.42c-.66-2.6-3-4.54-5.8-4.54s-5.14,1.94-5.8,4.54h-2.53Zm20.58-15.18c.06.04.13.07.18.12l4.38,4.51.46.48h-9.49c-2.04,0-3.7-1.66-3.7-3.7v-1.55h7.72c.16,0,.31.06.45.14h0ZM8.25,53.73c-.48,0-.87-.39-.87-.87v-6.02c0-.48.39-.87.87-.87h.89c.92,0,1.82-.37,2.47-1.03,7.24-7.2,6.11-6.17,6.42-6.38v1.39c0,3.49,2.84,6.34,6.34,6.34h18.2c.48,0,.87.39.87.87v5.69c0,.48-.39.87-.87.87h-1.17c-.66-2.6-3-4.54-5.8-4.54s-5.14,1.94-5.8,4.54h-7.42c-.66-2.6-3-4.54-5.8-4.54s-5.14,1.94-5.8,4.54h-2.53Zm20.76-15.06l4.84,4.98h-9.49c-2.04,0-3.7-1.66-3.7-3.7v-1.55h7.72c.23,0,.46.1.63.26Zm24.92,15.06c-.48,0-.87-.39-.87-.87v-6.02c0-.48.39-.87.87-.87h.89c.92,0,1.82-.37,2.47-1.03,7.24-7.2,6.11-6.17,6.43-6.38v1.39c0,3.49,2.84,6.34,6.34,6.34h18.2c.48,0,.87.39.87.87v5.69c0,.48-.39.87-.87.87h-1.17c-.66-2.6-3-4.54-5.8-4.54s-5.14,1.94-5.8,4.54h-7.42c-.66-2.6-3-4.54-5.8-4.54s-5.14,1.94-5.8,4.54h-2.53Zm20.63-15.15s.09.05.13.09l4.84,4.98h-9.49c-2.04,0-3.7-1.66-3.7-3.7v-1.55h7.72c.18,0,.35.07.49.17h0Zm-6.42,17.79h7.26c.15.74.44,1.42.83,2.03h-8.91c.39-.61.68-1.29.83-2.03Zm12.19,2.03c-1.39-.41-2.41-1.68-2.41-3.21,0-1.86,1.51-3.37,3.36-3.37s3.37,1.51,3.37,3.37c0,1.52-1.03,2.8-2.42,3.21h-1.89Zm-21.43-3.21c0-1.86,1.51-3.37,3.36-3.37s3.37,1.51,3.37,3.37c0,1.52-1.03,2.8-2.42,3.21h-1.89c-1.39-.41-2.41-1.68-2.41-3.21Zm-36.44,1.18h7.26c.15.74.44,1.42.83,2.03h-8.91c.39-.61.68-1.29.83-2.03Zm12.19,2.03c-1.39-.41-2.41-1.68-2.41-3.21,0-1.86,1.51-3.37,3.36-3.37s3.37,1.51,3.37,3.37c0,1.52-1.03,2.8-2.42,3.21h-1.89Zm-21.43-3.21c0-1.86,1.51-3.37,3.36-3.37s3.37,1.51,3.37,3.37c0,1.52-1.03,2.8-2.42,3.21h-1.89c-1.39-.41-2.41-1.68-2.41-3.21Zm54.93,34.49h7.26c.16.79.47,1.52.9,2.16h-9.06c.43-.64.74-1.37.9-2.16h0Zm12.93,2.16c-1.76-.11-3.15-1.56-3.15-3.34s1.51-3.37,3.36-3.37,3.37,1.51,3.37,3.37-1.4,3.23-3.16,3.34h-.41Zm-22.17-3.34c0-1.86,1.51-3.37,3.36-3.37s3.37,1.51,3.37,3.37-1.4,3.23-3.16,3.34h-.41c-1.76-.11-3.15-1.56-3.15-3.34Zm-36.44,1.18h7.26c.16.79.47,1.52.9,2.16h-9.06c.43-.64.74-1.37.9-2.16Zm12.93,2.16c-1.76-.11-3.16-1.56-3.16-3.34s1.51-3.37,3.36-3.37,3.37,1.51,3.37,3.37-1.4,3.23-3.16,3.34h-.41Zm-22.18-3.34c0-1.86,1.51-3.37,3.36-3.37s3.37,1.51,3.37,3.37-1.4,3.23-3.16,3.34h-.41c-1.76-.11-3.16-1.56-3.16-3.34Zm54.93-61.4h7.26c.16.79.47,1.53.91,2.18h-9.09c.44-.65.76-1.39.91-2.18Zm9.78-1.18c0-1.86,1.51-3.37,3.36-3.37s3.37,1.51,3.37,3.37-1.51,3.36-3.37,3.36-3.36-1.51-3.36-3.36Zm-3.85-16.78c.18,0,.35.07.49.17.15.11,4.85,4.94,4.98,5.08h-9.49c-2.04,0-3.7-1.66-3.7-3.7v-1.55h7.72Zm-21.01,14.45v-6.02c0-.48.39-.87.87-.87h.89c.92,0,1.82-.37,2.47-1.02,7.3-7.26,6.11-6.17,6.43-6.38v1.39c0,3.49,2.84,6.34,6.34,6.34h18.2c.48,0,.87.39.87.87v5.69c0,.48-.39.87-.87.87h-1.17c-.66-2.6-3-4.54-5.8-4.54s-5.14,1.94-5.8,4.54h-7.42c-.66-2.6-3-4.54-5.8-4.54s-5.14,1.94-5.8,4.54h-2.53c-.48,0-.87-.39-.87-.87h0Zm5.84,2.33c0-1.86,1.51-3.37,3.36-3.37s3.37,1.51,3.37,3.37-1.51,3.36-3.37,3.36-3.36-1.51-3.36-3.36Zm-36.44,1.18h7.26c.16.79.47,1.53.91,2.18h-9.08c.44-.65.76-1.39.91-2.18Zm9.78-1.18c0-1.86,1.51-3.37,3.36-3.37s3.37,1.51,3.37,3.37-1.51,3.36-3.37,3.36-3.36-1.51-3.36-3.36Zm-3.85-16.78c.23,0,.46.1.62.26l4.84,4.98h-9.49c-2.04,0-3.7-1.66-3.7-3.7v-1.55h7.72ZM7.38,23.58v-6.02c0-.48.39-.87.87-.87h.89c.92,0,1.82-.37,2.47-1.02,7.29-7.26,6.11-6.17,6.42-6.38v1.39c0,3.49,2.84,6.34,6.34,6.34h18.2c.48,0,.87.39.87.87v5.69c0,.48-.39.87-.87.87h-1.17c-.66-2.6-3-4.54-5.8-4.54s-5.14,1.94-5.8,4.54h-7.42c-.66-2.6-3-4.54-5.8-4.54s-5.14,1.94-5.8,4.54h-2.53c-.48,0-.87-.39-.87-.87h0Zm5.84,2.33c0-1.86,1.51-3.37,3.36-3.37s3.37,1.51,3.37,3.37-1.51,3.36-3.37,3.36-3.36-1.51-3.36-3.36Zm81.05,6v26.48h-7.93c.39-.61.68-1.29.83-2.03h1.09c1.94,0,3.51-1.57,3.51-3.51v-5.69c0-1.94-1.57-3.51-3.51-3.51h-4.66c-.24,0-.46-.09-.62-.26l-6.38-6.56c-.59-.61-1.52-1.06-2.52-1.06-.14,0-10.14,0-9.89,0-.92,0-1.82.37-2.47,1.03l-6.28,6.28c-.16.16-.38.25-.61.25h-.89c-1.94,0-3.51,1.57-3.51,3.51v6.02c0,1.93,1.57,3.51,3.51,3.51h2.45c.15.74.44,1.42.83,2.03h-16.56c.39-.61.68-1.29.83-2.03h1.08c1.94,0,3.51-1.57,3.51-3.51v-5.69c0-1.94-1.57-3.51-3.51-3.51h-4.66c-.24,0-.46-.09-.62-.26l-6.38-6.56h0s0,0,0,0c-.03-.03-.06-.04-.08-.07-.65-.63-1.53-.99-2.43-.99-.14,0-10.14,0-9.89,0-.92,0-1.82.37-2.47,1.03l-6.28,6.28c-.16.16-.38.25-.61.25h-.89c-1.93,0-3.51,1.57-3.51,3.51v6.02c0,1.93,1.57,3.51,3.51,3.51h2.45c.15.74.44,1.42.83,2.03H2.64v-26.48h91.63ZM2.64,90.49v-29.3h91.63c0,4.65,0,23.76,0,30.65h-8c.43-.64.74-1.37.9-2.16h1.09c1.94,0,3.51-1.57,3.51-3.51v-5.69c0-1.93-1.57-3.51-3.51-3.51h-4.66c-.24,0-.46-.09-.62-.26l-6.38-6.56c-.66-.67-1.57-1.06-2.52-1.06-.14,0-10.14,0-9.89,0-.92,0-1.82.37-2.47,1.03l-6.28,6.28c-.16.16-.38.25-.61.25h-.89c-1.94,0-3.51,1.57-3.51,3.51v6.02c0,1.94,1.57,3.51,3.51,3.51h2.45c.16.79.47,1.52.9,2.16h-16.71c.43-.64.74-1.37.9-2.16h1.08c1.94,0,3.51-1.57,3.51-3.51v-5.69c0-1.93-1.57-3.51-3.51-3.51h-4.66c-.24,0-.46-.09-.62-.26l-6.38-6.56c-.66-.67-1.57-1.06-2.52-1.06-.14,0-10.14,0-9.89,0-.92,0-1.82.37-2.47,1.03l-6.28,6.28c-.16.16-.38.25-.61.25h-.89c-1.93,0-3.51,1.57-3.51,3.51v6.02c0,1.94,1.57,3.51,3.51,3.51h2.45c.16.79.47,1.52.9,2.16H3.99c-.74,0-1.35-.6-1.35-1.35h0Zm13.31,17.42c0-4.49,3.65-8.14,8.14-8.14s8.14,3.65,8.14,8.14-3.65,8.14-8.14,8.14-8.14-3.65-8.14-8.14h0Zm15.18,8.14c2.28-1.98,3.73-4.89,3.73-8.14,0-1.33-.25-2.61-.7-3.78h5.8c-.44,1.18-.7,2.45-.7,3.78,0,3.25,1.45,6.16,3.73,8.14h-11.87Zm27.05-8.14c0,4.49-3.65,8.14-8.14,8.14s-8.13-3.65-8.13-8.14,3.65-8.14,8.13-8.14,8.14,3.65,8.14,8.14Zm-1.09,8.14c2.28-1.98,3.73-4.89,3.73-8.14,0-1.33-.25-2.61-.7-3.78h7.84c-.44,1.18-.7,2.45-.7,3.78,0,3.25,1.45,6.16,3.73,8.14h-13.9Zm29.08-8.14c0,4.49-3.65,8.14-8.14,8.14s-8.14-3.65-8.14-8.14,3.65-8.14,8.14-8.14,8.14,3.65,8.14,8.14Zm-1.09,8.14c2.28-1.98,3.73-4.89,3.73-8.14,0-1.33-.25-2.61-.7-3.78h14.76c-.44,1.18-.7,2.45-.7,3.78,0,3.25,1.45,6.16,3.73,8.14h-20.83Zm27.87,0c-4.49,0-8.14-3.65-8.14-8.14s3.65-8.14,8.14-8.14,8.14,3.65,8.14,8.14-3.65,8.14-8.14,8.14Zm15.62-14.56h-6.99c-1.97-2.63-5.1-4.35-8.63-4.35s-6.66,1.72-8.63,4.35h-17.65c-1.97-2.63-5.1-4.35-8.63-4.35s-6.66,1.72-8.63,4.35h-10.73c-1.97-2.63-5.1-4.35-8.63-4.35s-6.66,1.72-8.63,4.35h-8.69c-1.97-2.63-5.1-4.35-8.63-4.35s-6.66,1.72-8.63,4.35h-2.89c-.51,0-.92-.41-.92-.92v-6.09c57.02,0,56,0,117.83.01v6.08c0,.5-.41.92-.92.92h0Z"/>
  <path class="cls-1" d="m102.23,86.91l18.72.23h.02c.73,0,1.32-.59,1.32-1.32v-4.68c0-.27-.09-.54-.25-.77l-7.47-10.46c-.25-.35-.65-.55-1.07-.55h-11.25c-.73,0-1.32.59-1.32,1.32v14.91c0,.72.58,1.31,1.3,1.32h0Zm1.33-14.91h9.25l6.83,9.56v2.93l-16.08-.2v-12.29Z"/>
  <path class="cls-1" d="m24.09,102.22c-3.14,0-5.69,2.55-5.69,5.69s2.55,5.69,5.69,5.69,5.69-2.55,5.69-5.69-2.55-5.69-5.69-5.69Zm0,8.74c-1.68,0-3.05-1.37-3.05-3.05s1.37-3.05,3.05-3.05,3.05,1.37,3.05,3.05c0,1.68-1.37,3.05-3.05,3.05Z"/>
  <path class="cls-1" d="m50.04,102.22c-3.14,0-5.69,2.55-5.69,5.69s2.55,5.69,5.69,5.69,5.69-2.55,5.69-5.69-2.55-5.69-5.69-5.69Zm0,8.74c-1.68,0-3.05-1.37-3.05-3.05s1.37-3.05,3.05-3.05,3.05,1.37,3.05,3.05c0,1.68-1.37,3.05-3.05,3.05Z"/>
  <path class="cls-1" d="m78.03,102.22c-3.14,0-5.69,2.55-5.69,5.69s2.55,5.69,5.69,5.69,5.69-2.55,5.69-5.69-2.55-5.69-5.69-5.69Zm0,8.74c-1.68,0-3.05-1.37-3.05-3.05s1.37-3.05,3.05-3.05,3.05,1.37,3.05,3.05-1.37,3.05-3.05,3.05Z"/>
  <path class="cls-1" d="m112.94,102.22c-3.14,0-5.69,2.55-5.69,5.69s2.55,5.69,5.69,5.69,5.69-2.55,5.69-5.69-2.55-5.69-5.69-5.69Zm0,8.74c-1.68,0-3.05-1.37-3.05-3.05s1.37-3.05,3.05-3.05,3.05,1.37,3.05,3.05-1.37,3.05-3.05,3.05Z"/>
</svg>