<svg width="123" height="106" viewBox="0 0 123 106" fill="none" xmlns="http://www.w3.org/2000/svg">
<path d="M31.355 49.1309C28.6634 49.1309 26.4766 51.3177 26.4766 54.0093C26.4766 56.7008 28.6634 58.8876 31.355 58.8876C34.0465 58.8876 36.2333 56.7008 36.2333 54.0093C36.2333 51.3177 34.0465 49.1309 31.355 49.1309ZM31.355 56.4585C29.989 56.4585 28.8788 55.355 28.8788 53.9823C28.8788 52.6097 29.9823 51.5061 31.355 51.5061C32.7276 51.5061 33.8312 52.6097 33.8312 53.9823C33.8312 55.355 32.7276 56.4585 31.355 56.4585Z" fill="#323232" stroke="#323232" stroke-width="0.4"/>
<path d="M90.8667 49.1309C88.1751 49.1309 85.9883 51.3177 85.9883 54.0093C85.9883 56.7008 88.1751 58.8876 90.8667 58.8876C93.5582 58.8876 95.7451 56.7008 95.7451 54.0093C95.7451 51.3177 93.5582 49.1309 90.8667 49.1309ZM90.8667 56.4585C89.5007 56.4585 88.3905 55.355 88.3905 53.9823C88.3905 52.6097 89.494 51.5061 90.8667 51.5061C92.2394 51.5061 93.3429 52.6097 93.3429 53.9823C93.3429 55.355 92.2394 56.4585 90.8667 56.4585Z" fill="#323232" stroke="#323232" stroke-width="0.4"/>
<path d="M71.2926 76.7254C70.6197 76.7254 70.0949 77.2569 70.0949 77.9231V85.7285C70.0949 87.2896 68.8433 88.5411 67.2822 88.5411H55.13C53.5689 88.5411 52.3173 87.2694 52.3173 85.7285V73.5763C52.3173 72.0152 53.5689 70.7636 55.13 70.7636H67.2822C67.9551 70.7636 68.4799 70.232 68.4799 69.5659C68.4799 68.8997 67.9484 68.3682 67.2822 68.3682H55.13C52.25 68.3682 49.9219 70.6963 49.9219 73.5763V85.7285C49.9219 88.6084 52.25 90.9366 55.13 90.9366H67.2822C70.1621 90.9366 72.4903 88.6084 72.4903 85.7285V77.9231C72.4903 77.2502 71.9587 76.7254 71.2926 76.7254Z" fill="#323232" stroke="#323232" stroke-width="0.4"/>
<path d="M70.4539 71.2945L59.7416 82.0068L56.8146 79.0797C56.3369 78.602 55.59 78.602 55.1122 79.0797C54.6345 79.5575 54.6345 80.3044 55.1122 80.7821L58.8804 84.5503C59.0957 84.7656 59.4119 84.9136 59.7215 84.9136C60.031 84.9136 60.3472 84.7925 60.5626 84.5503L72.1361 72.9767C72.6139 72.499 72.6139 71.7521 72.1361 71.2743C71.6584 70.7966 70.9115 70.7966 70.4337 71.2743L70.4606 71.3012L70.4539 71.2945Z" fill="#323232" stroke="#323232" stroke-width="0.4"/>
<path d="M41.7067 76.7254C41.0338 76.7254 40.5089 77.2569 40.5089 77.9231V85.7285C40.5089 87.2896 39.2574 88.5411 37.6963 88.5411H25.544C23.983 88.5411 22.7314 87.2694 22.7314 85.7285V73.5763C22.7314 72.0152 23.983 70.7636 25.544 70.7636H37.6963C38.3692 70.7636 38.894 70.232 38.894 69.5659C38.894 68.8997 38.3624 68.3682 37.6963 68.3682H25.544C22.6641 68.3682 20.3359 70.6963 20.3359 73.5763V85.7285C20.3359 88.6084 22.6641 90.9366 25.544 90.9366H37.6963C40.5762 90.9366 42.9044 88.6084 42.9044 85.7285V77.9231C42.9044 77.2502 42.3728 76.7254 41.7067 76.7254Z" fill="#323232" stroke="#323232" stroke-width="0.4"/>
<path d="M40.8641 71.2945L30.1518 82.0068L27.2248 79.0797C26.747 78.602 26.0001 78.602 25.5224 79.0797C25.0446 79.5575 25.0446 80.3044 25.5224 80.7821L29.2905 84.5503C29.5058 84.7656 29.8221 84.9136 30.1316 84.9136C30.4411 84.9136 30.7574 84.7925 30.9727 84.5503L42.5261 72.9767C43.0038 72.499 43.0038 71.7521 42.5261 71.2743C42.0483 70.7966 41.3014 70.7966 40.8237 71.2743L40.8708 71.3012L40.8641 71.2945Z" fill="#323232" stroke="#323232" stroke-width="0.4"/>
<path d="M96.8723 68.3408H84.6729C81.793 68.3408 79.4648 70.669 79.4648 73.5489V85.7483C79.4648 88.6282 81.793 90.9564 84.6729 90.9564H96.8723C99.7522 90.9564 102.08 88.6282 102.08 85.7483V73.5489C102.08 70.669 99.7522 68.3408 96.8723 68.3408ZM99.6849 85.755C99.6849 87.3161 98.4334 88.5676 96.8723 88.5676H84.6729C83.1119 88.5676 81.8603 87.3161 81.8603 85.755V73.5557C81.8603 71.9946 83.1119 70.743 84.6729 70.743H96.8723C98.4334 70.743 99.6849 71.9946 99.6849 73.5557V85.755Z" fill="#323232" stroke="#323232" stroke-width="0.4"/>
<path d="M101.459 37.4829C101.432 35.1749 101.169 32.369 100.449 29.4352C100.449 29.3881 100.449 29.3612 100.422 29.3141C99.6082 25.9026 98.1683 22.3228 95.6921 19.0594L98.4307 17.5252C98.8883 17.2628 99.1305 16.7312 99.0094 16.2063C98.8883 15.6815 98.4307 15.3181 97.9059 15.271C94.1579 15.0557 61.2607 13.2053 57.1292 14.7193C55.2048 15.4191 52.0624 18.0097 48.4087 21.0107C47.7627 21.5423 47.11 22.0941 46.4372 22.6189C42.669 25.694 38.5577 28.8632 36.4247 29.2199C35.8729 29.3141 35.2471 29.3881 34.6012 29.4823C32.7036 29.7245 30.3284 30.061 28.0473 30.9021C28.0002 30.9021 27.9531 30.9492 27.906 30.9761C24.4003 32.3219 21.1368 34.9865 20.2688 40.7261C20.1275 41.7557 19.5488 42.6708 18.7346 43.2225C17.3148 44.1848 16.4805 45.766 16.4805 47.4953V53.3292C16.4805 55.2267 18.0146 56.7609 19.892 56.7609H21.4261C22.6508 61.1346 26.6343 64.3712 31.3915 64.3712C36.1488 64.3712 40.1323 61.1279 41.3569 56.7609H80.9089C82.1335 61.1346 86.117 64.3712 90.8742 64.3712C95.6315 64.3712 99.615 61.1279 100.84 56.7609H102.569C104.466 56.7609 106.001 55.2267 106.001 53.3292C106.001 50.7857 105.57 47.0849 103.504 43.7945C102.185 41.7018 101.513 39.5688 101.486 37.4559L101.459 37.4829ZM98.3365 30.9021C98.7941 33.1831 99.0094 35.3229 99.0363 37.1733C97.9799 37.4156 96.9235 37.4358 96.661 37.1733C95.3893 36.0227 92.8929 32.2748 92.9871 31.5077C94.2387 30.9559 96.7552 30.8617 98.3163 30.8819L98.3432 30.9088L98.3365 30.9021ZM82.6786 27.5175C82.8737 28.3317 82.4632 29.1257 81.6961 29.3881C80.0139 29.9668 77.5647 30.3974 74.4694 30.7339V16.6639C74.8328 16.6639 75.2163 16.6639 75.5729 16.6908C80.162 19.813 82.0124 24.8058 82.6786 27.5242V27.5175ZM49.9227 22.8611C53.1189 20.2436 56.4093 17.5319 57.9434 16.9532C59.2421 16.4755 64.9077 16.4217 72.0672 16.5697V30.9088C65.9642 31.3394 57.7281 31.3664 47.6214 30.9559C47.4801 30.9559 47.3792 30.8617 47.3321 30.8146C47.285 30.7675 47.2379 30.6464 47.2379 30.5051L48.2472 24.2338C48.799 23.7763 49.3776 23.3187 49.9294 22.841V22.8679L49.9227 22.8611ZM27.1995 33.8829C27.2264 34.9124 27.1524 36.3591 26.6477 37.8933C26.17 39.3131 24.2724 40.0062 22.7315 40.3426C23.4313 37.0051 25.1068 35.0807 27.1995 33.9031V33.8762V33.8829ZM31.3511 61.9825C26.9303 61.9825 23.3573 58.4027 23.3573 53.9886C23.3573 49.5745 26.937 45.9948 31.3511 45.9948C35.7653 45.9948 39.345 49.5745 39.345 53.9886C39.345 58.4027 35.7653 61.9825 31.3511 61.9825ZM90.8406 61.9825C86.4198 61.9825 82.8468 58.4027 82.8468 53.9886C82.8468 49.5745 86.4265 45.9948 90.8406 45.9948C95.2547 45.9948 98.8344 49.5745 98.8344 53.9886C98.8344 58.4027 95.2547 61.9825 90.8406 61.9825ZM102.535 54.3722H101.19C101.19 54.2511 101.237 54.1098 101.237 53.9886C101.237 48.249 96.5803 43.5926 90.8406 43.5926C85.1009 43.5926 80.4446 48.249 80.4446 53.9886C80.4446 54.1299 80.4715 54.2511 80.4917 54.3722H41.7337C41.7337 54.2511 41.7808 54.1098 41.7808 53.9886C41.7808 48.249 37.1245 43.5926 31.3848 43.5926C25.6451 43.5926 20.9888 48.249 20.9888 53.9886C20.9888 54.1299 21.0157 54.2511 21.0359 54.3722H19.8852C19.3335 54.3722 18.8759 53.9146 18.8759 53.3427V47.5088C18.8759 46.5937 19.3335 45.7324 20.0737 45.2277C20.9349 44.649 21.5876 43.8079 22.0452 42.8726C23.7745 42.6573 27.906 41.8431 28.9826 38.6469C29.7497 36.2919 29.7295 34.1319 29.6084 32.9073C31.3646 32.3555 33.2083 32.1133 34.9174 31.8979C35.6172 31.8037 36.2632 31.7297 36.8419 31.6355C39.0287 31.252 42.1509 29.1391 45.4884 26.5216L44.8895 30.1686C44.7684 30.9626 44.9837 31.7566 45.4884 32.3757C45.9931 33.0015 46.7399 33.385 47.5541 33.4052C52.5267 33.6003 57.0149 33.7147 61.0252 33.7147C65.7556 33.7147 69.8131 33.5734 73.2246 33.2841H73.2986C73.3726 33.2841 73.4197 33.2572 73.4937 33.237C77.4099 32.9005 80.4311 32.3757 82.5238 31.6759C84.4953 31.003 85.5719 28.9642 85.0673 26.9455C84.4415 24.4491 82.9073 20.2234 79.4958 16.8119C84.3473 16.9802 89.3872 17.2224 93.9762 17.4579C93.7138 17.7674 93.5187 18.1308 93.4245 18.5412C93.2832 19.2141 93.4245 19.9341 93.8551 20.4859C95.7526 23.0294 96.9773 25.8151 97.7713 28.5335C96.116 28.5335 93.6196 28.6748 92.0585 29.3746C91.3587 29.6842 90.9079 30.2898 90.7868 31.0568C90.3763 33.7013 94.2185 38.2634 95.0865 39.0305C95.7594 39.6293 96.6947 39.8245 97.6098 39.8245C98.2087 39.8245 98.7873 39.7505 99.292 39.6293C99.6284 41.5 100.348 43.3302 101.479 45.1268C103.235 47.9394 103.619 51.1558 103.619 53.3898C103.619 53.9685 103.161 54.4193 102.589 54.4193L102.562 54.3722H102.535Z" fill="#323232" stroke="#323232" stroke-width="0.4"/>
</svg>
