<?xml version="1.0" encoding="UTF-8"?>
<svg id="Layer_1" data-name="Layer 1" xmlns="http://www.w3.org/2000/svg" viewBox="0 0 133.05 114.19">
  <defs>
    <style>
      .cls-1 {
        fill: #323232;
      }
    </style>
  </defs>
  <path class="cls-1" d="m22.13,52.02c-4,0-7.25,3.25-7.25,7.25s3.25,7.25,7.25,7.25,7.25-3.25,7.25-7.25-3.25-7.25-7.25-7.25Zm0,10.89c-2.03,0-3.68-1.64-3.68-3.68s1.64-3.68,3.68-3.68,3.68,1.64,3.68,3.68-1.64,3.68-3.68,3.68Z"/>
  <path class="cls-1" d="m110.57,52.02c-4,0-7.25,3.25-7.25,7.25s3.25,7.25,7.25,7.25,7.25-3.25,7.25-7.25-3.25-7.25-7.25-7.25Zm0,10.89c-2.03,0-3.68-1.64-3.68-3.68s1.64-3.68,3.68-3.68,3.68,1.64,3.68,3.68-1.64,3.68-3.68,3.68Z"/>
  <g>
    <path class="cls-1" d="m81.48,93.03c-1,0-1.78.79-1.78,1.78v11.6c0,2.32-1.86,4.18-4.18,4.18h-18.06c-2.32,0-4.18-1.89-4.18-4.18v-18.06c0-2.32,1.86-4.18,4.18-4.18h18.06c1,0,1.78-.79,1.78-1.78s-.79-1.78-1.78-1.78h-18.06c-4.28,0-7.74,3.46-7.74,7.74v18.06c0,4.28,3.46,7.74,7.74,7.74h18.06c4.28,0,7.74-3.46,7.74-7.74v-11.6c0-1-.79-1.78-1.78-1.78Z"/>
    <path class="cls-1" d="m80.23,84.96l-15.92,15.92-4.35-4.35c-.71-.71-1.82-.71-2.53,0s-.71,1.82,0,2.53l5.6,5.6c.32.32.79.54,1.25.54s.93-.18,1.25-.54l17.2-17.2c.71-.71.71-1.82,0-2.53s-1.82-.71-2.53,0l.04.04Z"/>
    <path class="cls-1" d="m37.51,93.03c-1,0-1.78.79-1.78,1.78v11.6c0,2.32-1.86,4.18-4.18,4.18H13.49c-2.32,0-4.18-1.89-4.18-4.18v-18.06c0-2.32,1.86-4.18,4.18-4.18h18.06c1,0,1.78-.79,1.78-1.78s-.79-1.78-1.78-1.78H13.49c-4.28,0-7.74,3.46-7.74,7.74v18.06c0,4.28,3.46,7.74,7.74,7.74h18.06c4.28,0,7.74-3.46,7.74-7.74v-11.6c0-1-.79-1.78-1.78-1.78Z"/>
    <path class="cls-1" d="m36.26,84.96l-15.92,15.92-4.35-4.35c-.71-.71-1.82-.71-2.53,0s-.71,1.82,0,2.53l5.6,5.6c.32.32.79.54,1.25.54s.93-.18,1.25-.54l17.17-17.2c.71-.71.71-1.82,0-2.53s-1.82-.71-2.53,0l.07.04Z"/>
    <path class="cls-1" d="m119.49,80.57h-18.13c-4.28,0-7.74,3.46-7.74,7.74v18.13c0,4.28,3.46,7.74,7.74,7.74h18.13c4.28,0,7.74-3.46,7.74-7.74v-18.13c0-4.28-3.46-7.74-7.74-7.74Zm4.18,25.88c0,2.32-1.86,4.18-4.18,4.18h-18.13c-2.32,0-4.18-1.86-4.18-4.18v-18.13c0-2.32,1.86-4.18,4.18-4.18h18.13c2.32,0,4.18,1.86,4.18,4.18v18.13Z"/>
    <path class="cls-1" d="m126.31,34.71c-.04-3.43-.43-7.6-1.5-11.96,0-.07,0-.11-.04-.18-1.21-5.07-3.35-10.39-7.03-15.24l4.07-2.28c.68-.39,1.04-1.18.86-1.96s-.86-1.32-1.64-1.39c-5.57-.32-54.46-3.07-60.6-.82-2.86,1.04-7.53,4.89-12.96,9.35-.96.79-1.93,1.61-2.93,2.39-5.6,4.57-11.71,9.28-14.88,9.81-.82.14-1.75.25-2.71.39-2.82.36-6.35.86-9.74,2.11-.07,0-.14.07-.21.11-5.21,2-10.06,5.96-11.35,14.49-.21,1.53-1.07,2.89-2.28,3.71-2.11,1.43-3.35,3.78-3.35,6.35v8.67c0,2.82,2.28,5.1,5.07,5.1h2.28c1.82,6.5,7.74,11.31,14.81,11.31s12.99-4.82,14.81-11.31h58.78c1.82,6.5,7.74,11.31,14.81,11.31s12.99-4.82,14.81-11.31h2.57c2.82,0,5.1-2.28,5.1-5.1,0-3.78-.64-9.28-3.71-14.17-1.96-3.11-2.96-6.28-3-9.42l-.04.04Zm-4.64-9.78c.68,3.39,1,6.57,1.04,9.32-1.57.36-3.14.39-3.53,0-1.89-1.71-5.6-7.28-5.46-8.42,1.86-.82,5.6-.96,7.92-.93l.04.04Zm-23.27-5.03c.29,1.21-.32,2.39-1.46,2.78-2.5.86-6.14,1.5-10.74,2V3.77c.54,0,1.11,0,1.64.04,6.82,4.64,9.57,12.06,10.56,16.1Zm-48.68-6.92c4.75-3.89,9.64-7.92,11.92-8.78,1.93-.71,10.35-.79,20.99-.57v21.31c-9.07.64-21.31.68-36.33.07-.21,0-.36-.14-.43-.21s-.14-.25-.14-.46l1.5-9.32c.82-.68,1.68-1.36,2.5-2.07v.04ZM15.95,29.36c.04,1.53-.07,3.68-.82,5.96-.71,2.11-3.53,3.14-5.82,3.64,1.04-4.96,3.53-7.82,6.64-9.57v-.04Zm6.17,41.76c-6.57,0-11.88-5.32-11.88-11.88s5.32-11.88,11.88-11.88,11.88,5.32,11.88,11.88-5.32,11.88-11.88,11.88Zm88.41,0c-6.57,0-11.88-5.32-11.88-11.88s5.32-11.88,11.88-11.88,11.88,5.32,11.88,11.88-5.32,11.88-11.88,11.88Zm17.38-11.31h-2c0-.18.07-.39.07-.57,0-8.53-6.92-15.45-15.45-15.45s-15.45,6.92-15.45,15.45c0,.21.04.39.07.57h-57.6c0-.18.07-.39.07-.57,0-8.53-6.92-15.45-15.45-15.45s-15.45,6.92-15.45,15.45c0,.21.04.39.07.57h-1.71c-.82,0-1.5-.68-1.5-1.53v-8.67c0-1.36.68-2.64,1.78-3.39,1.28-.86,2.25-2.11,2.93-3.5,2.57-.32,8.71-1.53,10.31-6.28,1.14-3.5,1.11-6.71.93-8.53,2.61-.82,5.35-1.18,7.89-1.5,1.04-.14,2-.25,2.86-.39,3.25-.57,7.89-3.71,12.85-7.6l-.89,5.42c-.18,1.18.14,2.36.89,3.28.75.93,1.86,1.5,3.07,1.53,7.39.29,14.06.46,20.02.46,7.03,0,13.06-.21,18.13-.64h.11c.11,0,.18-.04.29-.07,5.82-.5,10.31-1.28,13.42-2.32,2.93-1,4.53-4.03,3.78-7.03-.93-3.71-3.21-9.99-8.28-15.06,7.21.25,14.7.61,21.52.96-.39.46-.68,1-.82,1.61-.21,1,0,2.07.64,2.89,2.82,3.78,4.64,7.92,5.82,11.96-2.46,0-6.17.21-8.49,1.25-1.04.46-1.71,1.36-1.89,2.5-.61,3.93,5.1,10.71,6.39,11.85,1,.89,2.39,1.18,3.75,1.18.89,0,1.75-.11,2.5-.29.5,2.78,1.57,5.5,3.25,8.17,2.61,4.18,3.18,8.96,3.18,12.28,0,.86-.68,1.53-1.53,1.53l-.04-.07Z"/>
  </g>
</svg>