<svg width="60" height="60" viewBox="0 0 60 60" fill="none" xmlns="http://www.w3.org/2000/svg">
<g clip-path="url(#clip0_6879_21895)">
<path d="M49.3 23.5073L32.7106 12.0739C31.0687 10.9726 28.9262 10.9726 27.2943 12.0739L10.705 23.5073C10.1343 23.8977 9.35339 23.7575 8.96294 23.1869C8.57248 22.6162 8.71265 21.8353 9.28332 21.4449L25.8726 10.0115C28.3655 8.32951 31.6293 8.32951 34.1323 10.0115L50.7216 21.4548C51.2923 21.8353 51.4525 22.6162 51.062 23.1869C50.6816 23.7575 49.9007 23.9177 49.33 23.5272C49.33 23.5272 49.31 23.5173 49.3 23.5073ZM43.7636 46.2337H16.2514C14.179 46.2337 12.507 44.5518 12.497 42.4793V38.5148C12.497 37.5136 12.8875 36.5725 13.5984 35.8616L15.3704 34.0896C15.6006 33.8593 15.921 33.7191 16.2514 33.7191H43.7636C44.0939 33.7191 44.4143 33.8493 44.6445 34.0896L46.4166 35.8616C47.1274 36.5725 47.5179 37.5136 47.5179 38.5148V42.4793C47.5179 44.5518 45.836 46.2337 43.7636 46.2337ZM16.772 36.2321L15.3704 37.6337C15.1401 37.864 15.01 38.1844 14.9999 38.5148V42.4793C14.9999 43.1702 15.5606 43.7308 16.2514 43.7308H43.7636C44.4544 43.7308 45.015 43.1702 45.015 42.4793V38.5148C45.015 38.1844 44.8848 37.864 44.6445 37.6337L43.2429 36.2321H16.772Z" fill="#323232"/>
<path d="M42.6427 35.5513L38.3376 26.9313C38.1274 26.5008 37.6969 26.2405 37.2163 26.2405H22.7996C22.329 26.2405 21.8885 26.5108 21.6783 26.9313L17.3732 35.5513C17.0628 36.1721 16.312 36.4223 15.7013 36.112C15.5811 36.0519 15.471 35.9718 15.3708 35.8717L12.8679 33.3688C12.3774 32.8782 12.3774 32.0873 12.8679 31.5967C13.3585 31.1061 14.1494 31.1061 14.64 31.5967L15.9115 32.8682L19.4456 25.8C20.0864 24.5185 21.3679 23.7275 22.7996 23.7275H37.2163C38.648 23.7275 39.9295 24.5185 40.5703 25.8L44.1044 32.8682L45.3759 31.5967C45.8665 31.1061 46.6573 31.1061 47.1479 31.5967C47.6385 32.0873 47.6385 32.8782 47.1479 33.3688L44.645 35.8717C44.1544 36.3623 43.3636 36.3623 42.883 35.8717C42.7829 35.7716 42.7127 35.6615 42.6427 35.5413V35.5513ZM22.5092 51.2496H17.5134C16.1318 51.2496 15.0104 50.1283 15.0104 48.7467V44.9923C15.0104 44.3015 15.5711 43.7409 16.2619 43.7409C16.9527 43.7409 17.5134 44.3015 17.5134 44.9923V48.7467H22.5092V44.9923C22.5092 44.3015 23.0698 43.7409 23.7606 43.7409C24.4514 43.7409 25.0121 44.3015 25.0121 44.9923V48.7467C25.0121 50.1283 23.8908 51.2496 22.5092 51.2496ZM42.5126 51.2496H37.5167C36.1351 51.2496 35.0138 50.1283 35.0138 48.7467V44.9923C35.0138 44.3015 35.5744 43.7409 36.2652 43.7409C36.956 43.7409 37.5167 44.3015 37.5167 44.9923V48.7467H42.5126V44.9923C42.5126 44.3015 43.0732 43.7409 43.764 43.7409C44.4548 43.7409 45.0155 44.3015 45.0155 44.9923V48.7467C45.0155 50.1283 43.8942 51.2496 42.5126 51.2496Z" fill="#323232"/>
<path d="M50.0082 51.2399H10.0015C9.31065 51.2399 8.75 50.6793 8.75 49.9885C8.75 49.2977 9.31065 48.737 10.0015 48.737H50.0082C50.699 48.737 51.2596 49.2977 51.2596 49.9885C51.2596 50.6793 50.699 51.2399 50.0082 51.2399ZM21.2546 41.2383H18.7517C18.0609 41.2383 17.5002 40.6776 17.5002 39.9868C17.5002 39.296 18.0609 38.7354 18.7517 38.7354H21.2546C21.9454 38.7354 22.506 39.296 22.506 39.9868C22.506 40.6776 21.9454 41.2383 21.2546 41.2383ZM41.258 41.2383H38.755C38.0642 41.2383 37.5036 40.6776 37.5036 39.9868C37.5036 39.296 38.0642 38.7354 38.755 38.7354H41.258C41.9488 38.7354 42.5094 39.296 42.5094 39.9868C42.5094 40.6776 41.9488 41.2383 41.258 41.2383Z" fill="#323232"/>
<path fill-rule="evenodd" clip-rule="evenodd" d="M44.0114 2.4929H16.0087C13.1654 2.4929 11.1831 2.4929 9.64125 2.62306C8.12949 2.7432 7.25843 2.97347 6.59766 3.31386C5.18602 4.03471 4.03471 5.17607 3.31386 6.59772C2.97347 7.2585 2.75321 8.12949 2.62306 9.64125C2.4929 11.1831 2.4929 13.1654 2.4929 16.0087V44.0114C2.4929 46.8547 2.4929 48.837 2.62306 50.3788C2.7432 51.8906 2.97347 52.7615 3.31386 53.4223C4.03471 54.834 5.17601 55.9853 6.59766 56.7062C7.25843 57.0466 8.12949 57.2668 9.64125 57.397C11.1831 57.5271 13.1654 57.5271 16.0087 57.5271H44.0114C46.8547 57.5271 48.837 57.5271 50.3788 57.397C51.8906 57.2768 52.7615 57.0466 53.4223 56.7062C54.834 55.9853 55.9853 54.844 56.7062 53.4223C57.0466 52.7615 57.2668 51.8906 57.397 50.3788C57.5271 48.837 57.5271 46.8547 57.5271 44.0114V16.0087C57.5271 13.1654 57.5271 11.1831 57.397 9.64125C57.2768 8.12949 57.0466 7.2585 56.7062 6.59772C55.9853 5.18608 54.844 4.03471 53.4223 3.31386C52.7615 2.97347 51.8906 2.75321 50.3788 2.62306C48.837 2.4929 46.8547 2.4929 44.0114 2.4929ZM1.09124 5.45638C-3.4253e-05 7.59888 0 10.3922 0 15.9987V44.0014C0 49.6079 -3.4253e-05 52.4012 1.09124 54.5437C2.05236 56.4259 3.57418 57.9577 5.45638 58.9088C7.59888 60 10.3921 60 15.9986 60H44.0014C49.6079 60 52.4011 60 54.5436 58.9088C56.4258 57.9476 57.9576 56.4159 58.9087 54.5437C60 52.4012 60 49.6079 60 44.0014V15.9987C60 10.3922 60 7.59888 58.9087 5.45638C57.9476 3.57418 56.4158 2.04241 54.5436 1.0913C52.4011 2.68534e-05 49.6079 0 44.0014 0H15.9986C10.3921 0 7.59888 2.68534e-05 5.45638 1.0913C3.57418 2.05242 2.04235 3.57418 1.09124 5.45638Z" fill="#323232"/>
</g>
<defs>
<clipPath id="clip0_6879_21895">
<rect width="60" height="60" fill="white"/>
</clipPath>
</defs>
</svg>
