<?xml version="1.0" encoding="UTF-8"?>
<svg id="Layer_1" data-name="Layer 1" xmlns="http://www.w3.org/2000/svg" viewBox="0 0 128.76 113.73">
  <defs>
    <style>
      .cls-1 {
        fill: #323232;
      }
    </style>
  </defs>
  <g id="line_Expand" data-name="line Expand">
    <g>
      <path class="cls-1" d="m126.82,45.06h1.93v-4.29h-1.93c-5.45,0-10.36,2.88-13.13,7.32l-8.63-20.11c-1.7-3.95-5.56-6.5-9.87-6.5h-10.49c.52-.28,1.03-.6,1.42-.92,2.38-2,3.84-4.81,4.1-7.9.26-3.09-.69-6.12-2.68-8.48-2-2.38-4.81-3.84-7.9-4.1s-6.09.69-8.48,2.68c-1.57,1.33-3.07,4.12-3.35,4.68l-3.43,9.72-3.35-9.51-.11-.26c-.28-.56-1.76-3.35-3.35-4.68C55.19.73,52.19-.22,49.1.04c-3.09.28-5.9,1.74-7.9,4.1-2,2.38-2.94,5.39-2.68,8.48s1.74,5.9,4.1,7.9c.41.34.84.64,1.29.92h-10.36c-4.29,0-8.18,2.55-9.87,6.5l-8.63,20.11c-2.75-4.4-7.66-7.27-13.11-7.27H0v4.29h1.93c4.51,0,8.48,2.73,10.24,6.72-6.93,1.33-12.17,7.45-12.17,14.74v34.33h6.44v12.88h30.04v-12.88h8.58v4.29h38.63v-4.29h8.58v12.88h30.04v-12.88h6.44v-34.33c0-7.3-5.24-13.41-12.17-14.74,1.76-3.99,5.73-6.72,10.24-6.72h0ZM71.72,9.23c.54-1.03,1.57-2.68,2.21-3.24,3.09-2.6,7.73-2.19,10.32.9,1.27,1.5,1.87,3.39,1.7,5.34s-1.09,3.71-2.6,4.98c-.64.54-2.42,1.27-3.56,1.63l-12.19,2.04,4.12-11.65Zm-27.23-2.32c2.6-3.09,7.23-3.5,10.32-.9.64.56,1.67,2.17,2.23,3.24l4.12,11.65-12.32-2.06c-1.27-.21-2.47-.77-3.43-1.59-1.5-1.27-2.42-3.03-2.6-4.98s.41-3.86,1.67-5.36h0Zm-16.85,22.75c1.01-2.36,3.35-3.91,5.92-3.91h22.04c-5.86,4.55-9.46,11.59-9.46,19.31v2.15h4.29v-2.15c0-8.69,5.54-16.39,13.8-19.14l.15-.06.15.04c8.26,2.75,13.8,10.45,13.8,19.14v2.15h4.29v-2.15c0-7.73-3.61-14.76-9.46-19.31h22.04c2.58,0,4.89,1.52,5.92,3.91l9.36,21.87H18.28l9.36-21.85Zm4.55,79.79H10.73v-8.58h21.46v8.58Zm-27.9-12.88v-6.44h40.77v6.44H4.29Zm45.06,4.29v-10.73h30.04v10.73h-30.04Zm68.67,8.58h-21.46v-8.58h21.46v8.58Zm6.44-12.88h-40.77v-6.44h40.77v6.44Zm0-30.04v19.31H4.29v-19.31c0-5.92,4.81-10.73,10.73-10.73h98.71c5.92,0,10.73,4.81,10.73,10.73Z"/>
      <path class="cls-1" d="m46.14,63.3h36.48v4.29h-36.48v-4.29Z"/>
      <path class="cls-1" d="m46.14,74.03h36.48v4.29h-36.48v-4.29Z"/>
      <path class="cls-1" d="m92.27,77.25v2.15h23.61v-17.17h-8.58c-8.28,0-15.02,6.74-15.02,15.02Zm19.31-2.15h-14.81c.99-4.89,5.32-8.58,10.52-8.58h4.29v8.58Z"/>
      <path class="cls-1" d="m21.46,62.23h-8.58v17.17h23.61v-2.15c0-8.28-6.74-15.02-15.02-15.02Zm-4.29,12.88v-8.58h4.29c5.19,0,9.51,3.69,10.52,8.58h-14.81Z"/>
    </g>
  </g>
</svg>