<svg width="123" height="109" viewBox="0 0 123 109" fill="none" xmlns="http://www.w3.org/2000/svg">
<path d="M105.631 46.5012C105.631 46.4992 105.633 46.4977 105.635 46.4977H106.499C106.775 46.4977 106.999 46.2738 106.999 45.9977V43.9568C106.999 43.6807 106.775 43.4568 106.499 43.4568H105.631C102.101 43.4568 98.8907 45.1614 96.8652 47.8566C96.6226 48.1794 96.1062 48.1373 95.9469 47.7662L90.2071 34.391C89.0021 31.5911 86.2661 29.7836 83.211 29.7836H76.9766C76.662 29.7836 76.5388 29.3311 76.782 29.1315V29.1315C78.469 27.7139 79.5039 25.7221 79.6882 23.5318C79.8725 21.3416 79.1991 19.1938 77.7885 17.521C76.3709 15.834 74.3791 14.7991 72.1889 14.6149C69.9986 14.4306 67.8721 15.1039 66.178 16.5145C65.0652 17.4572 64.002 19.4348 63.8035 19.8318L61.8441 25.3842C61.6871 25.8291 61.0578 25.829 60.901 25.3839L58.9977 19.9806L58.9197 19.7963C58.7212 19.3994 57.6722 17.4218 56.5452 16.4791C54.8582 15.0756 52.7317 14.4022 50.5414 14.5865C48.3512 14.785 46.3594 15.8199 44.9417 17.4927C43.5241 19.1797 42.8578 21.3132 43.0421 23.5035C43.2264 25.6937 44.2754 27.6855 45.9483 29.1032V29.1032C46.1969 29.3093 46.0617 29.7553 45.7387 29.7553H39.5193C36.4784 29.7553 33.7211 31.5628 32.5232 34.3626L26.783 47.7387C26.6238 48.1096 26.1076 48.152 25.8644 47.8298C23.8495 45.1603 20.6411 43.4639 17.1134 43.4639H16.2383C15.9621 43.4639 15.7383 43.6878 15.7383 43.9639V46.0047C15.7383 46.2809 15.9621 46.5047 16.2383 46.5047H17.1063C20.0858 46.5047 22.7328 48.1857 24.0889 50.704C24.2413 50.9869 24.063 51.3255 23.7516 51.4048C19.1467 52.577 15.7383 56.766 15.7383 61.7161V85.5499C15.7383 85.8261 15.9621 86.0499 16.2383 86.0499H19.8031C20.0792 86.0499 20.3031 86.2738 20.3031 86.5499V94.6795C20.3031 94.9557 20.527 95.1795 20.8031 95.1795H41.0961C41.3722 95.1795 41.5961 94.9557 41.5961 94.6795V86.5499C41.5961 86.2738 41.82 86.0499 42.0961 86.0499H47.1778C47.4539 86.0499 47.6778 86.2738 47.6778 86.5499V88.5908C47.6778 88.8669 47.9017 89.0908 48.1778 89.0908H74.5596C74.8357 89.0908 75.0596 88.8669 75.0596 88.5908V86.5499C75.0596 86.2738 75.2834 86.0499 75.5596 86.0499H80.6413C80.9174 86.0499 81.1413 86.2738 81.1413 86.5499V94.6795C81.1413 94.9557 81.3651 95.1795 81.6413 95.1795H101.934C102.21 95.1795 102.434 94.9557 102.434 94.6795V86.5499C102.434 86.2738 102.658 86.0499 102.934 86.0499H106.499C106.775 86.0499 106.999 85.8261 106.999 85.5499V61.7161C106.999 56.7592 103.591 52.5765 98.9858 51.4047C98.6744 51.3255 98.4961 50.9869 98.6485 50.704C100.004 48.1867 102.649 46.5061 105.628 46.5048C105.629 46.5047 105.631 46.5032 105.631 46.5012V46.5012ZM66.563 21.1343C66.571 21.1119 66.5803 21.0903 66.5915 21.0692C66.9784 20.3375 67.6943 19.1953 68.1415 18.804C70.3317 16.9611 73.6207 17.2517 75.4565 19.4419C76.3567 20.5052 76.782 21.8448 76.6615 23.227C76.541 24.6092 75.8889 25.8568 74.8186 26.757C74.3649 27.1397 73.1032 27.6572 72.2952 27.9124L64.4914 29.2183C64.1157 29.2812 63.8105 28.9176 63.9375 28.5585L66.563 21.1343ZM47.2702 19.4561C47.2725 19.4561 47.2746 19.4551 47.2761 19.4534C49.1194 17.2656 52.3995 16.976 54.5888 18.8182C55.0363 19.2097 55.7527 20.3253 56.1531 21.0835C56.1641 21.1045 56.1734 21.126 56.1814 21.1483L58.807 28.5728C58.934 28.9319 58.6288 29.2954 58.2531 29.2326L50.3571 27.9124C49.4569 27.7635 48.6063 27.3666 47.9259 26.7853C46.8626 25.8851 46.2105 24.6376 46.0829 23.2554C45.9555 21.8744 46.3728 20.5216 47.2644 19.4588C47.2658 19.4571 47.268 19.4561 47.2702 19.4561V19.4561ZM35.3301 35.5818C36.046 33.909 37.7047 32.8103 39.5263 32.8103H53.6895C54.1658 32.8103 54.3854 33.4299 54.0349 33.7524C50.5436 36.9654 48.4433 41.5332 48.4433 46.4977V47.5216C48.4433 47.7978 48.6672 48.0216 48.9433 48.0216H50.9842C51.2603 48.0216 51.4842 47.7978 51.4842 47.5216V46.4977C51.4842 40.338 55.411 34.8801 61.2659 32.9308L61.2701 32.9291C61.3364 32.9026 61.4095 32.8982 61.4786 32.9166V32.9166C67.3334 34.8659 71.2603 40.3238 71.2603 46.4835V47.5075C71.2603 47.7836 71.4842 48.0075 71.7603 48.0075H73.8011C74.0773 48.0075 74.3011 47.7836 74.3011 47.5075V46.4835C74.3011 41.5124 72.1949 36.9497 68.7075 33.7377C68.3573 33.4151 68.5769 32.7961 69.053 32.7961H83.2181C85.0469 32.7961 86.6843 33.8735 87.4143 35.5676L93.7507 50.3728C93.8919 50.7027 93.6499 51.0696 93.2911 51.0696H29.4537C29.0948 51.0696 28.8527 50.7026 28.9941 50.3727L35.3301 35.5818ZM38.5553 91.6387C38.5553 91.9148 38.3314 92.1387 38.0553 92.1387H23.8439C23.5678 92.1387 23.3439 91.9148 23.3439 91.6387V86.557C23.3439 86.2809 23.5678 86.057 23.8439 86.057H38.0553C38.3314 86.057 38.5553 86.2809 38.5553 86.557V91.6387ZM19.2791 83.0091C19.003 83.0091 18.7791 82.7852 18.7791 82.5091V78.9443C18.7791 78.6681 19.003 78.4443 19.2791 78.4443H47.1778C47.4539 78.4443 47.6778 78.6681 47.6778 78.9443V82.5091C47.6778 82.7852 47.4539 83.0091 47.1778 83.0091H19.2791ZM51.2186 86.0499C50.9425 86.0499 50.7186 85.8261 50.7186 85.5499V78.9443C50.7186 78.6681 50.9425 78.4443 51.2186 78.4443H71.5116C71.7878 78.4443 72.0116 78.6681 72.0116 78.9443V85.5499C72.0116 85.8261 71.7878 86.0499 71.5116 86.0499H51.2186ZM99.3934 91.6316C99.3934 91.9078 99.1696 92.1316 98.8934 92.1316H84.6821C84.406 92.1316 84.1821 91.9078 84.1821 91.6316V86.5499C84.1821 86.2738 84.406 86.0499 84.6821 86.0499H98.8934C99.1696 86.0499 99.3934 86.2738 99.3934 86.5499V91.6316ZM103.958 82.502C103.958 82.7781 103.734 83.002 103.458 83.002H75.5596C75.2834 83.002 75.0596 82.7781 75.0596 82.502V78.9372C75.0596 78.661 75.2834 78.4372 75.5596 78.4372H103.458C103.734 78.4372 103.958 78.661 103.958 78.9372V82.502ZM103.958 61.709V74.8963C103.958 75.1725 103.734 75.3963 103.458 75.3963H19.2791C19.003 75.3963 18.7791 75.1725 18.7791 74.8963V61.709C18.7791 57.5128 22.1886 54.1033 26.3848 54.1033H96.3526C100.549 54.1033 103.958 57.5128 103.958 61.709Z" fill="#323232"/>
<path d="M48.4453 59.9268C48.4453 59.6506 48.6692 59.4268 48.9453 59.4268H73.8031C74.0793 59.4268 74.3031 59.6506 74.3031 59.9268V61.9676C74.3031 62.2437 74.0793 62.4676 73.8031 62.4676H48.9453C48.6692 62.4676 48.4453 62.2437 48.4453 61.9676V59.9268Z" fill="#323232"/>
<path d="M48.4453 67.5332C48.4453 67.2571 48.6692 67.0332 48.9453 67.0332H73.8031C74.0793 67.0332 74.3031 67.2571 74.3031 67.5332V69.574C74.3031 69.8502 74.0793 70.074 73.8031 70.074H48.9453C48.6692 70.074 48.4453 69.8502 48.4453 69.574V67.5332Z" fill="#323232"/>
<path d="M81.1442 69.3154C81.1422 69.3154 81.1406 69.317 81.1406 69.319V70.3394C81.1406 70.6156 81.3645 70.8394 81.6406 70.8394H97.3759C97.652 70.8394 97.8759 70.6156 97.8759 70.3394V59.1689C97.8759 58.8928 97.652 58.6689 97.3759 58.6689H91.7942C85.9264 58.6689 81.1496 63.4445 81.1477 69.3119C81.1477 69.3138 81.1461 69.3154 81.1442 69.3154V69.3154ZM94.828 67.2915C94.828 67.5676 94.6041 67.7915 94.328 67.7915H84.9417C84.6257 67.7915 84.3882 67.5013 84.4759 67.1977C85.3899 64.0309 88.3149 61.7098 91.7871 61.7098H94.328C94.6041 61.7098 94.828 61.9336 94.828 62.2098V67.2915Z" fill="#323232"/>
<path d="M30.9489 58.6689H25.3672C25.091 58.6689 24.8672 58.8928 24.8672 59.1689V70.3394C24.8672 70.6156 25.091 70.8394 25.3672 70.8394H41.1025C41.3786 70.8394 41.6025 70.6156 41.6025 70.3394V69.3154C41.6025 63.4464 36.825 58.6689 30.956 58.6689H30.9489ZM28.408 67.7986C28.1319 67.7986 27.908 67.5747 27.908 67.2986V62.2169C27.908 61.9407 28.1319 61.7169 28.408 61.7169H30.9489C34.4138 61.7169 37.3316 64.0371 38.2574 67.203C38.3463 67.507 38.1087 67.7986 37.7919 67.7986H28.408Z" fill="#323232"/>
</svg>
