<?xml version="1.0" encoding="UTF-8"?>
<svg id="Layer_1" data-name="Layer 1" xmlns="http://www.w3.org/2000/svg" viewBox="0 0 148.67 113.89">
  <defs>
    <style>
      .cls-1 {
        fill: #323232;
      }
    </style>
  </defs>
  <g>
    <path class="cls-1" d="m125.23,22.09c-.5,2.39-.32,5.07-3.77,5.64,3.19.62,3.42,3.1,3.76,5.54.52-1.2.45-2.45.97-3.56.55-1.17,1.8-1.39,2.86-2.07-3.56-.34-3.15-3.3-3.81-5.55h0Z"/>
    <path class="cls-1" d="m118.9,16.61c.17,1.2.34,2.39.51,3.59.76-3.59.47-7.78,5.59-8.35-.1-.46-.35-.45-.55-.49-2.61-.43-4.01-1.99-4.35-4.58-.17-1.28-.38-2.54-.57-3.82-.04,0-.09,0-.13,0-.24,1.43-.51,2.86-.71,4.29-.31,2.2-1.6,3.45-3.69,4-.32.09-.81-.07-.95.52.25.08.49.17.74.23,2.42.59,3.76,2.15,4.1,4.6h0Z"/>
    <path class="cls-1" d="m147.72,16.46c-5.97-1.1-8.04-3.22-8.96-9.2-.01-.09-.03-.17-.04-.26-.32-2.34-.64-4.67-.95-7.01-.52,2.6-.84,5.21-1.24,7.8-.79,5.13-2.72,7.2-7.76,8.41-.63.15-1.27.3-1.97.47.14.16.17.21.2.22.62.17,1.24.35,1.87.5,4.51,1.02,7.08,3.8,7.79,8.39.39,2.52.64,5.05,1.14,7.63.11-.72.23-1.43.31-2.15.27-2.18.56-4.36,1.01-6.52.75-3.57,2.83-5.93,6.35-6.97,1.06-.31,2.12-.61,3.2-.92-.24-.46-.63-.35-.95-.4h0Z"/>
  </g>
  <g>
    <path class="cls-1" d="m55.75,1.04c-.85.41-13.25,6.26-27.55,12.99C13.89,20.75,1.89,26.5,1.53,26.76-.1,27.87,0,24.92,0,69.96v40.95l.6.98c1.22,2.02,1.14,1.99,10.09,1.99h7.94v-4.4H4.4V30.14l26.98-12.73,26.98-12.73,27.09,12.75,27.09,12.73v79.32h-14.23v4.4h7.97c8.93,0,8.85.03,10.06-1.99l.6-.98v-40.95c0-44.32.08-41.6-1.37-42.95-.34-.34-13.12-6.47-28.38-13.63C64.57,2.75,59.25.32,58.37.32c-.62,0-1.68.31-2.61.72h0Z"/>
    <path class="cls-1" d="m37,40.11c0,.13-.52.57-1.14,1.01-.65.47-1.34,1.11-1.6,1.47-.31.52-8.9,23.49-8.9,23.88,0,.05-.41.08-.91.08-.52,0-1.24.16-1.66.36-.93.49-2.56,2.3-2.74,3.05-.08.34-.1,5.9-.08,12.42l.08,11.8.8,1.01c1.03,1.29,2.72,2.15,4.29,2.15h1.24v5.74c0,5.48.03,5.82.62,7.06.65,1.42,2.1,2.85,3.42,3.39.62.26,2.04.36,4.81.36,4.5,0,5.33-.23,6.99-1.97,1.66-1.73,1.76-2.23,1.76-8.77v-5.82h28.97v12.06l.85,1.4c.54.96,1.24,1.66,2.1,2.2,1.27.78,1.32.78,5.48.85,4.06.08,4.24.05,5.48-.57.7-.36,1.66-1.09,2.1-1.63,1.37-1.63,1.58-2.87,1.58-8.93v-5.38h1.24c1.76,0,3.34-.88,4.4-2.43l.83-1.24v-11.69c0-11.59,0-11.67-.6-12.68-.83-1.47-2.23-2.48-3.67-2.69l-1.22-.18-4.32-11.77c-4.09-11.23-4.35-11.82-5.38-12.86-2.04-1.97-.98-1.89-24.19-1.89-11.36,0-20.64.11-20.64.21h0Zm41.7,4.63c.36.44,7.97,20.96,7.97,21.52,0,.21-8.23.28-28.33.28h-28.3l.98-2.79c4.14-11.43,7.04-19.04,7.32-19.22.18-.13,9.26-.23,20.15-.23,18.55,0,19.84.03,20.2.44Zm13.92,37.2v10.99H24.32v-21.99h68.3v10.99Zm-53.03,21.16c0,4.14-.08,5.85-.31,6.08-.21.21-1.47.31-3.98.31-3,0-3.75-.08-4.09-.41-.36-.34-.41-1.27-.41-6.08v-5.67h8.8v5.77Zm46.57-.41c0,3.83-.1,5.56-.34,6.03-.31.65-.36.65-4.04.72-2.51.05-3.83-.03-4.06-.23-.29-.23-.36-1.47-.36-6.08v-5.8h8.8v5.36Z"/>
    <path class="cls-1" d="m32.21,78.68c-2.48,1.53-2.97,3.7-1.27,5.67,1.5,1.76,3.42,2.02,5.04.65,2.2-1.86,1.97-4.53-.52-6.21-1.06-.72-2.23-.75-3.26-.1h0Zm1.81,3.65c-.13.21-.28.21-.44.05-.16-.16-.18-.41-.08-.57.13-.21.28-.21.44-.05.16.16.18.41.08.57Z"/>
    <path class="cls-1" d="m81.8,78.63c-1.99.98-2.82,3.13-1.89,4.94.6,1.14,2.33,2.38,3.39,2.38,1.84,0,4.09-2.54,3.8-4.29-.21-1.19-1.22-2.51-2.33-3.05-1.14-.52-1.89-.52-2.97.03h0Zm1.91,3.21c.26.44-.34.93-.7.57-.31-.31-.1-.85.28-.85.13,0,.31.13.41.28Z"/>
  </g>
</svg>