<svg width="123" height="123" viewBox="0 0 123 123" fill="none" xmlns="http://www.w3.org/2000/svg">
<path d="M48.0768 45.4795H35.7031" stroke="#323232" stroke-width="3.1772" stroke-miterlimit="10" stroke-linecap="round" stroke-linejoin="round"/>
<path d="M47.158 52.1709H35.7031" stroke="#323232" stroke-width="3.1772" stroke-miterlimit="10" stroke-linecap="round" stroke-linejoin="round"/>
<path d="M46.3245 58.8613H35.7031" stroke="#323232" stroke-width="3.1772" stroke-miterlimit="10" stroke-linecap="round" stroke-linejoin="round"/>
<path d="M41.6641 80.1416H55.785" stroke="#323232" stroke-width="3.1772" stroke-miterlimit="10" stroke-linecap="round" stroke-linejoin="round"/>
<path d="M41.6641 86.7773H55.785" stroke="#323232" stroke-width="3.1772" stroke-miterlimit="10" stroke-linecap="round" stroke-linejoin="round"/>
<mask id="mask0_6869_21654" style="mask-type:luminance" maskUnits="userSpaceOnUse" x="7" y="7" width="109" height="109">
<path d="M7 7.00077H115.448V115.449H7V7.00077Z" fill="white"/>
</mask>
<g mask="url(#mask0_6869_21654)">
<path d="M16.4964 45.6564V42.0015C16.4964 40.41 15.2061 39.1196 13.6145 39.1196H11.464C9.8724 39.1196 8.58203 40.41 8.58203 42.0015V61.4862C8.58203 63.078 9.8724 64.3682 11.464 64.3682H13.6145C15.2061 64.3682 16.4964 63.078 16.4964 61.4862V53.0832" stroke="#323232" stroke-width="3.1772" stroke-miterlimit="10" stroke-linecap="round" stroke-linejoin="round"/>
<path d="M16.468 61.8855H21.5215C22.2677 61.8855 23.0071 62.0272 23.7004 62.3034L28.4825 64.2085C32.1482 65.4582 34.9729 65.5514 38.6849 65.5514H41.8863L43.408 65.5615C43.4925 65.5615 43.5763 65.5573 43.6598 65.5514H45.0718C46.9196 65.5514 48.4173 64.0534 48.4173 62.2058C48.4173 60.3581 46.9196 58.8602 45.0718 58.8602H46.4979C48.3455 58.8602 49.8433 57.3624 49.8433 55.5148C49.8433 53.6671 48.3455 52.1692 46.4979 52.1692H48.0706C49.9183 52.1692 51.416 50.6715 51.416 48.8236C51.416 47.03 50.0032 45.5702 48.2301 45.4863V45.4854C50.079 45.4865 51.578 43.9879 51.578 42.1394C51.578 42.1384 51.5778 42.1375 51.5778 42.1364C51.5778 42.1352 51.578 42.1339 51.578 42.1326C51.578 40.285 50.0801 38.787 48.2324 38.787H36.8377L35.4726 38.7864C33.8054 38.7853 32.4542 37.4336 32.4542 35.7664V33.6675C29.775 33.7999 27.1934 34.9011 25.5301 37.0135L23.7426 39.2833C22.6263 40.7008 20.9216 41.5281 19.1174 41.5281H16.457" stroke="#323232" stroke-width="3.1772" stroke-miterlimit="10" stroke-linecap="round" stroke-linejoin="round"/>
<path d="M89.8477 79.313C90.5655 79.7559 91.1605 80.3954 91.5451 81.182C92.4578 83.0496 94.3478 84.3311 96.5801 84.3311" stroke="#323232" stroke-width="3.1772" stroke-miterlimit="10" stroke-linecap="round" stroke-linejoin="round"/>
<path d="M105.986 72.2224H103.326C101.521 72.2224 99.817 71.3951 98.7006 69.9776L96.9133 67.7076C95.8822 66.3984 94.3923 65.3565 92.5245 64.7946C91.7836 64.5715 90.9596 64.4203 90.1079 64.369V66.2127C90.1079 69.0497 87.8081 71.3498 84.9708 71.3498H79.7746C77.7654 71.3498 76.1367 72.9786 76.1367 74.9877C76.1367 77.001 77.7685 78.6258 79.7746 78.6258H87.4179C88.3999 78.6258 89.3376 78.9357 90.1079 79.4853V91.4583V91.4587V94.3523C90.1079 94.8996 90.0149 95.4249 89.8461 95.915C91.1568 95.7174 92.4913 95.4037 93.9608 94.9028L98.7429 92.9977C99.436 92.7215 100.175 92.5796 100.921 92.5796H105.975" stroke="#323232" stroke-width="3.1772" stroke-miterlimit="10" stroke-linecap="round" stroke-linejoin="round"/>
<path d="M108.819 69.811H110.97C112.562 69.811 113.852 71.1014 113.852 72.6929V92.1776C113.852 93.7692 112.562 95.0596 110.97 95.0596H108.819C107.228 95.0596 105.938 93.7692 105.938 92.1776V72.6929C105.938 71.1014 107.228 69.811 108.819 69.811Z" stroke="#323232" stroke-width="3.1772" stroke-miterlimit="10" stroke-linecap="round" stroke-linejoin="round"/>
<path d="M89.2191 37.5698L75.8384 24.1893C75.5792 23.9301 75.2765 23.7255 74.9492 23.5763V33.6616C74.9492 36.3112 77.0972 38.459 79.7468 38.459H89.8319C89.6827 38.1317 89.4783 37.8291 89.2191 37.5698Z" stroke="#323232" stroke-width="3.1772" stroke-miterlimit="10" stroke-linecap="round" stroke-linejoin="round"/>
<path d="M90.1053 44.7412V39.7145C90.1053 38.9091 89.7855 38.1369 89.2161 37.5675L75.8355 24.187C75.2663 23.6177 74.4941 23.2979 73.689 23.2979H37.2507C34.6011 23.2979 32.4531 25.4456 32.4531 28.0952V33.6663C32.4535 33.6663 32.454 33.6661 32.4544 33.6661" stroke="#323232" stroke-width="3.1772" stroke-miterlimit="10" stroke-linecap="round" stroke-linejoin="round"/>
<path d="M90.1016 64.3682V52.17" stroke="#323232" stroke-width="3.1772" stroke-miterlimit="10" stroke-linecap="round" stroke-linejoin="round"/>
<path d="M32.4531 65.1977V94.3491C32.4531 96.9987 34.6011 99.1465 37.2505 99.1465H85.308C87.9777 99.1465 90.1053 96.9741 90.1053 94.3491" stroke="#323232" stroke-width="3.1772" stroke-miterlimit="10" stroke-linecap="round" stroke-linejoin="round"/>
</g>
</svg>
