<svg width="123" height="124" viewBox="0 0 123 124" fill="none" xmlns="http://www.w3.org/2000/svg">
<path d="M67.207 80.5858C67.207 83.0253 67.9304 85.4099 69.2857 87.4382C70.6409 89.4665 72.5672 91.0474 74.8209 91.9809C77.0747 92.9144 79.5546 93.1587 81.9471 92.6827C84.3397 92.2068 86.5374 91.0322 88.2623 89.3072C89.9872 87.5823 91.1619 85.3846 91.6378 82.9921C92.1137 80.5995 91.8695 78.1196 90.936 75.8659C90.0024 73.6121 88.4216 71.6859 86.3933 70.3306C84.365 68.9753 81.9803 68.252 79.5409 68.252C76.2698 68.252 73.1326 69.5514 70.8195 71.8645C68.5065 74.1775 67.207 77.3147 67.207 80.5858ZM79.5409 71.3354C81.3705 71.3354 83.159 71.878 84.6802 72.8944C86.2014 73.9109 87.3871 75.3556 88.0872 77.0459C88.7873 78.7362 88.9705 80.5961 88.6136 82.3905C88.2567 84.1849 87.3757 85.8332 86.082 87.1269C84.7883 88.4206 83.14 89.3016 81.3456 89.6585C79.5512 90.0155 77.6912 89.8323 76.0009 89.1321C74.3106 88.432 72.8659 87.2463 71.8495 85.7251C70.833 84.2039 70.2905 82.4154 70.2905 80.5858C70.2905 78.1325 71.2651 75.7796 72.9999 74.0448C74.7347 72.31 77.0876 71.3354 79.5409 71.3354Z" fill="#323232"/>
<path d="M76.9746 84.5862C77.1178 84.7295 77.2878 84.8432 77.4749 84.9208C77.6621 84.9984 77.8627 85.0383 78.0653 85.0383C78.268 85.0383 78.4686 84.9984 78.6557 84.9208C78.8429 84.8432 79.0129 84.7295 79.1561 84.5862L84.9685 78.7661C85.1235 78.6262 85.2484 78.4562 85.3358 78.2664C85.4231 78.0767 85.4709 77.8712 85.4765 77.6625C85.482 77.4537 85.445 77.246 85.3678 77.0519C85.2906 76.8579 85.1748 76.6815 85.0274 76.5336C84.8799 76.3856 84.704 76.2692 84.5102 76.1913C84.3164 76.1134 84.1089 76.0757 83.9001 76.0805C83.6913 76.0852 83.4856 76.1324 83.2956 76.219C83.1056 76.3057 82.9351 76.43 82.7946 76.5846L78.0692 81.31L75.7566 78.9974C75.6161 78.8429 75.4456 78.7185 75.2556 78.6319C75.0656 78.5452 74.8599 78.4981 74.6512 78.4933C74.4424 78.4885 74.2348 78.5262 74.041 78.6041C73.8472 78.682 73.6713 78.7985 73.5239 78.9464C73.3764 79.0943 73.2606 79.2707 73.1834 79.4647C73.1062 79.6588 73.0692 79.8665 73.0748 80.0753C73.0803 80.2841 73.1281 80.4895 73.2155 80.6793C73.3028 80.869 73.4277 81.039 73.5827 81.1789L76.9746 84.5862Z" fill="#323232"/>
<path d="M96.2426 22H62.3244C61.0977 22 59.9213 22.4873 59.0539 23.3547C58.1865 24.2221 57.6992 25.3985 57.6992 26.6252V59.7725C57.6992 60.1814 57.8617 60.5736 58.1508 60.8627C58.4399 61.1519 58.8321 61.3143 59.241 61.3143C59.6498 61.3143 60.042 61.1519 60.3311 60.8627C60.6203 60.5736 60.7827 60.1814 60.7827 59.7725V26.6252C60.7827 26.2163 60.9451 25.8242 61.2343 25.535C61.5234 25.2459 61.9155 25.0835 62.3244 25.0835H69.2622V26.6252C69.2622 27.8519 69.7495 29.0283 70.6169 29.8957C71.4843 30.7631 72.6608 31.2504 73.8875 31.2504H84.6796C85.9063 31.2504 87.0827 30.7631 87.9501 29.8957C88.8175 29.0283 89.3048 27.8519 89.3048 26.6252V25.0835H96.2426C96.6515 25.0835 97.0437 25.2459 97.3328 25.535C97.6219 25.8242 97.7844 26.2163 97.7844 26.6252V97.5451C97.7844 97.954 97.6219 98.3461 97.3328 98.6353C97.0437 98.9244 96.6515 99.0868 96.2426 99.0868H62.3244C61.9155 99.0868 61.5234 98.9244 61.2343 98.6353C60.9451 98.3461 60.7827 97.954 60.7827 97.5451V92.149C60.7827 91.7401 60.6203 91.348 60.3311 91.0588C60.042 90.7697 59.6498 90.6073 59.241 90.6073C58.8321 90.6073 58.4399 90.7697 58.1508 91.0588C57.8617 91.348 57.6992 91.7401 57.6992 92.149V97.5451C57.6992 98.7718 58.1865 99.9482 59.0539 100.816C59.9213 101.683 61.0977 102.17 62.3244 102.17H96.2426C97.4693 102.17 98.6458 101.683 99.5132 100.816C100.381 99.9482 100.868 98.7718 100.868 97.5451V26.6252C100.868 25.3985 100.381 24.2221 99.5132 23.3547C98.6458 22.4873 97.4693 22 96.2426 22ZM86.2214 26.6252C86.2214 27.0341 86.0589 27.4263 85.7698 27.7154C85.4807 28.0045 85.0885 28.1669 84.6796 28.1669H73.8875C73.4786 28.1669 73.0864 28.0045 72.7973 27.7154C72.5082 27.4263 72.3457 27.0341 72.3457 26.6252V25.0835H86.2214V26.6252Z" fill="#323232"/>
<path d="M84.028 48.5603C83.5552 50.2725 82.7119 51.7611 81.498 53.0261C80.2969 54.2783 78.9424 55.2367 77.4346 55.9011L87.7655 62.092C88.2127 62.3475 88.4363 62.7372 88.4363 63.2611C88.4363 63.6317 88.3021 63.9447 88.0338 64.2003C87.7782 64.4686 87.4652 64.6028 87.0946 64.6028C86.8263 64.6028 86.5963 64.5389 86.4046 64.4111L73.448 56.6486C73.0135 56.3931 72.7963 56.0097 72.7963 55.4986C72.7963 55.1792 72.9049 54.8917 73.1221 54.6361C73.3394 54.3678 73.6077 54.2081 73.9271 54.157C75.5116 53.9142 76.9746 53.2817 78.3163 52.2595C79.658 51.2372 80.6163 49.9914 81.1913 48.522H72.413C72.0424 48.522 71.723 48.3878 71.4546 48.1195C71.1991 47.8511 71.0713 47.5317 71.0713 47.1611C71.0713 46.7906 71.1991 46.4775 71.4546 46.222C71.723 45.9536 72.0424 45.8195 72.413 45.8195L72.4321 45.8386H81.6513C81.5746 44.6758 81.1721 43.6472 80.4438 42.7528C79.7282 41.8456 78.821 41.392 77.7221 41.392H72.2788L72.2596 41.3728C71.8891 41.3728 71.5696 41.245 71.3013 40.9895C71.0457 40.7211 70.918 40.4017 70.918 40.0311C70.918 39.6606 71.0457 39.3475 71.3013 39.092C71.5696 38.8236 71.8891 38.6895 72.2596 38.6895H72.2788L87.9188 38.747H87.938C88.3085 38.747 88.6216 38.8811 88.8771 39.1495C89.1455 39.405 89.2796 39.7181 89.2796 40.0886C89.2796 40.4592 89.1455 40.7786 88.8771 41.047C88.6216 41.3025 88.3085 41.4303 87.938 41.4303H82.763C83.2741 42.0692 83.6574 42.772 83.913 43.5386C84.1685 44.3053 84.3091 45.0847 84.3346 45.877H88.0913C88.4619 45.877 88.7749 46.0111 89.0305 46.2795C89.2988 46.535 89.433 46.8481 89.433 47.2186C89.433 47.5892 89.2988 47.9086 89.0305 48.177C88.7749 48.4325 88.4619 48.5603 88.0913 48.5603H84.028Z" fill="#323232"/>
<path d="M60.582 81.5343C61.5166 79.6054 62.3101 77.6114 62.9563 75.5677C63.2617 74.7523 63.3773 73.878 63.2945 73.0111C63.2117 72.1443 62.9326 71.3077 62.4784 70.5648C61.4497 68.8916 59.8722 67.6274 58.015 66.988C58.015 63.997 55.3247 61.985 52.619 60.7439C52.3464 59.6444 51.8233 58.6227 51.0905 57.7589C50.3577 56.895 49.435 56.2123 48.3946 55.7641C50.3603 51.0541 52.6883 45.2032 53.3821 42.7288C54.5384 38.6046 55.8335 34.4496 51.4241 32.8077C47.3077 31.2659 44.8101 36.1764 43.5998 38.5198C37.7335 49.9672 34.3494 55.3247 34.3494 55.4018C32.9772 57.6219 32.6612 58.0459 32.2064 58.1461C31.267 56.7923 30.464 55.3489 29.809 53.837C27.3576 48.8032 24.4129 46.8992 21.0519 48.148C17.0203 49.6666 16.0721 53.729 17.9761 57.7838C20.6433 63.5114 20.335 71.0427 19.6797 77.2714C19.2789 81.2182 20.2579 84.3171 22.609 86.5218C22.4644 87.2565 22.2528 87.9764 21.9769 88.6725C21.8811 88.9199 21.8507 89.1877 21.8886 89.4503C21.9266 89.7128 22.0317 89.9611 22.1936 90.1712C22.3556 90.3812 22.5691 90.5459 22.8134 90.6493C23.0576 90.7528 23.3245 90.7914 23.5881 90.7616C26.9939 90.5172 30.4123 91.0116 33.6093 92.2108C37.5029 93.8243 41.0669 96.1394 44.124 99.0407C44.2809 99.1943 44.4688 99.3127 44.6752 99.3878C44.8815 99.4629 45.1015 99.4931 45.3205 99.4763C45.5394 99.4596 45.7523 99.3962 45.9448 99.2905C46.1373 99.1848 46.3049 99.0392 46.4366 98.8634C49.2117 95.0091 47.9012 96.3349 49.8438 94.6545C54.6001 90.538 57.7915 87.231 60.5435 81.5497L60.582 81.5343ZM59.8112 72.1451C60.0389 72.509 60.176 72.9223 60.2108 73.3502C60.2457 73.7781 60.1774 74.2081 60.0116 74.6042C59.4123 76.4931 58.6807 78.3374 57.8223 80.1236C57.5526 80.5106 57.1556 80.7906 56.7004 80.9145C56.2453 81.0385 55.7611 80.9987 55.3324 80.8019C54.9051 80.5686 54.5392 80.2374 54.2645 79.8354C53.9899 79.4335 53.8143 78.9722 53.7521 78.4893C54.3672 77.8153 54.8485 77.0305 55.1705 76.1767C56.0647 73.7716 56.8433 72.1374 57.4446 70.164C58.4149 70.5711 59.2397 71.2615 59.8112 72.1451ZM54.8159 66.3327C55.2014 67.1036 54.6386 68.8535 54.2532 70.0329C53.9757 70.8886 53.0738 72.9314 52.3029 75.0513C51.8712 76.2153 50.977 77.2791 49.7436 77.1326C49.2393 77.0443 48.7671 76.8247 48.3746 76.4958C47.9822 76.167 47.6833 75.7405 47.5081 75.2594C48.1252 74.7005 48.6008 74.003 48.8957 73.2243C52.4571 64.2591 52.3029 64.5675 52.4571 64.1666C53.4383 64.6423 54.2585 65.3955 54.8159 66.3327ZM49.2811 60.636C50.4528 62.8561 48.834 64.3516 46.0203 72.1066C45.5578 73.2629 44.8023 73.5172 43.8619 73.0624C43.3377 72.7338 42.9327 72.2457 42.7066 71.6699C42.4804 71.094 42.4449 70.4608 42.6054 69.8633C43.3762 67.2424 46.5368 60.135 47.1612 58.6626C48.0669 59.0675 48.8125 59.7616 49.2811 60.636ZM47.855 92.2879C45.7274 94.1303 46.3595 93.6138 44.9719 95.6103C41.9293 92.9563 38.4673 90.8254 34.7271 89.3046C31.7918 88.1946 28.684 87.6101 25.5461 87.5779C26.0548 85.3424 25.3688 84.7796 24.9987 84.4944C23.1641 82.9527 22.4317 80.7326 22.7478 77.6028C23.4493 70.8963 23.7808 62.8561 20.7744 56.4888C19.7337 54.2532 19.7337 51.9406 22.0694 51.0927C22.7324 50.8383 24.5131 50.1753 26.9799 55.2399C28.1978 57.7607 28.2749 57.5526 31.3661 64.7139C31.5397 65.0704 31.8439 65.3463 32.2155 65.4843C32.5872 65.6223 32.9978 65.6118 33.3619 65.4551C33.7261 65.2983 34.0158 65.0073 34.171 64.6424C34.3262 64.2776 34.3348 63.867 34.1952 63.496C34.1567 63.3957 33.7173 62.3859 33.1545 61.1063C34.6963 60.636 35.4671 59.3641 36.9087 57.0746C36.9549 56.9975 40.4315 51.455 46.3132 39.9845C48.0631 36.5772 49.2194 35.3593 50.3218 35.7524C52.1718 36.4462 51.3779 38.3965 50.3834 41.9193C49.4815 45.1262 45.4576 54.8545 43.5998 59.102C42.5283 61.5688 40.3236 66.8107 39.6607 68.9229C39.2728 70.2253 39.3454 71.6216 39.8663 72.8767C40.3871 74.1319 41.3245 75.1693 42.5206 75.8144C43.1692 76.1244 43.8756 76.2951 44.5942 76.3155C44.9665 77.3338 45.6099 78.231 46.4549 78.9103C47.3 79.5896 48.3145 80.0251 49.389 80.1698C49.9247 80.236 50.4679 80.2047 50.9924 80.0773C51.2461 80.8383 51.6496 81.5407 52.1792 82.1431C52.7088 82.7455 53.3537 83.2357 54.0759 83.5848C54.5652 83.8023 55.0853 83.9427 55.6176 84.0011C53.4284 87.1112 50.8156 89.9004 47.855 92.2879Z" fill="#323232"/>
<path d="M33.8061 34.5185V25.615C33.8061 25.2061 33.6437 24.8139 33.3546 24.5248C33.0654 24.2357 32.6733 24.0732 32.2644 24.0732C31.8555 24.0732 31.4634 24.2357 31.1742 24.5248C30.8851 24.8139 30.7227 25.2061 30.7227 25.615V34.5185C30.7227 34.9274 30.8851 35.3195 31.1742 35.6087C31.4634 35.8978 31.8555 36.0602 32.2644 36.0602C32.6733 36.0602 33.0654 35.8978 33.3546 35.6087C33.6437 35.3195 33.8061 34.9274 33.8061 34.5185Z" fill="#323232"/>
<path d="M38.8073 37.6717L44.5965 31.181C44.7311 31.0291 44.8345 30.8523 44.9008 30.6604C44.9671 30.4686 44.9949 30.2656 44.9828 30.0631C44.9706 29.8605 44.9186 29.6623 44.8299 29.4798C44.7411 29.2973 44.6173 29.1341 44.4654 28.9994C44.3136 28.8648 44.1367 28.7614 43.9449 28.6951C43.7531 28.6288 43.5501 28.601 43.3475 28.6131C43.1449 28.6253 42.9467 28.6773 42.7642 28.766C42.5817 28.8548 42.4185 28.9786 42.2839 29.1305L36.5024 35.6212C36.2304 35.9279 36.0915 36.33 36.1161 36.7391C36.1406 37.1482 36.3267 37.5308 36.6334 37.8027C36.9401 38.0747 37.3422 38.2136 37.7513 38.189C38.1604 38.1645 38.543 37.9784 38.815 37.6717H38.8073Z" fill="#323232"/>
<path d="M27.8912 37.795C28.1953 37.5228 28.3791 37.1411 28.4022 36.7336C28.4253 36.3261 28.2859 35.9261 28.0145 35.6212L22.2407 29.1305C21.9688 28.8238 21.5862 28.6377 21.1771 28.6131C20.768 28.5886 20.3659 28.7275 20.0592 28.9994C19.7525 29.2713 19.5664 29.6539 19.5418 30.0631C19.5173 30.4722 19.6562 30.8743 19.9281 31.181L25.7096 37.6717C25.8445 37.8234 26.0081 37.947 26.1909 38.0354C26.3737 38.1237 26.5721 38.1751 26.7748 38.1866C26.9775 38.198 27.1805 38.1693 27.3721 38.1021C27.5636 38.035 27.7401 37.9306 27.8912 37.795Z" fill="#323232"/>
</svg>
