<?xml version="1.0" encoding="UTF-8"?>
<svg id="Layer_1" data-name="Layer 1" xmlns="http://www.w3.org/2000/svg" viewBox="0 0 101.67 116.86">
  <defs>
    <style>
      .cls-1 {
        fill: #323232;
      }
    </style>
  </defs>
  <path class="cls-1" d="m99.1,76.97c-1.58-1.45-3.62-2.21-5.78-2.13-2.16.08-4.15,1-5.6,2.57l-11.47,12.37c-1.55-2.25-4.15-3.73-7.08-3.73h-13.52c-1.32,0-2.39-.36-3.48-1.17l-4.32-3.18c-1.68-1.27-3.55-1.89-5.72-1.89h-15c-1.68,0-3.09.34-4.42,1.07l-2.32,1.29c-.61-2.98-3.26-5.23-6.42-5.23H1.88c-1.04,0-1.88.84-1.88,1.87v35.68c0,1.04.84,1.88,1.88,1.88h12.08c3.39,0,6.17-2.58,6.52-5.88,2.74,1.32,5.36,2.87,6.89,4.14,1.78,1.46,3.83,2.21,6.12,2.21h35.42c2.74,0,5.18-1.07,7.05-3.08l23.58-25.41c3-3.26,2.8-8.36-.44-11.39h0ZM13.96,112.62H3.75v-31.92h10.21c1.54,0,2.8,1.25,2.8,2.79v26.32c0,1.55-1.26,2.8-2.8,2.8h0Zm82.83-26.81l-23.57,25.41c-1.18,1.26-2.58,1.88-4.3,1.88h-35.42c-1.43,0-2.61-.43-3.73-1.36-2.36-1.94-6.14-3.99-9.25-5.36v-19.98l4.01-2.24c.77-.42,1.55-.6,2.6-.6h15c1.34,0,2.44.35,3.48,1.14l4.34,3.2c1.73,1.28,3.59,1.9,5.71,1.9h13.52c2.66,0,4.83,2.17,4.83,4.83s-2.17,4.83-4.83,4.83h-17.29c-1.04,0-1.88.85-1.88,1.89s.84,1.88,1.88,1.88h17.28c4.74,0,8.58-3.85,8.58-8.58,0-.3-.02-.6-.05-.9l12.77-13.78c.78-.84,1.83-1.33,2.98-1.37,1.16-.04,2.25.36,3.09,1.14,1.73,1.61,1.84,4.35.24,6.08h0ZM7.6,60.76v4.52c0,2.36,1.92,4.27,4.27,4.27h9.54c2.36,0,4.27-1.92,4.27-4.27v-3.8h3.74c.53,0,1.05-.23,1.4-.63.56-.63,1.34-.96,2.24-.96h21.12c.92,0,1.69.33,2.29.98.35.39.86.61,1.39.61h3.28c-.7,1.73-1.09,3.6-1.09,5.55,0,5.98,3.59,11.3,9.13,13.54.23.09.47.14.7.14.37,0,.73-.11,1.05-.32.52-.35.83-.93.83-1.56v-11.6l2.88-1.67,2.88,1.67v11.6c0,.63.31,1.21.83,1.56.52.35,1.18.42,1.76.18,5.53-2.25,9.1-7.57,9.1-13.54,0-5.6-3.12-10.59-8.04-13.04v-27.25c4.92-2.46,8.03-7.45,8.03-13.05,0-5.97-3.57-11.29-9.1-13.54-.58-.24-1.24-.17-1.76.18s-.83.93-.83,1.56v11.6l-2.88,1.67-2.88-1.67V1.88c0-.63-.31-1.21-.83-1.56-.52-.35-1.18-.42-1.76-.18-5.12,2.06-8.55,6.74-9.06,12.14-11.35-1.53-22.83-1.49-34.17.15-2.06.3-3.74,1.4-4.82,3.17-1.54,2.45-3.13,5.38-4.76,8.74l-2.39-1.38c-.29-.16-.61-.25-.94-.25h-3.28c-1.04.01-1.88.85-1.88,1.89s.84,1.88,1.88,1.88h2.78l1.74,1.01c-3.1,1.81-5.97,4.01-8.52,6.59-1.33,1.33-2,2.95-2,4.83v15.69c0,2.7,1.57,5.03,3.84,6.16h0Zm14.33,4.52c0,.28-.23.52-.52.52h-9.54c-.28,0-.51-.23-.51-.52v-3.8h10.58v3.8ZM68.02,5.1v9.47c0,.67.36,1.29.94,1.63l4.76,2.75c.58.33,1.3.33,1.89,0l4.76-2.75c.58-.34.93-.96.93-1.63V5.11c2.6,2.02,4.18,5.15,4.18,8.57,0,4.48-2.69,8.44-6.85,10.08-.72.28-1.19.98-1.19,1.75v29.69c0,.77.47,1.46,1.19,1.75,4.17,1.64,6.85,5.6,6.85,10.08,0,3.42-1.57,6.55-4.18,8.57v-9.46c0-.67-.35-1.29-.93-1.62l-4.76-2.75c-.58-.33-1.3-.33-1.89,0l-4.76,2.75c-.58.34-.94.96-.94,1.62v9.47c-2.61-2.02-4.2-5.15-4.2-8.58,0-2.23.67-4.35,1.87-6.1.12-.12.22-.26.31-.42,1.17-1.56,2.77-2.81,4.68-3.56.71-.28,1.19-.98,1.19-1.75v-29.69c-.01-.77-.48-1.46-1.2-1.75-4.17-1.65-6.86-5.61-6.86-10.08,0-3.43,1.59-6.56,4.21-8.58h0Zm.08,37.59c-1.38.1-2.62.16-3.77.18,1.02-.82,2.36-1.6,3.77-2.19v2.01ZM24.32,17.59c.51-.83,1.22-1.29,2.18-1.44,11.21-1.62,22.58-1.64,33.76-.07.72,4.39,3.4,8.19,7.32,10.36H19.53c1.65-3.43,3.25-6.4,4.79-8.85h0ZM7.51,38.89c0-.87.29-1.57.9-2.18,2.57-2.6,5.49-4.78,8.66-6.51h51.02v6.46c-2.82.95-5.57,2.57-7.27,4.33-.96.96-1.23,2.41-.67,3.64.52,1.25,1.69,2.02,3.06,2.02,1.47,0,3.06-.06,4.89-.18v7.53c-1.84.92-3.44,2.2-4.71,3.73h-4.77c-1.22-1.03-2.76-1.59-4.42-1.59h-21.13c-1.67,0-3.21.56-4.41,1.59H10.65c-1.73,0-3.13-1.4-3.13-3.13v-15.69Zm13.66,13.03c0,1.04-.84,1.88-1.87,1.88h-4.9c-1.04,0-1.88-.84-1.88-1.88s.84-1.88,1.88-1.88h4.9c1.04,0,1.87.84,1.87,1.88Zm-7.6-6.02c3.61.46,7.13.71,10.46.74h.02c1.35,0,2.52-.77,3.1-2.04.52-1.24.25-2.66-.69-3.59-2.78-2.87-8.09-5.19-11.85-5.19-.5,0-.97.04-1.41.12-2.1.37-3.42,2.2-3.37,4.65.05,2.32,1.37,4.98,3.74,5.31h0Zm.06-5.88c.07-.36.17-.39.24-.4.22-.04.47-.06.75-.06,2.39,0,6.04,1.49,8.3,3.3-2.81-.07-5.76-.29-8.76-.68-.3-.25-.7-1.32-.53-2.16h0Zm18.67,3.88c.04-1.01.87-1.79,1.87-1.79h.08c6.22.28,12.52.28,18.73,0,1.07-.07,1.92.76,1.96,1.79.05,1.04-.76,1.92-1.79,1.96-3.16.14-6.35.21-9.53.21s-6.37-.07-9.53-.21c-1.03-.04-1.83-.92-1.79-1.96h0Z"/>
</svg>