<?xml version="1.0" encoding="UTF-8"?>
<svg xmlns="http://www.w3.org/2000/svg" xmlns:xlink="http://www.w3.org/1999/xlink" viewBox="0 0 1013.95 1017.21">
  <defs>
    <style>
      .cls-1 {
        letter-spacing: -.02em;
      }

      .cls-2, .cls-3 {
        font-family: Lexend-SemiBold, Lexend;
        font-size: 24px;
        font-weight: 600;
      }

      .cls-4 {
        fill: #fff;
      }

      .cls-5 {
        fill: url(#_ÂÁ_Ï_ÌÌ_È_ËÂÌÚ_13-2);
      }

      .cls-5, .cls-6, .cls-7, .cls-8, .cls-9, .cls-10, .cls-11, .cls-12, .cls-13 {
        mix-blend-mode: multiply;
      }

      .cls-6 {
        fill: url(#_ÂÁ_Ï_ÌÌ_È_ËÂÌÚ_14);
      }

      .cls-14 {
        letter-spacing: -.1em;
      }

      .cls-15, .cls-16 {
        font-family: Lexend-Regular, Lexend;
        font-size: 22px;
      }

      .cls-16, .cls-17 {
        letter-spacing: -.02em;
      }

      .cls-18 {
        fill: #844dce;
      }

      .cls-19 {
        fill: #36dded;
      }

      .cls-20 {
        letter-spacing: 0em;
      }

      .cls-21 {
        fill: #2598a3;
      }

      .cls-22 {
        letter-spacing: 0em;
      }

      .cls-23 {
        letter-spacing: -.02em;
      }

      .cls-24 {
        isolation: isolate;
      }

      .cls-25, .cls-26 {
        fill: #323232;
      }

      .cls-27 {
        letter-spacing: -.11em;
      }

      .cls-28 {
        letter-spacing: 0em;
      }

      .cls-29 {
        fill: #a33354;
      }

      .cls-30 {
        letter-spacing: 0em;
      }

      .cls-31 {
        letter-spacing: 0em;
      }

      .cls-3, .cls-32 {
        letter-spacing: .02em;
      }

      .cls-33 {
        letter-spacing: 0em;
      }

      .cls-34 {
        fill: #3b448c;
      }

      .cls-35 {
        fill: #209be1;
      }

      .cls-36 {
        fill: #cc411b;
      }

      .cls-7 {
        fill: url(#_ÂÁ_Ï_ÌÌ_È_ËÂÌÚ_13);
      }

      .cls-8 {
        fill: url(#_ÂÁ_Ï_ÌÌ_È_ËÂÌÚ_2);
      }

      .cls-37 {
        letter-spacing: -.06em;
      }

      .cls-38 {
        fill: #f9f9f9;
      }

      .cls-39 {
        fill: #0e9448;
      }

      .cls-40 {
        fill: #5d6bde;
      }

      .cls-9 {
        fill: url(#_ÂÁ_Ï_ÌÌ_È_ËÂÌÚ_3);
      }

      .cls-41 {
        clip-path: url(#clippath);
      }

      .cls-42 {
        fill: #156694;
      }

      .cls-43 {
        fill: #ff4f84;
      }

      .cls-10 {
        fill: url(#_ÂÁ_Ï_ÌÌ_È_ËÂÌÚ_8);
      }

      .cls-44 {
        fill: none;
      }

      .cls-45 {
        fill: #c145c7;
      }

      .cls-11 {
        fill: url(#_ÂÁ_Ï_ÌÌ_È_ËÂÌÚ_15);
      }

      .cls-12 {
        fill: url(#_ÂÁ_Ï_ÌÌ_È_ËÂÌÚ_5);
      }

      .cls-46 {
        letter-spacing: -.02em;
      }

      .cls-47 {
        letter-spacing: -.02em;
      }

      .cls-48 {
        letter-spacing: -.11em;
      }

      .cls-49 {
        fill: #492a73;
      }

      .cls-50 {
        letter-spacing: -.02em;
      }

      .cls-51 {
        fill: #fc0;
      }

      .cls-52 {
        letter-spacing: -.06em;
      }

      .cls-53 {
        letter-spacing: .05em;
      }

      .cls-54 {
        letter-spacing: 0em;
      }

      .cls-55 {
        letter-spacing: -.01em;
      }

      .cls-13 {
        fill: url(#_ÂÁ_Ï_ÌÌ_È_ËÂÌÚ_7);
      }

      .cls-56 {
        letter-spacing: -.02em;
      }

      .cls-26 {
        fill-rule: evenodd;
      }

      .cls-57 {
        letter-spacing: -.02em;
      }

      .cls-58 {
        fill: #742978;
      }

      .cls-59 {
        letter-spacing: -.04em;
      }

      .cls-60 {
        fill: #fc8f00;
      }

      .cls-61 {
        letter-spacing: .02em;
      }

      .cls-62 {
        letter-spacing: -.02em;
      }
    </style>
    <clipPath id="clippath">
      <rect class="cls-44" x="-2.03" y="-.4" width="1018" height="1018"/>
    </clipPath>
    <radialGradient id="_ÂÁ_Ï_ÌÌ_È_ËÂÌÚ_5" data-name="¡ÂÁ˚ÏˇÌÌ˚È „‡‰ËÂÌÚ 5" cx="-3846.03" cy="5659.35" fx="-3846.03" fy="5659.35" r="150.16" gradientTransform="translate(1774.64 -5377.54) rotate(-.03) scale(.42 1.03) skewX(-.06)" gradientUnits="userSpaceOnUse">
      <stop offset=".02" stop-color="#7c6e82"/>
      <stop offset=".09" stop-color="#948898"/>
      <stop offset=".22" stop-color="#b4acb8"/>
      <stop offset=".35" stop-color="#cfcad1"/>
      <stop offset=".48" stop-color="#e4e1e5"/>
      <stop offset=".63" stop-color="#f3f2f3"/>
      <stop offset=".79" stop-color="#fcfbfc"/>
      <stop offset="1" stop-color="#fff"/>
    </radialGradient>
    <radialGradient id="_ÂÁ_Ï_ÌÌ_È_ËÂÌÚ_13" data-name="¡ÂÁ˚ÏˇÌÌ˚È „‡‰ËÂÌÚ 13" cx="5888.3" cy="4128.33" fx="5888.3" fy="4128.33" r="150.16" gradientTransform="translate(-2171.72 -4798.1) scale(.42 1.21) skewX(-.03)" gradientUnits="userSpaceOnUse">
      <stop offset=".02" stop-color="#716e82"/>
      <stop offset=".11" stop-color="#9492a1"/>
      <stop offset=".22" stop-color="#b5b3be"/>
      <stop offset=".33" stop-color="#d0cfd5"/>
      <stop offset=".46" stop-color="#e4e4e8"/>
      <stop offset=".6" stop-color="#f3f3f5"/>
      <stop offset=".76" stop-color="#fcfcfc"/>
      <stop offset="1" stop-color="#fff"/>
    </radialGradient>
    <radialGradient id="_ÂÁ_Ï_ÌÌ_È_ËÂÌÚ_8" data-name="¡ÂÁ˚ÏˇÌÌ˚È „‡‰ËÂÌÚ 8" cx="10378.48" cy="433.08" fx="10378.48" fy="433.08" r="150.17" gradientTransform="translate(-3792.52 -295.65) rotate(.03) scale(.42 1.04) skewX(-.01)" gradientUnits="userSpaceOnUse">
      <stop offset=".02" stop-color="#716e82"/>
      <stop offset=".08" stop-color="#868394"/>
      <stop offset=".21" stop-color="#aba9b5"/>
      <stop offset=".35" stop-color="#c9c8cf"/>
      <stop offset=".49" stop-color="#e1e0e4"/>
      <stop offset=".64" stop-color="#f1f1f3"/>
      <stop offset=".8" stop-color="#fbfbfc"/>
      <stop offset="1" stop-color="#fff"/>
    </radialGradient>
    <radialGradient id="_ÂÁ_Ï_ÌÌ_È_ËÂÌÚ_13-2" data-name="¡ÂÁ˚ÏˇÌÌ˚È „‡‰ËÂÌÚ 13" cx="8317.81" cy="-3470.15" fx="8317.81" fy="-3470.15" r="150.16" gradientTransform="translate(-3399.47 -3194.26) rotate(89.99) scale(.42 1.21) skewX(-.03)" xlink:href="#_ÂÁ_Ï_ÌÌ_È_ËÂÌÚ_13"/>
    <radialGradient id="_ÂÁ_Ï_ÌÌ_È_ËÂÌÚ_3" data-name="¡ÂÁ˚ÏˇÌÌ˚È „‡‰ËÂÌÚ 3" cx="-28.92" cy="-5893.9" fx="-28.92" fy="-5893.9" r="150.16" gradientTransform="translate(-5192.7 590.99) rotate(90.03) scale(.42 1.03) skewX(-.02)" gradientUnits="userSpaceOnUse">
      <stop offset=".02" stop-color="#716e82"/>
      <stop offset=".1" stop-color="#8c8a9a"/>
      <stop offset=".22" stop-color="#afadb9"/>
      <stop offset=".34" stop-color="#cccbd2"/>
      <stop offset=".48" stop-color="#e2e2e6"/>
      <stop offset=".62" stop-color="#f2f2f4"/>
      <stop offset=".78" stop-color="#fcfbfc"/>
      <stop offset="1" stop-color="#fff"/>
    </radialGradient>
    <radialGradient id="_ÂÁ_Ï_ÌÌ_È_ËÂÌÚ_14" data-name="¡ÂÁ˚ÏˇÌÌ˚È „‡‰ËÂÌÚ 14" cx="-9773.65" cy="-4644.74" fx="-9773.65" fy="-4644.74" r="150.16" gradientTransform="translate(-3414.5 -4820.79) rotate(179.99) scale(.42 1.21) skewX(-.03)" gradientUnits="userSpaceOnUse">
      <stop offset=".02" stop-color="#796e82"/>
      <stop offset=".11" stop-color="#9a92a1"/>
      <stop offset=".22" stop-color="#b9b3be"/>
      <stop offset=".33" stop-color="#d2cfd5"/>
      <stop offset=".46" stop-color="#e6e4e8"/>
      <stop offset=".6" stop-color="#f4f3f5"/>
      <stop offset=".76" stop-color="#fcfcfc"/>
      <stop offset="1" stop-color="#fff"/>
    </radialGradient>
    <radialGradient id="_ÂÁ_Ï_ÌÌ_È_ËÂÌÚ_7" data-name="¡ÂÁ˚ÏˇÌÌ˚È „‡‰ËÂÌÚ 7" cx="-14261.75" cy="-686.96" fx="-14261.75" fy="-686.96" r="150.17" gradientTransform="translate(-5576.61 148.63) rotate(180) scale(.42 1.04) skewX(-.01)" gradientUnits="userSpaceOnUse">
      <stop offset=".02" stop-color="#7c6e82"/>
      <stop offset=".08" stop-color="#8f8394"/>
      <stop offset=".21" stop-color="#b1a9b5"/>
      <stop offset=".35" stop-color="#cdc8cf"/>
      <stop offset=".49" stop-color="#e3e0e4"/>
      <stop offset=".64" stop-color="#f2f1f3"/>
      <stop offset=".8" stop-color="#fcfbfc"/>
      <stop offset="1" stop-color="#fff"/>
    </radialGradient>
    <radialGradient id="_ÂÁ_Ï_ÌÌ_È_ËÂÌÚ_15" data-name="¡ÂÁ˚ÏˇÌÌ˚È „‡‰ËÂÌÚ 15" cx="-12203.16" cy="2953.74" fx="-12203.16" fy="2953.74" r="150.16" gradientTransform="translate(-3376.77 -4437.05) rotate(-90.01) scale(.42 1.21) skewX(-.03)" gradientUnits="userSpaceOnUse">
      <stop offset=".02" stop-color="#7c6e82"/>
      <stop offset=".11" stop-color="#9c92a1"/>
      <stop offset=".22" stop-color="#bab3be"/>
      <stop offset=".33" stop-color="#d3cfd5"/>
      <stop offset=".46" stop-color="#e6e4e8"/>
      <stop offset=".6" stop-color="#f4f3f5"/>
      <stop offset=".76" stop-color="#fcfcfc"/>
      <stop offset="1" stop-color="#fff"/>
    </radialGradient>
    <radialGradient id="_ÂÁ_Ï_ÌÌ_È_ËÂÌÚ_2" data-name="¡ÂÁ˚ÏˇÌÌ˚È „‡‰ËÂÌÚ 2" cx="516.74" cy="530.2" fx="516.74" fy="530.2" r="240.73" gradientUnits="userSpaceOnUse">
      <stop offset=".55" stop-color="#000"/>
      <stop offset=".57" stop-color="#2a2a2a"/>
      <stop offset=".59" stop-color="#565656"/>
      <stop offset=".62" stop-color="#7f7f7f"/>
      <stop offset=".65" stop-color="#a1a1a1"/>
      <stop offset=".68" stop-color="#bebebe"/>
      <stop offset=".71" stop-color="#d6d6d6"/>
      <stop offset=".75" stop-color="#e8e8e8"/>
      <stop offset=".8" stop-color="#f5f5f5"/>
      <stop offset=".86" stop-color="#fcfcfc"/>
      <stop offset="1" stop-color="#fff"/>
    </radialGradient>
  </defs>
  <g class="cls-24">
    <g id="Layer_1" data-name="Layer 1">
      <g class="cls-41">
        <g>
          <g>
            <path class="cls-51" d="m154.21,384.49h0c20.38,0,36.92,16.54,36.92,36.92v28.78h-73.84v-28.78c0-20.38,16.54-36.92,36.92-36.92Z"/>
            <ellipse class="cls-12" cx="154.2" cy="434.86" rx="63.28" ry="154.2" transform="translate(-280.85 588.53) rotate(-89.93)"/>
            <path class="cls-4" d="m132.77,418.33l-60.63-.03c-17.68,0-32.23,14.34-32.24,32.02l-.04,87.14,228.58.11.04-87.14c0-17.68-14.4-32.04-32.08-32.05l-60.63-.03-43.01-.02Z"/>
            <g>
              <path class="cls-25" d="m167.89,484.46c-.56,0-1.02.46-1.02,1.02s.46,1.02,1.02,1.02,1.02-.46,1.02-1.02-.46-1.02-1.02-1.02Z"/>
              <path class="cls-25" d="m148.5,475.28c-.56,0-1.02.46-1.02,1.02s.46,1.02,1.02,1.02,1.02-.46,1.02-1.02-.46-1.02-1.02-1.02Z"/>
              <path class="cls-25" d="m141.36,484.46c-.56,0-1.02.46-1.02,1.02s.46,1.02,1.02,1.02,1.02-.46,1.02-1.02-.46-1.02-1.02-1.02Z"/>
              <path class="cls-25" d="m170.06,445.54c-1.58-1.24-3.25-1.09-4.55-.54-.13-1.15-.64-2.5-2.1-3.35-2.07-1.22-4.89-.46-6.27,1.7-1.64,2.57-.63,5.37.9,9.61.26.72.53,1.46.8,2.26.17.48.66.76,1.16.67.83-.16,1.61-.3,2.36-.43,4.2-.75,7.82-1.27,9.07-4.71.69-1.89.13-4.02-1.37-5.19Zm-.55,4.49c-.77,2.11-2.86,2.57-7.52,3.4-.49.09-.99.18-1.52.28-.18-.5-.35-.98-.52-1.45-1.49-4.12-2.15-6.18-1.1-7.82.78-1.21,2.38-1.7,3.52-1.04,1.59.93,1.06,3.16,1.03,3.27-.11.44.08.91.48,1.14.4.23.9.17,1.23-.16,0,0,.53-.5,1.26-.8.91-.37,1.7-.27,2.43.3.79.62,1.09,1.84.71,2.89Z"/>
              <path class="cls-25" d="m145.7,442.74c-1.29-1.54-3.42-2.12-5.18-1.41-1.86.75-2.57,2.27-2.75,3.67-1.06-.46-2.48-.7-3.96.14-2.09,1.19-2.84,4-1.66,6.28,1.4,2.71,4.33,3.23,8.77,4.03.75.13,1.53.27,2.36.43.5.1.99-.19,1.16-.67.28-.8.54-1.54.8-2.26,1.45-4.03,2.81-7.41.46-10.21Zm-2.38,9.52c-.17.47-.34.95-.52,1.45-.52-.1-1.03-.19-1.52-.28-4.31-.77-6.42-1.22-7.32-2.96-.67-1.29-.27-2.92.86-3.56.36-.2.72-.28,1.06-.28,1.21,0,2.23.97,2.29,1.02.33.32.83.38,1.22.15.4-.23.59-.7.48-1.14,0,0-.17-.71-.06-1.49.13-.97.61-1.61,1.47-1.96.94-.38,2.14-.03,2.85.83,1.44,1.72.79,3.76-.81,8.21Z"/>
              <path class="cls-25" d="m178.7,481.58v-5.28c0-2.81-2.29-5.1-5.1-5.1h-4.19l-6.66-8.61s-.05-.07-.09-.1c-.96-.96-2.24-1.49-3.61-1.49h-16.67c-2.81,0-5.1,2.29-5.1,5.1v5.1h-1.63c-.13,0-.25,0-.38.02l-1.77-3.53c-.17-.35-.53-.56-.91-.56h-2.04c-.56,0-1.02.46-1.02,1.02s.46,1.02,1.02,1.02h1.41l1.31,2.63c-1.65.86-2.72,2.58-2.72,4.51v5.27c-1.16.41-2.04,1.53-2.04,2.89,0,1.69,1.37,3.06,3.06,3.06h4.02c.85,2.41,3.15,4.08,5.77,4.08s4.92-1.67,5.77-4.08h14.98c.85,2.41,3.16,4.08,5.77,4.08s4.92-1.67,5.77-4.08h4.02c1.69,0,3.06-1.37,3.06-3.06,0-1.33-.85-2.46-2.04-2.88Zm-19.64-18.54c.8,0,1.55.3,2.12.85l5.65,7.31h-14.24v-8.16h6.47Zm-19.73,3.06c0-1.69,1.37-3.06,3.06-3.06h8.16v8.16h-11.22v-5.1Zm-4.08,19.38h-3.67c-.56,0-1.02-.46-1.02-1.02s.46-1.03,1.02-1.03h4.02c-.23.65-.35,1.34-.35,2.05Zm6.12,4.08c-2.24,0-4.08-1.82-4.08-4.08s1.78-4.08,4.08-4.08,4.08,1.88,4.08,4.08-1.86,4.08-4.08,4.08Zm20.4-4.08h-14.28c0-.71-.12-1.4-.35-2.05h14.98c-.23.65-.35,1.34-.35,2.05Zm6.12,4.08c-2.22,0-4.08-1.81-4.08-4.08s1.78-4.08,4.08-4.08,4.08,1.88,4.08,4.08-1.86,4.08-4.08,4.08Zm4.56-8.16c-1.16-1.3-2.79-2.04-4.56-2.04s-3.4.74-4.56,2.04h-17.41c-1.16-1.3-2.79-2.04-4.56-2.04s-3.4.74-4.56,2.04h-4.21v-4.08h3.67c.56,0,1.02-.46,1.02-1.02s-.46-1.02-1.02-1.02h-3.5c.34-.96,1.13-1.7,2.16-1.95.24-.06.48-.09.72-.09h37.95c1.33,0,2.46.85,2.88,2.04h-3.5c-.56,0-1.02.46-1.02,1.02s.46,1.02,1.02,1.02h3.67v4.08h-4.21Zm5.23,4.08h-3.67c0-.71-.12-1.39-.35-2.04h4.02c.56,0,1.02.46,1.02,1.02s-.46,1.02-1.02,1.02Z"/>
              <path class="cls-25" d="m156.66,475.28h-4.08c-.56,0-1.02.46-1.02,1.02s.46,1.02,1.02,1.02h4.08c.56,0,1.02-.46,1.02-1.02s-.46-1.02-1.02-1.02Z"/>
            </g>
            <text transform="translate(55.26 530.12)"><tspan class="cls-2"><tspan x="0" y="0">Car Enthusias</tspan><tspan class="cls-32" x="166.2" y="0">t</tspan><tspan x="176.13" y="0">s:</tspan></tspan><tspan class="cls-15"><tspan x="18.21" y="26.4">Cars </tspan><tspan class="cls-57" x="72.63" y="26.4">o</tspan><tspan x="85.72" y="26.4">wned </tspan><tspan class="cls-46" x="149.41" y="26.4">b</tspan><tspan x="162.83" y="26.4">y</tspan></tspan><tspan class="cls-15"><tspan x="-24.86" y="52.8">passiona</tspan><tspan class="cls-22" x="70.69" y="52.8">t</tspan><tspan x="79.02" y="52.8">e indivi</tspan><tspan class="cls-61" x="156.07" y="52.8">d</tspan><tspan x="170.37" y="52.8">uals.</tspan></tspan></text>
          </g>
          <g>
            <g>
              <polygon class="cls-19" points="295.28 169.23 347.4 221.36 347.4 169.23 295.28 169.23"/>
              <polygon class="cls-21" points="312.38 186.34 330.3 204.25 330.3 186.34 312.38 186.34"/>
            </g>
            <ellipse class="cls-7" cx="309.66" cy="207.01" rx="63.28" ry="182.06" transform="translate(-55.72 279.42) rotate(-44.97)"/>
            <path class="cls-4" d="m306.2,180.17l-42.85-42.89c-12.49-12.51-32.93-12.65-45.44-.16l-61.65,61.59,161.55,161.71,61.65-61.59c12.51-12.49,12.47-32.84-.02-45.35l-42.85-42.89-30.4-30.43Z"/>
            <text transform="translate(108.13 263.12)"><tspan class="cls-2"><tspan class="cls-47" x="0" y="0">W</tspan><tspan x="23.26" y="0">ell Main</tspan><tspan class="cls-31" x="117.31" y="0">t</tspan><tspan class="cls-54" x="126.65" y="0">ained:</tspan></tspan><tspan class="cls-15"><tspan class="cls-37" x="-16.3" y="26.4">T</tspan><tspan class="cls-17" x="-4.95" y="26.4">r</tspan><tspan x="3.43" y="26.4">ea</tspan><tspan class="cls-22" x="30.25" y="26.4">t</tspan><tspan class="cls-28" x="38.59" y="26.4">ed and ca</tspan><tspan class="cls-62" x="144.41" y="26.4">r</tspan><tspan x="152.79" y="26.4">ed </tspan><tspan class="cls-46" x="185.79" y="26.4">f</tspan><tspan x="193.99" y="26.4">or</tspan></tspan><tspan class="cls-15"><tspan x="-13.44" y="52.8">li</tspan><tspan class="cls-17" x="-1.81" y="52.8">k</tspan><tspan x="10.21" y="52.8">e a </tspan><tspan class="cls-46" x="49.34" y="52.8">f</tspan><tspan x="57.55" y="52.8">ami</tspan><tspan class="cls-1" x="97.85" y="52.8">l</tspan><tspan x="103.05" y="52.8">y membe</tspan><tspan class="cls-27" x="202.16" y="52.8">r</tspan><tspan class="cls-28" x="208.51" y="52.8">.</tspan></tspan></text>
            <g>
              <path class="cls-25" d="m231.16,193.64h-3.81l-2.02-6.05c-.11-.34-.43-.57-.78-.57h-11.58c-.36,0-.67.23-.78.57l-2.02,6.05h-3.81c-.46,0-.83.37-.83.83v3.31c0,.46.37.83.83.83h.83v1.65c0,1.22.67,2.27,1.65,2.85v2.94c0,.46.37.83.83.83h4.96c.46,0,.83-.37.83-.83v-2.48h6.62v2.48c0,.46.37.83.83.83h4.96c.46,0,.83-.37.83-.83v-2.94c.98-.57,1.65-1.63,1.65-2.85v-1.65h.83c.46,0,.83-.37.83-.83v-3.31c0-.46-.37-.83-.83-.83Zm-17.6-4.96h10.38l1.93,5.79h-14.24l1.93-5.79Zm-5.9,8.27h-.48v-1.65h2.14l-1.65,1.65Zm6.13,8.27h-3.31v-1.65h3.31v1.65Zm13.23,0h-3.31v-1.65h3.31v1.65Zm1.65-4.96c0,.91-.74,1.65-1.65,1.65h-16.54c-.91,0-1.65-.74-1.65-1.65v-2.14l2-2h15.85l2,2v2.14Zm1.65-3.31h-.48l-1.65-1.65h2.14v1.65Z"/>
              <path class="cls-25" d="m215.45,199.43h6.62v1.65h-6.62v-1.65Z"/>
              <path class="cls-25" d="m240.22,184.77c.62-1.02,1.08-2.12,1.36-3.28l2.09-.26c.41-.05.72-.4.72-.82v-3.31c0-.42-.31-.77-.72-.82l-2.09-.26c-.28-1.17-.74-2.27-1.36-3.28l1.29-1.66c.26-.33.23-.8-.07-1.09l-2.34-2.34c-.3-.3-.76-.32-1.09-.07l-1.66,1.29c-1.02-.62-2.12-1.08-3.28-1.36l-.26-2.09c-.05-.42-.4-.73-.82-.73h-3.31c-.42,0-.77.31-.82.72l-.26,2.09c-1.16.28-2.26.74-3.28,1.36l-1.66-1.29c-.33-.26-.8-.23-1.09.07l-2.34,2.34c-.29.29-.32.76-.07,1.09l1.29,1.66c-.62,1.02-1.08,2.12-1.36,3.28l-2.09.26c-.42.05-.73.4-.73.82v3.31c0,.42.31.77.72.82l2.09.26c.28,1.17.74,2.27,1.36,3.28l-.71.91,1.3,1.02,1.07-1.38c.22-.28.23-.68.03-.98-.78-1.13-1.3-2.4-1.55-3.76-.07-.35-.35-.62-.71-.67l-1.95-.24v-1.85l1.95-.24c.36-.04.64-.32.71-.67.25-1.36.78-2.63,1.55-3.76.2-.3.19-.69-.03-.98l-1.2-1.55,1.31-1.31,1.55,1.2c.29.22.68.23.97.03,1.14-.78,2.4-1.3,3.76-1.55.35-.07.62-.35.67-.71l.24-1.95h1.85l.24,1.95c.04.36.32.64.67.71,1.36.25,2.63.78,3.76,1.55.29.2.69.19.97-.03l1.55-1.2,1.31,1.31-1.2,1.55c-.22.28-.23.68-.03.98.78,1.13,1.3,2.4,1.55,3.76.07.35.35.62.71.67l1.95.24v1.85l-1.95.24c-.36.04-.64.32-.71.67-.25,1.36-.78,2.63-1.55,3.76-.2.3-.19.69.03.98l1.2,1.55-1.31,1.31-1.55-1.2c-.29-.22-.68-.23-.97-.03-1.14.78-2.4,1.3-3.76,1.55-.35.07-.62.35-.67.71l-.24,1.95h-1.85l-.24-1.95c-.04-.36-.32-.64-.67-.71-.41-.08-.82-.18-1.22-.31l-.51,1.57c.27.09.55.16.83.23l.26,2.09c.05.41.4.72.82.72h3.31c.42,0,.77-.31.82-.72l.26-2.09c1.16-.28,2.26-.74,3.28-1.36l1.66,1.29c.33.26.8.23,1.09-.07l2.34-2.34c.29-.29.32-.76.07-1.09l-1.29-1.66Z"/>
              <path class="cls-25" d="m230.33,186.2c4.1,0,7.44-3.34,7.44-7.44s-3.34-7.44-7.44-7.44-7.44,3.34-7.44,7.44,3.34,7.44,7.44,7.44Zm0-13.23c3.19,0,5.79,2.6,5.79,5.79s-2.6,5.79-5.79,5.79-5.79-2.6-5.79-5.79,2.6-5.79,5.79-5.79Z"/>
              <path class="cls-25" d="m256.48,165.34c.2-.16.31-.39.31-.65v-4.96c0-.22-.09-.43-.24-.58l-3.31-3.31c-.24-.24-.59-.31-.9-.18-.31.13-.51.43-.51.76v4.45l-2.48,1.24-2.48-1.24v-4.45c0-.33-.2-.64-.51-.76-.31-.13-.66-.06-.9.18l-3.31,3.31c-.16.15-.24.36-.24.58v4.96c0,.25.11.49.31.65l3.82,3.06v25.67l-3.82,3.06c-.2.16-.31.39-.31.65v4.96c0,.22.09.43.24.58l3.31,3.31c.24.24.59.31.9.18.31-.13.51-.43.51-.76v-4.45l2.48-1.24,2.48,1.24v4.45c0,.33.2.64.51.76.1.04.21.06.32.06.21,0,.43-.08.58-.24l3.31-3.31c.16-.15.24-.36.24-.58v-4.96c0-.25-.11-.49-.31-.65l-3.82-3.06v-25.67l3.82-3.06Zm-5.17,29.77l3.82,3.06v4.22l-1.65,1.65v-2.96c0-.31-.18-.6-.46-.74l-3.31-1.65c-.12-.06-.24-.09-.37-.09s-.25.03-.37.09l-3.31,1.65c-.28.14-.46.43-.46.74v2.97l-1.65-1.65v-4.22l3.82-3.06c.2-.16.31-.39.31-.65v-26.46c0-.25-.11-.49-.31-.65l-3.82-3.06v-4.22l1.65-1.65v2.97c0,.31.18.6.46.74l3.31,1.65c.23.12.51.12.74,0l3.31-1.65c.28-.14.46-.43.46-.74v-2.97l1.65,1.65v4.22l-3.82,3.06c-.2.16-.31.4-.31.65v26.46c0,.25.11.49.31.65Z"/>
              <path class="cls-25" d="m230.33,182.89s.09,0,.13-.01c.26-.04.49-.21.61-.45l3.31-6.62-1.48-.74-2.79,5.59-1.67-1.67-1.17,1.17,2.48,2.48c.16.16.37.24.59.24h0Z"/>
            </g>
          </g>
          <g>
            <g>
              <polygon class="cls-35" points="597.25 118.94 597.25 192.65 634.11 155.8 597.25 118.94"/>
              <polygon class="cls-42" points="597.21 143.14 597.21 168.48 609.88 155.81 597.21 143.14"/>
            </g>
            <ellipse class="cls-10" cx="580.71" cy="155.82" rx="63.28" ry="155.82"/>
            <path class="cls-4" d="m597.24,134.39l.03-60.63c0-17.68-14.34-32.23-32.02-32.24l-87.14-.04-.11,228.58,87.14.04c17.68,0,32.04-14.4,32.05-32.08l.03-60.63.02-43.01Z"/>
            <text transform="translate(406.33 133.87)"><tspan class="cls-2"><tspan x="0" y="0">Good Se</tspan><tspan class="cls-53" x="101.16" y="0">r</tspan><tspan x="112.87" y="0">vice </tspan></tspan><tspan class="cls-2"><tspan class="cls-23" x="35.76" y="28.8">R</tspan><tspan x="52.08" y="28.8">eco</tspan><tspan class="cls-50" x="94.34" y="28.8">r</tspan><tspan x="104.33" y="28.8">d:</tspan></tspan><tspan class="cls-15"><tspan x="-16.31" y="55.2">Cars with a st</tspan><tspan class="cls-17" x="128.6" y="55.2">r</tspan><tspan x="136.98" y="55.2">ong </tspan></tspan><tspan class="cls-15"><tspan x="11.09" y="81.6">main</tspan><tspan class="cls-22" x="64.48" y="81.6">t</tspan><tspan x="72.82" y="81.6">enance </tspan></tspan><tspan class="cls-15"><tspan x="42.09" y="108">his</tspan><tspan class="cls-22" x="71.83" y="108">t</tspan><tspan x="80.17" y="108">or</tspan><tspan class="cls-59" x="102.56" y="108">y</tspan><tspan x="114.47" y="108">.</tspan></tspan></text>
            <path class="cls-25" d="m488.87,47.55h-3.94c-.44,0-.8.36-.8.8s.36.8.8.8h3.94c.44,0,.8-.36.8-.8s-.36-.8-.8-.8Z"/>
            <path class="cls-25" d="m477.01,59.7h2.46c.44,0,.8-.36.8-.8s-.36-.8-.8-.8h-2.46c-.44,0-.8.36-.8.8s.36.8.8.8Z"/>
            <path class="cls-25" d="m482.66,59.7h14.12c.44,0,.8-.36.8-.8s-.36-.8-.8-.8h-14.12c-.44,0-.8.36-.8.8s.36.8.8.8Z"/>
            <path class="cls-25" d="m477.01,65.49h2.46c.44,0,.8-.36.8-.8s-.36-.8-.8-.8h-2.46c-.44,0-.8.36-.8.8s.36.8.8.8Z"/>
            <path class="cls-25" d="m482.66,65.49h14.12c.44,0,.8-.36.8-.8s-.36-.8-.8-.8h-14.12c-.44,0-.8.36-.8.8s.36.8.8.8Z"/>
            <path class="cls-25" d="m477.01,71.28h2.46c.44,0,.8-.36.8-.8s-.36-.8-.8-.8h-2.46c-.44,0-.8.36-.8.8s.36.8.8.8Z"/>
            <path class="cls-25" d="m482.66,71.28h14.12c.44,0,.8-.36.8-.8s-.36-.8-.8-.8h-14.12c-.44,0-.8.36-.8.8s.36.8.8.8Z"/>
            <path class="cls-25" d="m477.01,77.07h2.46c.44,0,.8-.36.8-.8s-.36-.8-.8-.8h-2.46c-.44,0-.8.36-.8.8s.36.8.8.8Z"/>
            <path class="cls-25" d="m477.01,82.86h2.46c.44,0,.8-.36.8-.8s-.36-.8-.8-.8h-2.46c-.44,0-.8.36-.8.8s.36.8.8.8Z"/>
            <path class="cls-25" d="m482.66,82.86h14.12c.44,0,.8-.36.8-.8s-.36-.8-.8-.8h-14.12c-.44,0-.8.36-.8.8s.36.8.8.8Z"/>
            <path class="cls-25" d="m477.01,88.65h2.46c.44,0,.8-.36.8-.8s-.36-.8-.8-.8h-2.46c-.44,0-.8.36-.8.8s.36.8.8.8Z"/>
            <path class="cls-25" d="m482.66,88.65h14.12c.44,0,.8-.36.8-.8s-.36-.8-.8-.8h-14.12c-.44,0-.8.36-.8.8s.36.8.8.8Z"/>
            <path class="cls-25" d="m519.81,73.54l-.98-.59c-.05-.03-.09-.07-.12-.13l-2.17-3.76c-.03-.05-.05-.11-.05-.17l-.02-1.14c-.01-.68-.38-1.31-.97-1.65l-1.93-1.11c-.59-.34-1.32-.35-1.92-.02l-1,.55c-.05.03-.11.04-.17.04h-3.16v-14.78c0-1.92-1.56-3.48-3.48-3.48h-6.8v-1.08c0-1.45-1.18-2.63-2.63-2.63h-2.37c-.44,0-.8.36-.8.8s.36.8.8.8h2.37c.57,0,1.04.47,1.04,1.04v3.73c0,.57-.47,1.04-1.04,1.04h-2.03c-1.23,0-2.23,1-2.23,2.23,0,.35-.29.64-.64.64h-5.22c-.35,0-.64-.29-.64-.64,0-1.23-1-2.23-2.23-2.23h-2.03c-.57,0-1.04-.47-1.04-1.04v-3.73c0-.57.47-1.04,1.04-1.04h9.49c.44,0,.8-.36.8-.8s-.36-.8-.8-.8h-9.49c-1.45,0-2.63,1.18-2.63,2.63v1.08h-6.8c-1.92,0-3.48,1.56-3.48,3.48v43.62c0,1.92,1.56,3.48,3.48,3.48h33.9c1.92,0,3.48-1.56,3.48-3.48v-7.34h3.16c.06,0,.12.02.17.04l1,.55c.29.16.62.24.94.24s.67-.09.97-.26l1.93-1.11c.59-.34.96-.97.97-1.65l.02-1.14c0-.06.02-.12.05-.17l2.17-3.76c.03-.05.07-.1.12-.13l.98-.59c.58-.35.94-.99.94-1.67v-2.22c0-.68-.36-1.32-.94-1.67h0Zm-15.97-24.64c1.04,0,1.89.85,1.89,1.89v14.6l-.76-.42c-.26-.14-.55-.22-.84-.24v-12.62c0-.9-.73-1.62-1.62-1.62h-5.52c.04-.17.05-.35.05-.53v-1.06h6.8Zm0,47.39h-33.9c-1.04,0-1.89-.85-1.89-1.89v-43.62c0-1.04.85-1.89,1.89-1.89h6.8v1.06c0,.18.02.36.05.53h-5.52c-.9,0-1.62.73-1.62,1.62v31.56c0,.44.36.8.8.8s.8-.36.8-.8v-31.56s.02-.03.03-.03h6.55c.44.32.97.51,1.55.51h2.03c.35,0,.64.29.64.64,0,1.23,1,2.23,2.23,2.23h5.22c1.23,0,2.23-1,2.23-2.23,0-.35.29-.64.64-.64h2.03c.58,0,1.12-.19,1.55-.51h6.55s.03.02.03.03v13.17l-1.42.82c-.59.34-.96.97-.97,1.65l-.02,1.14c0,.06-.02.12-.05.17l-2.17,3.76c-.03.05-.07.1-.12.13l-.98.59c-.58.35-.94.99-.94,1.67v.27h-13.21c-.44,0-.8.36-.8.8s.36.8.8.8h13.21v.36c0,.68.36,1.32.94,1.67l.98.59c.05.03.09.07.12.13l2.17,3.76c.03.05.05.11.05.17l.02,1.14c.01.68.38,1.31.97,1.65l1.42.82v5.73s-.02.03-.03.03h-31.24s-.03-.02-.03-.03v-6.23c0-.44-.36-.8-.8-.8s-.8.36-.8.8v6.23c0,.9.73,1.62,1.62,1.62h31.24c.9,0,1.62-.73,1.62-1.62v-5.18c.29-.02.58-.1.84-.24l.76-.42v7.16c0,1.04-.85,1.89-1.89,1.89h0Zm15.32-18.87c0,.12-.07.24-.17.3l-.98.59c-.28.17-.52.41-.68.69l-2.17,3.76c-.16.29-.25.61-.26.94l-.02,1.14c0,.12-.07.24-.18.3l-1.93,1.11c-.11.06-.24.06-.35,0l-1-.55c-.29-.16-.61-.24-.94-.24h-4.34c-.33,0-.66.08-.94.24l-1,.55c-.11.06-.24.06-.35,0l-1.93-1.11c-.11-.06-.18-.18-.18-.3l-.02-1.14c0-.33-.1-.65-.26-.94l-2.17-3.76c-.16-.28-.4-.52-.68-.69l-.98-.59c-.11-.06-.17-.18-.17-.3v-2.22c0-.12.07-.24.17-.3l.98-.59c.28-.17.52-.41.68-.69l2.17-3.76c.16-.29.25-.61.26-.94l.02-1.14c0-.12.07-.24.18-.3l1.93-1.11c.11-.06.24-.06.35,0l1,.55c.29.16.61.24.94.24h4.34c.33,0,.65-.08.94-.24l1-.55c.11-.06.24-.06.35,0l1.93,1.11c.11.06.18.18.18.3l.02,1.14c0,.33.1.65.26.94l2.17,3.76c.16.29.4.53.68.7l.98.59c.11.06.17.18.17.3v2.22Z"/>
            <path class="cls-25" d="m508.32,68.95c-4.06,0-7.37,3.3-7.37,7.37s3.3,7.37,7.37,7.37c1.79,0,3.52-.65,4.86-1.83.33-.29.36-.79.07-1.12-.29-.33-.79-.36-1.12-.07-1.05.93-2.41,1.44-3.81,1.44-3.19,0-5.78-2.59-5.78-5.78s2.59-5.78,5.78-5.78,5.78,2.59,5.78,5.78c0,.7-.13,1.39-.37,2.04-.16.41.05.87.46,1.02.41.16.87-.05,1.02-.46.32-.83.47-1.71.47-2.6,0-4.06-3.3-7.37-7.37-7.37h0Z"/>
          </g>
          <g>
            <g>
              <polygon class="cls-40" points="846.34 296.9 794.22 349.03 846.34 349.03 846.34 296.9"/>
              <polygon class="cls-34" points="829.16 314 811.24 331.92 829.16 331.92 829.16 314"/>
            </g>
            <ellipse class="cls-5" cx="808.57" cy="311.29" rx="182.06" ry="63.28" transform="translate(16.53 662.53) rotate(-44.97)"/>
            <path class="cls-4" d="m835.41,307.83l42.89-42.85c12.51-12.49,12.65-32.93.16-45.44l-61.59-61.65-161.71,161.55,61.59,61.65c12.49,12.51,32.84,12.47,45.35-.02l42.89-42.85,30.43-30.4Z"/>
            <text transform="translate(653.69 242.87)"><tspan class="cls-2"><tspan x="0" y="0">Sing</tspan><tspan class="cls-55" x="53.33" y="0">l</tspan><tspan x="59.97" y="0">e-Owned: </tspan></tspan><tspan class="cls-15"><tspan class="cls-37" x="-7.9" y="26.4">V</tspan><tspan x="6.51" y="26.4">ehic</tspan><tspan class="cls-33" x="50.37" y="26.4">l</tspan><tspan x="55.68" y="26.4">es f</tspan><tspan class="cls-17" x="93.91" y="26.4">r</tspan><tspan x="102.29" y="26.4">om one </tspan></tspan><tspan class="cls-15"><tspan x="4.31" y="52.8">p</tspan><tspan class="cls-17" x="18.19" y="52.8">r</tspan><tspan class="cls-33" x="26.57" y="52.8">e</tspan><tspan x="39.24" y="52.8">vious </tspan><tspan class="cls-57" x="101.5" y="52.8">o</tspan><tspan x="114.59" y="52.8">wne</tspan><tspan class="cls-48" x="158.17" y="52.8">r</tspan><tspan x="164.53" y="52.8">.</tspan></tspan></text>
            <g id="_04-car_agent" data-name=" 04-car agent">
              <path class="cls-25" d="m721.02,153.16c0-.48-.39-.86-.86-.86s-.86.39-.86.86v.86c0,.48.39.86.86.86s.86-.39.86-.86v-.86Z"/>
              <path class="cls-25" d="m727.06,154.88c.48,0,.86-.39.86-.86v-.86c0-.48-.39-.86-.86-.86s-.86.39-.86.86v.86c0,.48.39.86.86.86Z"/>
              <path class="cls-25" d="m735.68,185.06h-8.62v-2.55c0-1.85-.54-3.66-1.55-5.21l.81-1.21c.22.08.45.12.69.12.27,0,.53-.05.78-.14.71-.27,1.23-.9,1.35-1.65l.27-1.64,1.78.79c1.12.5,2.15,1.18,3.04,2.02.35.33.89.31,1.22-.03.33-.35.31-.89-.03-1.22h0c-1.03-.97-2.22-1.77-3.52-2.34l-4.83-2.15v-2.63c3.83-1.36,6.51-4.83,6.86-8.88h.04c1.9,0,3.45-1.54,3.45-3.45,0-.19-.02-.39-.05-.58h0s1.18-3.54,1.18-3.54c.39-1.17.59-2.4.59-3.64,0-8.57-6.95-15.52-15.52-15.52s-15.52,6.95-15.52,15.52c0,1.23.2,2.46.59,3.63l1.18,3.54h0c-.32,1.89.94,3.67,2.82,3.99.19.03.39.05.59.05h.04c.35,4.05,3.03,7.52,6.86,8.88v2.63l-4.83,2.15c-4.09,1.74-6.87,5.61-7.22,10.03-.02.27-.03.53-.03.8v3.1c0,.48.39.86.86.86h26.73c.48,0,.86-.39.86-.86s-.39-.86-.86-.86Zm-14.85-13.63l1.48,1.49-1.84,1.48c-.18.15-.45.12-.6-.07-.04-.06-.07-.12-.09-.19l-.34-2.08,1.39-.62Zm2.78,2.66l1.28,1.02-.88,1.32h-.8l-.88-1.32,1.28-1.02Zm-.41,4.09v-.02h.81v.02c.87,1.28,1.33,2.79,1.32,4.33v2.55h-3.45v-2.55c0-1.54.45-3.05,1.31-4.33h0Zm4.23-4.05c-.04.23-.26.39-.49.35-.07-.01-.14-.04-.19-.09l-1.84-1.47,1.49-1.49,1.39.62-.35,2.08Zm-17.62-27.01c0-7.62,6.18-13.8,13.8-13.8s13.8,6.18,13.8,13.8c0,1.05-.17,2.09-.5,3.09l-.69,2.07c-.4-.35-.88-.6-1.4-.74v-7.01c0-.48-.39-.86-.86-.86-.13,0-.27.03-.39.09-6.27,3.12-13.65,3.12-19.92,0-.43-.21-.94-.04-1.16.39-.06.12-.09.25-.09.39v7.01c-.52.14-.99.39-1.39.74l-.69-2.07c-.33-1-.5-2.04-.5-3.09Zm5.17,10.35c0-.48-.39-.86-.86-.86h-.86c-.95,0-1.72-.77-1.72-1.72s.77-1.72,1.72-1.72c.48,0,.86-.39.86-.86v-6.41c6.06,2.59,12.91,2.59,18.97,0v6.41c0,.48.39.86.86.86.95,0,1.72.77,1.72,1.72s-.77,1.72-1.72,1.72h-.86c-.48,0-.86.39-.86.86,0,4.76-3.86,8.62-8.62,8.62s-8.62-3.86-8.62-8.62Zm8.62,10.35c.58,0,1.15-.05,1.72-.15v2.38l-1.72,1.72-1.72-1.72v-2.38c.57.1,1.15.15,1.72.15Zm-13.8,15c0-.23,0-.46.02-.69.31-3.79,2.7-7.09,6.2-8.57l1.78-.79.27,1.64c.12.75.64,1.38,1.35,1.65.25.1.51.14.78.14.24,0,.47-.04.69-.12l.8,1.21c-1.01,1.55-1.55,3.36-1.55,5.21v2.55h-10.35v-2.24Z"/>
              <path class="cls-25" d="m744.47,177.32l-4.31-.86c-.47-.1-.92.21-1.02.67-.01.06-.02.11-.02.17v2.59c0,.48.39.86.86.86h4.31c.48,0,.86-.39.86-.86v-1.72c0-.41-.29-.76-.69-.84Zm-1.03,1.71h-2.59v-.67l2.59.52v.16Z"/>
              <path class="cls-25" d="m758.79,176.46l-4.31.86c-.4.08-.69.44-.69.84v1.72c0,.48.39.86.86.86h4.31c.48,0,.86-.39.86-.86v-2.59c0-.48-.39-.86-.86-.86-.06,0-.12,0-.17.02Zm-.69,2.57h-2.59v-.16l2.59-.52v.67Z"/>
              <path class="cls-25" d="m762.41,172.56c0-1.19-.97-2.16-2.16-2.16h-1.88l-2.07-4.66c-.14-.31-.45-.51-.79-.51h-12.07c-.34,0-.65.2-.79.51l-2.07,4.66h-1.88c-1.19,0-2.15.96-2.15,2.14,0,.79.43,1.51,1.11,1.89-.71.78-1.11,1.81-1.11,2.87v5.17c0,.48.39.86.86.86v2.59c0,.48.39.86.86.86h5.17c.48,0,.86-.39.86-.86v-2.59h10.35v2.59c0,.48.39.86.86.86h5.17c.48,0,.86-.39.86-.86v-2.59c.48,0,.86-.39.86-.86v-5.17c0-1.06-.4-2.08-1.11-2.87.69-.38,1.11-1.09,1.11-1.88Zm-1.72,9.05h-22.42v-4.31c0-1.43,1.16-2.59,2.59-2.59h17.24c1.43,0,2.59,1.16,2.59,2.59v4.31Zm-.43-9.48c.24,0,.43.19.43.43s-.19.43-.43.43h-.73l-.38-.86h1.12Zm-16.25-5.17h10.95l2.68,6.04h-16.31l2.68-6.04Zm-5.3,5.17h1.12l-.38.86h-.73c-.24,0-.43-.19-.43-.43s.19-.43.43-.43Zm3.88,12.93h-3.45v-1.72h3.45v1.72Zm17.24,0h-3.45v-1.72h3.45v1.72Z"/>
              <path class="cls-25" d="m739.87,157.89l4.88,4.88c1.35,1.35,3.53,1.35,4.88,0h0s5.49-5.49,5.49-5.49c1.35-1.35,1.35-3.53,0-4.88h0l3.66-3.66c.16-.16.25-.38.25-.61v-1.24l.69.23c.31.1.65.02.88-.21l1.22-1.22c.16-.16.25-.38.25-.61v-3.66c0-.48-.39-.86-.86-.86h-3.65c-.23,0-.45.09-.61.25l-6.71,6.71h0c-1.35-1.34-3.53-1.34-4.88,0l-5.49,5.49c-1.35,1.35-1.35,3.53,0,4.88h0Zm18.04-15.6h2.44v2.44l-.59.59-1.32-.44c-.45-.15-.94.09-1.09.54-.03.09-.04.18-.04.27v2.08l-3.41,3.41-2.44-2.44,6.45-6.46Zm-16.82,11.94l5.49-5.49c.67-.67,1.76-.67,2.44,0l.61.61h0l4.27,4.27c.67.67.67,1.76,0,2.44l-5.49,5.49c-.67.67-1.77.67-2.44,0h0s-4.88-4.88-4.88-4.88c-.67-.67-.67-1.76,0-2.44h0Z"/>
              <path class="cls-25" d="m745.66,160.02c.83.86,2.19.88,3.05.05s.88-2.19.05-3.05c-.02-.02-.04-.04-.05-.05l-3.05-3.05c-.84-.84-2.21-.84-3.05,0-.4.4-.63.95-.63,1.52,0,.57.23,1.12.63,1.52l3.05,3.05Zm-1.83-4.88c.17-.17.44-.17.61,0l3.05,3.05c.17.17.17.44,0,.61-.08.08-.19.13-.3.13-.11,0-.22-.05-.31-.13l-3.05-3.05c-.17-.17-.17-.44,0-.61h0Z"/>
              <circle class="cls-25" cx="750.34" cy="155.74" r=".86"/>
              <circle class="cls-25" cx="752.06" cy="154.02" r=".86"/>
            </g>
          </g>
          <g>
            <g>
              <polygon class="cls-18" points="896.64 598.88 822.92 598.88 859.78 635.74 896.64 598.88"/>
              <polygon class="cls-49" points="872.36 598.83 847.02 598.83 859.69 611.5 872.36 598.83"/>
            </g>
            <ellipse class="cls-9" cx="859.75" cy="582.34" rx="154.2" ry="63.28"/>
            <path class="cls-4" d="m881.18,598.87l60.63.03c17.68,0,32.23-14.34,32.24-32.02l.04-87.14-228.58-.11-.04,87.14c0,17.68,14.4,32.04,32.08,32.05l60.63.03,43.01.02Z"/>
            <text transform="translate(756.44 491.87)"><tspan class="cls-2"><tspan class="cls-23" x="0" y="0">L</tspan><tspan x="14.06" y="0">ocal </tspan><tspan class="cls-23" x="72.14" y="0">R</tspan><tspan class="cls-31" x="88.46" y="0">e</tspan><tspan x="102.41" y="0">gis</tspan><tspan class="cls-31" x="137.42" y="0">t</tspan><tspan x="146.76" y="0">e</tspan><tspan class="cls-17" x="160.82" y="0">r</tspan><tspan x="170.81" y="0">ed: </tspan></tspan><tspan class="cls-15"><tspan x="5.29" y="26.4">Cars sou</tspan><tspan class="cls-17" x="97.09" y="26.4">r</tspan><tspan x="105.48" y="26.4">ced f</tspan><tspan class="cls-62" x="158.89" y="26.4">r</tspan><tspan x="167.27" y="26.4">om </tspan></tspan><tspan class="cls-15"><tspan x="17.62" y="52.8">the same nati</tspan><tspan class="cls-1" x="163.56" y="52.8">v</tspan><tspan x="175.84" y="52.8">e </tspan></tspan><tspan class="cls-15"><tspan x="76.1" y="79.2">a</tspan><tspan class="cls-17" x="90.03" y="79.2">r</tspan><tspan x="98.41" y="79.2">ea.</tspan></tspan></text>
            <g>
              <g>
                <rect class="cls-25" x="843.51" y="423.25" width="18.29" height="1.88"/>
                <path class="cls-25" d="m841.63,425.12c-1.43,0-6.1-.2-6.1-2.81,0-1.87,1.74-2.81,5.16-2.81,1.22,0,1.88.97,1.88,1.88v2.81c0,.52-.42.94-.94.94Zm-1.09-3.73c-2.97,0-3.13.76-3.13.91,0,.28,1.34.78,3.28.91v-1.82c-.05,0-.11,0-.16,0Z"/>
                <rect class="cls-25" x="861.8" y="423.25" width="18.29" height="1.88"/>
                <path class="cls-25" d="m881.96,425.12c-.52,0-.94-.42-.94-.94v-2.81c0-.91.66-1.88,1.88-1.88,3.42,0,5.16.95,5.16,2.81,0,2.61-4.67,2.81-6.1,2.81Zm.94-3.75v1.84c1.94-.13,3.28-.63,3.28-.91,0-.16-.16-.94-3.28-.94Z"/>
                <path class="cls-25" d="m845.76,444.82h-3.66c-1.17,0-2.14-.38-2.88-1.12-1.35-1.37-1.34-3.49-1.34-3.58v-11.71c0-1.35,1.03-2.16,1.94-2.56.33-1.74,1.93-2.4,3.12-2.56.91-1.62,4.04-7.15,5.44-9.08.9-1.14,3.01-1.8,6.68-2.12l.16,1.87c-4.12.36-5.11,1.09-5.35,1.38-1.52,2.1-5.5,9.23-5.54,9.3-.17.3-.48.48-.82.48-.31,0-1.88.09-1.88,1.41,0,.43-.29.81-.71.91,0,0-1.17.33-1.17.97v11.72s0,1.45.8,2.25c.38.38.88.56,1.54.56h3.66v1.88Z"/>
                <path class="cls-25" d="m881.49,444.82h-31.8v-1.88h31.8c.66,0,1.16-.18,1.54-.56.8-.8.81-2.23.81-2.25v-11.73c0-.63-1.16-.96-1.17-.97-.41-.11-.71-.48-.71-.91,0-1.32-1.57-1.4-1.88-1.41-.34,0-.65-.19-.82-.49-.04-.07-3.92-7.14-5.5-9.22-.23-.31-1.22-1.06-5.34-1.41l.16-1.87c3.68.32,5.8,1,6.67,2.15,1.44,1.9,4.51,7.38,5.41,9,1.19.16,2.78.82,3.11,2.56.91.4,1.94,1.21,1.94,2.56v11.72c0,.08.01,2.2-1.34,3.57-.74.75-1.71,1.12-2.88,1.12Z"/>
                <path class="cls-25" d="m861.8,431.69c-1.55,0-2.81-1.26-2.81-2.81s1.26-2.81,2.81-2.81,2.81,1.26,2.81,2.81-1.26,2.81-2.81,2.81Zm0-3.75c-.52,0-.94.42-.94.94s.42.94.94.94.94-.42.94-.94-.42-.94-.94-.94Z"/>
                <rect class="cls-25" x="838.81" y="438.72" width="45.96" height="1.88"/>
                <path class="cls-25" d="m846.79,432.63h-4.69c-.52,0-.94-.42-.94-.94v-7.03h1.88v6.1h3.36l1.23-1.23-1.28-5.11,1.82-.46,1.41,5.63c.08.32-.01.66-.25.89l-1.88,1.88c-.18.18-.41.27-.66.27Z"/>
                <path class="cls-25" d="m861.8,434.5h-13.13c-2.06,0-2.81-1.68-2.81-2.81h1.88-.94.94c.01.42.18.94.94.94h13.13v1.88Z"/>
                <path class="cls-25" d="m881.49,432.63h-4.69c-.25,0-.49-.1-.66-.27l-1.88-1.88c-.23-.23-.33-.57-.25-.89l1.41-5.63,1.82.46-1.28,5.11,1.23,1.23h3.36v-6.1h1.88v7.03c0,.52-.42.94-.94.94Z"/>
                <path class="cls-25" d="m874.93,434.5h-13.13v-1.88h13.13c.76,0,.93-.52.94-.95h1.88c0,1.14-.75,2.83-2.81,2.83Z"/>
                <path class="cls-25" d="m847.73,447.16c-1.55,0-2.81-1.26-2.81-2.81s1.26-2.81,2.81-2.81,2.81,1.26,2.81,2.81-1.26,2.81-2.81,2.81Zm0-3.75c-.52,0-.94.42-.94.94s.42.94.94.94.94-.42.94-.94-.42-.94-.94-.94Z"/>
                <path class="cls-25" d="m848.19,447.63h-7.97c-1.72,0-2.34-1.4-2.34-2.34v-5.16h1.88v5.16c.02.47.31.47.47.47h7.97c.47-.02.47-.31.47-.47v-1.41h1.88v1.41c0,1.72-1.4,2.34-2.34,2.34Z"/>
                <path class="cls-25" d="m883.37,447.63h-7.97c-.94,0-2.34-.62-2.34-2.34v-1.41h1.88v1.41c0,.16,0,.45.49.47h7.96c.16,0,.45,0,.47-.48v-5.14h1.88v5.16c0,.94-.62,2.34-2.34,2.34Z"/>
              </g>
              <path class="cls-25" d="m861.8,419.96c-.31,0-.61-.16-.78-.42l-2.85-4.29c-6.17-1.62-10.44-7.16-10.44-13.58,0-7.76,6.31-14.07,14.07-14.07s14.07,6.31,14.07,14.07c0,6.42-4.27,11.95-10.44,13.58l-2.85,4.29c-.17.26-.47.42-.78.42Zm0-30.49c-6.72,0-12.19,5.47-12.19,12.19,0,5.67,3.85,10.54,9.36,11.84.23.05.43.2.57.39l2.27,3.42,2.27-3.42c.13-.2.33-.34.57-.39,5.51-1.3,9.36-6.17,9.36-11.84,0-6.72-5.47-12.19-12.19-12.19Z"/>
              <path class="cls-25" d="m861.8,407.3c-.28,0-.54-.12-.72-.33l-7.5-8.91,1.44-1.21,6.79,8.06,6.79-8.06,1.44,1.21-7.5,8.91c-.18.21-.44.33-.72.33Z"/>
            </g>
          </g>
          <g>
            <g>
              <polygon class="cls-45" points="718.67 847.97 666.55 795.85 666.55 847.97 718.67 847.97"/>
              <polygon class="cls-58" points="701.5 830.79 683.58 812.87 683.58 830.79 701.5 830.79"/>
            </g>
            <ellipse class="cls-6" cx="704.28" cy="810.2" rx="63.28" ry="182.06" transform="translate(-366.58 734.78) rotate(-44.97)"/>
            <path class="cls-4" d="m707.75,837.04l42.85,42.89c12.49,12.51,32.93,12.65,45.44.16l61.65-61.59-161.55-161.71-61.65,61.59c-12.51,12.49-12.47,32.84.02,45.35l42.85,42.89,30.4,30.43Z"/>
            <text transform="translate(690.57 760.87)"><tspan class="cls-2"><tspan x="0" y="0">C</tspan><tspan class="cls-56" x="16.54" y="0">ov</tspan><tspan x="45.29" y="0">e</tspan><tspan class="cls-50" x="59.35" y="0">r</tspan><tspan x="69.34" y="0">ed </tspan><tspan class="cls-20" x="106.32" y="0">P</tspan><tspan x="121.75" y="0">arking: </tspan></tspan><tspan class="cls-15"><tspan x="31.16" y="26.4">cars s</tspan><tspan class="cls-22" x="92.96" y="26.4">t</tspan><tspan x="101.29" y="26.4">o</tspan><tspan class="cls-62" x="114.82" y="26.4">r</tspan><tspan x="123.2" y="26.4">ed in </tspan></tspan><tspan class="cls-15"><tspan x="13.69" y="52.8">c</tspan><tspan class="cls-1" x="25.46" y="52.8">ov</tspan><tspan x="50.93" y="52.8">e</tspan><tspan class="cls-17" x="63.83" y="52.8">r</tspan><tspan x="72.21" y="52.8">ed parking.</tspan></tspan></text>
            <g>
              <path class="cls-25" d="m813.12,679.09l-16.57-11.42c-1.64-1.1-3.78-1.1-5.41,0l-16.57,11.42c-.57.39-1.35.25-1.74-.32-.39-.57-.25-1.35.32-1.74h0l16.57-11.42c2.49-1.68,5.75-1.68,8.25,0l16.57,11.43c.57.38.73,1.16.34,1.73-.38.57-1.16.73-1.73.34,0,0-.02-.01-.03-.02h0Zm-5.53,22.7h-27.48c-2.07,0-3.74-1.68-3.75-3.75v-3.96c0-1,.39-1.94,1.1-2.65l1.77-1.77c.23-.23.55-.37.88-.37h27.48c.33,0,.65.13.88.37l1.77,1.77c.71.71,1.1,1.65,1.1,2.65v3.96c0,2.07-1.68,3.75-3.75,3.75Zm-26.96-9.99l-1.4,1.4c-.23.23-.36.55-.37.88v3.96c0,.69.56,1.25,1.25,1.25h27.48c.69,0,1.25-.56,1.25-1.25v-3.96c0-.33-.13-.65-.37-.88l-1.4-1.4h-26.44Z"/>
              <path class="cls-25" d="m806.47,691.12l-4.3-8.61c-.21-.43-.64-.69-1.12-.69h-14.4c-.47,0-.91.27-1.12.69l-4.3,8.61c-.31.62-1.06.87-1.67.56-.12-.06-.23-.14-.33-.24l-2.5-2.5c-.49-.49-.49-1.28,0-1.77.49-.49,1.28-.49,1.77,0l1.27,1.27,3.53-7.06c.64-1.28,1.92-2.07,3.35-2.07h14.4c1.43,0,2.71.79,3.35,2.07l3.53,7.06,1.27-1.27c.49-.49,1.28-.49,1.77,0,.49.49.49,1.28,0,1.77h0l-2.5,2.5c-.49.49-1.28.49-1.76,0-.1-.1-.17-.21-.24-.33h0Zm-20.11,15.68h-4.99c-1.38,0-2.5-1.12-2.5-2.5v-3.75c0-.69.56-1.25,1.25-1.25s1.25.56,1.25,1.25v3.75h4.99v-3.75c0-.69.56-1.25,1.25-1.25s1.25.56,1.25,1.25v3.75c0,1.38-1.12,2.5-2.5,2.5Zm19.98,0h-4.99c-1.38,0-2.5-1.12-2.5-2.5v-3.75c0-.69.56-1.25,1.25-1.25s1.25.56,1.25,1.25v3.75h4.99v-3.75c0-.69.56-1.25,1.25-1.25s1.25.56,1.25,1.25v3.75c0,1.38-1.12,2.5-2.5,2.5Z"/>
              <path class="cls-25" d="m813.83,706.79h-39.96c-.69,0-1.25-.56-1.25-1.25s.56-1.25,1.25-1.25h39.96c.69,0,1.25.56,1.25,1.25s-.56,1.25-1.25,1.25Zm-28.72-9.99h-2.5c-.69,0-1.25-.56-1.25-1.25s.56-1.25,1.25-1.25h2.5c.69,0,1.25.56,1.25,1.25s-.56,1.25-1.25,1.25Zm19.98,0h-2.5c-.69,0-1.25-.56-1.25-1.25s.56-1.25,1.25-1.25h2.5c.69,0,1.25.56,1.25,1.25s-.56,1.25-1.25,1.25Z"/>
              <path class="cls-26" d="m807.84,658.1h-27.97c-2.84,0-4.82,0-6.36.13-1.51.12-2.38.35-3.04.69-1.41.72-2.56,1.86-3.28,3.28-.34.66-.56,1.53-.69,3.04-.13,1.54-.13,3.52-.13,6.36v27.97c0,2.84,0,4.82.13,6.36.12,1.51.35,2.38.69,3.04.72,1.41,1.86,2.56,3.28,3.28.66.34,1.53.56,3.04.69,1.54.13,3.52.13,6.36.13h27.97c2.84,0,4.82,0,6.36-.13,1.51-.12,2.38-.35,3.04-.69,1.41-.72,2.56-1.86,3.28-3.28.34-.66.56-1.53.69-3.04.13-1.54.13-3.52.13-6.36v-27.97c0-2.84,0-4.82-.13-6.36-.12-1.51-.35-2.38-.69-3.04-.72-1.41-1.86-2.56-3.28-3.28-.66-.34-1.53-.56-3.04-.69-1.54-.13-3.52-.13-6.36-.13Zm-42.87,2.96c-1.09,2.14-1.09,4.93-1.09,10.53v27.97c0,5.6,0,8.39,1.09,10.53.96,1.88,2.48,3.41,4.36,4.36,2.14,1.09,4.93,1.09,10.53,1.09h27.97c5.6,0,8.39,0,10.53-1.09,1.88-.96,3.41-2.49,4.36-4.36,1.09-2.14,1.09-4.93,1.09-10.53v-27.97c0-5.6,0-8.39-1.09-10.53-.96-1.88-2.49-3.41-4.36-4.36-2.14-1.09-4.93-1.09-10.53-1.09h-27.97c-5.6,0-8.39,0-10.53,1.09-1.88.96-3.41,2.48-4.36,4.36Z"/>
            </g>
          </g>
          <g>
            <g>
              <polygon class="cls-43" points="416.7 898.27 416.7 824.55 379.84 861.41 416.7 898.27"/>
              <polygon class="cls-29" points="416.66 873.98 416.66 848.64 404 861.31 416.66 873.98"/>
            </g>
            <ellipse class="cls-13" cx="433.23" cy="861.38" rx="63.28" ry="155.82"/>
            <path class="cls-4" d="m416.71,882.81l-.03,60.63c0,17.68,14.34,32.23,32.02,32.24l87.14.04.11-228.58-87.14-.04c-17.68,0-32.04,14.4-32.05,32.08l-.03,60.63-.02,43.01Z"/>
            <text transform="translate(455.33 853.87)"><tspan class="cls-2"><tspan x="0" y="0">Sing</tspan><tspan class="cls-55" x="53.33" y="0">l</tspan><tspan x="59.97" y="0">e-Hand </tspan></tspan><tspan class="cls-2"><tspan x="39.47" y="28.8">Dri</tspan><tspan class="cls-56" x="75.66" y="28.8">v</tspan><tspan x="89.58" y="28.8">e:</tspan></tspan><tspan class="cls-15"><tspan x="-23.13" y="55.2">Most</tspan><tspan class="cls-1" x="28.4" y="55.2">l</tspan><tspan x="33.59" y="55.2">y dri</tspan><tspan class="cls-1" x="81.46" y="55.2">v</tspan><tspan x="93.74" y="55.2">en </tspan><tspan class="cls-46" x="125.88" y="55.2">b</tspan><tspan x="139.3" y="55.2">y a </tspan></tspan><tspan class="cls-15"><tspan x="1.43" y="81.6">sing</tspan><tspan class="cls-33" x="45.45" y="81.6">l</tspan><tspan x="50.75" y="81.6">e person.</tspan></tspan></text>
            <g>
              <g>
                <path class="cls-25" d="m526.48,776.14c-3.31,0-6.43-1.29-8.77-3.63-2.34-2.34-3.63-5.46-3.63-8.77v-9.81c0-.65.53-1.18,1.18-1.18s1.18.53,1.18,1.18v9.81c0,2.68,1.05,5.21,2.94,7.11,1.9,1.9,4.42,2.94,7.11,2.94,5.54,0,10.05-4.51,10.05-10.05v-8.86c0-.65.53-1.18,1.18-1.18s1.18.53,1.18,1.18v8.86c0,6.84-5.56,12.4-12.4,12.4Z"/>
                <path class="cls-25" d="m530.61,780.87c-.65,0-1.18-.53-1.18-1.18v-5.51c0-.65.53-1.18,1.18-1.18s1.18.53,1.18,1.18v5.51c0,.65-.53,1.18-1.18,1.18Z"/>
                <path class="cls-25" d="m522.34,780.87c-.65,0-1.18-.53-1.18-1.18v-5.51c0-.65.53-1.18,1.18-1.18s1.18.53,1.18,1.18v5.51c0,.65-.53,1.18-1.18,1.18Z"/>
                <path class="cls-25" d="m530.61,756.05h-11.85c-4.54,0-8.24-3.7-8.24-8.24v-.03c0-.65.53-1.18,1.18-1.18h15.38c2.6,0,4.71,2.11,4.71,4.71v3.56c0,.65-.53,1.18-1.18,1.18Zm-17.62-7.09c.54,2.7,2.92,4.74,5.77,4.74h10.67v-2.38c0-1.3-1.06-2.35-2.35-2.35h-14.09Z"/>
                <path class="cls-25" d="m537.71,756.05h-7.09c-.65,0-1.18-.53-1.18-1.18v-3.56c0-2.6,2.11-4.71,4.71-4.71h3.56c.65,0,1.18.53,1.18,1.18v7.09c0,.65-.53,1.18-1.18,1.18Zm-5.91-2.35h4.74v-4.74h-2.38c-1.3,0-2.35,1.06-2.35,2.35v2.38Z"/>
                <path class="cls-25" d="m530.06,806.87s-.09,0-.14,0c-.65-.08-1.11-.66-1.03-1.31.39-3.29,3.18-5.77,6.49-5.77h1.13c-.05-.81-.19-1.6-.43-2.37h-19.22c-.24.77-.38,1.56-.43,2.37h1.13c3.31,0,6.1,2.48,6.49,5.77.08.65-.39,1.23-1.03,1.31-.65.08-1.23-.39-1.31-1.03-.25-2.1-2.03-3.69-4.15-3.69h-2.31c-.63,0-1.14-.49-1.18-1.12-.01-.22-.02-.44-.02-.65,0-1.58.29-3.11.87-4.57.18-.45.61-.74,1.09-.74h20.88c.48,0,.92.29,1.09.74.58,1.46.87,2.99.87,4.57,0,.21,0,.43-.02.65-.03.63-.55,1.12-1.18,1.12h-2.31c-2.12,0-3.91,1.59-4.15,3.69-.07.6-.58,1.04-1.17,1.04Z"/>
                <path class="cls-25" d="m526.48,802.14c-.08,0-.15,0-.23-.02-.08-.02-.15-.04-.22-.07-.07-.03-.14-.07-.2-.11-.06-.04-.12-.09-.18-.15-.22-.22-.34-.52-.34-.83,0-.08,0-.15.02-.23.01-.08.04-.15.07-.22.03-.07.07-.14.11-.2.04-.06.09-.12.15-.18s.11-.1.18-.15c.06-.04.13-.08.2-.11.07-.03.14-.05.22-.07.38-.08.79.05,1.06.32.05.05.1.11.15.18.04.06.08.13.11.2.03.07.05.14.07.22.02.08.02.15.02.23,0,.31-.13.61-.34.83-.22.22-.52.35-.83.35Z"/>
                <path class="cls-25" d="m555.43,806.87h-57.91c-.65,0-1.18-.53-1.18-1.18s.53-1.18,1.18-1.18h57.91c.65,0,1.18.53,1.18,1.18s-.53,1.18-1.18,1.18Z"/>
                <path class="cls-25" d="m535.42,794.77s-.05,0-.08,0c-.34-.02-.65-.19-.86-.46-.86-1.13-1.97-2.09-3.22-2.77-.33-.18-.55-.5-.6-.87-.05-.37.07-.74.33-1l10.45-10.45c.31-.31.78-.42,1.2-.29,1.8.59,3.36,1.8,4.39,3.41.3.47.23,1.08-.16,1.47l-10.62,10.62c-.22.22-.52.34-.83.34Zm-1.72-4.48c.64.46,1.25.99,1.79,1.57l9-9c-.54-.6-1.19-1.09-1.92-1.43l-8.87,8.87Z"/>
                <path class="cls-25" d="m547.16,806.87c-.65,0-1.18-.53-1.18-1.18v-18.91c0-3.26-2.65-5.91-5.91-5.91h-9.02l-3.81,3.26c-.49.42-1.24.37-1.66-.13-.42-.49-.37-1.24.13-1.66l4.14-3.55c.21-.18.49-.28.77-.28h9.46c4.56,0,8.27,3.71,8.27,8.27v18.91c0,.65-.53,1.18-1.18,1.18Z"/>
                <path class="cls-25" d="m505.79,806.87c-.65,0-1.18-.53-1.18-1.18v-18.91c0-4.56,3.71-8.27,8.27-8.27h9.46c.28,0,.55.1.77.28l4.14,3.55c.49.42.55,1.17.13,1.66-.42.49-1.17.55-1.66.13l-3.81-3.26h-9.02c-3.26,0-5.91,2.65-5.91,5.91v18.91c0,.65-.53,1.18-1.18,1.18Z"/>
                <path class="cls-25" d="m536.37,806.87c-.19,0-.38-.05-.56-.14-.57-.31-.79-1.02-.48-1.59.78-1.45,1.2-3.1,1.2-4.76,0-5.54-4.51-10.05-10.05-10.05s-10.05,4.51-10.05,10.05c0,1.66.41,3.31,1.2,4.76.31.57.09,1.29-.48,1.59-.57.31-1.29.09-1.59-.48-.97-1.79-1.48-3.83-1.48-5.88,0-6.84,5.56-12.4,12.4-12.4s12.4,5.56,12.4,12.4c0,2.05-.51,4.08-1.48,5.88-.21.39-.62.62-1.04.62Z"/>
                <path class="cls-25" d="m501.07,806.87c-.65,0-1.18-.53-1.18-1.18v-40.18c0-4.56,3.71-8.27,8.27-8.27h7.09c.65,0,1.18.53,1.18,1.18s-.53,1.18-1.18,1.18h-7.09c-3.26,0-5.91,2.65-5.91,5.91v40.18c0,.65-.53,1.18-1.18,1.18Z"/>
                <path class="cls-25" d="m551.89,806.87c-.65,0-1.18-.53-1.18-1.18v-40.18c0-3.26-2.65-5.91-5.91-5.91h-7.09c-.65,0-1.18-.53-1.18-1.18s.53-1.18,1.18-1.18h7.09c4.56,0,8.27,3.71,8.27,8.27v40.18c0,.65-.53,1.18-1.18,1.18Z"/>
                <path class="cls-25" d="m521.16,763.14c-.65,0-1.18-.53-1.18-1.18v-1.18c0-.65.53-1.18,1.18-1.18s1.18.53,1.18,1.18v1.18c0,.65-.53,1.18-1.18,1.18Z"/>
                <path class="cls-25" d="m531.8,763.14c-.65,0-1.18-.53-1.18-1.18v-1.18c0-.65.53-1.18,1.18-1.18s1.18.53,1.18,1.18v1.18c0,.65-.53,1.18-1.18,1.18Z"/>
              </g>
              <path class="cls-25" d="m526.48,770.8c-1.08,0-2.07-.49-2.71-1.36-.39-.52-.28-1.26.24-1.65.52-.39,1.26-.28,1.65.24.2.26.5.42.83.42.33,0,.63-.15.83-.42.39-.52,1.13-.63,1.65-.24.52.39.63,1.13.24,1.65-.65.86-1.64,1.36-2.71,1.36Z"/>
            </g>
          </g>
          <g>
            <g>
              <polygon class="cls-60" points="167.6 720.3 219.73 668.18 167.6 668.18 167.6 720.3"/>
              <polygon class="cls-36" points="184.71 703.12 202.63 685.2 184.71 685.2 184.71 703.12"/>
            </g>
            <ellipse class="cls-11" cx="205.38" cy="705.91" rx="182.06" ry="63.28" transform="translate(-438.83 351.67) rotate(-44.97)"/>
            <path class="cls-4" d="m178.54,709.38l-42.89,42.85c-12.51,12.49-12.65,32.93-.16,45.44l61.59,61.65,161.71-161.55-61.59-61.65c-12.49-12.51-32.84-12.47-45.35.02l-42.89,42.85-30.43,30.4Z"/>
            <text transform="translate(191.27 760.87)"><tspan class="cls-2"><tspan class="cls-14" x="0" y="0">T</tspan><tspan x="12.72" y="0">echi &amp; </tspan><tspan class="cls-52" x="95.14" y="0">T</tspan><tspan x="108.82" y="0">rus</tspan><tspan class="cls-31" x="146.21" y="0">t</tspan><tspan class="cls-30" x="155.54" y="0">ed </tspan></tspan><tspan><tspan class="cls-2" x="-3.14" y="28.8">Expe</tspan><tspan class="cls-3" x="55.97" y="28.8">rt</tspan><tspan class="cls-2" x="76.9" y="28.8">s:</tspan><tspan class="cls-15" x="94.58" y="28.8" xml:space="preserve"> Sou</tspan><tspan class="cls-16" x="141.31" y="28.8">r</tspan><tspan class="cls-15" x="149.69" y="28.8">ced </tspan></tspan><tspan class="cls-15"><tspan x="9.76" y="55.2">f</tspan><tspan class="cls-17" x="18.41" y="55.2">r</tspan><tspan x="26.79" y="55.2">om </tspan><tspan class="cls-62" x="66.74" y="55.2">r</tspan><tspan x="75.12" y="55.2">epu</tspan><tspan class="cls-22" x="115.21" y="55.2">t</tspan><tspan x="123.54" y="55.2">ab</tspan><tspan class="cls-33" x="151.33" y="55.2">l</tspan><tspan x="156.63" y="55.2">e, </tspan></tspan><tspan class="cls-15"><tspan x="29.26" y="81.6">dependab</tspan><tspan class="cls-33" x="137.7" y="81.6">l</tspan><tspan x="143" y="81.6">e </tspan></tspan><tspan class="cls-15"><tspan class="cls-1" x="47.5" y="108">v</tspan><tspan x="59.78" y="108">endors.</tspan></tspan></text>
            <path class="cls-25" d="m284.97,681.01h.02s1.9-.03,1.9-.03c.52,0,.94-.44.93-.96h0c0-.51-.41-.93-.93-.93-.01,0-.03,0-.04,0l-1.9.03c-.52,0-.94.44-.93.96,0,.52.43.93.95.93Z"/>
            <path class="cls-25" d="m276.93,681.01h.02s1.9-.03,1.9-.03c.52,0,.94-.44.93-.96,0-.52-.43-.93-.95-.93h-.02s-1.9.03-1.9.03c-.52,0-.94.44-.93.96,0,.52.43.93.95.93Z"/>
            <path class="cls-25" d="m278.55,687.26c-.37.37-.37.97,0,1.34,1.85,1.85,4.84,1.85,6.69,0,0,0,0,0,0,0,.37-.37.37-.97,0-1.34-.37-.37-.97-.37-1.34,0h0c-1.11,1.11-2.9,1.11-4.01,0h0c-.37-.37-.97-.37-1.34,0Z"/>
            <path class="cls-25" d="m279.49,683.56c.18-.18.28-.42.28-.67,0-.25-.1-.49-.28-.67-.37-.35-.96-.35-1.33,0-.18.18-.28.42-.28.67,0,.52.42.95.95.95.25,0,.49-.1.67-.27Z"/>
            <path class="cls-25" d="m284.3,682.22c-.18.18-.28.42-.28.67,0,.52.42.95.94.95,0,0,0,0,0,0,.52,0,.94-.41.95-.93,0,0,0-.01,0-.02,0-.25-.1-.49-.27-.67-.38-.35-.96-.35-1.34,0Z"/>
            <path class="cls-25" d="m258.72,722.15h46.36c1.57,0,2.84-1.27,2.84-2.84v-11.32c-.18.27-.39.53-.63.77-.37.37-.8.68-1.27.93v9.63c0,.52-.42.95-.95.95h-39.26v-8.04c0-.52-.42-.95-.95-.95s-.95.42-.95.95v8.04h-5.2c-.52,0-.95-.42-.95-.95v-11.45c.01-2.01,1.18-3.84,3-4.71l11.81-5.83-2,7.24c-.08.3-.01.63.19.87l10.41,12.13c.37.4.98.42,1.38.05.02-.02.04-.04.05-.05l7.75-9.03c-.44-.5-.79-1.08-1.03-1.7l-3.04,3.54-1.76-9.37,1.09-3.13c.17-.49-.09-1.03-.58-1.21-.49-.17-1.03.09-1.21.58h0l-.94,2.68h-2.02l-.94-2.68c-.17-.49-.71-.75-1.21-.58-.49.17-.75.71-.58,1.21h0l1.09,3.13-1.76,9.37-4.96-5.78,2.43-8.79c.14-.5-.16-1.02-.66-1.16-.22-.06-.46-.04-.67.06l-13.7,6.76c-2.47,1.18-4.04,3.67-4.05,6.4v11.45c0,1.57,1.27,2.84,2.84,2.84Zm22.31-20.34h1.73l1.95,10.4-2.82,3.29-2.82-3.29,1.95-10.4Z"/>
            <path class="cls-25" d="m295.34,711.04c-.22-.13-.45-.25-.68-.36-.15-.06-.31-.11-.47-.15v6.89c0,.52.42.95.95.95.17,0,.34-.05.49-.14l3.29-2,3.29,2c.45.27,1.03.13,1.3-.32.09-.15.14-.32.14-.49v-6.89c-.16.04-.31.09-.47.15-.23.11-.46.23-.68.36-.23.13-.48.27-.75.41v4.28l-2.35-1.43c-.3-.18-.68-.18-.98,0l-2.35,1.43v-4.28c-.27-.14-.52-.28-.75-.41Z"/>
            <path class="cls-25" d="m290.71,695.84c-.09.34-.19.68-.32,1.01-.14.31-.3.61-.47.9-.54.78-.86,1.69-.92,2.64.06.95.38,1.86.92,2.64.18.29.33.59.47.9.13.33.23.67.32,1.01.17.92.59,1.77,1.2,2.47.71.61,1.56,1.02,2.47,1.2.34.09.68.19,1.01.32.31.14.61.3.9.47.78.54,1.69.86,2.64.92.95-.06,1.86-.38,2.64-.92.29-.18.59-.33.9-.47.33-.13.67-.23,1.01-.32.92-.17,1.77-.59,2.47-1.2.61-.71,1.02-1.56,1.2-2.47.09-.34.19-.68.32-1.01.14-.31.3-.61.47-.9.54-.78.86-1.69.92-2.64-.06-.95-.38-1.86-.92-2.64-.18-.29-.33-.59-.47-.9-.13-.33-.23-.67-.32-1.01-.17-.92-.59-1.77-1.2-2.47-.71-.61-1.56-1.02-2.47-1.2-.34-.09-.68-.19-1.01-.32-.31-.14-.61-.3-.9-.47-.78-.54-1.69-.86-2.64-.92-.95.06-1.86.38-2.64.92-.29.18-.59.33-.9.47-.33.13-.67.23-1.01.32-.92.17-1.77.59-2.47,1.2-.61.71-1.02,1.56-1.2,2.47Zm1.82.5c.1-.6.35-1.16.71-1.64.48-.36,1.05-.61,1.64-.71.42-.11.83-.24,1.23-.4.38-.17.76-.36,1.11-.58.5-.36,1.09-.59,1.7-.67.61.08,1.2.31,1.7.67.36.22.73.41,1.11.58.4.16.81.29,1.23.4.6.1,1.16.35,1.64.71.36.48.61,1.05.71,1.64.11.42.24.83.4,1.23.17.38.36.76.58,1.11.36.5.59,1.09.67,1.7-.08.61-.31,1.2-.67,1.7-.22.36-.41.73-.58,1.11-.16.4-.29.81-.4,1.23-.1.6-.35,1.16-.71,1.64-.48.36-1.05.61-1.64.71-.42.11-.83.24-1.23.4-.38.17-.76.36-1.11.58-.5.36-1.09.59-1.7.67-.61-.08-1.2-.31-1.7-.67-.36-.22-.73-.41-1.11-.58-.4-.16-.81-.29-1.23-.4-.6-.1-1.16-.35-1.64-.71-.36-.48-.61-1.05-.71-1.64-.11-.42-.24-.83-.4-1.23-.17-.38-.36-.76-.58-1.11-.36-.5-.59-1.09-.67-1.7.08-.61.31-1.2.67-1.7.22-.36.41-.73.58-1.11.16-.4.29-.81.4-1.23h0Z"/>
            <path class="cls-25" d="m295.71,701.8l-.26,1.58c-.1.57.13,1.14.6,1.47.43.31,1.01.35,1.48.09l1.4-.75,1.4.75c.47.26,1.05.22,1.48-.09.47-.34.7-.91.6-1.47l-.26-1.58,1.08-1.08c.4-.41.54-1,.36-1.55-.17-.52-.61-.9-1.15-.99l-1.51-.22-.71-1.48c-.33-.71-1.17-1.02-1.88-.69-.31.14-.55.39-.69.69l-.71,1.48-1.51.22c-.54.08-.99.47-1.15.99-.18.54-.04,1.14.36,1.55l1.08,1.08Zm1.99-2.04c.31-.05.58-.24.71-.53l.51-1.05.51,1.05c.14.28.4.48.71.53l1.18.18-.87.88c-.22.22-.31.52-.26.82l.2,1.2-1.02-.55c-.28-.15-.62-.15-.9,0l-1.02.55.2-1.2c.05-.3-.05-.61-.26-.82l-.87-.88,1.18-.18Z"/>
            <path class="cls-25" d="m270.67,675.43c-.05.36-.14,6.13-.11,6.52h-.01c.09,2.06.41,5.03,2.18,7.04.84.95,1.54,1.85,2.16,2.64,2.05,2.62,3.52,4.51,7,4.51h.06c3.48,0,4.95-1.89,7-4.51.62-.79,1.32-1.69,2.16-2.64,1.18-1.34,1.9-3.7,2.12-7.02h0c.04-.43.06-7.66.02-8.11,0-3.76-.87-6.37-2.65-7.98-2.56-2.32-6.43-1.94-9.54-1.63-1.01.1-1.96.19-2.78.19-2.51.01-4.94-.9-6.83-2.55-.37-.37-.97-.38-1.34-.01-.1.09-.17.21-.22.33-2.67,6.89-.45,10.38.97,11.77-.08.46-.15.94-.2,1.45Zm20.69,6.36s0,.03,0,.05c-.19,2.85-.76,4.89-1.65,5.89-.88,1-1.6,1.92-2.23,2.73-1.97,2.52-2.96,3.78-5.51,3.78h-.06c-2.55,0-3.54-1.26-5.51-3.78-.64-.81-1.36-1.73-2.23-2.73-1.04-1.18-1.59-3.05-1.71-5.87,0,0,0-.02,0-.03,0-.51.11-6.18.11-6.21.02-.27.06-.53.09-.78h18.75c.02,1.91,0,6.4-.03,6.94Zm-20.13-17.66c2.07,1.44,4.54,2.21,7.06,2.21.91,0,1.91-.1,2.96-.2,2.88-.28,6.14-.6,8.08,1.15,1.21,1.1,1.88,3,2.01,5.67h-18.77c-.71-.53-3.21-2.92-1.34-8.83Z"/>
          </g>
          <g>
            <circle class="cls-38" cx="506.97" cy="508.6" r="209.73"/>
            <g>
              <circle class="cls-8" cx="516.74" cy="530.2" r="240.73"/>
              <circle class="cls-4" cx="506.97" cy="508.6" r="190.64"/>
              <g>
                <path class="cls-39" d="m597.07,471.45l-.27,22.08c0,.8-.2,3.57-2.42,5.73-2.5,2.44-5.72,2.31-6.36,2.26-2.51-.21-5.21-.04-8.34.16-2.94.19-6.18.38-9.69.28-1.74-11.74-11.85-20.79-24.07-20.79-13.43,0-24.36,10.93-24.36,24.36s10.93,24.36,24.36,24.36c11.3,0,20.8-7.75,23.54-18.2,4.08.13,7.75-.09,10.83-.28,2.74-.17,5.11-.32,6.93-.17,1.92.15,8.58.26,13.96-5,4.78-4.67,5.34-10.38,5.36-12.61l.41-34.59c.05-.84.08-1.96.02-3.28l-9.92,15.69Zm-51.15,48.69c-8.05,0-14.61-6.55-14.61-14.61s6.55-14.61,14.61-14.61,14.61,6.55,14.61,14.61-6.55,14.61-14.61,14.61Z"/>
                <polygon class="cls-39" points="585.02 451.53 565.73 443.22 587.92 477.31 629.91 410.92 585.02 451.53"/>
                <path class="cls-39" d="m580.89,423.93l-.56-.13h-.58c-36.35.2-63.78.14-79.45-.81l-.96-.07c-4.4-.31-12.59-.9-21.02,3.5-2.38,1.24-5.71,3.45-15.06,13.9-5.58,6.23-8.22,9.73-9.98,12.05-1.76,2.32-2.07,2.74-3.57,3.7-3.39,2.18-5.45,2.21-9.18,2.27-3.69.06-8.28.14-14.99,2.42-11.72,3.99-20.09,10.49-24.88,19.32-6.16,11.36-4.47,23.15-2.92,29.17l.95,3.66h43.5c3.13,9.68,12.21,16.69,22.93,16.69,13.31,0,24.1-10.79,24.1-24.1s-10.79-24.1-24.1-24.1c-12.52,0-22.81,9.55-23.99,21.76h-34.69c-.75-4.93-.77-11.86,2.79-18.42,5.4-9.96,15.98-13.55,19.45-14.74,5.26-1.79,8.69-1.85,12.01-1.9,4.21-.07,8.57-.14,14.3-3.82,2.96-1.9,4.13-3.45,6.07-6.02,1.66-2.19,4.16-5.49,9.47-11.43,8.95-10.01,11.39-11.28,12.31-11.76,5.98-3.12,12.14-2.68,15.81-2.42l1.06.07c15.85.96,43.23,1.04,79.48.84,2.59.68,7.76,2.6,12.02,7.39l7.25-6.56c-6.13-6.89-13.51-9.5-17.57-10.46Zm-115.76,66.96c8.07,0,14.61,6.54,14.61,14.61s-6.54,14.61-14.61,14.61-14.61-6.54-14.61-14.61,6.54-14.61,14.61-14.61Z"/>
                <g>
                  <g>
                    <path class="cls-25" d="m512.7,562.28c.81-.86,1.82-1.53,2.99-2.02,1.17-.48,2.54-.73,4.05-.73s2.83.21,3.98.63c1.16.42,2.02.84,2.55,1.25l.28.21,2.62-5.22-.17-.15c-.71-.62-1.88-1.22-3.59-1.84-1.68-.61-3.71-.92-6.03-.92-2.18,0-4.25.39-6.15,1.17-1.9.78-3.6,1.87-5.03,3.26-1.43,1.39-2.57,3.05-3.37,4.92-.8,1.88-1.21,3.92-1.21,6.09s.41,4.21,1.22,6.07c.81,1.86,1.94,3.5,3.38,4.89,1.43,1.38,3.12,2.47,5.02,3.24,1.9.77,3.96,1.16,6.14,1.16,2.32,0,4.35-.31,6.03-.92,1.71-.62,2.88-1.22,3.59-1.84l.17-.15-2.62-5.22-.28.21c-.53.41-1.39.83-2.55,1.25-1.15.42-2.49.63-3.98.63s-2.88-.25-4.05-.73c-1.17-.48-2.18-1.16-2.99-2.02-.81-.86-1.44-1.86-1.87-2.99-.43-1.13-.64-2.36-.64-3.64s.22-2.48.64-3.61c.43-1.12,1.06-2.13,1.87-2.98Z"/>
                    <path class="cls-25" d="m542.06,554.03l-11.49,29.73h6.53l2.32-6.29h11.25l2.27,6.29h6.51l-11.44-29.73h-5.94Zm-.62,17.97l3.59-10.22,3.62,10.22h-7.21Z"/>
                    <path class="cls-25" d="m578.22,570.42c.99-.61,1.84-1.53,2.54-2.74.7-1.21,1.06-2.77,1.06-4.64s-.4-3.52-1.2-4.86c-.8-1.34-1.89-2.38-3.24-3.09-1.35-.7-2.89-1.06-4.57-1.06h-11.51v29.73h6.08v-11.86h2.34l6.47,11.86h6.91l-7.2-12.35c.73-.15,1.51-.48,2.33-.99Zm-10.85-11.39h3.5c1.32,0,2.45.32,3.37.95.9.62,1.33,1.67,1.33,3.21s-.45,2.62-1.34,3.25c-.92.65-2.07.98-3.4.98h-3.46v-8.4Z"/>
                    <path class="cls-25" d="m606.61,572.12c-.46-1-1.09-1.89-1.87-2.65-.77-.75-1.66-1.41-2.64-1.97-.97-.55-2.01-1.04-3.07-1.45-1.19-.48-2.21-.94-3.03-1.38-.79-.42-1.4-.88-1.8-1.35-.38-.46-.57-.96-.57-1.54,0-.86.35-1.5,1.07-1.95.75-.48,1.78-.72,3.06-.72.89,0,1.73.13,2.49.39.77.26,1.44.57,1.98.9.55.34.95.6,1.17.78l.26.21,3-4.99-.2-.16c-.11-.09-.38-.28-1.44-.89-.79-.45-1.86-.88-3.18-1.27-1.32-.4-2.89-.6-4.67-.6s-3.35.33-4.83.97c-1.49.65-2.7,1.58-3.6,2.76-.91,1.19-1.37,2.61-1.37,4.22s.36,2.99,1.06,4.1c.7,1.1,1.63,2.03,2.77,2.78,1.12.74,2.35,1.39,3.66,1.94,1.28.52,2.39,1.04,3.32,1.54.9.49,1.6,1.03,2.09,1.6.47.55.7,1.18.7,1.91,0,.98-.36,1.75-1.11,2.36-.75.62-1.9.93-3.41.93-.85,0-1.7-.11-2.52-.32-.82-.21-1.6-.48-2.3-.78-.7-.3-1.29-.6-1.78-.89-.48-.29-.81-.5-.98-.62l-.26-.19-3.12,5.14.18.16c.12.11.42.33,1.71,1.03.96.52,2.22,1.02,3.76,1.47,1.54.45,3.31.68,5.24.68,1.43,0,2.82-.18,4.12-.54,1.31-.36,2.48-.91,3.5-1.63,1.03-.73,1.84-1.65,2.43-2.73.59-1.08.89-2.36.89-3.8,0-1.29-.24-2.45-.7-3.46Z"/>
                  </g>
                  <g>
                    <path class="cls-25" d="m415.14,554.53c-2.91,0-5.54.36-7.88,1.09-2.36.73-4.36,1.79-6.02,3.19-1.66,1.39-2.95,3.13-3.84,5.22-.9,2.08-1.35,4.48-1.35,7.19,0,1.95.27,3.71.8,5.27.53,1.57,1.28,2.91,2.23,4.02.96,1.1,2.11,1.96,3.47,2.55,1.36.59,2.85.89,4.5.89,1.37,0,2.67-.22,3.9-.66,1.22-.43,2.28-1.06,3.18-1.86.9-.8,1.62-1.76,2.15-2.89.53-1.13.8-2.4.8-3.81,0-1.3-.23-2.48-.69-3.56-.46-1.07-1.09-1.99-1.89-2.75-.8-.76-1.76-1.35-2.87-1.77-1.11-.42-2.31-.63-3.61-.63-2.07,0-3.83.63-5.28,1.89.5-2.68,1.83-4.66,3.98-5.96,2.16-1.3,5.04-1.95,8.63-1.95h6.99v23.39h6.82v-23.39h5.44v-5.45h-19.49Zm-10.72,17.29c.65-.48,1.42-.72,2.29-.72,1.11,0,2,.33,2.67.97.67.65,1,1.55,1,2.7s-.33,2-.97,2.66c-.65.68-1.45,1-2.41,1-1.26,0-2.21-.43-2.86-1.32-.65-.88-1.1-1.99-1.32-3.32.42-.84.95-1.5,1.61-1.98Z"/>
                    <path class="cls-25" d="m496.18,554.53h0s-14.42,0-14.42,0c-2.68,0-4.98.28-6.91.84-1.93.55-3.67,1.31-5.2,2.27-1.8-1.04-3.8-1.89-6.02-2.58-1.54-.49-3.22-.79-5-.93-.09-.1-.19-.2-.28-.31.09.1.19.21.28.31-.78-.07-1.58-.1-2.4-.1-2.98,0-5.73.39-8.25,1.17-2.53.78-4.7,1.92-6.54,3.41-1.84,1.49-3.27,3.31-4.3,5.45-.33.7-.62,1.42-.84,2.18-.48,1.56-.71,3.24-.71,5.04,0,1.95.27,3.7.8,5.24.53,1.55,1.28,2.88,2.23,3.99.96,1.1,2.11,1.96,3.47,2.55,1.35.59,2.85.89,4.5.89h.26c1.29-.03,2.5-.25,3.64-.66,1.22-.43,2.28-1.06,3.19-1.86.9-.8,1.61-1.76,2.15-2.89.53-1.13.8-2.4.8-3.81,0-1.3-.23-2.48-.69-3.56-.46-1.07-1.09-1.99-1.89-2.75-.8-.76-1.76-1.35-2.87-1.77-1.11-.42-2.31-.63-3.61-.63-2.13,0-3.9.63-5.27,1.89.27-1.26.8-2.41,1.61-3.44.8-1.03,1.81-1.91,3.01-2.63,1.2-.73,2.58-1.29,4.13-1.69,1.54-.4,3.2-.6,4.96-.6,1.95,0,3.64.14,5.07.41,1.43.26,2.68.65,3.76,1.15-.69.65-1.36,1.4-2.01,2.26-.65.86-1.22,1.81-1.69,2.84-.48,1.03-.87,2.13-1.17,3.29-.31,1.17-.46,2.36-.46,3.59,0,1.8.25,3.37.75,4.73.5,1.36,1.19,2.49,2.06,3.41.88.92,1.93,1.61,3.15,2.06,1.22.46,2.56.69,4.01.69,1.53,0,2.92-.25,4.19-.75,1.26-.49,2.35-1.2,3.27-2.12.92-.92,1.64-2.06,2.15-3.41.38-.99.62-2.07.71-3.24.04-.44.06-.9.06-1.37,0-1.22-.14-2.42-.43-3.59-.28-1.16-.68-2.27-1.17-3.32-.5-1.05-1.09-2.01-1.77-2.9-.69-.88-1.44-1.66-2.24-2.35,1.38-.61,3.39-.92,6.02-.92h4.48v23.39h6.82v-23.39h4.62s0,0,0,0v-5.47h0Zm-52.18,17.3c.63-.48,1.38-.72,2.26-.72,1.11,0,2,.33,2.67.97.67.65,1,1.55,1,2.7s-.33,2-.97,2.66c-.65.68-1.45,1-2.41,1-1.18,0-2.15-.42-2.9-1.26-.74-.84-1.15-1.99-1.23-3.44.42-.8.95-1.44,1.58-1.92Zm28.09,5.3c-.63.92-1.4,1.38-2.32,1.38-1.03,0-1.86-.46-2.47-1.38-.61-.92-.92-2.35-.92-4.3,0-2.14.31-4.01.92-5.62.41-1.09.89-1.98,1.44-2.68.25-.33.52-.63.8-.87.95.76,1.77,1.96,2.46,3.58.08.18.15.37.22.56.54,1.49.81,3.17.81,5.03s-.31,3.38-.95,4.3Z"/>
                  </g>
                  <circle class="cls-25" cx="469.28" cy="546.64" r="4.62"/>
                </g>
              </g>
            </g>
          </g>
        </g>
      </g>
    </g>
  </g>
</svg>