<svg width="60" height="60" viewBox="0 0 60 60" fill="none" xmlns="http://www.w3.org/2000/svg">
<path d="M32.8906 19.5842H32.9097L34.7297 19.5554C35.2278 19.5554 35.63 19.134 35.6205 18.6359C35.6205 18.1474 35.2278 17.7451 34.7297 17.7451C34.7201 17.7451 34.7009 17.7451 34.6914 17.7451L32.8715 17.7738C32.3734 17.7738 31.9711 18.1953 31.9806 18.6934C31.9806 19.1915 32.3925 19.5842 32.8906 19.5842Z" fill="#323232"/>
<path d="M25.1914 19.5842H25.2105L27.0304 19.5554C27.5285 19.5554 27.9308 19.134 27.9212 18.6359C27.9212 18.1378 27.5093 17.7451 27.0113 17.7451H26.9921L25.1722 17.7738C24.6741 17.7738 24.2718 18.1953 24.2814 18.6934C24.2814 19.1915 24.6933 19.5842 25.1914 19.5842Z" fill="#323232"/>
<path d="M26.7424 25.5715C26.388 25.9259 26.388 26.5005 26.7424 26.8549C28.5144 28.627 31.3783 28.627 33.1504 26.8549C33.5048 26.5005 33.5048 25.9259 33.1504 25.5715C32.796 25.2171 32.2213 25.2171 31.8669 25.5715C30.8036 26.6347 29.0891 26.6347 28.0259 25.5715C27.6715 25.2171 27.0968 25.2171 26.7424 25.5715Z" fill="#323232"/>
<path d="M27.6437 22.0281C27.8161 21.8557 27.9119 21.6259 27.9119 21.3864C27.9119 21.1469 27.8161 20.917 27.6437 20.7446C27.2893 20.4094 26.7242 20.4094 26.3698 20.7446C26.1973 20.917 26.1016 21.1469 26.1016 21.3864C26.1016 21.8845 26.5038 22.2964 27.0115 22.2964C27.251 22.2964 27.4809 22.2006 27.6533 22.0377L27.6437 22.0281Z" fill="#323232"/>
<path d="M32.2487 20.7446C32.0763 20.917 31.9805 21.1469 31.9805 21.3864C31.9805 21.8845 32.3828 22.2964 32.8808 22.2964C33.3789 22.2964 33.7812 21.9036 33.7908 21.4055C33.7908 21.4055 33.7908 21.396 33.7908 21.3864C33.7908 21.1469 33.695 20.917 33.5322 20.7446C33.1682 20.4094 32.6126 20.4094 32.2487 20.7446Z" fill="#323232"/>
<path d="M7.74902 58.9903H52.1548C53.6586 58.9903 54.8751 57.7738 54.8751 56.27V45.4272C54.7027 45.6858 54.5015 45.9348 54.2716 46.1647C53.9172 46.5191 53.5053 46.816 53.0552 47.0555V56.2796C53.0552 56.7777 52.6529 57.1895 52.1452 57.1895H14.5401V49.4884C14.5401 48.9903 14.1378 48.5785 13.6302 48.5785C13.1225 48.5785 12.7202 48.9808 12.7202 49.4884V57.1895H7.73943C7.24135 57.1895 6.82949 56.7872 6.82949 56.2796V45.3122C6.83907 43.3869 7.95975 41.6341 9.70303 40.8007L21.0152 35.2165L19.0995 42.1513C19.0229 42.4387 19.0899 42.7548 19.2815 42.9847L29.2527 54.6033C29.6071 54.9865 30.1914 55.0056 30.5745 54.6512C30.5936 54.6321 30.6128 54.6129 30.6224 54.6033L38.0457 45.954C37.6243 45.475 37.289 44.9195 37.0591 44.3257L34.1473 47.7164L32.4614 38.7414L33.5055 35.7433C33.6683 35.274 33.4193 34.7567 32.95 34.5843C32.4806 34.4215 31.9634 34.6705 31.791 35.1399L30.8906 37.7069H28.9557L28.0554 35.1399C27.8925 34.6705 27.3753 34.4215 26.8964 34.5843C26.427 34.7472 26.178 35.2644 26.3408 35.7433L27.3849 38.7414L25.6991 47.7164L20.9481 42.18L23.2757 33.7606C23.4098 33.2817 23.1224 32.7836 22.6435 32.6495C22.4328 32.592 22.2029 32.6112 22.0018 32.707L8.87927 39.182C6.51339 40.3122 5.00958 42.6973 5 45.3122V56.2796C5 57.7834 6.21646 58.9998 7.72028 58.9998L7.74902 58.9903ZM29.1186 39.5077H30.7757L32.6434 49.4693L29.9423 52.6206L27.2412 49.4693L29.109 39.5077H29.1186Z" fill="#323232"/>
<path d="M42.8242 48.3488C42.6134 48.2243 42.3932 48.1094 42.1728 48.004C42.0292 47.9465 41.8759 47.8987 41.7227 47.8604V54.4599C41.7227 54.958 42.125 55.3698 42.6326 55.3698C42.7955 55.3698 42.9583 55.3219 43.102 55.2357L46.2533 53.32L49.4046 55.2357C49.8356 55.4943 50.3912 55.3602 50.6498 54.9292C50.736 54.7855 50.7839 54.6227 50.7839 54.4599V47.8604C50.6306 47.8987 50.4869 47.9465 50.3337 48.004C50.1134 48.1094 49.8931 48.2243 49.6824 48.3488C49.4621 48.4733 49.2226 48.6075 48.964 48.7416V52.8411L46.713 51.4714C46.4257 51.299 46.0617 51.299 45.7744 51.4714L43.5234 52.8411V48.7416C43.2648 48.6075 43.0253 48.4733 42.805 48.3488H42.8242Z" fill="#323232"/>
<path d="M38.3879 33.7899C38.3017 34.1156 38.2059 34.4412 38.0814 34.7573C37.9473 35.0542 37.7941 35.3416 37.6312 35.6194C37.114 36.3665 36.8075 37.2382 36.75 38.1481C36.8075 39.0581 37.114 39.9297 37.6312 40.6769C37.8036 40.9546 37.9473 41.242 38.0814 41.5389C38.2059 41.855 38.3017 42.1807 38.3879 42.5063C38.5507 43.3875 38.9531 44.2017 39.5373 44.8722C40.2174 45.4565 41.0316 45.8492 41.9032 46.0216C42.2289 46.1078 42.5546 46.2036 42.8707 46.3281C43.1676 46.4622 43.4549 46.6155 43.7327 46.7783C44.4798 47.2956 45.3515 47.6021 46.2614 47.6595C47.1714 47.6021 48.043 47.2956 48.7901 46.7783C49.0679 46.6059 49.3553 46.4622 49.6522 46.3281C49.9683 46.2036 50.294 46.1078 50.6196 46.0216C51.5008 45.8588 52.315 45.4565 52.9855 44.8722C53.5698 44.1921 53.9625 43.378 54.1349 42.5063C54.2211 42.1807 54.3169 41.855 54.4414 41.5389C54.5755 41.242 54.7288 40.9546 54.8916 40.6769C55.4089 39.9297 55.7153 39.0581 55.7728 38.1481C55.7153 37.2382 55.4089 36.3665 54.8916 35.6194C54.7192 35.3416 54.5755 35.0542 54.4414 34.7573C54.3169 34.4412 54.2211 34.1156 54.1349 33.7899C53.9721 32.9087 53.5698 32.0945 52.9855 31.424C52.3054 30.8397 51.4913 30.447 50.6196 30.2746C50.294 30.1884 49.9683 30.0926 49.6522 29.9681C49.3553 29.834 49.0679 29.6808 48.7901 29.5179C48.043 29.0007 47.1714 28.6942 46.2614 28.6367C45.3515 28.6942 44.4798 29.0007 43.7327 29.5179C43.4549 29.6903 43.1676 29.834 42.8707 29.9681C42.5546 30.0926 42.2289 30.1884 41.9032 30.2746C41.022 30.4374 40.2078 30.8397 39.5373 31.424C38.9531 32.1041 38.5603 32.9183 38.3879 33.7899ZM40.1312 34.2689C40.227 33.6942 40.4664 33.1577 40.8113 32.698C41.271 32.3532 41.817 32.1137 42.3821 32.0179C42.7844 31.9125 43.1771 31.788 43.5603 31.6348C43.9243 31.4719 44.2883 31.2899 44.6235 31.0792C45.1024 30.7344 45.6676 30.5141 46.2519 30.4375C46.8361 30.5141 47.4012 30.7344 47.8802 31.0792C48.225 31.2899 48.5794 31.4719 48.9434 31.6348C49.3265 31.788 49.7192 31.9125 50.1215 32.0179C50.6962 32.1137 51.2326 32.3532 51.6924 32.698C52.0372 33.1577 52.2767 33.7037 52.3725 34.2689C52.4778 34.6712 52.6024 35.0639 52.7556 35.447C52.9184 35.811 53.1004 36.1749 53.3112 36.5102C53.656 36.9891 53.8763 37.5543 53.9529 38.1385C53.8763 38.7228 53.656 39.288 53.3112 39.7669C53.1004 40.1117 52.9184 40.4661 52.7556 40.8301C52.6024 41.2132 52.4778 41.6059 52.3725 42.0082C52.2767 42.5829 52.0372 43.1193 51.6924 43.5791C51.2326 43.9239 50.6867 44.1634 50.1215 44.2592C49.7192 44.3646 49.3265 44.489 48.9434 44.6423C48.5794 44.8051 48.2154 44.9871 47.8802 45.1979C47.4012 45.5427 46.8361 45.763 46.2519 45.8396C45.6676 45.763 45.1024 45.5427 44.6235 45.1979C44.2787 44.9871 43.9243 44.8051 43.5603 44.6423C43.1771 44.489 42.7844 44.3646 42.3821 44.2592C41.8074 44.1634 41.271 43.9239 40.8113 43.5791C40.4664 43.1193 40.227 42.5733 40.1312 42.0082C40.0258 41.6059 39.9013 41.2132 39.7481 40.8301C39.5852 40.4661 39.4032 40.1021 39.1925 39.7669C38.8477 39.288 38.6274 38.7228 38.5508 38.1385C38.6274 37.5543 38.8477 36.9891 39.1925 36.5102C39.4032 36.1654 39.5852 35.811 39.7481 35.447C39.9013 35.0639 40.0258 34.6712 40.1312 34.2689Z" fill="#323232"/>
<path d="M43.1782 39.4984L42.9291 41.0118C42.8333 41.5578 43.0536 42.1037 43.5038 42.4198C43.9157 42.7167 44.4713 42.7551 44.9214 42.506L46.2624 41.7877L47.6034 42.506C48.0536 42.7551 48.6092 42.7167 49.021 42.4198C49.4712 42.0941 49.6915 41.5482 49.5957 41.0118L49.3467 39.4984L50.3812 38.4639C50.7643 38.0712 50.8984 37.5061 50.726 36.9793C50.5632 36.4812 50.1417 36.1172 49.6245 36.031L48.1781 35.8203L47.4981 34.4026C47.182 33.7226 46.3774 33.4256 45.6973 33.7417C45.4004 33.8758 45.1705 34.1153 45.0364 34.4026L44.3563 35.8203L42.91 36.031C42.3927 36.1076 41.9617 36.4812 41.8084 36.9793C41.636 37.4965 41.7701 38.0712 42.1533 38.4639L43.1877 39.4984H43.1782ZM45.0843 37.5444C45.3812 37.4965 45.6398 37.3145 45.7644 37.0367L46.2529 36.031L46.7413 37.0367C46.8754 37.3049 47.1245 37.4965 47.4214 37.5444L48.5517 37.7168L47.7184 38.5597C47.5076 38.7705 47.4214 39.0578 47.4693 39.3452L47.6609 40.4946L46.6839 39.9677C46.4157 39.8241 46.09 39.8241 45.8218 39.9677L44.8448 40.4946L45.0364 39.3452C45.0843 39.0578 44.9885 38.7609 44.7874 38.5597L43.954 37.7168L45.0843 37.5444Z" fill="#323232"/>
<path d="M19.1956 14.2399C19.1477 14.5847 19.0615 20.1115 19.0902 20.485H19.0806C19.1668 22.4582 19.4733 25.303 21.1687 27.2283C21.9733 28.1382 22.6438 29.0003 23.2377 29.757C25.2013 32.2666 26.6093 34.0769 29.9426 34.0769H30.0001C33.3334 34.0769 34.7414 32.2666 36.705 29.757C37.2989 29.0003 37.9693 28.1382 38.7739 27.2283C39.9042 25.9448 40.5939 23.6842 40.8046 20.5042C40.8429 20.0923 40.8621 13.1671 40.8237 12.736C40.8237 9.13454 39.9904 6.63458 38.2855 5.09244C35.8334 2.87024 32.1265 3.23422 29.1476 3.53115C28.1802 3.62693 27.2702 3.71314 26.4848 3.71314C24.0806 3.72272 21.753 2.85109 19.9427 1.27065C19.5883 0.916242 19.0136 0.906654 18.6592 1.26106C18.5634 1.34726 18.4963 1.46222 18.4485 1.57716C15.891 8.17673 18.0174 11.5196 19.3775 12.851C19.3009 13.2916 19.2339 13.7514 19.186 14.2399H19.1956ZM39.0134 20.3318C39.0134 20.3318 39.0134 20.3605 39.0134 20.3797C38.8314 23.1096 38.2854 25.0635 37.433 26.0214C36.5901 26.9792 35.9004 27.8605 35.297 28.6363C33.41 31.0501 32.4617 32.257 30.0192 32.257H29.9618C27.5193 32.257 26.571 31.0501 24.684 28.6363C24.071 27.8605 23.3814 26.9792 22.548 26.0214C21.5519 24.8911 21.025 23.0999 20.9101 20.3988C20.9101 20.3988 20.9101 20.3797 20.9101 20.3701C20.9101 19.8816 21.0155 14.4506 21.0155 14.4219C21.0346 14.1632 21.0729 13.9142 21.1017 13.6748H39.0613C39.0805 15.5043 39.0613 19.805 39.0326 20.3222L39.0134 20.3318ZM19.732 3.41621C21.7147 4.79551 24.0806 5.53307 26.4944 5.53307C27.366 5.53307 28.3238 5.43728 29.3296 5.34149C32.0882 5.0733 35.2107 4.76675 37.069 6.44298C38.228 7.49661 38.8697 9.31656 38.9942 11.874H21.0155C20.3354 11.3664 17.9408 9.07709 19.732 3.41621Z" fill="#323232"/>
</svg>
