<?xml version="1.0" encoding="UTF-8"?>
<svg id="Layer_1" data-name="Layer 1" xmlns="http://www.w3.org/2000/svg" viewBox="0 0 122.45 111.86">
  <defs>
    <style>
      .cls-1 {
        fill: #323232;
      }
    </style>
  </defs>
  <path class="cls-1" d="m24.77,76.17v2.56c0,.79.64,1.43,1.43,1.43s1.43-.64,1.43-1.43v-2.3c.27-.03.54-.07.8-.13,2.9-.67,4.73-3,4.77-6.09.06-4.79-3.06-5.85-5.57-6.49v-7.27c1.34.34,2.41,1.35,2.82,2.68.25.75,1.06,1.16,1.81.92.75-.25,1.16-1.06.92-1.81-.78-2.51-2.94-4.35-5.55-4.72v-2.05c0-.79-.64-1.43-1.43-1.43s-1.43.64-1.43,1.43v2.16c-2.75.66-4.58,2.85-4.61,5.61-.05,4.44,2.29,5.92,4.61,6.68v7.2c-1.27-.62-2.3-1.66-2.9-2.94-.36-.71-1.22-.99-1.93-.64s-.99,1.22-.64,1.93h0c1.33,2.64,3.4,4.12,5.47,4.71h0Zm5.57-5.99c-.02,1.75-.95,2.96-2.54,3.33-.05.01-.1.02-.16.03v-6.83c1.88.55,2.73,1.2,2.7,3.48Zm-7.31-10.91c-.01-1.15.68-2.19,1.74-2.62v6.19c-1.13-.56-1.76-1.48-1.74-3.58Zm19.34-43.12c0-.79.64-1.43,1.43-1.43h40.98c.79,0,1.43.64,1.43,1.43s-.64,1.43-1.43,1.43h-40.98c-.79,0-1.43-.64-1.43-1.43h0Zm0,10.46c0-.79.64-1.43,1.43-1.43h40.98c.79,0,1.43.64,1.43,1.43s-.64,1.43-1.43,1.43h-40.98c-.79,0-1.43-.64-1.43-1.43h0Zm0,10.46c0-.79.64-1.43,1.43-1.43h40.98c.79,0,1.43.64,1.43,1.43s-.64,1.43-1.43,1.43h-40.98c-.79,0-1.43-.64-1.43-1.43h0Zm76,5.32h-6.5v-24.94c0-.38-.15-.74-.41-1L95.73.43c-.27-.28-.64-.43-1.02-.43h-60.22c-.79,0-1.43.64-1.43,1.43v43.97c-10.79-3.78-22.6,1.89-26.38,12.68-2.42,6.88-1.03,14.53,3.65,20.13-6.5,1.31-10.31,3.85-10.31,7,0,.16,0,.31,0,.47v18.3c0,5.17,9.89,7.88,19.66,7.88,4.43,0,8.88-.56,12.43-1.64,3.46,1.06,7.85,1.64,12.4,1.64,9.72,0,19.55-2.67,19.71-7.77,0-.02,0-.05,0-.08v-1.68h6.88v4.57c0,2.26,1.83,4.08,4.09,4.09h43.2c2.26,0,4.08-1.83,4.09-4.09v-60.43c0-2.26-1.83-4.08-4.09-4.08h0ZM96.08,4.89l10.69,10.89h-10.69V4.89ZM26.2,47.12c9.85,0,17.84,7.99,17.84,17.84,0,9.85-7.99,17.84-17.84,17.84-9.85,0-17.84-7.99-17.84-17.84.01-9.85,7.99-17.83,17.84-17.84ZM2.87,89.52c3.64,2.36,10.24,3.57,16.79,3.57s13.15-1.21,16.79-3.57v4.89c0,.76-1.15,2.06-4.38,3.2-3.29,1.16-7.7,1.8-12.41,1.8s-9.12-.64-12.41-1.8c-3.23-1.14-4.38-2.44-4.38-3.2v-4.89Zm42.05-15.71c6.43-.05,12.84-1.27,16.41-3.59v4.91c0,.77-1.15,2.07-4.4,3.22-3.3,1.17-7.72,1.81-12.45,1.81-1.38,0-2.74-.06-4.06-.17,1.87-1.77,3.39-3.86,4.49-6.18h0Zm16.41,10.94c0,.77-1.15,2.07-4.4,3.22-3.3,1.17-7.72,1.81-12.45,1.81-1.73,0-3.45-.09-5.17-.28v-3.81c0-.16,0-.31,0-.47-.02-.93-.34-1.83-.93-2.55,2.02.24,4.06.36,6.09.36,6.57,0,13.19-1.22,16.85-3.59v5.3Zm-22.01,9.67v-2.03c1.72.17,3.44.26,5.17.26,6.57,0,13.19-1.22,16.85-3.59v5.3c0,.77-1.15,2.07-4.4,3.22-3.3,1.17-7.72,1.81-12.45,1.81-1.73,0-3.45-.09-5.17-.28v-4.7Zm17.61-25.28c-2.94,1.04-6.76,1.66-10.9,1.79.97-3.24,1.14-6.67.48-9.99,9.09.36,14.82,3.1,14.82,4.98,0,.77-1.15,2.07-4.4,3.22h0Zm-44.16,11.58c6.25,5.34,15.07,6.47,22.47,2.88.77.57,1.21,1.15,1.21,1.63,0,.76-1.15,2.06-4.38,3.2-3.29,1.16-7.7,1.8-12.41,1.8s-9.12-.64-12.41-1.8c-3.23-1.14-4.38-2.44-4.38-3.2,0-1.27,3.08-3.49,9.9-4.51h0Zm-5.52,26.49c-3.23-1.14-4.38-2.44-4.38-3.2v-5.28c3.64,2.36,10.24,3.57,16.79,3.57s13.15-1.21,16.79-3.57v5.28c0,.76-1.15,2.06-4.38,3.2-3.29,1.16-7.7,1.8-12.41,1.8s-9.12-.64-12.41-1.8h0Zm49.68,0c-3.3,1.17-7.72,1.81-12.45,1.81-2.7,0-5.4-.22-8.06-.68,1.81-1.16,2.9-2.61,2.9-4.32v-2c1.72.17,3.44.26,5.17.26,6.57,0,13.19-1.22,16.85-3.59v5.3c0,.77-1.15,2.07-4.4,3.22h0Zm7.27-7.71v-33.23c0-.11,0-.22,0-.33,0-4.94-9.18-7.66-18.48-7.88-1.74-4.87-5.24-8.92-9.8-11.36V2.87h57.3v14.34c0,.79.64,1.43,1.43,1.43h14.34v23.75h-33.83c-2.11,0-3.87,1.61-4.07,3.7h-27.29c-.79,0-1.43.64-1.43,1.43s.64,1.43,1.43,1.43h27.27v50.5h-6.88Zm55.38,7.44c0,.67-.54,1.21-1.22,1.22h-43.2c-.67,0-1.21-.54-1.22-1.22v-60.43c0-.67.54-1.21,1.22-1.22h43.2c.67,0,1.21.54,1.22,1.22v60.43Zm-6.52-56.56h-32.6c-.79,0-1.43.64-1.43,1.43v11.79c0,.79.64,1.43,1.43,1.43h32.6c.79,0,1.43-.64,1.43-1.43h0v-11.8c0-.79-.64-1.43-1.43-1.43h0Zm-1.43,11.8h-29.73v-8.93h29.73v8.93Zm-11.42,31.14h-6.89c-.79,0-1.43.64-1.43,1.43h0v6.89c0,.79.64,1.43,1.43,1.43h6.89c.79,0,1.43-.64,1.43-1.43v-6.89c0-.79-.64-1.43-1.43-1.43h0Zm-1.43,6.89h-4.02v-4.02h4.02v4.02Zm-11.42-6.89h-6.89c-.79,0-1.43.64-1.43,1.43h0v6.89c0,.79.64,1.43,1.43,1.43h6.89c.79,0,1.43-.64,1.43-1.43v-6.89c0-.79-.64-1.43-1.43-1.43h0Zm-1.43,6.89h-4.02v-4.02h4.02v4.02Zm1.43-32.6h-6.89c-.79,0-1.43.64-1.43,1.43v6.89c0,.79.64,1.43,1.43,1.43h6.89c.79,0,1.43-.64,1.43-1.43v-6.89c0-.79-.64-1.43-1.43-1.43Zm-1.43,6.89h-4.02v-4.02h4.02v4.02Zm1.43,5.96h-6.89c-.79,0-1.43.64-1.43,1.43v6.89c0,.79.64,1.43,1.43,1.43h6.89c.79,0,1.43-.64,1.43-1.43h0v-6.89c0-.79-.64-1.43-1.43-1.43Zm-1.43,6.89h-4.02v-4.02h4.02v4.02Zm14.29-19.75h-6.89c-.79,0-1.43.64-1.43,1.43h0v6.89c0,.79.64,1.43,1.43,1.43h6.89c.79,0,1.43-.64,1.43-1.43v-6.89c0-.79-.64-1.43-1.43-1.43h0Zm-1.43,6.89h-4.02v-4.02h4.02v4.02Zm14.29-6.89h-6.89c-.79,0-1.43.64-1.43,1.43h0v6.89c0,.79.64,1.43,1.43,1.43h6.89c.79,0,1.43-.64,1.43-1.43v-6.89c0-.79-.64-1.43-1.43-1.43h0Zm-1.43,6.89h-4.02v-4.02h4.02v4.02Zm-11.42,5.96h-6.89c-.79,0-1.43.64-1.43,1.43v6.89c0,.79.64,1.43,1.43,1.43h6.89c.79,0,1.43-.64,1.43-1.43h0v-6.89c0-.79-.64-1.43-1.43-1.43Zm-1.43,6.89h-4.02v-4.02h4.02v4.02Zm14.29-6.89h-6.89c-.79,0-1.43.64-1.43,1.43v19.75c0,.79.64,1.43,1.43,1.43h6.89c.79,0,1.43-.64,1.43-1.43v-19.75c0-.79-.64-1.43-1.43-1.43Zm-1.43,19.75h-4.02v-16.88h4.02v16.88Z"/>
</svg>