<svg width="60" height="60" viewBox="0 0 60 60" fill="none" xmlns="http://www.w3.org/2000/svg">
<path d="M30.38 35.4395H12.7109V37.2556H30.38V35.4395Z" fill="#323232"/>
<path d="M10.8929 37.2454C9.51145 37.2454 5 37.0522 5 34.5309C5 32.7245 6.68091 31.8164 9.98481 31.8164C11.1634 31.8164 11.801 32.7535 11.801 33.6325V36.3471C11.801 36.8494 11.3953 37.2551 10.8929 37.2551V37.2454ZM9.83988 33.6422C6.9707 33.6422 6.81613 34.3764 6.81613 34.5213C6.81613 34.7917 8.11067 35.2748 9.98481 35.4003V33.6422C9.93651 33.6422 9.87857 33.6422 9.83027 33.6422H9.83988Z" fill="#323232"/>
<path d="M48.0481 35.4395H30.3789V37.2556H48.0481V35.4395Z" fill="#323232"/>
<path d="M49.8534 37.2453C49.3511 37.2453 48.9453 36.8396 48.9453 36.3373V33.6228C48.9453 32.7437 49.5829 31.8066 50.7615 31.8066C54.0654 31.8066 55.7463 32.7244 55.7463 34.5212C55.7463 37.0425 51.2349 37.2357 49.8534 37.2357V37.2453ZM50.7615 33.6228V35.4002C52.6356 35.2747 53.9301 34.7916 53.9301 34.5212C53.9301 34.3666 53.7756 33.6131 50.7615 33.6131V33.6228Z" fill="#323232"/>
<path d="M14.8859 56.2761H11.3502C10.2199 56.2761 9.2828 55.909 8.56792 55.1942C7.26375 53.8707 7.27344 51.8227 7.27344 51.7358V40.4237C7.27344 39.1196 8.26848 38.3371 9.14759 37.9507C9.46638 36.2698 11.0121 35.6322 12.1617 35.4777C13.0408 33.9127 16.0645 28.5706 17.417 26.7062C18.2865 25.6049 20.3248 24.9673 23.8702 24.6582L24.0248 26.4647C20.0446 26.8124 19.0883 27.5176 18.8564 27.7978C17.388 29.8264 13.5431 36.7142 13.5045 36.7818C13.3403 37.0716 13.0408 37.2455 12.7123 37.2455C12.4129 37.2455 10.8961 37.3324 10.8961 38.6076C10.8961 39.023 10.616 39.39 10.2102 39.4866C10.2102 39.4866 9.07996 39.8054 9.07996 40.4237V51.7455C9.07996 51.7455 9.07994 53.1462 9.85279 53.919C10.2199 54.2861 10.703 54.46 11.3405 54.46H14.8763V56.2761H14.8859Z" fill="#323232"/>
<path d="M49.4002 56.2764H18.6797V54.4603H49.4002C50.0378 54.4603 50.5209 54.2864 50.888 53.9193C51.6608 53.1465 51.6705 51.7651 51.6705 51.7458V40.4143C51.6705 39.8057 50.5498 39.487 50.5401 39.4773C50.144 39.371 49.8543 39.0136 49.8543 38.5982C49.8543 37.3231 48.3376 37.2458 48.0381 37.2361C47.7096 37.2361 47.4101 37.0526 47.2459 36.7628C47.2073 36.6952 43.459 29.8654 41.9326 27.8561C41.7104 27.5566 40.754 26.8321 36.7739 26.494L36.9285 24.6875C40.4835 24.9966 42.5316 25.6535 43.372 26.7644C44.7631 28.5999 47.7289 33.8937 48.5984 35.4586C49.748 35.6132 51.284 36.2508 51.6028 37.9317C52.4819 38.3181 53.477 39.1006 53.477 40.4047V51.7264C53.477 51.8037 53.4866 53.8517 52.1824 55.1752C51.4676 55.8997 50.5305 56.2571 49.4002 56.2571V56.2764Z" fill="#323232"/>
<path d="M30.3787 43.5921C28.8813 43.5921 27.6641 42.3749 27.6641 40.8776C27.6641 39.3803 28.8813 38.1631 30.3787 38.1631C31.8761 38.1631 33.0933 39.3803 33.0933 40.8776C33.0933 42.3749 31.8761 43.5921 30.3787 43.5921ZM30.3787 39.9695C29.8763 39.9695 29.4706 40.3753 29.4706 40.8776C29.4706 41.3799 29.8763 41.7857 30.3787 41.7857C30.881 41.7857 31.2868 41.3799 31.2868 40.8776C31.2868 40.3753 30.881 39.9695 30.3787 39.9695Z" fill="#323232"/>
<path d="M52.5678 50.3828H8.16797V52.1989H52.5678V50.3828Z" fill="#323232"/>
<path d="M15.8764 44.5004H11.3456C10.8432 44.5004 10.4375 44.0947 10.4375 43.5924V36.8012H12.2537V42.694H15.4997L16.6879 41.5058L15.4513 36.5694L17.2095 36.125L18.5717 41.5637C18.649 41.8728 18.5621 42.2013 18.3302 42.4235L16.514 44.2396C16.3401 44.4135 16.1179 44.5004 15.8764 44.5004Z" fill="#323232"/>
<path d="M30.3755 46.3063H17.6912C15.7011 46.3063 14.9766 44.6834 14.9766 43.5918H16.7927C16.8024 43.9975 16.9666 44.4999 17.7008 44.4999H30.3851V46.316L30.3755 46.3063Z" fill="#323232"/>
<path d="M49.4008 44.5004H44.87C44.6285 44.5004 44.3967 44.4038 44.2325 44.2396L42.4163 42.4235C42.1941 42.2013 42.0975 41.8728 42.1748 41.5637L43.5369 36.125L45.2951 36.5694L44.0586 41.5058L45.2468 42.694H48.4927V36.8012H50.3089V43.5924C50.3089 44.0947 49.9032 44.5004 49.4008 44.5004Z" fill="#323232"/>
<path d="M43.0632 46.3071H30.3789V44.4909H43.0632C43.7974 44.4909 43.9616 43.9886 43.9713 43.5732H45.7875C45.7875 44.6745 45.0629 46.3071 43.0729 46.3071H43.0632Z" fill="#323232"/>
<path d="M16.7849 58.5365C15.2875 58.5365 14.0703 57.3193 14.0703 55.8219C14.0703 54.3246 15.2875 53.1074 16.7849 53.1074C18.2823 53.1074 19.4995 54.3246 19.4995 55.8219C19.4995 57.3193 18.2823 58.5365 16.7849 58.5365ZM16.7849 54.9139C16.2826 54.9139 15.8768 55.3196 15.8768 55.8219C15.8768 56.3243 16.2826 56.73 16.7849 56.73C17.2873 56.73 17.693 56.3243 17.693 55.8219C17.693 55.3196 17.2873 54.9139 16.7849 54.9139Z" fill="#323232"/>
<path d="M17.2335 58.9903H9.53397C7.87236 58.9903 7.27344 57.6379 7.27344 56.7298V51.7451H9.08962V56.7298C9.10894 57.1838 9.38907 57.1838 9.54364 57.1838H17.2431C17.6972 57.1645 17.6971 56.8844 17.6971 56.7298V55.3677H19.5133V56.7298C19.5133 58.3914 18.1609 58.9903 17.2528 58.9903H17.2335Z" fill="#323232"/>
<path d="M51.2178 58.9904H43.5184C42.6103 58.9904 41.2578 58.3914 41.2578 56.7299V55.3678H43.074V56.7299C43.074 56.8845 43.074 57.1646 43.5474 57.1839H51.2372C51.3917 57.1839 51.6719 57.1839 51.6912 56.7202V51.7549H53.5074V56.7395C53.5074 57.6476 52.9084 59 51.2468 59L51.2178 58.9904Z" fill="#323232"/>
<path d="M30.3775 32.2605C30.0781 32.2605 29.7883 32.1059 29.6241 31.8547L26.8708 27.7105C20.9102 26.1455 16.7852 20.7938 16.7852 14.5919C16.7852 7.09561 22.881 1 30.3775 1C37.8741 1 43.9699 7.09561 43.9699 14.5919C43.9699 20.7938 39.8449 26.1359 33.8843 27.7105L31.1311 31.8547C30.9669 32.1059 30.677 32.2605 30.3775 32.2605ZM30.3775 2.80646C23.8857 2.80646 18.6013 8.0906 18.6013 14.5823C18.6013 20.0596 22.3206 24.7641 27.6436 26.02C27.8658 26.0683 28.059 26.2132 28.1943 26.3967L30.3872 29.7005L32.5802 26.3967C32.7058 26.2035 32.899 26.0683 33.1308 26.02C38.4538 24.7641 42.1731 20.0596 42.1731 14.5823C42.1731 8.0906 36.8888 2.80646 30.3969 2.80646H30.3775Z" fill="#323232"/>
<path d="M30.3784 20.0305C30.1079 20.0305 29.8568 19.9145 29.6829 19.7117L22.4375 11.1044L23.8286 9.93555L30.3881 17.7217L36.9476 9.93555L38.3387 11.1044L31.0933 19.7117C30.9194 19.9145 30.6683 20.0305 30.3978 20.0305H30.3784Z" fill="#323232"/>
</svg>
