<svg width="60" height="60" viewBox="0 0 60 60" fill="none" xmlns="http://www.w3.org/2000/svg">
<path d="M44.7384 50.2373C44.1164 50.2373 43.6055 50.7482 43.6055 51.3702C43.6055 51.9922 44.1164 52.5031 44.7384 52.5031C45.3604 52.5031 45.8713 51.9922 45.8713 51.3702C45.8713 50.7482 45.3604 50.2373 44.7384 50.2373Z" fill="#323232"/>
<path d="M23.1993 40.041C22.5773 40.041 22.0664 40.5519 22.0664 41.1739C22.0664 41.7959 22.5773 42.3068 23.1993 42.3068C23.8213 42.3068 24.3322 41.7959 24.3322 41.1739C24.3322 40.5519 23.8213 40.041 23.1993 40.041Z" fill="#323232"/>
<path d="M15.2696 50.2373C14.6476 50.2373 14.1367 50.7482 14.1367 51.3702C14.1367 51.9922 14.6476 52.5031 15.2696 52.5031C15.8916 52.5031 16.4025 51.9922 16.4025 51.3702C16.4025 50.7482 15.8916 50.2373 15.2696 50.2373Z" fill="#323232"/>
<path d="M47.1466 7.00897C45.3917 5.63173 43.5369 5.79832 42.093 6.4092C41.9486 5.13192 41.3822 3.63249 39.7606 2.68842C37.4615 1.33339 34.3293 2.17752 32.7966 4.57658C30.975 7.43103 32.0968 10.5409 33.7962 15.2502C34.085 16.0499 34.3849 16.8718 34.6847 17.7603C34.8736 18.2935 35.4178 18.6045 35.9731 18.5045C36.895 18.3268 37.7613 18.1713 38.5944 18.0269C43.2592 17.1939 47.2799 16.6163 48.6683 12.7956C49.4346 10.6964 48.8127 8.33067 47.1466 7.03117V7.00897ZM46.5357 11.9959C45.6805 14.3394 43.3592 14.8503 38.1834 15.7722C37.6392 15.8722 37.0838 15.9721 36.4952 16.0832C36.2952 15.5279 36.1064 14.9947 35.9176 14.4727C34.2627 9.89674 33.5296 7.60873 34.6959 5.78722C35.5622 4.4433 37.3393 3.89906 38.6055 4.6321C40.3714 5.66503 39.7828 8.14187 39.7495 8.26404C39.6273 8.75274 39.8383 9.27474 40.2826 9.5302C40.7269 9.78565 41.2822 9.71901 41.6487 9.35249C41.6487 9.35249 42.2374 8.79716 43.0482 8.46396C44.0589 8.05301 44.9364 8.16406 45.7472 8.79715C46.6246 9.48577 46.9578 10.8408 46.5357 12.007V11.9959Z" fill="#323232"/>
<path d="M20.0928 3.89965C18.66 2.18921 16.2943 1.54501 14.3395 2.33359C12.2736 3.1666 11.485 4.85485 11.2851 6.40979C10.1078 5.89888 8.53058 5.63234 6.88677 6.56531C4.56543 7.88701 3.73241 11.008 5.04302 13.5404C6.59798 16.5503 9.8523 17.1279 14.7837 18.0164C15.6168 18.1608 16.4831 18.3163 17.405 18.494C17.9603 18.605 18.5045 18.2829 18.6934 17.7498C19.0044 16.8613 19.2931 16.0394 19.5819 15.2397C21.1924 10.7637 22.7029 7.00955 20.0928 3.89965ZM17.4494 14.4733C17.2606 14.9953 17.0718 15.5285 16.8718 16.0838C16.2943 15.9727 15.7278 15.8728 15.1836 15.7728C10.3965 14.9176 8.053 14.4178 7.05338 12.4852C6.30922 11.0524 6.75349 9.24203 8.00857 8.53119C8.40842 8.30906 8.80826 8.22021 9.18589 8.22021C10.5298 8.22021 11.6627 9.29755 11.7294 9.35308C12.0959 9.7085 12.6512 9.77514 13.0844 9.51968C13.5287 9.26422 13.7397 8.74222 13.6175 8.25352C13.6175 8.25352 13.4287 7.46495 13.5509 6.59862C13.6953 5.52127 14.2284 4.81041 15.1836 4.42167C16.2276 3.99961 17.5605 4.38837 18.349 5.34355C19.9484 7.25392 19.2265 9.51969 17.4494 14.4622V14.4733Z" fill="#323232"/>
<path d="M56.7453 47.0384V41.174C56.7453 38.053 54.2019 35.5096 51.0808 35.5096H46.4271L39.0299 25.9466C39.0299 25.9466 38.9744 25.8689 38.9299 25.8356C37.8637 24.7693 36.442 24.1807 34.9203 24.1807H16.4052C13.2842 24.1807 10.7407 26.7241 10.7407 29.8451V35.5096H8.93029C8.78591 35.5096 8.65263 35.5096 8.50825 35.5318L6.54233 31.6111C6.35351 31.2224 5.95366 30.9891 5.5316 30.9891H3.26581C2.64382 30.9891 2.1329 31.5 2.1329 32.122C2.1329 32.744 2.64382 33.2549 3.26581 33.2549H4.83188L6.28687 36.176C4.45424 37.1312 3.26581 39.0415 3.26581 41.1851V47.0384C1.97741 47.4938 1 48.7378 1 50.2483C1 52.1253 2.52165 53.647 4.39871 53.647H8.86366C9.80774 56.3237 12.3623 58.1785 15.2723 58.1785C18.1823 58.1785 20.7369 56.3237 21.681 53.647H38.319C39.2631 56.3237 41.8288 58.1785 44.7277 58.1785C47.6266 58.1785 50.1923 56.3237 51.1363 53.647H55.6013C57.4784 53.647 59 52.1253 59 50.2483C59 48.7711 58.0559 47.516 56.7342 47.0495L56.7453 47.0384ZM34.9314 26.4465C35.82 26.4465 36.653 26.7797 37.2861 27.3905L43.5615 35.5096H27.7453V26.4465H34.9314ZM13.0176 29.8451C13.0176 27.9681 14.5393 26.4465 16.4163 26.4465H25.4795V35.5096H13.0176V29.8451ZM8.48603 51.3701H4.40981C3.78783 51.3701 3.27691 50.8591 3.27691 50.2372C3.27691 49.6152 3.78783 49.0932 4.40981 49.0932H8.87477C8.61932 49.8151 8.48603 50.5815 8.48603 51.3701ZM15.2834 55.9016C12.7955 55.9016 10.7518 53.8802 10.7518 51.3701C10.7518 48.8599 12.7288 46.8385 15.2834 46.8385C17.838 46.8385 19.815 48.9266 19.815 51.3701C19.815 53.8136 17.7491 55.9016 15.2834 55.9016ZM37.9414 51.3701H22.0808C22.0808 50.5815 21.9475 49.8151 21.6921 49.0932H38.3301C38.0747 49.8151 37.9414 50.5815 37.9414 51.3701ZM44.7388 55.9016C42.2731 55.9016 40.2072 53.8913 40.2072 51.3701C40.2072 48.8488 42.1842 46.8385 44.7388 46.8385C47.2934 46.8385 49.2704 48.9266 49.2704 51.3701C49.2704 53.8136 47.2045 55.9016 44.7388 55.9016ZM49.8035 46.8385C48.5151 45.3946 46.7047 44.5727 44.7388 44.5727C42.7729 44.5727 40.9625 45.3946 39.6741 46.8385H20.337C19.0486 45.3946 17.2382 44.5727 15.2723 44.5727C13.3064 44.5727 11.496 45.3946 10.2076 46.8385H5.5316V42.3069H9.60781C10.2298 42.3069 10.7407 41.796 10.7407 41.174C10.7407 40.552 10.2298 40.0411 9.60781 40.0411H5.72041C6.09805 38.9749 6.97549 38.153 8.1195 37.8753C8.38606 37.8087 8.65263 37.7754 8.91919 37.7754H51.0697C52.5469 37.7754 53.802 38.7194 54.2685 40.0411H50.3811C49.7591 40.0411 49.2482 40.552 49.2482 41.174C49.2482 41.796 49.7591 42.3069 50.3811 42.3069H54.4573V46.8385H49.7813H49.8035ZM55.6124 51.3701H51.5362C51.5362 50.5815 51.4029 49.8262 51.1475 49.1043H55.6124C56.2344 49.1043 56.7453 49.6152 56.7453 50.2372C56.7453 50.8591 56.2344 51.3701 55.6124 51.3701Z" fill="#323232"/>
<path d="M32.2661 40.041H27.7345C27.1125 40.041 26.6016 40.5519 26.6016 41.1739C26.6016 41.7959 27.1125 42.3068 27.7345 42.3068H32.2661C32.888 42.3068 33.399 41.7959 33.399 41.1739C33.399 40.5519 32.888 40.041 32.2661 40.041Z" fill="#323232"/>
</svg>
