<svg width="60" height="60" viewBox="0 0 60 60" fill="none" xmlns="http://www.w3.org/2000/svg">
<path d="M29.9974 29.4234C26.8126 29.4234 23.8106 28.1822 21.5591 25.9307C19.3076 23.6792 18.0664 20.6771 18.0664 17.4923V8.05334C18.0664 7.42792 18.5764 6.91797 19.2018 6.91797C19.8272 6.91797 20.3371 7.42792 20.3371 8.05334V17.4923C20.3371 20.071 21.3474 22.5053 23.1659 24.3334C24.9941 26.1616 27.4187 27.1622 30.007 27.1622C35.3374 27.1622 39.6768 22.8228 39.6768 17.4923V8.96742C39.6768 8.342 40.1868 7.83205 40.8122 7.83205C41.4376 7.83205 41.9476 8.342 41.9476 8.96742V17.4923C41.9476 24.0736 36.5979 29.4234 30.0166 29.4234H29.9974Z" fill="#323232"/>
<path d="M33.9752 33.9747C33.3498 33.9747 32.8398 33.4648 32.8398 32.8393V27.5377C32.8398 26.9123 33.3498 26.4023 33.9752 26.4023C34.6006 26.4023 35.1106 26.9123 35.1106 27.5377V32.8393C35.1106 33.4648 34.6006 33.9747 33.9752 33.9747Z" fill="#323232"/>
<path d="M26.0182 33.9747C25.3928 33.9747 24.8828 33.4648 24.8828 32.8393V27.5377C24.8828 26.9123 25.3928 26.4023 26.0182 26.4023C26.6436 26.4023 27.1536 26.9123 27.1536 27.5377V32.8393C27.1536 33.4648 26.6436 33.9747 26.0182 33.9747Z" fill="#323232"/>
<path d="M33.9746 10.0926H22.5729C18.2046 10.0926 14.6445 6.53256 14.6445 2.16426V2.13543C14.6445 1.51001 15.1545 1 15.7799 1H30.5782C33.0799 1 35.11 3.03022 35.11 5.53189V8.95726C35.11 9.58267 34.6001 10.0926 33.9746 10.0926ZM17.0211 3.27079C17.5407 5.86868 19.8307 7.83152 22.5729 7.83152H32.8393V5.54152C32.8393 4.29069 31.8194 3.28036 30.5782 3.28036H17.0211V3.27079Z" fill="#323232"/>
<path d="M40.8049 10.0926H33.983C33.3576 10.0926 32.8477 9.58267 32.8477 8.95726V5.53189C32.8477 3.03022 34.8779 1 37.3795 1H40.8049C41.4303 1 41.9402 1.51001 41.9402 2.13543V8.95726C41.9402 9.58267 41.4303 10.0926 40.8049 10.0926ZM35.1184 7.83152H39.6791V3.27079H37.3891C36.1383 3.27079 35.128 4.29068 35.128 5.53189V7.82189L35.1184 7.83152Z" fill="#323232"/>
<path d="M33.4474 58.9904C33.4474 58.9904 33.3608 58.9904 33.3127 58.9904C32.6873 58.9135 32.2447 58.3554 32.3217 57.73C32.6969 54.5644 35.3814 52.1782 38.5662 52.1782H39.6535C39.6054 51.3988 39.4707 50.6387 39.2397 49.8978H20.7467C20.5158 50.6387 20.3811 51.3988 20.333 52.1782H21.4202C24.605 52.1782 27.2895 54.5644 27.6647 57.73C27.7417 58.3554 27.2895 58.9135 26.6737 58.9904C26.0483 59.0674 25.4902 58.6152 25.4133 57.9994C25.1727 55.9788 23.46 54.449 21.4202 54.449H19.1976C18.5914 54.449 18.1007 53.9775 18.0622 53.3713C18.0526 53.1597 18.043 52.948 18.043 52.7459C18.043 51.2257 18.322 49.7535 18.8801 48.3487C19.0532 47.9157 19.467 47.6367 19.9289 47.6367H40.0191C40.4809 47.6367 40.9043 47.9157 41.0678 48.3487C41.6259 49.7535 41.9049 51.2257 41.9049 52.7459C41.9049 52.948 41.905 53.1597 41.8857 53.3713C41.8569 53.9775 41.3565 54.449 40.7504 54.449H38.5277C36.4879 54.449 34.7656 55.9788 34.5347 57.9994C34.4673 58.5767 33.9766 59.0001 33.409 59.0001L33.4474 58.9904Z" fill="#323232"/>
<path d="M29.9968 54.44C29.9198 54.44 29.8525 54.44 29.7755 54.4208C29.6986 54.4015 29.6312 54.3823 29.5639 54.3534C29.4965 54.3245 29.4292 54.2861 29.3714 54.2476C29.3137 54.2091 29.256 54.161 29.1983 54.1032C28.9866 53.8915 28.8711 53.6029 28.8711 53.3047C28.8711 53.2277 28.8711 53.1603 28.8904 53.0833C28.9 53.0063 28.9289 52.939 28.9577 52.8717C28.9866 52.8043 29.0251 52.7369 29.0635 52.6792C29.102 52.6215 29.1501 52.5638 29.2078 52.506C29.2656 52.4483 29.3137 52.4098 29.3811 52.3617C29.4388 52.3232 29.5061 52.2847 29.5735 52.2559C29.6408 52.227 29.7082 52.2077 29.7852 52.1885C30.1508 52.1115 30.5453 52.2366 30.8051 52.4964C30.8532 52.5445 30.9013 52.6022 30.9494 52.6696C30.9879 52.7273 31.0264 52.7947 31.0553 52.862C31.0841 52.9294 31.1034 52.9967 31.1226 53.0737C31.1419 53.1507 31.1418 53.2181 31.1418 53.295C31.1418 53.5933 31.0168 53.882 30.8147 54.0937C30.603 54.3053 30.3144 54.4304 30.0161 54.4304L29.9968 54.44Z" fill="#323232"/>
<path d="M57.855 58.9905H2.13536C1.50995 58.9905 1 58.4805 1 57.8551C1 57.2297 1.50995 56.7197 2.13536 56.7197H57.855C58.4804 56.7197 58.9903 57.2297 58.9903 57.8551C58.9903 58.4805 58.4804 58.9905 57.855 58.9905Z" fill="#323232"/>
<path d="M38.6024 47.3482C38.6024 47.3482 38.5543 47.3482 38.5255 47.3482C38.1983 47.329 37.9 47.1654 37.6979 46.9056C36.8705 45.8184 35.8025 44.8946 34.5998 44.2404C34.2822 44.0672 34.0705 43.7593 34.0224 43.4033C33.9743 43.0473 34.0898 42.6913 34.34 42.4411L44.3947 32.3863C44.693 32.088 45.1452 31.9822 45.5493 32.1073C47.2812 32.675 48.7823 33.8392 49.7733 35.3883C50.062 35.8406 49.9946 36.4275 49.6193 36.8027L39.401 47.0211C39.1893 47.2328 38.9007 47.3482 38.6024 47.3482ZM36.9475 43.0376C37.5633 43.4802 38.1502 43.9902 38.6698 44.5483L47.3293 35.8886C46.8098 35.3113 46.1844 34.8399 45.482 34.5127L36.9475 43.0473V43.0376Z" fill="#323232"/>
<path d="M49.8996 58.9906C49.2742 58.9906 48.7642 58.4806 48.7642 57.8552V39.6604C48.7642 36.5237 46.2145 33.9739 43.0778 33.9739H34.3989L30.733 37.1106C30.2616 37.5147 29.54 37.4666 29.1359 36.9855C28.7317 36.514 28.7799 35.7924 29.261 35.3883L33.2443 31.9725C33.4464 31.7993 33.7158 31.7031 33.9852 31.7031H43.0874C47.4749 31.7031 51.0446 35.2728 51.0446 39.6604V57.8552C51.0446 58.4806 50.5346 58.9906 49.9092 58.9906H49.8996Z" fill="#323232"/>
<path d="M10.0924 58.9906C9.46701 58.9906 8.95703 58.4806 8.95703 57.8552V39.6604C8.95703 35.2728 12.5267 31.7031 16.9142 31.7031H26.0165C26.2859 31.7031 26.5456 31.7993 26.7573 31.9725L30.7407 35.3883C31.2122 35.7924 31.2699 36.514 30.8658 36.9855C30.4617 37.457 29.74 37.5147 29.2686 37.1106L25.6027 33.9739H16.9239C13.7872 33.9739 11.2374 36.5237 11.2374 39.6604V57.8552C11.2374 58.4806 10.7274 58.9906 10.102 58.9906H10.0924Z" fill="#323232"/>
<path d="M39.5133 58.9909C39.3305 58.9909 39.1477 58.9428 38.9745 58.8562C38.426 58.5579 38.2144 57.8748 38.5126 57.3264C39.2631 55.9312 39.6673 54.3436 39.6673 52.7464C39.6673 47.4159 35.3278 43.0765 29.9974 43.0765C24.6669 43.0765 20.3275 47.4159 20.3275 52.7464C20.3275 54.3436 20.722 55.9312 21.4821 57.3264C21.7804 57.8748 21.5687 58.5675 21.0203 58.8562C20.4719 59.1545 19.7791 58.9428 19.4904 58.3944C18.5571 56.6721 18.0664 54.7092 18.0664 52.7367C18.0664 46.1554 23.4161 40.8057 29.9974 40.8057C36.5786 40.8057 41.9284 46.1554 41.9284 52.7367C41.9284 54.7092 41.4377 56.6624 40.5044 58.3944C40.3023 58.7696 39.9078 58.9909 39.5037 58.9909H39.5133Z" fill="#323232"/>
<path d="M5.55333 58.9903C4.92792 58.9903 4.41797 58.4804 4.41797 57.855V19.1946C4.41797 14.807 7.98763 11.2373 12.3752 11.2373H19.197C19.8224 11.2373 20.3323 11.7473 20.3323 12.3727C20.3323 12.9981 19.8224 13.508 19.197 13.508H12.3752C9.23846 13.508 6.68869 16.0578 6.68869 19.1946V57.855C6.68869 58.4804 6.17874 58.9903 5.55333 58.9903Z" fill="#323232"/>
<path d="M54.4509 58.9903C53.8255 58.9903 53.3155 58.4804 53.3155 57.855V19.1946C53.3155 16.0578 50.7657 13.508 47.629 13.508H40.8072C40.1818 13.508 39.6719 12.9981 39.6719 12.3727C39.6719 11.7473 40.1818 11.2373 40.8072 11.2373H47.629C52.0166 11.2373 55.5862 14.807 55.5862 19.1946V57.855C55.5862 58.4804 55.0763 58.9903 54.4509 58.9903Z" fill="#323232"/>
<path d="M24.8815 16.9149C24.256 16.9149 23.7461 16.405 23.7461 15.7796V14.6442C23.7461 14.0188 24.256 13.5088 24.8815 13.5088C25.5069 13.5088 26.0169 14.0188 26.0169 14.6442V15.7796C26.0169 16.405 25.5069 16.9149 24.8815 16.9149Z" fill="#323232"/>
<path d="M35.1197 16.9149C34.4943 16.9149 33.9844 16.405 33.9844 15.7796V14.6442C33.9844 14.0188 34.4943 13.5088 35.1197 13.5088C35.7452 13.5088 36.2551 14.0188 36.2551 14.6442V15.7796C36.2551 16.405 35.7452 16.9149 35.1197 16.9149Z" fill="#323232"/>
<path d="M30.0004 24.2842C28.9612 24.2842 28.0087 23.8127 27.3929 22.9756C27.0177 22.4753 27.1235 21.7633 27.6238 21.388C28.1242 21.0128 28.8361 21.1187 29.2114 21.619C29.4038 21.8692 29.6925 22.0231 30.01 22.0231C30.3275 22.0231 30.6162 21.8788 30.8086 21.619C31.1839 21.1187 31.8959 21.0128 32.3962 21.388C32.8965 21.7633 33.0024 22.4753 32.6272 22.9756C32.0017 23.8031 31.0492 24.2842 30.0196 24.2842H30.0004Z" fill="#323232"/>
</svg>
