<svg width="61" height="61" viewBox="0 0 61 61" fill="none" xmlns="http://www.w3.org/2000/svg">
<path d="M25.2082 4.96582H20.853C20.3667 4.96582 19.9688 5.36368 19.9688 5.84996C19.9688 6.33624 20.3667 6.7341 20.853 6.7341H25.2082C25.6946 6.7341 26.0926 6.33624 26.0926 5.84996C26.0926 5.36368 25.6946 4.96582 25.2082 4.96582Z" fill="#323232"/>
<path d="M12.1031 18.3943H14.8223C15.3087 18.3943 15.7066 17.9964 15.7066 17.5101C15.7066 17.0238 15.3087 16.626 14.8223 16.626H12.1031C11.6167 16.626 11.2188 17.0238 11.2188 17.5101C11.2188 17.9964 11.6167 18.3943 12.1031 18.3943Z" fill="#323232"/>
<path d="M18.3453 18.3943H33.9532C34.4396 18.3943 34.8375 17.9964 34.8375 17.5101C34.8375 17.0238 34.4396 16.626 33.9532 16.626H18.3453C17.8589 16.626 17.4609 17.0238 17.4609 17.5101C17.4609 17.9964 17.8589 18.3943 18.3453 18.3943Z" fill="#323232"/>
<path d="M12.1031 24.7927H14.8223C15.3087 24.7927 15.7066 24.3948 15.7066 23.9086C15.7066 23.4223 15.3087 23.0244 14.8223 23.0244H12.1031C11.6167 23.0244 11.2188 23.4223 11.2188 23.9086C11.2188 24.3948 11.6167 24.7927 12.1031 24.7927Z" fill="#323232"/>
<path d="M18.3453 24.7927H33.9532C34.4396 24.7927 34.8375 24.3948 34.8375 23.9086C34.8375 23.4223 34.4396 23.0244 33.9532 23.0244H18.3453C17.8589 23.0244 17.4609 23.4223 17.4609 23.9086C17.4609 24.3948 17.8589 24.7927 18.3453 24.7927Z" fill="#323232"/>
<path d="M12.1031 31.1921H14.8223C15.3087 31.1921 15.7066 30.7942 15.7066 30.308C15.7066 29.8217 15.3087 29.4238 14.8223 29.4238H12.1031C11.6167 29.4238 11.2188 29.8217 11.2188 30.308C11.2188 30.7942 11.6167 31.1921 12.1031 31.1921Z" fill="#323232"/>
<path d="M18.3453 31.1921H33.9532C34.4396 31.1921 34.8375 30.7942 34.8375 30.308C34.8375 29.8217 34.4396 29.4238 33.9532 29.4238H18.3453C17.8589 29.4238 17.4609 29.8217 17.4609 30.308C17.4609 30.7942 17.8589 31.1921 18.3453 31.1921Z" fill="#323232"/>
<path d="M12.1031 37.5905H14.8223C15.3087 37.5905 15.7066 37.1927 15.7066 36.7064C15.7066 36.2201 15.3087 35.8223 14.8223 35.8223H12.1031C11.6167 35.8223 11.2188 36.2201 11.2188 36.7064C11.2188 37.1927 11.6167 37.5905 12.1031 37.5905Z" fill="#323232"/>
<path d="M12.1031 43.99H14.8223C15.3087 43.99 15.7066 43.5921 15.7066 43.1058C15.7066 42.6195 15.3087 42.2217 14.8223 42.2217H12.1031C11.6167 42.2217 11.2188 42.6195 11.2188 43.1058C11.2188 43.5921 11.6167 43.99 12.1031 43.99Z" fill="#323232"/>
<path d="M18.3453 43.99H33.9532C34.4396 43.99 34.8375 43.5921 34.8375 43.1058C34.8375 42.6195 34.4396 42.2217 33.9532 42.2217H18.3453C17.8589 42.2217 17.4609 42.6195 17.4609 43.1058C17.4609 43.5921 17.8589 43.99 18.3453 43.99Z" fill="#323232"/>
<path d="M12.1031 50.3894H14.8223C15.3087 50.3894 15.7066 49.9915 15.7066 49.5052C15.7066 49.019 15.3087 48.6211 14.8223 48.6211H12.1031C11.6167 48.6211 11.2188 49.019 11.2188 49.5052C11.2188 49.9915 11.6167 50.3894 12.1031 50.3894Z" fill="#323232"/>
<path d="M18.3453 50.3894H33.9532C34.4396 50.3894 34.8375 49.9915 34.8375 49.5052C34.8375 49.019 34.4396 48.6211 33.9532 48.6211H18.3453C17.8589 48.6211 17.4609 49.019 17.4609 49.5052C17.4609 49.9915 17.8589 50.3894 18.3453 50.3894Z" fill="#323232"/>
<path d="M59.4108 33.6899L58.3276 33.0378C58.2723 33.0047 58.2281 32.9604 58.1949 32.8941L55.7962 28.7387C55.763 28.6834 55.7409 28.6171 55.7409 28.5508L55.7188 27.2909C55.7078 26.5394 55.2988 25.8431 54.6466 25.4674L52.5133 24.2406C51.8611 23.8648 51.0541 23.8538 50.3909 24.2185L49.2855 24.8263C49.2303 24.8595 49.164 24.8706 49.0976 24.8706H45.6046V8.53606C45.6046 6.41412 43.8802 4.69005 41.7579 4.69005H34.2413V3.49646C34.2413 1.89395 32.937 0.589844 31.3342 0.589844H28.7144C28.2281 0.589844 27.8301 0.987706 27.8301 1.47398C27.8301 1.96026 28.2281 2.35812 28.7144 2.35812H31.3342C31.9642 2.35812 32.4838 2.87756 32.4838 3.50751V7.62981C32.4838 8.25976 31.9642 8.7792 31.3342 8.7792H29.0903C27.7306 8.7792 26.6253 9.88437 26.6253 11.2437C26.6253 11.6306 26.3047 11.9511 25.9178 11.9511H20.1477C19.7609 11.9511 19.4403 11.6306 19.4403 11.2437C19.4403 9.88437 18.3349 8.7792 16.9753 8.7792H14.7314C14.1013 8.7792 13.5818 8.25976 13.5818 7.62981V3.50751C13.5818 2.87756 14.1013 2.35812 14.7314 2.35812H25.2214C25.7078 2.35812 26.1057 1.96026 26.1057 1.47398C26.1057 0.987706 25.7078 0.589844 25.2214 0.589844H14.7314C13.1286 0.589844 11.8242 1.89395 11.8242 3.49646V4.69005H4.30764C2.18531 4.69005 0.460938 6.41412 0.460938 8.53606V56.7438C0.460938 58.8658 2.18531 60.5898 4.30764 60.5898H41.78C43.9023 60.5898 45.6267 58.8658 45.6267 56.7438V48.6318H49.1197C49.1861 48.6318 49.2524 48.6539 49.3077 48.676L50.413 49.2839C50.7336 49.4607 51.0983 49.5491 51.4521 49.5491C51.8058 49.5491 52.1927 49.4497 52.5243 49.2618L54.6577 48.035C55.3099 47.6593 55.7188 46.963 55.7299 46.2115L55.752 44.9516C55.752 44.8853 55.7741 44.819 55.8073 44.7637L58.2059 40.6083C58.2391 40.553 58.2834 40.4977 58.3386 40.4646L59.4219 39.8125C60.063 39.4257 60.4609 38.7184 60.4609 37.9669V35.5134C60.4609 34.7619 60.063 34.0546 59.4219 33.6678L59.4108 33.6899ZM41.7579 6.45833C42.9075 6.45833 43.8471 7.39773 43.8471 8.54711V24.6827L43.007 24.2185C42.7196 24.0638 42.399 23.9754 42.0785 23.9533V10.0059C42.0785 9.01129 41.2716 8.21556 40.2878 8.21556H34.186C34.2303 8.02768 34.2413 7.82875 34.2413 7.62981V6.45833H41.7579ZM41.7579 58.8326H4.28554C3.13595 58.8326 2.19636 57.8932 2.19636 56.7438V8.53606C2.19636 7.38667 3.13595 6.44728 4.28554 6.44728H11.8021V7.61876C11.8021 7.8177 11.8242 8.01663 11.8574 8.20451H5.75568C4.76084 8.20451 3.96497 9.01128 3.96497 9.99489V44.8742C3.96497 45.3605 4.36293 45.7584 4.8493 45.7584C5.33566 45.7584 5.73359 45.3605 5.73359 44.8742V9.99489C5.73359 9.99489 5.75569 9.96174 5.76675 9.96174H13.007C13.4933 10.3154 14.0792 10.5254 14.7203 10.5254H16.9642C17.3511 10.5254 17.6717 10.8459 17.6717 11.2327C17.6717 12.5921 18.7771 13.6972 20.1367 13.6972H25.9068C27.2664 13.6972 28.3718 12.5921 28.3718 11.2327C28.3718 10.8459 28.6923 10.5254 29.0792 10.5254H31.3231C31.9642 10.5254 32.5612 10.3154 33.0365 9.96174H40.2767C40.2767 9.96174 40.3099 9.98384 40.3099 9.99489V24.5501L38.7402 25.4563C38.088 25.8321 37.6791 26.5283 37.668 27.2798L37.6459 28.5397C37.6459 28.6061 37.6238 28.6724 37.5906 28.7276L35.1919 32.8831C35.1588 32.9383 35.1146 32.9936 35.0593 33.0268L33.976 33.6788C33.3349 34.0656 32.937 34.7729 32.937 35.5245V35.8229H18.3349C17.8485 35.8229 17.4506 36.2207 17.4506 36.707C17.4506 37.1933 17.8485 37.5911 18.3349 37.5911H32.937V37.989C32.937 38.7405 33.3349 39.4478 33.976 39.8346L35.0593 40.4867C35.1146 40.5199 35.1588 40.5641 35.1919 40.6304L37.5906 44.7858C37.6238 44.8411 37.6459 44.9074 37.6459 44.9737L37.668 46.2336C37.6791 46.9851 38.088 47.6814 38.7402 48.0572L40.3099 48.9634V55.2961C40.3099 55.2961 40.2878 55.3292 40.2767 55.3292H5.74465C5.74465 55.3292 5.71149 55.3071 5.71149 55.2961V48.4108C5.71149 47.9245 5.31353 47.5267 4.82717 47.5267C4.3408 47.5267 3.94288 47.9245 3.94288 48.4108V55.2961C3.94288 56.2907 4.7498 57.0864 5.73359 57.0864H40.2656C41.2605 57.0864 42.0563 56.2797 42.0563 55.2961V49.5712C42.3769 49.5491 42.6975 49.4607 42.9849 49.306L43.825 48.8418V56.7549C43.825 57.9043 42.8854 58.8437 41.7358 58.8437L41.7579 58.8326ZM58.6923 37.9779C58.6923 38.1106 58.6149 38.2432 58.5044 38.3095L57.4211 38.9616C57.1116 39.1494 56.8464 39.4147 56.6695 39.7241L54.2708 43.8796C54.0939 44.2001 53.9945 44.5537 53.9834 44.9184L53.9613 46.1783C53.9613 46.311 53.8839 46.4436 53.7623 46.5099L51.629 47.7367C51.5074 47.803 51.3636 47.803 51.242 47.7367L50.1367 47.1288C49.8161 46.952 49.4624 46.8636 49.0976 46.8636H44.3003C43.9355 46.8636 43.5707 46.952 43.2612 47.1288L42.1559 47.7367C42.0343 47.803 41.8906 47.803 41.769 47.7367L39.6356 46.5099C39.514 46.4436 39.4366 46.311 39.4366 46.1783L39.4145 44.9184C39.4145 44.5537 39.304 44.2001 39.1271 43.8796L36.7284 39.7241C36.5516 39.4147 36.2863 39.1494 35.9768 38.9616L34.8935 38.3095C34.7719 38.2432 34.7056 38.1106 34.7056 37.9779V35.5245C34.7056 35.3918 34.783 35.2592 34.8935 35.1929L35.9768 34.5408C36.2863 34.353 36.5516 34.0877 36.7284 33.7783L39.1271 29.6228C39.304 29.3023 39.4034 28.9487 39.4145 28.5839L39.4366 27.324C39.4366 27.1914 39.514 27.0588 39.6356 26.9925L41.769 25.7658C41.8906 25.6994 42.0343 25.6994 42.1559 25.7658L43.2612 26.3736C43.5818 26.5504 43.9355 26.6388 44.3003 26.6388H49.0976C49.4624 26.6388 49.8161 26.5504 50.1367 26.3736L51.242 25.7658C51.3636 25.6994 51.5074 25.6994 51.629 25.7658L53.7623 26.9925C53.8839 27.0588 53.9613 27.1914 53.9613 27.324L53.9834 28.5839C53.9834 28.9487 54.0939 29.3023 54.2708 29.6228L56.6695 33.7783C56.8464 34.0988 57.1116 34.364 57.4211 34.5519L58.5044 35.204C58.626 35.2703 58.6923 35.4029 58.6923 35.5355V37.989V37.9779Z" fill="#323232"/>
<path d="M46.7091 28.6172C42.2213 28.6172 38.5625 32.2643 38.5625 36.7623C38.5625 41.2604 42.2102 44.9075 46.7091 44.9075C48.6878 44.9075 50.6001 44.1891 52.0813 42.885C52.446 42.5645 52.4792 42.0119 52.1587 41.6472C51.8381 41.2825 51.2854 41.2494 50.9206 41.5699C49.76 42.5977 48.2567 43.1613 46.7091 43.1613C43.183 43.1613 40.32 40.2989 40.32 36.7734C40.32 33.2479 43.183 30.3855 46.7091 30.3855C50.2353 30.3855 53.0982 33.2479 53.0982 36.7734C53.0982 37.547 52.9545 38.3096 52.6892 39.028C52.5124 39.4811 52.7445 39.9895 53.1977 40.1552C53.6509 40.3321 54.1594 40.1 54.3252 39.6468C54.6789 38.7296 54.8447 37.757 54.8447 36.7734C54.8447 32.2864 51.197 28.6282 46.6981 28.6282L46.7091 28.6172Z" fill="#323232"/>
</svg>
