<?xml version="1.0" encoding="UTF-8"?>
<svg id="Layer_1" data-name="Layer 1" xmlns="http://www.w3.org/2000/svg" viewBox="0 0 347.26 789.02">
  <defs>
    <style>
      .cls-1 {
        fill: #fff;
      }

      .cls-2 {
        fill: #e6e7e8;
      }
    </style>
  </defs>
  <g>
    <path class="cls-2" d="m173.65,789.02c-.56-.02-52.12-1.64-74.81-4.6-1.25-.15-2.56-.34-3.88-.57-.33-.05-.66-.11-.98-.17l-4.14-.73.43-.08c-26.19-6.36-46.73-26.97-52.85-53.46l-4.78-19.16c-6.58-26.37-9.91-53.51-9.91-80.69V113.28c0-18.34,12.52-37.42,27.02-59.52,1.19-1.82,2.39-3.65,3.6-5.5,15.4-23.62,32.83-30.95,59.98-40.95,26.49-9.76,94.11-9.76,120.6,0,27.15,10,44.57,17.33,59.98,40.95,1.21,1.85,2.41,3.68,3.6,5.5,14.5,22.1,27.01,41.18,27.01,59.51v516.29c0,27.17-3.33,54.32-9.91,80.69l-4.78,19.17c-6.12,26.49-26.67,47.11-52.89,53.46l.34.06-4.01.74c-.32.06-.65.11-.99.17-1.32.23-2.63.42-3.88.57-22.68,2.96-74.24,4.58-74.75,4.6Zm-78.47-6.65s.02,0,.04,0c1.3.23,2.58.41,3.81.56,22.62,2.96,74.11,4.58,74.62,4.59.47-.02,51.96-1.64,74.57-4.59,1.23-.14,2.51-.33,3.81-.56.05,0,.1-.02.15-.03l.77-.15c27.38-5.12,49.13-25.97,55.41-53.12l4.78-19.18c6.54-26.25,9.86-53.27,9.86-80.32V113.28c0-17.89-12.4-36.8-26.77-58.69-1.19-1.82-2.4-3.65-3.6-5.5-15.15-23.22-32.38-30.47-59.24-40.36-26.26-9.67-93.3-9.67-119.56,0-26.86,9.9-44.09,17.14-59.24,40.36-1.21,1.85-2.41,3.68-3.6,5.5-14.37,21.9-26.77,40.81-26.77,58.69v516.29c0,27.05,3.32,54.08,9.87,80.32l4.78,19.17c6.28,27.16,28.03,48.02,55.41,53.14l.88.17Z"/>
    <g>
      <path class="cls-2" d="m300.43,602.2c-.67,0-1.32-.18-1.91-.53-5.64-3.34-11.65-18.06-17.86-43.73-7.99-33.01-8.64-109.97-5.19-165.61,3.58-57.82,28.21-143.75,28.45-144.62l.13-.45,7.29-1.27v.89c0,.53.02,3.51.05,8.43.9,153.43.47,206.17-.05,223.39-1.11,36.53-5.21,100.4-6.44,119.1-.11,1.61-1.11,3.14-2.56,3.9-.62.33-1.27.49-1.91.49Zm4.81-353.62c-1.94,6.82-24.83,88.36-28.27,143.84-3.44,55.53-2.8,132.29,5.15,165.16,7.62,31.47,13.54,40.65,17.17,42.8.96.57,1.89.25,2.36,0,1-.53,1.69-1.58,1.76-2.67,1.23-18.7,5.33-82.54,6.44-119.05.52-17.21.95-69.93.05-223.34-.02-3.65-.04-6.24-.04-7.55l-4.61.8Z"/>
      <path class="cls-2" d="m298.65,77.74c-.08,0-.17,0-.25-.02l-3.33-.59c-.69-.12-1.31-.52-1.7-1.1l-31.83-46.41-2.53-4.1,2.45,1.3c28.35,15.08,37.12,43.56,38.59,49.12.13.47,0,.97-.33,1.33-.28.3-.66.46-1.06.46Zm-35.32-48.15l31.27,45.59c.17.25.44.42.73.47l3.23.57c-1.47-5.51-9.64-31.63-35.23-46.63Z"/>
      <rect class="cls-2" x="226.13" y="720.8" width="82.64" height="1.5" transform="translate(-483.23 890.78) rotate(-82.37)"/>
      <path class="cls-2" d="m46.83,602.2c-.64,0-1.29-.16-1.91-.49-1.45-.76-2.45-2.29-2.56-3.9-1.23-18.7-5.34-82.57-6.44-119.1-.52-17.22-.95-69.96-.05-223.39.03-4.92.05-7.9.05-8.43v-.89l7.28,1.27.13.45c.25.86,24.87,86.8,28.45,144.62,3.45,55.64,2.8,132.59-5.19,165.61-6.21,25.68-12.22,40.39-17.86,43.74-.59.35-1.25.53-1.91.53Zm-9.42-354.42c0,1.31-.02,3.89-.04,7.55-.9,153.41-.47,206.13.05,223.34,1.1,36.51,5.21,100.35,6.44,119.05.07,1.1.76,2.15,1.76,2.67.47.25,1.39.57,2.36,0,3.63-2.15,9.55-11.32,17.17-42.8,7.95-32.87,8.59-109.63,5.15-165.16-3.44-55.48-26.33-137.02-28.27-143.84l-4.6-.8Z"/>
      <path class="cls-2" d="m263.62,566.4c-3.95-66.23-2.68-134.3-.38-172.48,1.66-27.61,18.79-95.8,28-132.44,2.18-8.67,3.9-15.51,4.67-18.91,3.75-16.49,1.42-25.37-36.51-41.26-37.66-15.77-85.27-14.94-85.75-14.93-.51,0-48.12-.84-85.78,14.93-37.94,15.89-40.26,24.78-36.51,41.26.77,3.39,2.49,10.23,4.66,18.89,9.21,36.64,26.34,104.84,28,132.46,2.28,37.94,3.53,105.88-.44,172.45l-1.5-.09c3.97-66.51,2.72-134.37.44-172.27-1.65-27.48-19.42-98.19-27.96-132.18-2.18-8.66-3.9-15.51-4.67-18.92-4.25-18.71.56-27.55,37.4-42.98,37.95-15.9,85.87-15.05,86.36-15.05.45,0,48.37-.85,86.33,15.05,36.84,15.43,41.65,24.27,37.39,42.98-.78,3.41-2.5,10.26-4.68,18.94-8.54,33.98-26.3,104.69-27.95,132.16-2.29,38.13-3.57,106.14.38,172.3l-1.5.09Z"/>
      <path class="cls-2" d="m173.63,705.12c-65.89,0-99.43-23.68-99.76-23.92l-.28-.2-.03-.34c-3.75-41.64,6.45-114.52,6.55-115.25l.14-.97.9.38c31.33,13.33,67.58,16.13,92.48,16.13s61.14-2.8,92.48-16.13l.9-.38.14.97c.1.73,10.3,73.61,6.55,115.25l-.03.34-.28.2c-.33.24-33.86,23.92-99.76,23.92Zm-98.6-24.94c3.33,2.25,36.39,23.44,98.6,23.44s95.28-21.19,98.6-23.44c3.42-38.91-5.25-104.84-6.44-113.59-31.36,13.11-67.37,15.87-92.16,15.87s-60.8-2.77-92.16-15.87c-1.19,8.76-9.86,74.69-6.44,113.59Z"/>
      <rect class="cls-2" x="79.25" y="680.21" width="1.5" height="84.93" transform="translate(-96.13 17.24) rotate(-7.7)"/>
      <path class="cls-2" d="m168.48,774.41c-28.02,0-56.07-2.97-83.47-8.84l-.2-.04-25.84-23.57-.04-.26c-4.05-24.84-7.54-50.13-10.37-75.15-2.63-23.29-4.75-46.95-6.3-70.3l1.5-.1c1.55,23.33,3.67,46.96,6.3,70.24,2.81,24.91,6.28,50.08,10.32,74.82l25.15,22.94c28.91,6.18,58.53,9.11,88.1,8.73,30.01-.39,60-4.21,89.16-11.34l24.12-20.35c4.03-24.72,7.5-49.89,10.31-74.8,2.62-23.25,4.74-46.88,6.3-70.24l1.5.1c-1.56,23.38-3.68,47.03-6.3,70.3-2.83,25.03-6.31,50.32-10.37,75.15l-.04.27-24.81,20.93-.17.04c-29.32,7.19-59.49,11.03-89.67,11.43-1.72.02-3.44.03-5.16.03Z"/>
      <path class="cls-2" d="m309.86,247.07L253.73,29.66c-26.18-6.48-53.13-9.8-80.1-9.86-27.52-.08-55,3.25-81.7,9.86l-54.53,217.41-1.46-.37L90.69,28.42l.44-.11c26.97-6.71,54.77-10.08,82.51-10.01,27.24.06,54.45,3.43,80.89,10.01l.43.11.11.43,56.25,217.85-1.45.38Z"/>
      <path class="cls-2" d="m270.29,338.83l-.78-.27c-.38-.13-39.06-13.4-95.88-13.4s-95.5,13.26-95.88,13.4l-.78.27-.2-.8c-.88-3.55-21.47-87.09-19.64-94.68,1.67-6.9,15.28-14.88,44.13-25.85,23.4-8.9,50.97-10.04,72.36-10.04s48.96,1.14,72.36,10.04c28.86,10.97,42.47,18.95,44.14,25.85h0c1.83,7.59-18.76,91.13-19.64,94.68l-.2.8Zm-96.66-129.87c-21.27,0-48.66,1.13-71.83,9.94-17.59,6.69-41.22,16.54-43.21,24.8-1.39,5.74,12,62.99,19.44,93.18,5.77-1.87,42.95-13.22,95.6-13.22s89.82,11.35,95.6,13.22c7.45-30.19,20.83-87.44,19.44-93.18-1.99-8.26-25.62-18.11-43.21-24.8-23.17-8.81-50.56-9.94-71.83-9.94Z"/>
      <path class="cls-2" d="m271.67,345.53c-52.19-16.78-102.79-15.89-136.05-12.19-36.05,4.01-60.07,12.1-60.3,12.18l-.48-1.42c.24-.08,24.38-8.21,60.58-12.25,33.41-3.72,84.25-4.62,136.71,12.24l-.46,1.43Z"/>
      <g>
        <path class="cls-1" d="m304.65,264.46v17.57l8.72,2.07c1.26.3,2.14,1.42,2.14,2.71v.79c0,1,.62,1.88,1.56,2.23l28.48,10.44c.47.17.97-.18.97-.68v-4.18c0-5.69-3.17-10.9-8.22-13.52l-33.64-17.45Z"/>
        <path class="cls-2" d="m345.79,301.07c-.17,0-.34-.03-.51-.09l-28.48-10.44c-1.22-.45-2.05-1.63-2.05-2.93v-.79c0-.95-.64-1.77-1.57-1.99l-9.29-2.21v-19.4l34.74,18.01c5.32,2.76,8.62,8.19,8.62,14.19v4.18c0,.48-.24.93-.63,1.21-.25.17-.54.27-.84.27Zm-40.39-19.64l8.14,1.94c1.6.38,2.72,1.8,2.72,3.44v.79c0,.68.43,1.29,1.06,1.52l28.48,10.44-.04-4.15c0-5.43-2.99-10.35-7.81-12.85l-32.55-16.88v15.75Z"/>
      </g>
      <g>
        <path class="cls-1" d="m42.61,264.46v17.57l-8.72,2.07c-1.26.3-2.14,1.42-2.14,2.71v.79c0,1-.62,1.88-1.56,2.23l-28.48,10.44c-.47.17-.97-.18-.97-.68v-4.18c0-5.69,3.17-10.9,8.22-13.52l33.64-17.45Z"/>
        <path class="cls-2" d="m1.47,301.07c-.3,0-.59-.09-.84-.27-.39-.27-.63-.73-.63-1.21v-4.18c0-5.99,3.3-11.43,8.62-14.19l34.74-18.01v19.4l-9.29,2.21c-.92.22-1.57,1.04-1.57,1.99v.79c0,1.3-.82,2.48-2.05,2.93l-28.48,10.44c-.16.06-.33.09-.51.09Zm40.39-35.38l-32.55,16.88c-4.82,2.5-7.81,7.42-7.81,12.85v4.18l28.44-10.47c.64-.23,1.06-.85,1.06-1.52v-.79c0-1.65,1.12-3.06,2.72-3.44l8.14-1.94v-15.75Z"/>
      </g>
    </g>
  </g>
  <path class="cls-2" d="m47.29,77.49c-.33,0-.64-.14-.87-.38-.27-.3-.38-.71-.27-1.1,1.46-5.54,10.2-33.93,38.47-48.96l1.63-.87-2.06,3.33-31.81,46.38c-.36.52-.92.88-1.54.99l-3.33.59c-.07.01-.14.02-.21.02Zm36.14-48.66c-26.59,15.05-34.9,42.07-36.31,47.43-.02.08.02.14.04.17.03.03.08.07.17.06l3.33-.59c.36-.06.68-.27.89-.57l31.88-46.49Z"/>
</svg>