<?xml version="1.0" encoding="utf-8"?>
<!-- Generator: Adobe Illustrator 27.1.1, SVG Export Plug-In . SVG Version: 6.00 Build 0)  -->
<svg version="1.1" id="Layer_1" xmlns="http://www.w3.org/2000/svg" xmlns:xlink="http://www.w3.org/1999/xlink" x="0px" y="0px"
	 viewBox="0 0 347.3 821.7" style="enable-background:new 0 0 347.3 821.7;" xml:space="preserve">
<style type="text/css">
	.st0{fill:#E6E7E8;}
	.st1{fill:#FFFFFF;}
</style>
<g>
	<path class="st0" d="M173.6,821.7c-0.6,0-52.1-1.6-74.8-4.6c-1.2-0.2-2.6-0.3-3.9-0.6c-0.3,0-0.7-0.1-1-0.2l-4.1-0.7l0.4-0.1
		c-26.2-6.4-46.7-27-52.8-53.5l-4.8-19.2c-6.6-26.4-9.9-53.5-9.9-80.7V146c0-18.3,12.5-37.4,27-59.5c1.2-1.8,2.4-3.7,3.6-5.5
		c15.4-23.6,32.8-31,60-41c26.5-9.8,94.1-9.8,120.6,0c27.1,10,44.6,17.3,60,41c1.2,1.8,2.4,3.7,3.6,5.5c14.5,22.1,27,41.2,27,59.5
		v516.3c0,27.2-3.3,54.3-9.9,80.7l-4.8,19.2c-6.1,26.5-26.7,47.1-52.9,53.5l0.3,0.1l-4,0.7c-0.3,0.1-0.6,0.1-1,0.2
		c-1.3,0.2-2.6,0.4-3.9,0.6C225.7,820.1,174.2,821.7,173.6,821.7L173.6,821.7z M95.2,815.1C95.2,815.1,95.2,815.1,95.2,815.1
		c1.3,0.2,2.6,0.4,3.8,0.6c22.6,3,74.1,4.6,74.6,4.6c0.5,0,52-1.6,74.6-4.6c1.2-0.1,2.5-0.3,3.8-0.6c0.1,0,0.1,0,0.1,0l0.8-0.2
		c27.4-5.1,49.1-26,55.4-53.1l4.8-19.2c6.5-26.2,9.9-53.3,9.9-80.3V146c0-17.9-12.4-36.8-26.8-58.7c-1.2-1.8-2.4-3.7-3.6-5.5
		c-15.1-23.2-32.4-30.5-59.2-40.4c-26.3-9.7-93.3-9.7-119.6,0C87,51.3,69.7,58.6,54.6,81.8c-1.2,1.8-2.4,3.7-3.6,5.5
		c-14.4,21.9-26.8,40.8-26.8,58.7v516.3c0,27,3.3,54.1,9.9,80.3l4.8,19.2c6.3,27.2,28,48,55.4,53.1L95.2,815.1L95.2,815.1z"/>
	<g>
		<path class="st0" d="M300.4,634.9c-0.7,0-1.3-0.2-1.9-0.5c-5.6-3.3-11.6-18.1-17.9-43.7c-8-33-8.6-110-5.2-165.6
			c3.6-57.8,28.2-143.8,28.5-144.6l0.1-0.4l7.3-1.3v0.9c0,0.5,0,3.5,0,8.4c0.9,153.4,0.5,206.2,0,223.4
			c-1.1,36.5-5.2,100.4-6.4,119.1c-0.1,1.6-1.1,3.1-2.6,3.9C301.7,634.7,301.1,634.9,300.4,634.9L300.4,634.9z M305.2,281.3
			c-1.9,6.8-24.8,88.4-28.3,143.8c-3.4,55.5-2.8,132.3,5.1,165.2c7.6,31.5,13.5,40.7,17.2,42.8c1,0.6,1.9,0.2,2.4,0
			c1-0.5,1.7-1.6,1.8-2.7c1.2-18.7,5.3-82.5,6.4-119.1c0.5-17.2,1-69.9,0-223.3c0-3.6,0-6.2,0-7.5L305.2,281.3L305.2,281.3z"/>
		<path class="st0" d="M298.6,110.4c-0.1,0-0.2,0-0.2,0l-3.3-0.6c-0.7-0.1-1.3-0.5-1.7-1.1l-31.8-46.4l-2.5-4.1l2.5,1.3
			c28.4,15.1,37.1,43.6,38.6,49.1c0.1,0.5,0,1-0.3,1.3C299.4,110.3,299.1,110.4,298.6,110.4L298.6,110.4z M263.3,62.3l31.3,45.6
			c0.2,0.2,0.4,0.4,0.7,0.5l3.2,0.6C297.1,103.4,288.9,77.3,263.3,62.3z"/>
		
			<rect x="226.1" y="753.4" transform="matrix(0.1328 -0.9911 0.9911 0.1328 -515.5849 919.1308)" class="st0" width="82.6" height="1.5"/>
		<path class="st0" d="M46.8,634.9c-0.6,0-1.3-0.2-1.9-0.5c-1.5-0.8-2.5-2.3-2.6-3.9c-1.2-18.7-5.3-82.6-6.4-119.1
			c-0.5-17.2-1-70,0-223.4c0-4.9,0-7.9,0-8.4v-0.9l7.3,1.3l0.1,0.5c0.2,0.9,24.9,86.8,28.4,144.6c3.4,55.6,2.8,132.6-5.2,165.6
			c-6.2,25.7-12.2,40.4-17.9,43.7C48.1,634.7,47.5,634.9,46.8,634.9L46.8,634.9z M37.4,280.5c0,1.3,0,3.9,0,7.6
			c-0.9,153.4-0.5,206.1,0,223.3c1.1,36.5,5.2,100.4,6.4,119.1c0.1,1.1,0.8,2.2,1.8,2.7c0.5,0.2,1.4,0.6,2.4,0
			c3.6-2.2,9.5-11.3,17.2-42.8c7.9-32.9,8.6-109.6,5.2-165.2C66.9,369.6,44,288.1,42,281.3L37.4,280.5L37.4,280.5z"/>
		<path class="st0" d="M263.6,599.1c-4-66.2-2.7-134.3-0.4-172.5c1.7-27.6,18.8-95.8,28-132.4c2.2-8.7,3.9-15.5,4.7-18.9
			c3.8-16.5,1.4-25.4-36.5-41.3c-37.7-15.8-85.3-14.9-85.8-14.9c-0.5,0-48.1-0.8-85.8,14.9c-37.9,15.9-40.3,24.8-36.5,41.3
			c0.8,3.4,2.5,10.2,4.7,18.9c9.2,36.6,26.3,104.8,28,132.5c2.3,37.9,3.5,105.9-0.4,172.5l-1.5-0.1c4-66.5,2.7-134.4,0.4-172.3
			c-1.7-27.5-19.4-98.2-28-132.2c-2.2-8.7-3.9-15.5-4.7-18.9c-4.2-18.7,0.6-27.6,37.4-43c38-15.9,85.9-15.1,86.4-15.1
			c0.4,0,48.4-0.9,86.3,15.1c36.8,15.4,41.6,24.3,37.4,43c-0.8,3.4-2.5,10.3-4.7,18.9c-8.5,34-26.3,104.7-28,132.2
			c-2.3,38.1-3.6,106.1,0.4,172.3L263.6,599.1z"/>
		<path class="st0" d="M173.6,737.8c-65.9,0-99.4-23.7-99.8-23.9l-0.3-0.2l0-0.3c-3.8-41.6,6.4-114.5,6.6-115.2l0.1-1l0.9,0.4
			c31.3,13.3,67.6,16.1,92.5,16.1s61.1-2.8,92.5-16.1l0.9-0.4l0.1,1c0.1,0.7,10.3,73.6,6.5,115.2l0,0.3l-0.3,0.2
			C273.1,714.1,239.5,737.8,173.6,737.8z M75,712.9c3.3,2.2,36.4,23.4,98.6,23.4s95.3-21.2,98.6-23.4c3.4-38.9-5.2-104.8-6.4-113.6
			c-31.4,13.1-67.4,15.9-92.2,15.9s-60.8-2.8-92.2-15.9C80.3,608,71.6,674,75,712.9L75,712.9z"/>
		
			<rect x="79.2" y="712.9" transform="matrix(0.991 -0.134 0.134 0.991 -100.4884 17.5269)" class="st0" width="1.5" height="84.9"/>
		<path class="st0" d="M168.5,807.1c-28,0-56.1-3-83.5-8.8l-0.2,0L59,774.7l0-0.3c-4-24.8-7.5-50.1-10.4-75.2
			c-2.6-23.3-4.8-47-6.3-70.3l1.5-0.1c1.5,23.3,3.7,47,6.3,70.2c2.8,24.9,6.3,50.1,10.3,74.8l25.2,22.9c28.9,6.2,58.5,9.1,88.1,8.7
			c30-0.4,60-4.2,89.2-11.3l24.1-20.3c4-24.7,7.5-49.9,10.3-74.8c2.6-23.2,4.7-46.9,6.3-70.2l1.5,0.1c-1.6,23.4-3.7,47-6.3,70.3
			c-2.8,25-6.3,50.3-10.4,75.2l0,0.3l-24.8,20.9l-0.2,0c-29.3,7.2-59.5,11-89.7,11.4C171.9,807.1,170.2,807.1,168.5,807.1
			L168.5,807.1z"/>
		<path class="st0" d="M309.9,279.8L253.7,62.4c-26.2-6.5-53.1-9.8-80.1-9.9c-27.5-0.1-55,3.2-81.7,9.9L37.4,279.8l-1.5-0.4
			L90.7,61.1l0.4-0.1c27-6.7,54.8-10.1,82.5-10c27.2,0.1,54.4,3.4,80.9,10l0.4,0.1l0.1,0.4l56.2,217.9L309.9,279.8L309.9,279.8z"/>
		<path class="st0" d="M270.3,371.5l-0.8-0.3c-0.4-0.1-39.1-13.4-95.9-13.4s-95.5,13.3-95.9,13.4l-0.8,0.3l-0.2-0.8
			c-0.9-3.5-21.5-87.1-19.6-94.7c1.7-6.9,15.3-14.9,44.1-25.8c23.4-8.9,51-10,72.4-10s49,1.1,72.4,10c28.9,11,42.5,18.9,44.1,25.8
			l0,0c1.8,7.6-18.8,91.1-19.6,94.7L270.3,371.5L270.3,371.5z M173.6,241.7c-21.3,0-48.7,1.1-71.8,9.9
			c-17.6,6.7-41.2,16.5-43.2,24.8c-1.4,5.7,12,63,19.4,93.2c5.8-1.9,43-13.2,95.6-13.2s89.8,11.4,95.6,13.2
			c7.5-30.2,20.8-87.4,19.4-93.2c-2-8.3-25.6-18.1-43.2-24.8C222.3,242.8,194.9,241.7,173.6,241.7L173.6,241.7z"/>
		<path class="st0" d="M271.7,378.2c-52.2-16.8-102.8-15.9-136.1-12.2c-36.1,4-60.1,12.1-60.3,12.2l-0.5-1.4
			c0.2-0.1,24.4-8.2,60.6-12.2c33.4-3.7,84.2-4.6,136.7,12.2L271.7,378.2L271.7,378.2z"/>
		<g>
			<path class="st1" d="M304.6,297.2v17.6l8.7,2.1c1.3,0.3,2.1,1.4,2.1,2.7v0.8c0,1,0.6,1.9,1.6,2.2l28.5,10.4c0.5,0.2,1-0.2,1-0.7
				v-4.2c0-5.7-3.2-10.9-8.2-13.5L304.6,297.2L304.6,297.2z"/>
			<path class="st0" d="M345.8,333.8c-0.2,0-0.3,0-0.5-0.1l-28.5-10.4c-1.2-0.5-2-1.6-2-2.9v-0.8c0-1-0.6-1.8-1.6-2l-9.3-2.2v-19.4
				l34.7,18c5.3,2.8,8.6,8.2,8.6,14.2v4.2c0,0.5-0.2,0.9-0.6,1.2C346.4,333.7,346.1,333.8,345.8,333.8L345.8,333.8z M305.4,314.1
				l8.1,1.9c1.6,0.4,2.7,1.8,2.7,3.4v0.8c0,0.7,0.4,1.3,1.1,1.5l28.5,10.4l0-4.1c0-5.4-3-10.4-7.8-12.9l-32.5-16.9L305.4,314.1
				L305.4,314.1z"/>
		</g>
		<g>
			<path class="st1" d="M42.6,297.2v17.6l-8.7,2.1c-1.3,0.3-2.1,1.4-2.1,2.7v0.8c0,1-0.6,1.9-1.6,2.2L1.7,333c-0.5,0.2-1-0.2-1-0.7
				v-4.2c0-5.7,3.2-10.9,8.2-13.5L42.6,297.2L42.6,297.2z"/>
			<path class="st0" d="M1.5,333.8c-0.3,0-0.6-0.1-0.8-0.3c-0.4-0.3-0.6-0.7-0.6-1.2v-4.2c0-6,3.3-11.4,8.6-14.2l34.7-18v19.4
				l-9.3,2.2c-0.9,0.2-1.6,1-1.6,2v0.8c0,1.3-0.8,2.5-2,2.9L2,333.7C1.8,333.7,1.6,333.8,1.5,333.8L1.5,333.8z M41.9,298.4
				L9.3,315.3c-4.8,2.5-7.8,7.4-7.8,12.9v4.2l28.4-10.5c0.6-0.2,1.1-0.9,1.1-1.5v-0.8c0-1.6,1.1-3.1,2.7-3.4l8.1-1.9V298.4z"/>
		</g>
	</g>
</g>
<path class="st0" d="M47.3,110.2c-0.3,0-0.6-0.1-0.9-0.4c-0.3-0.3-0.4-0.7-0.3-1.1c1.5-5.5,10.2-33.9,38.5-49l1.6-0.9l-2.1,3.3
	l-31.8,46.4c-0.4,0.5-0.9,0.9-1.5,1l-3.3,0.6C47.4,110.2,47.4,110.2,47.3,110.2L47.3,110.2z M83.4,61.5
	C56.8,76.6,48.5,103.6,47.1,109c0,0.1,0,0.1,0,0.2c0,0,0.1,0.1,0.2,0.1l3.3-0.6c0.4-0.1,0.7-0.3,0.9-0.6L83.4,61.5L83.4,61.5z"/>
<g>
	<path class="st0" d="M130,21.1V0.3h2.5v20.8H130z M131.4,2.7V0.3h11.6v2.3H131.4z M131.4,12.1V9.8h10.1v2.3H131.4z"/>
	<path class="st0" d="M146.7,21.1V0.3h2.5v20.8H146.7z M147.9,12.3V10h7.1c1,0,1.8-0.3,2.4-1c0.6-0.7,0.9-1.6,0.9-2.7
		c0-1.1-0.3-2-0.9-2.7c-0.6-0.7-1.4-1-2.4-1h-7.1V0.3h7c1.2,0,2.3,0.3,3.2,0.8c0.9,0.5,1.6,1.2,2.1,2.1s0.8,1.9,0.8,3.2
		c0,1.2-0.3,2.3-0.8,3.2c-0.5,0.9-1.2,1.6-2.1,2.1c-0.9,0.5-2,0.8-3.2,0.8H147.9z M158.9,21.1l-4.8-9.4l2.4-0.7l5.3,10.1H158.9z"/>
	<path class="st0" d="M172.1,21.3c-1.5,0-2.8-0.3-3.9-0.9c-1.1-0.6-1.9-1.5-2.5-2.6c-0.6-1.1-0.9-2.5-0.9-4.1V7.8
		c0-1.6,0.3-3,0.9-4.1c0.6-1.1,1.4-2,2.5-2.6c1.1-0.6,2.4-0.9,3.9-0.9c1.5,0,2.8,0.3,3.9,0.9c1.1,0.6,1.9,1.5,2.5,2.6
		c0.6,1.1,0.9,2.5,0.9,4.1v5.9c0,1.6-0.3,2.9-0.9,4.1c-0.6,1.1-1.4,2-2.5,2.6C174.9,21,173.6,21.3,172.1,21.3z M172.1,18.9
		c1.5,0,2.7-0.5,3.5-1.4c0.9-0.9,1.3-2.2,1.3-3.8V7.7c0-1.6-0.4-2.9-1.3-3.8c-0.9-0.9-2-1.4-3.5-1.4c-1.5,0-2.7,0.5-3.5,1.4
		c-0.9,0.9-1.3,2.2-1.3,3.8v6.1c0,1.6,0.4,2.9,1.3,3.8C169.4,18.5,170.6,18.9,172.1,18.9z"/>
	<path class="st0" d="M183.8,21.1V0.3h2.4l11.1,17.4l-0.6-0.1V0.3h2.5v20.8h-2.4L185.5,3.7l0.7,0.2v17.1H183.8z"/>
	<path class="st0" d="M202.6,2.7V0.3h14.7v2.3H202.6z M208.7,21.1V1.6h2.5v19.5H208.7z"/>
</g>
</svg>
