<?xml version="1.0" encoding="UTF-8"?>
<svg id="Layer_1" data-name="Layer 1" xmlns="http://www.w3.org/2000/svg" viewBox="0 0 129.83 129.14">
  <defs>
    <style>
      .cls-1 {
        fill: #fff;
      }

      .cls-2 {
        fill: #00a651;
      }
    </style>
  </defs>
  <circle class="cls-1" cx="64.89" cy="64.84" r="63.09"/>
  <g>
    <path class="cls-2" d="m57.68,55.05c1.2,1.2,1.3,3.05,0,4.35-1.2,1.2-3.14,1.2-4.34,0-1.2-1.2-1.21-3.15,0-4.35,1.2-1.2,3.15-1.2,4.35,0Z"/>
    <path class="cls-2" d="m57.68,55.05c1.2,1.2,1.3,3.05,0,4.35-1.2,1.2-3.14,1.2-4.34,0-1.2-1.2-1.21-3.15,0-4.35,1.2-1.2,3.15-1.2,4.35,0Z"/>
    <path class="cls-2" d="m76.3,68.47c-1.68-.27-2.84-1.71-2.56-3.52.27-1.68,1.84-2.82,3.51-2.55,1.68.27,2.83,1.84,2.56,3.52-.27,1.68-1.84,2.83-3.52,2.56Z"/>
    <path class="cls-2" d="m76.7,65.49s0-.04,0-.07l.08-.06s.07.05.07.08l-.07.07s-.07-.01-.09-.02Z"/>
    <path class="cls-2" d="m64.92,76.77c-.27-1.68.75-3.23,2.56-3.52,1.68-.27,3.25.88,3.52,2.55.27,1.68-.87,3.26-2.55,3.52s-3.26-.88-3.52-2.56Z"/>
    <path class="cls-2" d="m64.92,76.77c-.27-1.68.75-3.23,2.56-3.52,1.68-.27,3.25.88,3.52,2.55.27,1.68-.87,3.26-2.55,3.52s-3.26-.88-3.52-2.56Z"/>
    <path class="cls-2" d="m53.41,68.54c1.51-.77,3.3-.29,4.14,1.35.77,1.52.17,3.36-1.34,4.13-1.51.77-3.37.18-4.14-1.34-.77-1.52-.17-3.37,1.34-4.14Z"/>
    <path class="cls-2" d="m54.81,71.36s-.05,0-.07-.04c-.02-.04,0-.09.03-.11.03-.01.05-.02.07-.03,0,.01.02.03.04.06.02.04,0,.08-.03.1h-.04Z"/>
    <path class="cls-2" d="m64.87,72.7c-2.17,0-4.2-.85-5.74-2.38-1.54-1.54-2.38-3.58-2.39-5.74,0-2.17.84-4.21,2.38-5.75,3.17-3.17,8.33-3.18,11.5,0,1.56,1.56,2.43,3.57,2.46,5.65.03,2.15-.85,4.22-2.47,5.85-1.54,1.54-3.58,2.38-5.74,2.38h0Zm0-14.85h0c-1.8,0-3.49.7-4.76,1.97-1.27,1.27-1.97,2.96-1.96,4.75,0,1.79.7,3.48,1.98,4.75,1.27,1.27,2.95,1.97,4.74,1.97h0c1.79,0,3.48-.7,4.75-1.97,1.36-1.36,2.09-3.07,2.06-4.83-.03-1.72-.75-3.38-2.05-4.68-1.27-1.27-2.95-1.97-4.75-1.97Z"/>
    <path class="cls-2" d="m71.83,54.95c-.77,1.51-2.5,2.18-4.14,1.34-1.52-.77-2.11-2.62-1.34-4.13.77-1.51,2.62-2.12,4.14-1.35,1.52.77,2.12,2.62,1.35,4.14Z"/>
    <path class="cls-2" d="m69.05,53.62s-.05-.06-.03-.1l.1-.04s.05.07.04.1c-.01.03-.03.05-.04.06-.02,0-.04-.01-.07-.03Z"/>
    <path class="cls-2" d="m110.41,18.66c-6.13-6.13-13.29-10.86-21.29-14.07-7.61-3.05-15.65-4.59-23.9-4.59-.12,0-.25,0-.37,0-8.39.05-16.57,1.68-24.33,4.86-8.03,3.29-15.24,8.11-21.44,14.3C6.83,31.42.05,47.67,0,64.91c-.03,8.38,1.54,16.54,4.65,24.26,3.22,7.99,7.96,15.15,14.09,21.28,12.06,12.06,28.08,18.68,45.15,18.68.11,0,.22,0,.33,0,17.2-.08,33.42-6.88,45.68-19.15,6.66-6.66,11.76-14.16,15.15-22.28,3.25-7.79,4.86-15.94,4.77-24.25-.16-16.53-7.06-32.44-19.41-44.8Zm13.53,67.03c-.69-.83-1.58-1.62-1.85-1.87-.22-.21-.69-.27-.54.16.37,1.04.85,2.04,1.43,2.98.08.12.16.27.27.42-1.15,2.7-2.49,5.34-4.03,7.91-.45-.81-1.03-1.58-1.58-2.24-.41-.49-.48.18-.44.48.05.34.17.66.26.99.16.62.36,1.22.59,1.81.06.15.12.33.21.51-1.58,2.47-3.33,4.87-5.26,7.18-.37-1.02-.94-2.07-1.11-2.4-.11-.22-.54-.47-.54-.05,0,1.14.11,2.29.34,3.41.03.13.06.28.1.44-1,1.14-2.05,2.25-3.14,3.34-1.06,1.06-2.15,2.07-3.27,3.05-.14-.9-.37-1.79-.68-2.65-.1-.28-.41-.33-.48-.01-.2.96-.28,1.95-.26,2.93,0,.24-.01.58.02.92-2.37,1.94-4.85,3.69-7.41,5.24,0-.23-.02-.42-.02-.55-.02-.7,0-1.47-.2-2.14-.3-.98-.78.79-.85,1.04-.23.8-.48,1.71-.5,2.57-2.68,1.52-5.45,2.82-8.28,3.92.17-.91.27-1.84.25-2.76,0-.08-.04-.15-.11-.19-.11-.07-.25-.03-.32.07-.67,1.08-1.17,2.29-1.52,3.51-2.91,1.03-5.88,1.84-8.89,2.43.39-1.08.63-2.3.69-2.68.05-.35-.34-.26-.48-.09-.8.94-1.49,1.99-2.03,3.1-3.02.5-6.06.79-9.11.85.54-.95.96-2.03,1.09-2.38.06-.18.07-.48-.22-.42-.1.02-.18.1-.26.17-.66.61-1.32,1.22-1.9,1.91-.15.19-.39.45-.59.74-3.07-.03-6.13-.28-9.17-.75.27-.33.5-.64.62-.81.13-.17,1.3-1.84.76-1.82-.08,0-.15.04-.22.08-1.09.61-2.09,1.37-2.99,2.24-3.02-.56-6.01-1.35-8.94-2.36.71-.57,1.35-1.26,1.9-1.92.26-.31.04-.52-.3-.4-.88.3-1.72.7-2.52,1.17-.22.13-.54.29-.84.5-2.85-1.08-5.63-2.38-8.32-3.9.82-.45,1.58-1.03,2.24-1.62.3-.27,0-.44-.29-.39-1.07.17-2.13.45-3.12.88-.13.06-.28.12-.43.19-2.62-1.59-5.15-3.38-7.56-5.39.89-.3,1.76-.75,2.52-1.19.27-.16.2-.45-.13-.46-.96-.02-1.92.06-2.86.24-.24.05-.6.09-.94.19-.94-.83-1.86-1.69-2.76-2.59-1.29-1.29-2.51-2.62-3.67-4,.88-.14,1.77-.4,2.55-.68.66-.23.15-.53-.27-.6-.65-.11-1.3-.17-1.96-.19-.47-.01-1.01-.05-1.51.02-1.92-2.42-3.64-4.96-5.16-7.61.92.02,1.87-.1,2.72-.24.37-.06.46-.36.06-.51-.9-.34-1.83-.59-2.78-.74-.24-.04-.57-.11-.9-.14-1.45-2.71-2.69-5.51-3.72-8.4.9.18,1.85.23,2.71.24.35,0,.6-.24.2-.48-.81-.49-1.67-.89-2.56-1.19-.24-.08-.59-.23-.94-.32-.93-2.88-1.65-5.84-2.15-8.86.86.36,1.8.61,2.63.7.47.05.39-.27.12-.54-.52-.5-1.12-.91-1.73-1.29-.4-.24-.84-.55-1.3-.74-.39-2.87-.59-5.79-.58-8.74,0-.12,0-.24,0-.37.76.46,1.57.83,2.39,1.16.29.12.75.04.42-.36-.77-.93-1.71-1.95-2.77-2.6.11-3.06.44-6.08.98-9.05.73.65,1.58,1.2,2.38,1.64.32.18.35-.24.24-.43-.44-.8-.96-1.54-1.56-2.23-.18-.2-.42-.53-.7-.8.64-2.98,1.48-5.9,2.54-8.74.74.91,1.73,1.78,2.04,2.03.29.23.39-.17.32-.37-.3-.87-.69-1.71-1.16-2.5-.13-.22-.31-.57-.53-.87,1.13-2.78,2.46-5.49,3.99-8.09.58,1.02,1.41,2.06,1.66,2.35.25.29.41-.11.37-.32-.15-.92-.39-1.83-.73-2.7-.09-.23-.2-.59-.36-.91,1.59-2.55,3.38-5,5.35-7.33.17.48.38.95.58,1.4.17.37.34.83.59,1.14.19.23.46.22.46-.16.02-.96-.07-1.91-.26-2.85-.05-.23-.09-.58-.18-.91.8-.89,1.62-1.77,2.48-2.62,1.29-1.29,2.63-2.52,4-3.67.09.51.22.98.27,1.2.12.47.24,1.02.47,1.45.2.37.41.25.49-.14.18-.93.26-1.87.23-2.81,0-.23,0-.56-.02-.88,2.41-1.92,4.92-3.63,7.52-5.15,0,.15,0,.29,0,.42,0,.77.08,1.57.22,2.32.05.26.33.44.45.13.36-.92.63-1.88.82-2.85.05-.25.12-.59.13-.93,2.67-1.45,5.42-2.7,8.23-3.74-.16.84-.21,1.72-.23,2.53,0,.31.18.81.48.31.64-1.08,1.14-2.24,1.47-3.45,2.9-.98,5.85-1.75,8.83-2.3-.3.78-.5,1.61-.65,2.38-.07.35.03.89.42.43.81-.95,1.49-2,2.03-3.12,3.02-.47,6.06-.71,9.11-.74-.49.81-.87,1.72-1.16,2.55-.05.16.08.33.25.3.09-.02.17-.08.24-.14.89-.77,1.88-1.67,2.53-2.7,3.05.06,6.09.34,9.11.84-.72.85-1.35,1.89-1.53,2.22-.06.1-.1.34,0,.42.12.09.31-.05.42-.12,1.01-.57,2.12-1.3,2.92-2.19,2.99.59,5.94,1.4,8.83,2.42-.86.72-1.68,1.65-1.92,1.95-.13.16-.18.39.09.42.1.01.2-.02.3-.06,1.09-.4,2.31-.93,3.26-1.67,2.82,1.1,5.57,2.41,8.24,3.94-.8.45-1.56,1.02-2.22,1.57-.24.2-.16.51.17.46,1.19-.2,2.54-.5,3.64-1.09,2.55,1.57,5.01,3.33,7.36,5.3-.88.3-1.74.74-2.49,1.18-.29.17-.24.47.1.47,1.21.02,2.6-.05,3.79-.44.89.8,1.77,1.62,2.63,2.48,1.32,1.32,2.57,2.69,3.76,4.09-.88.14-1.77.41-2.56.68-.24.08-.53.42-.13.51.95.19,1.92.28,2.88.27.25,0,.63.01,1-.02,1.94,2.42,3.7,4.94,5.25,7.55-1.13,0-2.35.19-2.72.25-.24.04-.45.33-.14.45.89.35,1.81.61,2.76.76.26.04.66.14,1.04.16,1.5,2.69,2.79,5.46,3.86,8.3-1.09-.19-2.31-.22-2.69-.22-.28,0-.53.24-.22.43.8.49,1.66.9,2.55,1.21.25.09.62.25.99.34,1.01,2.94,1.79,5.95,2.34,9-.86-.32-1.74-.57-2.64-.74-.35-.07-.47.22-.22.44.9.78,2,1.61,3.15,2.07.39,2.65.61,5.34.63,8.04,0,.35,0,.71,0,1.06-.96-.56-2.09-1-2.44-1.15-.08-.03-.16-.07-.25-.07-.38,0-.17.43-.03.58.6.65,1.21,1.3,1.89,1.87.2.16.48.42.78.62-.12,3.01-.48,6-1.06,8.95-.83-.7-1.84-1.32-2.15-1.53-.26-.17-.75-.16-.51.25.56.98,1.22,1.89,1.97,2.73.09.1.19.22.31.33-.66,2.9-1.55,5.76-2.64,8.57Z"/>
    <path class="cls-2" d="m115.44,54.79c-.14-.69-.79-.55-1.22-.47l-4.99,1.03c-.32.07-.66.14-1.01.21,0,0,0,0,0,0-7.14,1.47-18.49,3.82-24.3,5.02,0,0,0,0,0,0l-3.69.76c-.12.03-.21-.02-.26-.05-.04-.03-.12-.1-.15-.22,0-.04,0-.09,0-.13.02-.1.08-.2.18-.25.02-.01.04-.02.06-.03l3.6-1.16s.01,0,.02,0c1.5-.48,3.37-1.08,5.44-1.75l7.63-2.45c4.17-1.34,8.35-2.68,11.47-3.69l4.84-1.56c.41-.13,1.04-.34.82-1.01-2.59-7.74-6.97-14.73-13.02-20.77-.4-.4-.81-.8-1.22-1.18-.14-.13-.32-.2-.51-.19-.29.01-.37.1-.76.52l-3.43,3.78c-.21.23-.43.48-.66.72,0,0,0,0,0,0-6.46,7.14-17.98,19.87-19.16,21.18l-.1.11c-.06.07-.15.11-.24.11-.09,0-.18-.02-.25-.09-.03-.03-.06-.06-.08-.1-.03-.06-.04-.12-.04-.18,0-.06.03-.12.07-.18l2.44-3.35s0,0,0-.01c2.79-3.84,7.48-10.29,11.41-15.69,1.34-1.84,2.59-3.56,3.64-5.02l3.01-4.14c.25-.35.64-.88.08-1.3-7.18-5.31-15.69-8.65-24.61-9.66-.19-.02-.37.03-.52.15-.23.18-.24.3-.3.87l-.55,5.07c-.3,2.75-.67,6.27-1.06,9.92-.62,5.75-1.26,11.8-1.67,15.62,0,0,0,0,0,0l-.42,3.9v.03s-.01.05-.02.07c0,0,0,.01,0,.02,0,.01-.01.03-.02.04,0,0,0,.01-.01.02,0,.01-.02.02-.03.04,0,0,0,.01-.01.02-.01.01-.02.02-.03.03,0,0-.01.01-.02.02,0,0-.01,0-.02.01,0,0-.02.01-.03.01,0,0-.02,0-.03.01,0,0-.02,0-.03,0-.01,0-.03,0-.04,0,0,0-.02,0-.02,0-.02,0-.04,0-.06,0,0,0-.02,0-.02,0-.01,0-.03,0-.04,0,0,0-.01,0-.02,0-.13-.05-.23-.21-.23-.38h0v-3.89s0,0,0,0c0-1.58,0-3.55,0-5.73v-7.92c0-4.39,0-8.77,0-12.06v-5.09c0-.44,0-1.1-.71-1.1-9.13.03-18.09,2.49-25.92,7.11-.6.36-.26.93-.04,1.3l2.63,4.39c1.7,2.84,3.96,6.63,6.23,10.41l3.09,5.17c1.49,2.49,2.85,4.76,3.89,6.51,0,0,0,0,0,.01l2.06,3.45s.04.08.04.12c0,.02,0,.04,0,.06,0,.08-.03.16-.09.23-.01.02-.03.03-.05.04-.07.06-.15.07-.21.07-.02,0-.04,0-.05,0-.01,0-.03,0-.05-.01-.05-.02-.12-.05-.18-.12l-.03-.05c-.68-.91-11.37-15.09-17.31-22.96,0,0,0,0-.01-.01-.2-.26-.39-.51-.57-.76l-3.08-4.09c-.34-.45-.41-.55-.7-.59-.19-.03-.37.02-.52.14-1.85,1.41-3.64,2.96-5.3,4.63-4.63,4.63-8.28,10-10.84,15.96-.28.64.33.91.73,1.08l4.66,2.01c.3.13.62.27.94.41,0,0,0,0,.01,0l17.05,7.35,5.77,2.49s0,0,0,0l3.32,1.43c.1.04.17.13.2.23.02.06.01.13,0,.19-.04.12-.12.18-.17.2-.04.02-.1.04-.18.04-.01,0-.03,0-.04,0-.02,0-.03,0-.05,0l-3.41-1.06s0,0,0,0c-3.26-1.01-8.42-2.61-13.55-4.19-4.08-1.26-8.14-2.52-11.2-3.46l-4.84-1.5c-.54-.17-.66-.2-.92-.06-.16.09-.29.24-.34.42-2.5,8.38-2.8,17.34-.89,25.89.15.68.79.54,1.21.45l4.92-1.06c3.18-.69,7.42-1.6,11.66-2.52l1.91-.41c6.23-1.35,12.11-2.62,14.22-3.07l.11-.02c.09-.02.18-.04.26-.06l.46-.1c.17-.04.34.06.4.23.04.12,0,.22-.02.26,0,.01-.01.03-.02.04-.03.05-.09.1-.18.13,0,0-.06.02-.18.06l-2.92.97s0,0,0,0c-2.65.88-6.7,2.22-10.97,3.63l-2.36.78c-4.11,1.36-8.22,2.72-11.3,3.75l-4.77,1.58c-.54.18-.65.22-.78.48-.08.17-.09.36-.03.54,2.55,7.33,6.65,13.85,12.18,19.37.65.65,1.33,1.3,2.01,1.91.14.12.32.19.5.18.29-.01.37-.1.75-.52l3.36-3.72c2.17-2.4,5.06-5.61,7.96-8.81l3.85-4.26c2.18-2.42,4.16-4.61,5.57-6.17,0,0,0,0,0,0l2.16-2.39c.07-.08.18-.12.28-.11.06,0,.12.03.18.07.03.02.05.04.06.06.05.06.07.13.08.17,0,.05,0,.15-.05.24,0,0,0,0,0,.01l-1.87,2.58s0,0,0,0c-1.78,2.46-4.62,6.37-7.54,10.39l-.71.98c-2.53,3.49-5.06,6.98-6.96,9.6l-2.94,4.05c-.33.46-.4.55-.35.84.03.19.13.35.29.46,7.08,5.03,15.38,8.18,24.03,9.11.69.07.77-.58.81-1.01l.55-4.97c.34-3.07.79-7.12,1.24-11.22.61-5.5,1.22-11.08,1.59-14.46,0,0,0,0,0,0l.35-3.21s.01-.06.02-.08c.03-.07.08-.12.11-.15.04-.03.13-.09.26-.07.04,0,.08.02.12.04.11.06.18.17.18.31v3.22s0,0,0,.01c0,3.04-.02,7.85-.04,12.8v1.17c0,1.37-.01,2.75-.01,4.09,0,2.39-.01,4.67-.02,6.64,0,0,0,0,0,0,0,.38,0,.75,0,1.1v4.99c-.01.56-.01.68.19.88.13.13.31.21.5.21h0c8.8-.06,17.47-2.39,25.07-6.76.16-.09.28-.24.33-.42.08-.28.02-.39-.26-.87l-2.49-4.32c-1.61-2.79-3.76-6.52-5.91-10.24l-2.73-4.73c-1.64-2.84-3.14-5.43-4.21-7.28,0,0,0,0,0,0l-1.66-2.88c-.09-.15-.05-.35.1-.45.1-.07.2-.07.26-.06.01,0,.03,0,.05.01.05.02.12.05.18.13,0,0,.02.03.06.08l.22.31,1.69,2.31s0,0,0,0l8.16,11.18c2.54,3.47,5.07,6.94,6.98,9.55l2.95,4.03c.33.45.4.55.69.59.18.03.37-.02.52-.13,2.08-1.53,4.06-3.24,5.9-5.08,4.42-4.42,7.99-9.35,10.59-14.64.08-.17.1-.37.03-.55q-.1-.28-1.6-.95l-3.23-1.43c-.46-.2-.95-.42-1.45-.64,0,0,0,0,0,0-8.36-3.7-22.62-10.01-22.62-10.01l-3.25-1.44c-.1-.05-.17-.13-.2-.23-.02-.06-.01-.13,0-.19,0,0,0,0,0,0,.04-.12.12-.18.17-.2.05-.02.15-.06.26-.02,0,0,0,0,.02,0l3.5,1.12s0,0,0,0c5.61,1.8,16.66,5.33,23.6,7.55,0,0,0,0,.01,0,.33.11.65.21.96.31l4.83,1.54c.43.14,1.02.32,1.25-.32,2.93-8.31,3.54-17.27,1.76-25.9Zm-9.04,22.81c-6.69-2.14-16.66-5.33-22.26-7.12.91-2.8,1.17-5.76.74-8.66.11-.02.21-.04.32-.07.07-.02.15-.03.23-.05,5.86-1.21,15.72-3.25,22.4-4.63,1.29,6.85.8,13.92-1.42,20.52Zm-20.55-34.22c.14-.16.29-.32.43-.47.21-.23.42-.46.62-.69,2.79-3.08,5.65-6.24,7.96-8.79.15.15.31.3.46.45,4.95,4.95,8.59,10.65,10.81,16.94-6.69,2.15-16.63,5.34-22.24,7.15-.98-2.67-2.57-5.17-4.62-7.31,1.77-1.96,4.12-4.55,6.59-7.28Zm13.36-14.76c.23.22.45.44.67.66,5.72,5.72,9.9,12.29,12.45,19.55-.9.29-2.64.85-4.86,1.56-2.29-6.5-6.04-12.39-11.15-17.51-.17-.17-.34-.34-.51-.5,1.56-1.72,2.78-3.07,3.41-3.76Zm-55.93-1.78c6.26-3.55,13.34-5.49,20.57-5.63,0,6.99,0,17.4,0,23.32-3,.14-5.94.96-8.57,2.38-3.07-5.14-8.42-14.08-12-20.08Zm26.13,3.29c.33-3.05.65-6.04.92-8.57,7.06.92,13.79,3.57,19.55,7.69-.88,1.21-1.85,2.55-2.87,3.95-3.7,5.09-8.02,11.04-10.79,14.85-2.5-1.73-5.37-2.87-8.37-3.32.4-3.76,1-9.29,1.57-14.61Zm1.61-15.02c8.19,1.04,16,4.11,22.67,8.9-.55.75-1.61,2.22-2.98,4.11-5.96-4.27-12.93-7.01-20.23-7.95.25-2.32.44-4.12.54-5.05Zm-31.07,6.16c7.26-4.15,15.49-6.4,23.89-6.55,0,.94,0,2.75,0,5.08-7.48.14-14.81,2.15-21.29,5.83-1.19-2-2.13-3.56-2.61-4.36Zm-4.9,29.85c-3.51-1.52-7.06-3.04-9.97-4.3,2.15-4.8,5.14-9.13,8.9-12.89,1.23-1.23,2.54-2.39,3.9-3.46,4.21,5.58,10.49,13.91,14.09,18.69-.47.39-.93.81-1.36,1.24-1.67,1.67-3.01,3.59-4,5.71l-11.57-4.99Zm-15.94-6.87c2.47-5.54,5.92-10.54,10.26-14.88,1.45-1.45,3-2.82,4.6-4.07.56.75,1.66,2.2,3.06,4.06-1.41,1.11-2.77,2.31-4.05,3.59-3.89,3.89-6.98,8.37-9.19,13.33-2.15-.93-3.82-1.65-4.68-2.02Zm16.3,26.34c-4.52.98-9.36,2.02-13.17,2.85-1.42-6.79-1.19-13.86.66-20.52,2.97.92,6.58,2.03,10.17,3.14,4.59,1.42,9.14,2.83,12.26,3.79-.68,2.82-.74,5.78-.17,8.64-2.53.55-6.03,1.3-9.74,2.11Zm-19.55,4.22c-1.65-7.88-1.37-16.09.81-23.82.9.28,2.64.82,4.88,1.51-1.92,6.9-2.16,14.21-.69,21.24-2.3.5-4.09.88-5.01,1.08Zm19.38,21.58c-.4-.37-.8-.75-1.19-1.14-4.49-4.49-7.86-9.74-10.04-15.63,5.99-1.99,14.58-4.83,20.22-6.7.74-.24,1.43-.47,2.05-.68,1.01,2.44,2.47,4.63,4.36,6.52.09.09.18.18.27.27-3.8,4.21-10.91,12.08-15.68,17.36Zm-4.37,4.84c-.49-.45-.97-.91-1.44-1.39-5.21-5.21-9.11-11.32-11.61-18.17.9-.3,2.64-.88,4.87-1.62,2.25,6.1,5.73,11.54,10.37,16.18.41.41.82.81,1.24,1.19-1.57,1.74-2.8,3.1-3.43,3.8Zm29.35-2.54c-.35,3.16-.69,6.28-.98,8.91-6.8-.86-13.33-3.34-18.97-7.2,1.91-2.63,4.25-5.86,6.54-9.02,2.73-3.76,5.39-7.44,7.2-9.92,2.36,1.51,5.03,2.52,7.8,2.94-.39,3.53-.99,8.98-1.58,14.29Zm-1.7,15.36c-7.92-.97-15.53-3.85-22.09-8.37.55-.76,1.63-2.25,3-4.15,5.84,4.01,12.6,6.58,19.65,7.46-.26,2.32-.46,4.13-.56,5.06Zm16.27-29.92c2.96,5.12,7.51,13.01,10.67,18.48-6.06,3.33-12.88,5.16-19.82,5.31.02-7.09.05-17.66.06-23.32,2.83-.13,5.61-.85,8.13-2.13.29.51.61,1.06.95,1.65Zm13.9,24.07c-7.04,3.91-14.99,6.05-23.06,6.21,0-.94,0-2.76.01-5.08,7.19-.16,14.26-2.05,20.53-5.5,1.15,2,2.05,3.56,2.52,4.37Zm-6.15-34.09c1.96.87,8.48,3.75,14.73,6.52.63.28,1.25.55,1.87.83.03.01.06.03.09.04,1.64.73,3.23,1.43,4.67,2.07-2.17,4.2-5.06,8.12-8.6,11.67-1.4,1.4-2.89,2.7-4.45,3.89-4.15-5.68-10.33-14.14-13.69-18.74.64-.5,1.25-1.04,1.83-1.62,1.42-1.42,2.62-2.98,3.56-4.64Zm27.27,12.07c-2.5,4.91-5.87,9.48-10,13.62-1.62,1.62-3.36,3.14-5.17,4.52-.55-.75-1.61-2.2-2.97-4.06,1.61-1.23,3.16-2.58,4.61-4.03,3.67-3.67,6.66-7.74,8.9-12.09,2.1.93,3.76,1.67,4.63,2.05Zm-31.21-16.93c-.42.21-.72.58-.87,1.03-.27.85.14,1.77.96,2.13l2.55,1.13c-.87,1.5-1.96,2.92-3.26,4.22-.53.53-1.09,1.02-1.66,1.48-.97-1.33-1.56-2.13-1.56-2.13-.28-.38-.68-.63-1.15-.7-.06,0-.12-.02-.17-.02-.06,0-.11,0-.17,0-.34.01-.67.13-.96.34-.72.53-.93,1.52-.48,2.29,0,0,0,0,0,.02,0,.01.02.03.03.06.01.02.02.04.04.07.17.29.6,1.04,1.22,2.11-2.3,1.15-4.84,1.81-7.42,1.94,0-.82,0-1.47,0-1.9,0-.15,0-.28,0-.37,0-.07,0-.13,0-.17,0-.03,0-.05,0-.05,0-.17-.02-.33-.07-.49-.19-.67-.77-1.18-1.49-1.26-.07,0-.13-.01-.19-.01h0c-.25,0-.49.05-.71.15-.13.06-.26.14-.38.23-.09.07-.17.15-.25.24-.18.22-.31.48-.37.76-.01.06-.02.11-.03.17,0,0-.03.28-.09.78,0,0,0,0,0,0-.01.11-.03.24-.04.37,0,.02,0,.05,0,.07,0,.04,0,.09-.01.13-.02.16-.04.34-.06.53,0,.02,0,.04,0,.06-.02.17-.04.35-.06.54-2.53-.39-4.97-1.31-7.12-2.69.71-.98,1.2-1.65,1.37-1.89.03-.04.05-.07.06-.09,0,0,0,0,0-.01.28-.38.39-.84.31-1.3,0-.06-.02-.11-.04-.17-.1-.39-.33-.73-.66-.97-.68-.5-1.6-.44-2.21.12-.04.04-.08.08-.12.12,0,0,0,0-.01.02-.02.03-.08.09-.18.2-.01.01-.02.03-.04.04-.27.3-.77.85-1.45,1.61-.07-.07-.15-.14-.22-.22-1.73-1.74-3.08-3.74-4.02-5.97,1.28-.42,2.12-.7,2.34-.77,0,0,0,0,.01,0,.02,0,.04-.01.04-.01.44-.15.81-.46,1.02-.88.21-.42.25-.89.1-1.34-.18-.53-.58-.93-1.08-1.1,0,0,0,0,0,0-.05-.02-.1-.03-.15-.04,0,0-.02,0-.03,0-.04-.01-.09-.02-.13-.03,0,0-.02,0-.03,0-.2-.03-.41-.02-.62.02l-2.57.56c-.52-2.62-.47-5.33.14-7.92,1.34.41,2.26.7,2.58.8.02,0,.04.01.05.02.04.01.07.02.07.02.06.02.11.03.17.04.11.02.23.04.34.04.28,0,.57-.07.83-.2.41-.22.72-.58.86-1.03.1-.32.1-.65.02-.96-.13-.51-.49-.95-1-1.17l-2.67-1.15c.91-1.95,2.16-3.73,3.7-5.27.38-.38.79-.76,1.21-1.11l1.96,2.6s.02.02.02.02c.28.37.69.62,1.16.68.46.06.92-.05,1.3-.34.18-.14.33-.3.44-.48.06-.09.1-.19.14-.28.19-.49.16-1.06-.13-1.53,0,0-.65-1.08-1.69-2.83,2.41-1.29,5.1-2.04,7.85-2.18,0,1.6,0,2.7,0,3.05h0s0,.05,0,.07,0,.03,0,.04h0v.06c0,.76.48,1.4,1.15,1.64.02,0,.04.01.06.02.02,0,.05.01.07.02.03,0,.06.02.09.02.02,0,.04,0,.06.01.02,0,.04,0,.07.01.01,0,.02,0,.03,0,.03,0,.06,0,.08,0,.03,0,.06,0,.1,0,0,0,.02,0,.03,0,.02,0,.03,0,.05,0,.03,0,.06,0,.09,0,.02,0,.05,0,.07,0,.03,0,.06,0,.09-.01.02,0,.05-.01.07-.02.02,0,.05,0,.07-.02,0,0,.01,0,.02,0,.03,0,.05-.02.08-.03.03,0,.05-.02.08-.03.05-.02.1-.04.15-.07,0,0,0,0,0,0,.05-.03.1-.05.15-.08,0,0,0,0,.01,0,.04-.03.09-.06.13-.09,0,0,0,0,0,0,0,0,.01-.01.02-.02.03-.03.07-.06.1-.09.01-.01.03-.03.04-.04.02-.02.05-.05.07-.08.02-.02.03-.04.05-.06.02-.02.03-.04.05-.07.02-.02.03-.05.05-.07.01-.02.03-.04.04-.06.02-.03.03-.06.05-.08.01-.02.02-.04.03-.06.01-.03.03-.06.04-.09,0-.02.02-.04.02-.06.01-.03.02-.06.03-.09,0-.03.02-.06.02-.08,0-.03.01-.05.02-.08.01-.05.02-.11.03-.16,0,0,0,0,0,0,0,0,0-.03,0-.09.03-.32.16-1.45.33-3.12,2.76.43,5.4,1.47,7.7,3.06-1,1.37-1.69,2.32-1.93,2.65-.06.08-.09.13-.09.13-.53.72-.43,1.73.24,2.33.04.04.09.08.14.11.71.52,1.73.43,2.33-.24l2.24-2.48c1.87,1.96,3.32,4.26,4.23,6.69-.88.28-1.6.51-2.1.67-.03,0-.05.02-.08.02-.05.02-.1.03-.15.05-.25.08-.42.14-.52.17-.01,0-.03,0-.04.01-.02,0-.03.01-.04.01-.85.27-1.36,1.14-1.18,2.02.1.46.36.85.75,1.11.39.26.86.35,1.32.25,0,0,.02,0,.04,0,0,0,.02,0,.03,0h.02s.06-.02.1-.02h0s0,0,0,0l.72-.15s0,0,0,0l1.96-.41s.06-.01.09-.02c.38,2.66.14,5.39-.7,7.95-1.12-.36-1.96-.63-2.44-.78-.17-.05-.29-.09-.36-.12,0,0,0,0-.01,0-.01,0-.02,0-.03-.01h-.03c-.45-.15-.92-.11-1.34.1Zm33.99,10.33c-.88-.28-2.62-.84-4.84-1.55,2.29-6.84,2.79-14.15,1.46-21.24,2.3-.47,4.09-.84,5.01-1.03,1.52,7.95.96,16.15-1.62,23.82Z"/>
  </g>
</svg>