<?xml version="1.0" encoding="UTF-8"?>
<svg id="Layer_1" data-name="Layer 1" xmlns="http://www.w3.org/2000/svg" viewBox="0 0 46.26 115.54">
  <defs>
    <style>
      .cls-1 {
        fill: #fff;
        stroke: #00a651;
        stroke-miterlimit: 10;
        stroke-width: 1.32px;
      }

      .cls-2 {
        fill: #00a651;
      }
    </style>
  </defs>
  <path class="cls-1" d="m35.28,114.88H10.97c-.48,0-.95-.03-1.42-.1-5.07-.7-8.89-5.09-8.89-10.22V10.97c0-3.4,1.68-6.58,4.48-8.51.44-.3.9-.57,1.39-.8,1.39-.67,2.89-1,4.44-1h24.31c.49,0,.97.03,1.43.1.78.11,1.55.31,2.28.59,3.95,1.52,6.6,5.39,6.6,9.63v93.59c0,5.69-4.63,10.31-10.31,10.31Z"/>
  <g>
    <path class="cls-2" d="m39.96,13.36c-.07,0-.14-.01-.21-.03l-16.53-5.56L6.5,13.3c-.35.11-.72-.07-.83-.42-.11-.35.07-.72.42-.83l17.14-5.68,16.94,5.7c.35.12.53.49.41.84-.09.28-.35.45-.63.45Z"/>
    <path class="cls-2" d="m39.96,18.99c-.07,0-.14-.01-.21-.03l-16.53-5.56-16.73,5.54c-.35.11-.72-.07-.83-.42-.11-.35.07-.72.42-.83l17.14-5.68,16.94,5.7c.35.12.53.49.41.84-.09.28-.35.45-.63.45Z"/>
    <path class="cls-2" d="m39.96,24.63c-.07,0-.14-.01-.21-.03l-16.53-5.56-16.73,5.54c-.35.11-.72-.07-.83-.42-.11-.35.07-.72.42-.83l17.14-5.68,16.94,5.7c.35.12.53.49.41.84-.09.28-.35.45-.63.45Z"/>
    <path class="cls-2" d="m39.96,30.26c-.07,0-.14-.01-.21-.03l-16.53-5.56-16.73,5.54c-.35.11-.72-.07-.83-.42-.11-.35.07-.72.42-.83l17.14-5.68,16.94,5.7c.35.12.53.49.41.84-.09.28-.35.45-.63.45Z"/>
    <path class="cls-2" d="m39.96,35.89c-.07,0-.14-.01-.21-.03l-16.53-5.56-16.73,5.54c-.35.11-.72-.07-.83-.42-.11-.35.07-.72.42-.83l17.14-5.68,16.94,5.7c.35.12.53.49.41.84-.09.28-.35.45-.63.45Z"/>
    <path class="cls-2" d="m39.96,41.53c-.07,0-.14-.01-.21-.03l-16.53-5.56-16.73,5.54c-.35.11-.72-.07-.83-.42-.11-.35.07-.72.42-.83l17.14-5.68,16.94,5.7c.35.12.53.49.41.84-.09.28-.35.45-.63.45Z"/>
    <path class="cls-2" d="m39.96,47.16c-.07,0-.14-.01-.21-.03l-16.53-5.56-16.73,5.54c-.35.11-.72-.07-.83-.42-.11-.35.07-.72.42-.83l17.14-5.68,16.94,5.7c.35.12.53.49.41.84-.09.28-.35.45-.63.45Z"/>
    <path class="cls-2" d="m39.96,52.79c-.07,0-.14-.01-.21-.03l-16.53-5.56-16.73,5.54c-.35.11-.72-.07-.83-.42-.11-.35.07-.72.42-.83l17.14-5.68,16.94,5.7c.35.12.53.49.41.84-.09.28-.35.45-.63.45Z"/>
    <path class="cls-2" d="m39.96,58.43c-.07,0-.14-.01-.21-.03l-16.53-5.56-16.73,5.54c-.35.11-.72-.07-.83-.42-.11-.35.07-.72.42-.83l17.14-5.68,16.94,5.7c.35.12.53.49.41.84-.09.28-.35.45-.63.45Z"/>
    <path class="cls-2" d="m39.96,64.06c-.07,0-.14-.01-.21-.03l-16.53-5.56-16.73,5.54c-.35.11-.72-.07-.83-.42-.11-.35.07-.72.42-.83l17.14-5.68,16.94,5.7c.35.12.53.49.41.84-.09.28-.35.45-.63.45Z"/>
    <path class="cls-2" d="m39.96,69.7c-.07,0-.14-.01-.21-.03l-16.53-5.56-16.73,5.54c-.35.11-.72-.07-.83-.42-.11-.35.07-.72.42-.83l17.14-5.68,16.94,5.7c.35.12.53.49.41.84-.09.28-.35.45-.63.45Z"/>
    <path class="cls-2" d="m39.96,75.33c-.07,0-.14-.01-.21-.03l-16.53-5.56-16.73,5.54c-.35.11-.72-.07-.83-.42-.11-.35.07-.72.42-.83l17.14-5.68,16.94,5.7c.35.12.53.49.41.84-.09.28-.35.45-.63.45Z"/>
    <path class="cls-2" d="m39.96,80.96c-.07,0-.14-.01-.21-.03l-16.53-5.56-16.73,5.54c-.35.11-.72-.07-.83-.42-.11-.35.07-.72.42-.83l17.14-5.68,16.94,5.7c.35.12.53.49.41.84-.09.28-.35.45-.63.45Z"/>
    <path class="cls-2" d="m39.96,86.6c-.07,0-.14-.01-.21-.03l-16.53-5.56-16.73,5.54c-.35.11-.72-.07-.83-.42-.11-.35.07-.72.42-.83l17.14-5.68,16.94,5.7c.35.12.53.49.41.84-.09.28-.35.45-.63.45Z"/>
    <path class="cls-2" d="m39.96,92.23c-.07,0-.14-.01-.21-.03l-16.53-5.56-16.73,5.54c-.35.11-.72-.07-.83-.42-.11-.35.07-.72.42-.83l17.14-5.68,16.94,5.7c.35.12.53.49.41.84-.09.28-.35.45-.63.45Z"/>
    <path class="cls-2" d="m39.96,97.87c-.07,0-.14-.01-.21-.03l-16.53-5.56-16.73,5.54c-.35.11-.72-.07-.83-.42-.11-.35.07-.72.42-.83l17.14-5.68,16.94,5.7c.35.12.53.49.41.84-.09.28-.35.45-.63.45Z"/>
    <path class="cls-2" d="m39.96,103.5c-.07,0-.14-.01-.21-.03l-16.53-5.56-16.73,5.54c-.35.11-.72-.07-.83-.42-.11-.35.07-.72.42-.83l17.14-5.68,16.94,5.7c.35.12.53.49.41.84-.09.28-.35.45-.63.45Z"/>
    <path class="cls-2" d="m39.96,109.13c-.07,0-.14-.01-.21-.03l-16.53-5.56-16.73,5.54c-.35.11-.72-.07-.83-.42-.11-.35.07-.72.42-.83l17.14-5.68,16.94,5.7c.35.12.53.49.41.84-.09.28-.35.45-.63.45Z"/>
  </g>
</svg>